M48
; DRILL file {KiCad 9.0.4-9.0.4-0~ubuntu22.04.1} date 2025-10-24T15:54:00-0400
; FORMAT={-:-/ absolute / metric / decimal}
; #@! TF.CreationDate,2025-10-24T15:54:00-04:00
; #@! TF.GenerationSoftware,Kicad,Pcbnew,9.0.4-9.0.4-0~ubuntu22.04.1
; #@! TF.FileFunction,Plated,1,2,PTH
FMAT,2
METRIC
; #@! TA.AperFunction,Plated,PTH,ViaDrill
T1C0.300
; #@! TA.AperFunction,Plated,PTH,ViaDrill
T2C0.400
; #@! TA.AperFunction,Plated,PTH,ComponentDrill
T3C0.950
%
G90
G05
T1
X51.1Y-57.4
X52.0Y-62.0
X57.5Y-41.0
X57.5Y-62.6
X58.3Y-48.6
X60.4Y-75.5
X61.0Y-44.5
X64.2Y-75.1
X68.2Y-40.8
X70.4Y-38.0
X74.5Y-37.2
X74.681Y-38.019
X78.4Y-73.9
X80.0Y-78.8
X82.4Y-41.7
X83.3Y-38.4
X85.1Y-45.9
X85.4Y-68.0
X85.6Y-71.5
X90.0Y-68.2
X93.1Y-50.5
X97.0Y-55.8
T2
X53.6Y-50.6
X54.0Y-47.1
X54.3Y-67.2
X55.8Y-70.2
X56.1Y-49.1
X56.189Y-59.089
X56.2Y-65.2
X56.5Y-50.8
X56.6Y-42.6
X59.6Y-45.6
X63.6Y-71.3
X66.5Y-76.1
X66.8Y-78.0
X73.8Y-33.7
X76.045Y-74.955
X81.2Y-36.1
X81.2Y-38.0
X82.4Y-75.7
X83.85Y-77.15
X85.6Y-42.5
X91.2Y-59.0
X91.2Y-64.7
X92.273Y-63.3
X92.9Y-48.4
X94.25Y-47.05
T3
X62.381Y-38.457
X64.69Y-37.5
X67.0Y-36.543
X69.31Y-35.587
M30
