%TF.GenerationSoftware,KiCad,Pcbnew,9.0.4-9.0.4-0~ubuntu22.04.1*%
%TF.CreationDate,2025-10-24T15:48:00-04:00*%
%TF.ProjectId,Thermistor Ring,54686572-6d69-4737-946f-722052696e67,rev?*%
%TF.SameCoordinates,Original*%
%TF.FileFunction,Legend,Bot*%
%TF.FilePolarity,Positive*%
%FSLAX46Y46*%
G04 Gerber Fmt 4.6, Leading zero omitted, Abs format (unit mm)*
G04 Created by KiCad (PCBNEW 9.0.4-9.0.4-0~ubuntu22.04.1) date 2025-10-24 15:48:00*
%MOMM*%
%LPD*%
G01*
G04 APERTURE LIST*
%ADD10C,0.150000*%
%ADD11C,0.050000*%
G04 APERTURE END LIST*
D10*
X89902731Y-68411665D02*
X90845540Y-70297283D01*
X90845540Y-70297283D02*
X88959922Y-69354474D01*
X88690547Y-69893222D02*
X88555860Y-69893222D01*
X88555860Y-69893222D02*
X88353830Y-69960566D01*
X88353830Y-69960566D02*
X88017112Y-70297283D01*
X88017112Y-70297283D02*
X87949769Y-70499314D01*
X87949769Y-70499314D02*
X87949769Y-70634001D01*
X87949769Y-70634001D02*
X88017112Y-70836031D01*
X88017112Y-70836031D02*
X88151799Y-70970718D01*
X88151799Y-70970718D02*
X88421173Y-71105405D01*
X88421173Y-71105405D02*
X90037417Y-71105405D01*
X90037417Y-71105405D02*
X89161952Y-71980871D01*
X88421173Y-72452275D02*
X88421173Y-72586962D01*
X88421173Y-72586962D02*
X88555860Y-72586962D01*
X88555860Y-72586962D02*
X88555860Y-72452275D01*
X88555860Y-72452275D02*
X88421173Y-72452275D01*
X88421173Y-72452275D02*
X88555860Y-72586962D01*
X86198838Y-72115558D02*
X86064151Y-72250245D01*
X86064151Y-72250245D02*
X85996807Y-72452275D01*
X85996807Y-72452275D02*
X85996807Y-72586962D01*
X85996807Y-72586962D02*
X86064151Y-72788993D01*
X86064151Y-72788993D02*
X86266181Y-73125710D01*
X86266181Y-73125710D02*
X86602899Y-73462428D01*
X86602899Y-73462428D02*
X86939616Y-73664458D01*
X86939616Y-73664458D02*
X87141647Y-73731802D01*
X87141647Y-73731802D02*
X87276334Y-73731802D01*
X87276334Y-73731802D02*
X87478364Y-73664458D01*
X87478364Y-73664458D02*
X87613051Y-73529771D01*
X87613051Y-73529771D02*
X87680395Y-73327741D01*
X87680395Y-73327741D02*
X87680395Y-73193054D01*
X87680395Y-73193054D02*
X87613051Y-72991023D01*
X87613051Y-72991023D02*
X87411021Y-72654306D01*
X87411021Y-72654306D02*
X87074303Y-72317588D01*
X87074303Y-72317588D02*
X86737586Y-72115558D01*
X86737586Y-72115558D02*
X86535555Y-72048214D01*
X86535555Y-72048214D02*
X86400868Y-72048214D01*
X86400868Y-72048214D02*
X86198838Y-72115558D01*
X71725068Y-38967432D02*
X71639748Y-39041430D01*
X71639748Y-39041430D02*
X71474769Y-39109766D01*
X71474769Y-39109766D02*
X71395111Y-39104105D01*
X71395111Y-39104105D02*
X71348448Y-39084777D01*
X71348448Y-39084777D02*
X71288117Y-39032452D01*
X71288117Y-39032452D02*
X71260783Y-38966461D01*
X71260783Y-38966461D02*
X71266444Y-38886802D01*
X71266444Y-38886802D02*
X71285772Y-38840139D01*
X71285772Y-38840139D02*
X71338097Y-38779809D01*
X71338097Y-38779809D02*
X71456412Y-38692144D01*
X71456412Y-38692144D02*
X71508736Y-38631814D01*
X71508736Y-38631814D02*
X71528065Y-38585151D01*
X71528065Y-38585151D02*
X71533726Y-38505493D01*
X71533726Y-38505493D02*
X71506391Y-38439501D01*
X71506391Y-38439501D02*
X71446061Y-38387177D01*
X71446061Y-38387177D02*
X71399398Y-38367849D01*
X71399398Y-38367849D02*
X71319739Y-38362188D01*
X71319739Y-38362188D02*
X71154761Y-38430524D01*
X71154761Y-38430524D02*
X71069441Y-38504521D01*
X70622542Y-39385457D02*
X70669205Y-39404785D01*
X70669205Y-39404785D02*
X70781859Y-39396779D01*
X70781859Y-39396779D02*
X70847851Y-39369444D01*
X70847851Y-39369444D02*
X70933171Y-39295447D01*
X70933171Y-39295447D02*
X70971827Y-39202121D01*
X70971827Y-39202121D02*
X70977489Y-39122462D01*
X70977489Y-39122462D02*
X70955815Y-38976812D01*
X70955815Y-38976812D02*
X70914813Y-38877825D01*
X70914813Y-38877825D02*
X70827149Y-38759510D01*
X70827149Y-38759510D02*
X70766818Y-38707185D01*
X70766818Y-38707185D02*
X70673492Y-38668529D01*
X70673492Y-38668529D02*
X70560838Y-38676535D01*
X70560838Y-38676535D02*
X70494847Y-38703869D01*
X70494847Y-38703869D02*
X70409527Y-38777867D01*
X70409527Y-38777867D02*
X70390198Y-38824530D01*
X70022958Y-39711126D02*
X70352915Y-39574453D01*
X70352915Y-39574453D02*
X70065903Y-38881544D01*
X66817714Y-40280184D02*
X66873756Y-41068764D01*
X66873756Y-41068764D02*
X66355774Y-40471526D01*
X65988534Y-41358122D02*
X66035197Y-41377450D01*
X66035197Y-41377450D02*
X66147851Y-41369444D01*
X66147851Y-41369444D02*
X66213842Y-41342110D01*
X66213842Y-41342110D02*
X66299162Y-41268112D01*
X66299162Y-41268112D02*
X66337819Y-41174786D01*
X66337819Y-41174786D02*
X66343480Y-41095128D01*
X66343480Y-41095128D02*
X66321807Y-40949478D01*
X66321807Y-40949478D02*
X66280805Y-40850490D01*
X66280805Y-40850490D02*
X66193140Y-40732175D01*
X66193140Y-40732175D02*
X66132810Y-40679851D01*
X66132810Y-40679851D02*
X66039484Y-40641194D01*
X66039484Y-40641194D02*
X65926830Y-40649200D01*
X65926830Y-40649200D02*
X65860839Y-40676535D01*
X65860839Y-40676535D02*
X65775519Y-40750532D01*
X65775519Y-40750532D02*
X65756190Y-40797195D01*
X65295624Y-41645134D02*
X65342287Y-41664463D01*
X65342287Y-41664463D02*
X65454941Y-41656457D01*
X65454941Y-41656457D02*
X65520933Y-41629122D01*
X65520933Y-41629122D02*
X65606253Y-41555125D01*
X65606253Y-41555125D02*
X65644910Y-41461799D01*
X65644910Y-41461799D02*
X65650571Y-41382140D01*
X65650571Y-41382140D02*
X65628897Y-41236490D01*
X65628897Y-41236490D02*
X65587896Y-41137503D01*
X65587896Y-41137503D02*
X65500231Y-41019187D01*
X65500231Y-41019187D02*
X65439901Y-40966863D01*
X65439901Y-40966863D02*
X65346575Y-40928206D01*
X65346575Y-40928206D02*
X65233920Y-40936213D01*
X65233920Y-40936213D02*
X65167929Y-40963547D01*
X65167929Y-40963547D02*
X65082609Y-41037545D01*
X65082609Y-41037545D02*
X65063281Y-41084208D01*
X69425068Y-39867432D02*
X69339748Y-39941430D01*
X69339748Y-39941430D02*
X69174769Y-40009766D01*
X69174769Y-40009766D02*
X69095111Y-40004105D01*
X69095111Y-40004105D02*
X69048448Y-39984777D01*
X69048448Y-39984777D02*
X68988117Y-39932452D01*
X68988117Y-39932452D02*
X68960783Y-39866461D01*
X68960783Y-39866461D02*
X68966444Y-39786802D01*
X68966444Y-39786802D02*
X68985772Y-39740139D01*
X68985772Y-39740139D02*
X69038097Y-39679809D01*
X69038097Y-39679809D02*
X69156412Y-39592144D01*
X69156412Y-39592144D02*
X69208736Y-39531814D01*
X69208736Y-39531814D02*
X69228065Y-39485151D01*
X69228065Y-39485151D02*
X69233726Y-39405493D01*
X69233726Y-39405493D02*
X69206391Y-39339501D01*
X69206391Y-39339501D02*
X69146061Y-39287177D01*
X69146061Y-39287177D02*
X69099398Y-39267849D01*
X69099398Y-39267849D02*
X69019739Y-39262188D01*
X69019739Y-39262188D02*
X68854761Y-39330524D01*
X68854761Y-39330524D02*
X68769441Y-39404521D01*
X68745825Y-40187441D02*
X68458812Y-39494531D01*
X68458812Y-39494531D02*
X68293834Y-39562867D01*
X68293834Y-39562867D02*
X68208514Y-39636865D01*
X68208514Y-39636865D02*
X68169857Y-39730191D01*
X68169857Y-39730191D02*
X68164196Y-39809850D01*
X68164196Y-39809850D02*
X68185869Y-39955500D01*
X68185869Y-39955500D02*
X68226871Y-40054487D01*
X68226871Y-40054487D02*
X68314536Y-40172802D01*
X68314536Y-40172802D02*
X68374866Y-40225126D01*
X68374866Y-40225126D02*
X68468192Y-40263783D01*
X68468192Y-40263783D02*
X68580846Y-40255777D01*
X68580846Y-40255777D02*
X68745825Y-40187441D01*
X68003907Y-40262812D02*
X67673950Y-40399485D01*
X68151902Y-40433452D02*
X67633920Y-39836213D01*
X67633920Y-39836213D02*
X67689963Y-40624793D01*
X63969441Y-41604521D02*
X64021765Y-41544191D01*
X64021765Y-41544191D02*
X64120752Y-41503189D01*
X64120752Y-41503189D02*
X64233407Y-41495183D01*
X64233407Y-41495183D02*
X64326733Y-41533840D01*
X64326733Y-41533840D02*
X64387063Y-41586164D01*
X64387063Y-41586164D02*
X64474728Y-41704480D01*
X64474728Y-41704480D02*
X64515729Y-41803467D01*
X64515729Y-41803467D02*
X64537403Y-41949117D01*
X64537403Y-41949117D02*
X64531742Y-42028776D01*
X64531742Y-42028776D02*
X64493085Y-42122101D01*
X64493085Y-42122101D02*
X64407765Y-42196099D01*
X64407765Y-42196099D02*
X64341774Y-42223433D01*
X64341774Y-42223433D02*
X64229119Y-42231440D01*
X64229119Y-42231440D02*
X64182456Y-42212111D01*
X64182456Y-42212111D02*
X64086785Y-41981141D01*
X64086785Y-41981141D02*
X64218768Y-41926472D01*
X63912829Y-42401108D02*
X63625817Y-41708198D01*
X63625817Y-41708198D02*
X63516881Y-42565115D01*
X63516881Y-42565115D02*
X63229868Y-41872205D01*
X63186924Y-42701788D02*
X62899912Y-42008878D01*
X62899912Y-42008878D02*
X62734933Y-42077214D01*
X62734933Y-42077214D02*
X62649613Y-42151212D01*
X62649613Y-42151212D02*
X62610957Y-42244538D01*
X62610957Y-42244538D02*
X62605295Y-42324196D01*
X62605295Y-42324196D02*
X62626969Y-42469846D01*
X62626969Y-42469846D02*
X62667971Y-42568834D01*
X62667971Y-42568834D02*
X62755635Y-42687149D01*
X62755635Y-42687149D02*
X62815966Y-42739473D01*
X62815966Y-42739473D02*
X62909292Y-42778130D01*
X62909292Y-42778130D02*
X63021946Y-42770124D01*
X63021946Y-42770124D02*
X63186924Y-42701788D01*
D11*
G36*
X81100854Y-74835388D02*
G01*
X81100854Y-74818993D01*
X80889432Y-74818993D01*
X80889432Y-74835388D01*
X81100854Y-74835388D01*
G37*
G36*
X80891050Y-74835388D02*
G01*
X80891050Y-74818993D01*
X80679627Y-74818993D01*
X80679627Y-74835388D01*
X80891050Y-74835388D01*
G37*
G36*
X80681245Y-74835388D02*
G01*
X80681245Y-74818993D01*
X80469822Y-74818993D01*
X80469822Y-74835388D01*
X80681245Y-74835388D01*
G37*
G36*
X80471441Y-74835388D02*
G01*
X80471441Y-74818993D01*
X80260018Y-74818993D01*
X80260018Y-74835388D01*
X80471441Y-74835388D01*
G37*
G36*
X80245577Y-74801407D02*
G01*
X80105366Y-74544464D01*
X80066440Y-74544464D01*
X80205964Y-74801407D01*
X80245577Y-74801407D01*
G37*
G36*
X79895913Y-74801407D02*
G01*
X80035437Y-74544464D01*
X79996495Y-74544464D01*
X79856284Y-74801407D01*
X79895913Y-74801407D01*
G37*
G36*
X79686108Y-74801407D02*
G01*
X79825632Y-74544464D01*
X79786690Y-74544464D01*
X79646480Y-74801407D01*
X79686108Y-74801407D01*
G37*
G36*
X79476304Y-74801407D02*
G01*
X79615827Y-74544464D01*
X79576886Y-74544464D01*
X79436675Y-74801407D01*
X79476304Y-74801407D01*
G37*
G36*
X79266499Y-74801407D02*
G01*
X79406023Y-74544464D01*
X79367081Y-74544464D01*
X79226871Y-74801407D01*
X79266499Y-74801407D01*
G37*
G36*
X79056694Y-74801407D02*
G01*
X79196218Y-74544464D01*
X79157277Y-74544464D01*
X79017066Y-74801407D01*
X79056694Y-74801407D01*
G37*
G36*
X78846890Y-74801407D02*
G01*
X78986413Y-74544464D01*
X78947472Y-74544464D01*
X78807261Y-74801407D01*
X78846890Y-74801407D01*
G37*
G36*
X78637085Y-74801407D02*
G01*
X78776609Y-74544464D01*
X78737667Y-74544464D01*
X78597457Y-74801407D01*
X78637085Y-74801407D01*
G37*
G36*
X78427281Y-74801407D02*
G01*
X78566804Y-74544464D01*
X78527863Y-74544464D01*
X78387652Y-74801407D01*
X78427281Y-74801407D01*
G37*
G36*
X78217476Y-74801407D02*
G01*
X78357000Y-74544464D01*
X78318058Y-74544464D01*
X78177848Y-74801407D01*
X78217476Y-74801407D01*
G37*
G36*
X78163590Y-74835388D02*
G01*
X78163590Y-74818993D01*
X77952167Y-74818993D01*
X77952167Y-74835388D01*
X78163590Y-74835388D01*
G37*
G36*
X77953785Y-74835388D02*
G01*
X77953785Y-74818993D01*
X77742363Y-74818993D01*
X77742363Y-74835388D01*
X77953785Y-74835388D01*
G37*
G36*
X77743981Y-74835388D02*
G01*
X77743981Y-74818993D01*
X77532558Y-74818993D01*
X77532558Y-74835388D01*
X77743981Y-74835388D01*
G37*
G36*
X77534176Y-74835388D02*
G01*
X77534176Y-74818993D01*
X77322753Y-74818993D01*
X77322753Y-74835388D01*
X77534176Y-74835388D01*
G37*
G36*
X77324371Y-74835388D02*
G01*
X77324371Y-74818993D01*
X77112949Y-74818993D01*
X77112949Y-74835388D01*
X77324371Y-74835388D01*
G37*
G36*
X77114567Y-74835388D02*
G01*
X77114567Y-74818993D01*
X76903144Y-74818993D01*
X76903144Y-74835388D01*
X77114567Y-74835388D01*
G37*
G36*
X76904762Y-74835388D02*
G01*
X76904762Y-74818993D01*
X76693340Y-74818993D01*
X76693340Y-74835388D01*
X76904762Y-74835388D01*
G37*
G36*
X76694958Y-74835388D02*
G01*
X76694958Y-74818993D01*
X76483535Y-74818993D01*
X76483535Y-74835388D01*
X76694958Y-74835388D01*
G37*
G36*
X76469094Y-74801407D02*
G01*
X76328883Y-74544464D01*
X76289957Y-74544464D01*
X76429481Y-74801407D01*
X76469094Y-74801407D01*
G37*
G36*
X76119430Y-74801407D02*
G01*
X76258954Y-74544464D01*
X76220012Y-74544464D01*
X76079801Y-74801407D01*
X76119430Y-74801407D01*
G37*
G36*
X75909625Y-74801407D02*
G01*
X76049149Y-74544464D01*
X76010208Y-74544464D01*
X75869997Y-74801407D01*
X75909625Y-74801407D01*
G37*
G36*
X75699821Y-74801407D02*
G01*
X75839344Y-74544464D01*
X75800403Y-74544464D01*
X75660192Y-74801407D01*
X75699821Y-74801407D01*
G37*
G36*
X75490016Y-74801407D02*
G01*
X75629540Y-74544464D01*
X75590598Y-74544464D01*
X75450388Y-74801407D01*
X75490016Y-74801407D01*
G37*
G36*
X75280211Y-74801407D02*
G01*
X75419735Y-74544464D01*
X75380794Y-74544464D01*
X75240583Y-74801407D01*
X75280211Y-74801407D01*
G37*
G36*
X75070407Y-74801407D02*
G01*
X75209931Y-74544464D01*
X75170989Y-74544464D01*
X75030778Y-74801407D01*
X75070407Y-74801407D01*
G37*
G36*
X74860602Y-74801407D02*
G01*
X75000126Y-74544464D01*
X74961185Y-74544464D01*
X74820974Y-74801407D01*
X74860602Y-74801407D01*
G37*
G36*
X74650798Y-74801407D02*
G01*
X74790321Y-74544464D01*
X74751380Y-74544464D01*
X74611169Y-74801407D01*
X74650798Y-74801407D01*
G37*
G36*
X74440993Y-74801407D02*
G01*
X74580517Y-74544464D01*
X74541575Y-74544464D01*
X74401365Y-74801407D01*
X74440993Y-74801407D01*
G37*
G36*
X74387107Y-74835388D02*
G01*
X74387107Y-74818993D01*
X74175684Y-74818993D01*
X74175684Y-74835388D01*
X74387107Y-74835388D01*
G37*
G36*
X74177302Y-74835388D02*
G01*
X74177302Y-74818993D01*
X73965880Y-74818993D01*
X73965880Y-74835388D01*
X74177302Y-74835388D01*
G37*
G36*
X73967498Y-74835388D02*
G01*
X73967498Y-74818993D01*
X73756075Y-74818993D01*
X73756075Y-74835388D01*
X73967498Y-74835388D01*
G37*
G36*
X73757693Y-74835388D02*
G01*
X73757693Y-74818993D01*
X73546270Y-74818993D01*
X73546270Y-74835388D01*
X73757693Y-74835388D01*
G37*
G36*
X73547889Y-74835388D02*
G01*
X73547889Y-74818993D01*
X73336466Y-74818993D01*
X73336466Y-74835388D01*
X73547889Y-74835388D01*
G37*
G36*
X73338084Y-74835388D02*
G01*
X73338084Y-74818993D01*
X73126661Y-74818993D01*
X73126661Y-74835388D01*
X73338084Y-74835388D01*
G37*
G36*
X73112220Y-74801407D02*
G01*
X72972010Y-74544464D01*
X72933084Y-74544464D01*
X73072607Y-74801407D01*
X73112220Y-74801407D01*
G37*
G36*
X72762556Y-74801407D02*
G01*
X72902080Y-74544464D01*
X72863138Y-74544464D01*
X72722928Y-74801407D01*
X72762556Y-74801407D01*
G37*
G36*
X72552752Y-74801407D02*
G01*
X72692275Y-74544464D01*
X72653334Y-74544464D01*
X72513123Y-74801407D01*
X72552752Y-74801407D01*
G37*
G36*
X72342947Y-74801407D02*
G01*
X72482471Y-74544464D01*
X72443529Y-74544464D01*
X72303319Y-74801407D01*
X72342947Y-74801407D01*
G37*
G36*
X72133142Y-74801407D02*
G01*
X72272666Y-74544464D01*
X72233725Y-74544464D01*
X72093514Y-74801407D01*
X72133142Y-74801407D01*
G37*
G36*
X71923338Y-74801407D02*
G01*
X72062862Y-74544464D01*
X72023920Y-74544464D01*
X71883709Y-74801407D01*
X71923338Y-74801407D01*
G37*
G36*
X71713533Y-74801407D02*
G01*
X71853057Y-74544464D01*
X71814115Y-74544464D01*
X71673905Y-74801407D01*
X71713533Y-74801407D01*
G37*
G36*
X71503729Y-74801407D02*
G01*
X71643252Y-74544464D01*
X71604311Y-74544464D01*
X71464100Y-74801407D01*
X71503729Y-74801407D01*
G37*
G36*
X71293924Y-74801407D02*
G01*
X71433448Y-74544464D01*
X71394506Y-74544464D01*
X71254296Y-74801407D01*
X71293924Y-74801407D01*
G37*
G36*
X71084119Y-74801407D02*
G01*
X71223643Y-74544464D01*
X71184702Y-74544464D01*
X71044491Y-74801407D01*
X71084119Y-74801407D01*
G37*
G36*
X70874315Y-74801407D02*
G01*
X71013838Y-74544464D01*
X70974897Y-74544464D01*
X70834686Y-74801407D01*
X70874315Y-74801407D01*
G37*
G36*
X70664510Y-74801407D02*
G01*
X70804034Y-74544464D01*
X70765092Y-74544464D01*
X70624882Y-74801407D01*
X70664510Y-74801407D01*
G37*
G36*
X70610624Y-74835388D02*
G01*
X70610624Y-74818993D01*
X70399201Y-74818993D01*
X70399201Y-74835388D01*
X70610624Y-74835388D01*
G37*
G36*
X70400819Y-74835388D02*
G01*
X70400819Y-74818993D01*
X70189397Y-74818993D01*
X70189397Y-74835388D01*
X70400819Y-74835388D01*
G37*
G36*
X70174956Y-74801407D02*
G01*
X70034745Y-74544464D01*
X69995819Y-74544464D01*
X70135343Y-74801407D01*
X70174956Y-74801407D01*
G37*
G36*
X69825292Y-74801407D02*
G01*
X69964815Y-74544464D01*
X69925874Y-74544464D01*
X69785663Y-74801407D01*
X69825292Y-74801407D01*
G37*
G36*
X69615487Y-74801407D02*
G01*
X69755011Y-74544464D01*
X69716069Y-74544464D01*
X69575859Y-74801407D01*
X69615487Y-74801407D01*
G37*
G36*
X69405683Y-74801407D02*
G01*
X69545206Y-74544464D01*
X69506265Y-74544464D01*
X69366054Y-74801407D01*
X69405683Y-74801407D01*
G37*
G36*
X69351796Y-74835388D02*
G01*
X69351796Y-74818993D01*
X69140374Y-74818993D01*
X69140374Y-74835388D01*
X69351796Y-74835388D01*
G37*
G36*
X69141992Y-74835388D02*
G01*
X69141992Y-74818993D01*
X68930569Y-74818993D01*
X68930569Y-74835388D01*
X69141992Y-74835388D01*
G37*
G36*
X68932187Y-74835388D02*
G01*
X68932187Y-74818993D01*
X68720765Y-74818993D01*
X68720765Y-74835388D01*
X68932187Y-74835388D01*
G37*
G36*
X68722383Y-74835388D02*
G01*
X68722383Y-74818993D01*
X68510960Y-74818993D01*
X68510960Y-74835388D01*
X68722383Y-74835388D01*
G37*
G36*
X68512578Y-74835388D02*
G01*
X68512578Y-74818993D01*
X68301155Y-74818993D01*
X68301155Y-74835388D01*
X68512578Y-74835388D01*
G37*
G36*
X68302773Y-74835388D02*
G01*
X68302773Y-74818993D01*
X68091351Y-74818993D01*
X68091351Y-74835388D01*
X68302773Y-74835388D01*
G37*
G36*
X68092969Y-74835388D02*
G01*
X68092969Y-74818993D01*
X67881546Y-74818993D01*
X67881546Y-74835388D01*
X68092969Y-74835388D01*
G37*
G36*
X67883164Y-74835388D02*
G01*
X67883164Y-74818993D01*
X67671741Y-74818993D01*
X67671741Y-74835388D01*
X67883164Y-74835388D01*
G37*
G36*
X67657301Y-74801407D02*
G01*
X67517090Y-74544464D01*
X67478164Y-74544464D01*
X67617687Y-74801407D01*
X67657301Y-74801407D01*
G37*
G36*
X67307636Y-74801407D02*
G01*
X67447160Y-74544464D01*
X67408219Y-74544464D01*
X67268008Y-74801407D01*
X67307636Y-74801407D01*
G37*
G36*
X67097832Y-74801407D02*
G01*
X67237356Y-74544464D01*
X67198414Y-74544464D01*
X67058203Y-74801407D01*
X67097832Y-74801407D01*
G37*
G36*
X66888027Y-74801407D02*
G01*
X67027551Y-74544464D01*
X66988609Y-74544464D01*
X66848399Y-74801407D01*
X66888027Y-74801407D01*
G37*
G36*
X66834141Y-74835388D02*
G01*
X66834141Y-74818993D01*
X66622718Y-74818993D01*
X66622718Y-74835388D01*
X66834141Y-74835388D01*
G37*
G36*
X80891050Y-75255388D02*
G01*
X80891050Y-75238993D01*
X80679627Y-75238993D01*
X80679627Y-75255388D01*
X80891050Y-75255388D01*
G37*
G36*
X80681245Y-75255388D02*
G01*
X80681245Y-75238993D01*
X80469822Y-75238993D01*
X80469822Y-75255388D01*
X80681245Y-75255388D01*
G37*
G36*
X80455382Y-75221407D02*
G01*
X80315171Y-74964464D01*
X80276245Y-74964464D01*
X80415768Y-75221407D01*
X80455382Y-75221407D01*
G37*
G36*
X80105717Y-75221407D02*
G01*
X80245241Y-74964464D01*
X80206300Y-74964464D01*
X80066089Y-75221407D01*
X80105717Y-75221407D01*
G37*
G36*
X79895913Y-75221407D02*
G01*
X80035437Y-74964464D01*
X79996495Y-74964464D01*
X79856284Y-75221407D01*
X79895913Y-75221407D01*
G37*
G36*
X79686108Y-75221407D02*
G01*
X79825632Y-74964464D01*
X79786690Y-74964464D01*
X79646480Y-75221407D01*
X79686108Y-75221407D01*
G37*
G36*
X79616163Y-75221407D02*
G01*
X79475952Y-74964464D01*
X79437026Y-74964464D01*
X79576550Y-75221407D01*
X79616163Y-75221407D01*
G37*
G36*
X79406359Y-75221407D02*
G01*
X79266148Y-74964464D01*
X79227222Y-74964464D01*
X79366745Y-75221407D01*
X79406359Y-75221407D01*
G37*
G36*
X79196554Y-75221407D02*
G01*
X79056343Y-74964464D01*
X79017417Y-74964464D01*
X79156941Y-75221407D01*
X79196554Y-75221407D01*
G37*
G36*
X78986749Y-75221407D02*
G01*
X78846539Y-74964464D01*
X78807612Y-74964464D01*
X78947136Y-75221407D01*
X78986749Y-75221407D01*
G37*
G36*
X78776945Y-75221407D02*
G01*
X78636734Y-74964464D01*
X78597808Y-74964464D01*
X78737332Y-75221407D01*
X78776945Y-75221407D01*
G37*
G36*
X78567140Y-75221407D02*
G01*
X78426929Y-74964464D01*
X78388003Y-74964464D01*
X78527527Y-75221407D01*
X78567140Y-75221407D01*
G37*
G36*
X78357336Y-75221407D02*
G01*
X78217125Y-74964464D01*
X78178199Y-74964464D01*
X78317722Y-75221407D01*
X78357336Y-75221407D01*
G37*
G36*
X78007671Y-75221407D02*
G01*
X78147195Y-74964464D01*
X78108254Y-74964464D01*
X77968043Y-75221407D01*
X78007671Y-75221407D01*
G37*
G36*
X77797867Y-75221407D02*
G01*
X77937390Y-74964464D01*
X77898449Y-74964464D01*
X77758238Y-75221407D01*
X77797867Y-75221407D01*
G37*
G36*
X77588062Y-75221407D02*
G01*
X77727586Y-74964464D01*
X77688644Y-74964464D01*
X77548434Y-75221407D01*
X77588062Y-75221407D01*
G37*
G36*
X77534176Y-75255388D02*
G01*
X77534176Y-75238993D01*
X77322753Y-75238993D01*
X77322753Y-75255388D01*
X77534176Y-75255388D01*
G37*
G36*
X77324371Y-75255388D02*
G01*
X77324371Y-75238993D01*
X77112949Y-75238993D01*
X77112949Y-75255388D01*
X77324371Y-75255388D01*
G37*
G36*
X77114567Y-75255388D02*
G01*
X77114567Y-75238993D01*
X76903144Y-75238993D01*
X76903144Y-75255388D01*
X77114567Y-75255388D01*
G37*
G36*
X76904762Y-75255388D02*
G01*
X76904762Y-75238993D01*
X76693340Y-75238993D01*
X76693340Y-75255388D01*
X76904762Y-75255388D01*
G37*
G36*
X76678899Y-75221407D02*
G01*
X76538688Y-74964464D01*
X76499762Y-74964464D01*
X76639286Y-75221407D01*
X76678899Y-75221407D01*
G37*
G36*
X76329234Y-75221407D02*
G01*
X76468758Y-74964464D01*
X76429817Y-74964464D01*
X76289606Y-75221407D01*
X76329234Y-75221407D01*
G37*
G36*
X76119430Y-75221407D02*
G01*
X76258954Y-74964464D01*
X76220012Y-74964464D01*
X76079801Y-75221407D01*
X76119430Y-75221407D01*
G37*
G36*
X75909625Y-75221407D02*
G01*
X76049149Y-74964464D01*
X76010208Y-74964464D01*
X75869997Y-75221407D01*
X75909625Y-75221407D01*
G37*
G36*
X75839680Y-75221407D02*
G01*
X75699470Y-74964464D01*
X75660543Y-74964464D01*
X75800067Y-75221407D01*
X75839680Y-75221407D01*
G37*
G36*
X75629876Y-75221407D02*
G01*
X75489665Y-74964464D01*
X75450739Y-74964464D01*
X75590262Y-75221407D01*
X75629876Y-75221407D01*
G37*
G36*
X75420071Y-75221407D02*
G01*
X75279860Y-74964464D01*
X75240934Y-74964464D01*
X75380458Y-75221407D01*
X75420071Y-75221407D01*
G37*
G36*
X75210266Y-75221407D02*
G01*
X75070056Y-74964464D01*
X75031130Y-74964464D01*
X75170653Y-75221407D01*
X75210266Y-75221407D01*
G37*
G36*
X75000462Y-75221407D02*
G01*
X74860251Y-74964464D01*
X74821325Y-74964464D01*
X74960849Y-75221407D01*
X75000462Y-75221407D01*
G37*
G36*
X74790657Y-75221407D02*
G01*
X74650447Y-74964464D01*
X74611520Y-74964464D01*
X74751044Y-75221407D01*
X74790657Y-75221407D01*
G37*
G36*
X74580853Y-75221407D02*
G01*
X74440642Y-74964464D01*
X74401716Y-74964464D01*
X74541239Y-75221407D01*
X74580853Y-75221407D01*
G37*
G36*
X74231188Y-75221407D02*
G01*
X74370712Y-74964464D01*
X74331771Y-74964464D01*
X74191560Y-75221407D01*
X74231188Y-75221407D01*
G37*
G36*
X74021384Y-75221407D02*
G01*
X74160908Y-74964464D01*
X74121966Y-74964464D01*
X73981755Y-75221407D01*
X74021384Y-75221407D01*
G37*
G36*
X73811579Y-75221407D02*
G01*
X73951103Y-74964464D01*
X73912161Y-74964464D01*
X73771951Y-75221407D01*
X73811579Y-75221407D01*
G37*
G36*
X73757693Y-75255388D02*
G01*
X73757693Y-75238993D01*
X73546270Y-75238993D01*
X73546270Y-75255388D01*
X73757693Y-75255388D01*
G37*
G36*
X73547889Y-75255388D02*
G01*
X73547889Y-75238993D01*
X73336466Y-75238993D01*
X73336466Y-75255388D01*
X73547889Y-75255388D01*
G37*
G36*
X73338084Y-75255388D02*
G01*
X73338084Y-75238993D01*
X73126661Y-75238993D01*
X73126661Y-75255388D01*
X73338084Y-75255388D01*
G37*
G36*
X72972361Y-75221407D02*
G01*
X73111885Y-74964464D01*
X73072943Y-74964464D01*
X72932732Y-75221407D01*
X72972361Y-75221407D01*
G37*
G36*
X72902416Y-75221407D02*
G01*
X72762205Y-74964464D01*
X72723279Y-74964464D01*
X72862803Y-75221407D01*
X72902416Y-75221407D01*
G37*
G36*
X72692611Y-75221407D02*
G01*
X72552400Y-74964464D01*
X72513474Y-74964464D01*
X72652998Y-75221407D01*
X72692611Y-75221407D01*
G37*
G36*
X72482807Y-75221407D02*
G01*
X72342596Y-74964464D01*
X72303670Y-74964464D01*
X72443193Y-75221407D01*
X72482807Y-75221407D01*
G37*
G36*
X72273002Y-75221407D02*
G01*
X72132791Y-74964464D01*
X72093865Y-74964464D01*
X72233389Y-75221407D01*
X72273002Y-75221407D01*
G37*
G36*
X72063197Y-75221407D02*
G01*
X71922987Y-74964464D01*
X71884060Y-74964464D01*
X72023584Y-75221407D01*
X72063197Y-75221407D01*
G37*
G36*
X71713533Y-75221407D02*
G01*
X71853057Y-74964464D01*
X71814115Y-74964464D01*
X71673905Y-75221407D01*
X71713533Y-75221407D01*
G37*
G36*
X71503729Y-75221407D02*
G01*
X71643252Y-74964464D01*
X71604311Y-74964464D01*
X71464100Y-75221407D01*
X71503729Y-75221407D01*
G37*
G36*
X71293924Y-75221407D02*
G01*
X71433448Y-74964464D01*
X71394506Y-74964464D01*
X71254296Y-75221407D01*
X71293924Y-75221407D01*
G37*
G36*
X71223979Y-75221407D02*
G01*
X71083768Y-74964464D01*
X71044842Y-74964464D01*
X71184366Y-75221407D01*
X71223979Y-75221407D01*
G37*
G36*
X71014174Y-75221407D02*
G01*
X70873964Y-74964464D01*
X70835037Y-74964464D01*
X70974561Y-75221407D01*
X71014174Y-75221407D01*
G37*
G36*
X70804370Y-75221407D02*
G01*
X70664159Y-74964464D01*
X70625233Y-74964464D01*
X70764757Y-75221407D01*
X70804370Y-75221407D01*
G37*
G36*
X70610624Y-75255388D02*
G01*
X70610624Y-75238993D01*
X70399201Y-75238993D01*
X70399201Y-75255388D01*
X70610624Y-75255388D01*
G37*
G36*
X70400819Y-75255388D02*
G01*
X70400819Y-75238993D01*
X70189397Y-75238993D01*
X70189397Y-75255388D01*
X70400819Y-75255388D01*
G37*
G36*
X70035096Y-75221407D02*
G01*
X70174620Y-74964464D01*
X70135679Y-74964464D01*
X69995468Y-75221407D01*
X70035096Y-75221407D01*
G37*
G36*
X69965151Y-75221407D02*
G01*
X69824941Y-74964464D01*
X69786014Y-74964464D01*
X69925538Y-75221407D01*
X69965151Y-75221407D01*
G37*
G36*
X69615487Y-75221407D02*
G01*
X69755011Y-74964464D01*
X69716069Y-74964464D01*
X69575859Y-75221407D01*
X69615487Y-75221407D01*
G37*
G36*
X69405683Y-75221407D02*
G01*
X69545206Y-74964464D01*
X69506265Y-74964464D01*
X69366054Y-75221407D01*
X69405683Y-75221407D01*
G37*
G36*
X69195878Y-75221407D02*
G01*
X69335402Y-74964464D01*
X69296460Y-74964464D01*
X69156250Y-75221407D01*
X69195878Y-75221407D01*
G37*
G36*
X69141992Y-75255388D02*
G01*
X69141992Y-75238993D01*
X68930569Y-75238993D01*
X68930569Y-75255388D01*
X69141992Y-75255388D01*
G37*
G36*
X68932187Y-75255388D02*
G01*
X68932187Y-75238993D01*
X68720765Y-75238993D01*
X68720765Y-75255388D01*
X68932187Y-75255388D01*
G37*
G36*
X68722383Y-75255388D02*
G01*
X68722383Y-75238993D01*
X68510960Y-75238993D01*
X68510960Y-75255388D01*
X68722383Y-75255388D01*
G37*
G36*
X68512578Y-75255388D02*
G01*
X68512578Y-75238993D01*
X68301155Y-75238993D01*
X68301155Y-75255388D01*
X68512578Y-75255388D01*
G37*
G36*
X68302773Y-75255388D02*
G01*
X68302773Y-75238993D01*
X68091351Y-75238993D01*
X68091351Y-75255388D01*
X68302773Y-75255388D01*
G37*
G36*
X68092969Y-75255388D02*
G01*
X68092969Y-75238993D01*
X67881546Y-75238993D01*
X67881546Y-75255388D01*
X68092969Y-75255388D01*
G37*
G36*
X67883164Y-75255388D02*
G01*
X67883164Y-75238993D01*
X67671741Y-75238993D01*
X67671741Y-75255388D01*
X67883164Y-75255388D01*
G37*
G36*
X67517441Y-75221407D02*
G01*
X67656965Y-74964464D01*
X67618023Y-74964464D01*
X67477813Y-75221407D01*
X67517441Y-75221407D01*
G37*
G36*
X67447496Y-75221407D02*
G01*
X67307285Y-74964464D01*
X67268359Y-74964464D01*
X67407883Y-75221407D01*
X67447496Y-75221407D01*
G37*
G36*
X67097832Y-75221407D02*
G01*
X67237356Y-74964464D01*
X67198414Y-74964464D01*
X67058203Y-75221407D01*
X67097832Y-75221407D01*
G37*
G36*
X66888027Y-75221407D02*
G01*
X67027551Y-74964464D01*
X66988609Y-74964464D01*
X66848399Y-75221407D01*
X66888027Y-75221407D01*
G37*
G36*
X66678223Y-75221407D02*
G01*
X66817746Y-74964464D01*
X66778805Y-74964464D01*
X66638594Y-75221407D01*
X66678223Y-75221407D01*
G37*
G36*
X66624337Y-75255388D02*
G01*
X66624337Y-75238993D01*
X66412914Y-75238993D01*
X66412914Y-75255388D01*
X66624337Y-75255388D01*
G37*
G36*
X80681245Y-75675388D02*
G01*
X80681245Y-75658993D01*
X80469822Y-75658993D01*
X80469822Y-75675388D01*
X80681245Y-75675388D01*
G37*
G36*
X80315522Y-75641407D02*
G01*
X80455046Y-75384464D01*
X80416104Y-75384464D01*
X80275894Y-75641407D01*
X80315522Y-75641407D01*
G37*
G36*
X80245577Y-75641407D02*
G01*
X80105366Y-75384464D01*
X80066440Y-75384464D01*
X80205964Y-75641407D01*
X80245577Y-75641407D01*
G37*
G36*
X79895913Y-75641407D02*
G01*
X80035437Y-75384464D01*
X79996495Y-75384464D01*
X79856284Y-75641407D01*
X79895913Y-75641407D01*
G37*
G36*
X79686108Y-75641407D02*
G01*
X79825632Y-75384464D01*
X79786690Y-75384464D01*
X79646480Y-75641407D01*
X79686108Y-75641407D01*
G37*
G36*
X79476304Y-75641407D02*
G01*
X79615827Y-75384464D01*
X79576886Y-75384464D01*
X79436675Y-75641407D01*
X79476304Y-75641407D01*
G37*
G36*
X79422418Y-75675388D02*
G01*
X79422418Y-75658993D01*
X79210995Y-75658993D01*
X79210995Y-75675388D01*
X79422418Y-75675388D01*
G37*
G36*
X79212613Y-75675388D02*
G01*
X79212613Y-75658993D01*
X79001190Y-75658993D01*
X79001190Y-75675388D01*
X79212613Y-75675388D01*
G37*
G36*
X79002808Y-75675388D02*
G01*
X79002808Y-75658993D01*
X78791386Y-75658993D01*
X78791386Y-75675388D01*
X79002808Y-75675388D01*
G37*
G36*
X78793004Y-75675388D02*
G01*
X78793004Y-75658993D01*
X78581581Y-75658993D01*
X78581581Y-75675388D01*
X78793004Y-75675388D01*
G37*
G36*
X78583199Y-75675388D02*
G01*
X78583199Y-75658993D01*
X78371776Y-75658993D01*
X78371776Y-75675388D01*
X78583199Y-75675388D01*
G37*
G36*
X78217476Y-75641407D02*
G01*
X78357000Y-75384464D01*
X78318058Y-75384464D01*
X78177848Y-75641407D01*
X78217476Y-75641407D01*
G37*
G36*
X78147531Y-75641407D02*
G01*
X78007320Y-75384464D01*
X77968394Y-75384464D01*
X78107918Y-75641407D01*
X78147531Y-75641407D01*
G37*
G36*
X77797867Y-75641407D02*
G01*
X77937390Y-75384464D01*
X77898449Y-75384464D01*
X77758238Y-75641407D01*
X77797867Y-75641407D01*
G37*
G36*
X77588062Y-75641407D02*
G01*
X77727586Y-75384464D01*
X77688644Y-75384464D01*
X77548434Y-75641407D01*
X77588062Y-75641407D01*
G37*
G36*
X77378258Y-75641407D02*
G01*
X77517781Y-75384464D01*
X77478840Y-75384464D01*
X77338629Y-75641407D01*
X77378258Y-75641407D01*
G37*
G36*
X77324371Y-75675388D02*
G01*
X77324371Y-75658993D01*
X77112949Y-75658993D01*
X77112949Y-75675388D01*
X77324371Y-75675388D01*
G37*
G36*
X77114567Y-75675388D02*
G01*
X77114567Y-75658993D01*
X76903144Y-75658993D01*
X76903144Y-75675388D01*
X77114567Y-75675388D01*
G37*
G36*
X76904762Y-75675388D02*
G01*
X76904762Y-75658993D01*
X76693340Y-75658993D01*
X76693340Y-75675388D01*
X76904762Y-75675388D01*
G37*
G36*
X76539039Y-75641407D02*
G01*
X76678563Y-75384464D01*
X76639621Y-75384464D01*
X76499411Y-75641407D01*
X76539039Y-75641407D01*
G37*
G36*
X76469094Y-75641407D02*
G01*
X76328883Y-75384464D01*
X76289957Y-75384464D01*
X76429481Y-75641407D01*
X76469094Y-75641407D01*
G37*
G36*
X76119430Y-75641407D02*
G01*
X76258954Y-75384464D01*
X76220012Y-75384464D01*
X76079801Y-75641407D01*
X76119430Y-75641407D01*
G37*
G36*
X75909625Y-75641407D02*
G01*
X76049149Y-75384464D01*
X76010208Y-75384464D01*
X75869997Y-75641407D01*
X75909625Y-75641407D01*
G37*
G36*
X75699821Y-75641407D02*
G01*
X75839344Y-75384464D01*
X75800403Y-75384464D01*
X75660192Y-75641407D01*
X75699821Y-75641407D01*
G37*
G36*
X75645935Y-75675388D02*
G01*
X75645935Y-75658993D01*
X75434512Y-75658993D01*
X75434512Y-75675388D01*
X75645935Y-75675388D01*
G37*
G36*
X75436130Y-75675388D02*
G01*
X75436130Y-75658993D01*
X75224707Y-75658993D01*
X75224707Y-75675388D01*
X75436130Y-75675388D01*
G37*
G36*
X75226325Y-75675388D02*
G01*
X75226325Y-75658993D01*
X75014903Y-75658993D01*
X75014903Y-75675388D01*
X75226325Y-75675388D01*
G37*
G36*
X75016521Y-75675388D02*
G01*
X75016521Y-75658993D01*
X74805098Y-75658993D01*
X74805098Y-75675388D01*
X75016521Y-75675388D01*
G37*
G36*
X74806716Y-75675388D02*
G01*
X74806716Y-75658993D01*
X74595293Y-75658993D01*
X74595293Y-75675388D01*
X74806716Y-75675388D01*
G37*
G36*
X74440993Y-75641407D02*
G01*
X74580517Y-75384464D01*
X74541575Y-75384464D01*
X74401365Y-75641407D01*
X74440993Y-75641407D01*
G37*
G36*
X74371048Y-75641407D02*
G01*
X74230837Y-75384464D01*
X74191911Y-75384464D01*
X74331435Y-75641407D01*
X74371048Y-75641407D01*
G37*
G36*
X74021384Y-75641407D02*
G01*
X74160908Y-75384464D01*
X74121966Y-75384464D01*
X73981755Y-75641407D01*
X74021384Y-75641407D01*
G37*
G36*
X73811579Y-75641407D02*
G01*
X73951103Y-75384464D01*
X73912161Y-75384464D01*
X73771951Y-75641407D01*
X73811579Y-75641407D01*
G37*
G36*
X73601775Y-75641407D02*
G01*
X73741298Y-75384464D01*
X73702357Y-75384464D01*
X73562146Y-75641407D01*
X73601775Y-75641407D01*
G37*
G36*
X73547889Y-75675388D02*
G01*
X73547889Y-75658993D01*
X73336466Y-75658993D01*
X73336466Y-75675388D01*
X73547889Y-75675388D01*
G37*
G36*
X73338084Y-75675388D02*
G01*
X73338084Y-75658993D01*
X73126661Y-75658993D01*
X73126661Y-75675388D01*
X73338084Y-75675388D01*
G37*
G36*
X73128279Y-75675388D02*
G01*
X73128279Y-75658993D01*
X72916857Y-75658993D01*
X72916857Y-75675388D01*
X73128279Y-75675388D01*
G37*
G36*
X72918475Y-75675388D02*
G01*
X72918475Y-75658993D01*
X72707052Y-75658993D01*
X72707052Y-75675388D01*
X72918475Y-75675388D01*
G37*
G36*
X72708670Y-75675388D02*
G01*
X72708670Y-75658993D01*
X72497247Y-75658993D01*
X72497247Y-75675388D01*
X72708670Y-75675388D01*
G37*
G36*
X72498866Y-75675388D02*
G01*
X72498866Y-75658993D01*
X72287443Y-75658993D01*
X72287443Y-75675388D01*
X72498866Y-75675388D01*
G37*
G36*
X72289061Y-75675388D02*
G01*
X72289061Y-75658993D01*
X72077638Y-75658993D01*
X72077638Y-75675388D01*
X72289061Y-75675388D01*
G37*
G36*
X71923338Y-75641407D02*
G01*
X72062862Y-75384464D01*
X72023920Y-75384464D01*
X71883709Y-75641407D01*
X71923338Y-75641407D01*
G37*
G36*
X71853393Y-75641407D02*
G01*
X71713182Y-75384464D01*
X71674256Y-75384464D01*
X71813780Y-75641407D01*
X71853393Y-75641407D01*
G37*
G36*
X71503729Y-75641407D02*
G01*
X71643252Y-75384464D01*
X71604311Y-75384464D01*
X71464100Y-75641407D01*
X71503729Y-75641407D01*
G37*
G36*
X71293924Y-75641407D02*
G01*
X71433448Y-75384464D01*
X71394506Y-75384464D01*
X71254296Y-75641407D01*
X71293924Y-75641407D01*
G37*
G36*
X71084119Y-75641407D02*
G01*
X71223643Y-75384464D01*
X71184702Y-75384464D01*
X71044491Y-75641407D01*
X71084119Y-75641407D01*
G37*
G36*
X71030233Y-75675388D02*
G01*
X71030233Y-75658993D01*
X70818811Y-75658993D01*
X70818811Y-75675388D01*
X71030233Y-75675388D01*
G37*
G36*
X70820429Y-75675388D02*
G01*
X70820429Y-75658993D01*
X70609006Y-75658993D01*
X70609006Y-75675388D01*
X70820429Y-75675388D01*
G37*
G36*
X70610624Y-75675388D02*
G01*
X70610624Y-75658993D01*
X70399201Y-75658993D01*
X70399201Y-75675388D01*
X70610624Y-75675388D01*
G37*
G36*
X70400819Y-75675388D02*
G01*
X70400819Y-75658993D01*
X70189397Y-75658993D01*
X70189397Y-75675388D01*
X70400819Y-75675388D01*
G37*
G36*
X70191015Y-75675388D02*
G01*
X70191015Y-75658993D01*
X69979592Y-75658993D01*
X69979592Y-75675388D01*
X70191015Y-75675388D01*
G37*
G36*
X69825292Y-75641407D02*
G01*
X69964815Y-75384464D01*
X69925874Y-75384464D01*
X69785663Y-75641407D01*
X69825292Y-75641407D01*
G37*
G36*
X69755347Y-75641407D02*
G01*
X69615136Y-75384464D01*
X69576210Y-75384464D01*
X69715734Y-75641407D01*
X69755347Y-75641407D01*
G37*
G36*
X69545542Y-75641407D02*
G01*
X69405331Y-75384464D01*
X69366405Y-75384464D01*
X69505929Y-75641407D01*
X69545542Y-75641407D01*
G37*
G36*
X69195878Y-75641407D02*
G01*
X69335402Y-75384464D01*
X69296460Y-75384464D01*
X69156250Y-75641407D01*
X69195878Y-75641407D01*
G37*
G36*
X68986073Y-75641407D02*
G01*
X69125597Y-75384464D01*
X69086656Y-75384464D01*
X68946445Y-75641407D01*
X68986073Y-75641407D01*
G37*
G36*
X68776269Y-75641407D02*
G01*
X68915792Y-75384464D01*
X68876851Y-75384464D01*
X68736640Y-75641407D01*
X68776269Y-75641407D01*
G37*
G36*
X68722383Y-75675388D02*
G01*
X68722383Y-75658993D01*
X68510960Y-75658993D01*
X68510960Y-75675388D01*
X68722383Y-75675388D01*
G37*
G36*
X68512578Y-75675388D02*
G01*
X68512578Y-75658993D01*
X68301155Y-75658993D01*
X68301155Y-75675388D01*
X68512578Y-75675388D01*
G37*
G36*
X68302773Y-75675388D02*
G01*
X68302773Y-75658993D01*
X68091351Y-75658993D01*
X68091351Y-75675388D01*
X68302773Y-75675388D01*
G37*
G36*
X68092969Y-75675388D02*
G01*
X68092969Y-75658993D01*
X67881546Y-75658993D01*
X67881546Y-75675388D01*
X68092969Y-75675388D01*
G37*
G36*
X67883164Y-75675388D02*
G01*
X67883164Y-75658993D01*
X67671741Y-75658993D01*
X67671741Y-75675388D01*
X67883164Y-75675388D01*
G37*
G36*
X67673360Y-75675388D02*
G01*
X67673360Y-75658993D01*
X67461937Y-75658993D01*
X67461937Y-75675388D01*
X67673360Y-75675388D01*
G37*
G36*
X67447496Y-75641407D02*
G01*
X67307285Y-75384464D01*
X67268359Y-75384464D01*
X67407883Y-75641407D01*
X67447496Y-75641407D01*
G37*
G36*
X67097832Y-75641407D02*
G01*
X67237356Y-75384464D01*
X67198414Y-75384464D01*
X67058203Y-75641407D01*
X67097832Y-75641407D01*
G37*
G36*
X66888027Y-75641407D02*
G01*
X67027551Y-75384464D01*
X66988609Y-75384464D01*
X66848399Y-75641407D01*
X66888027Y-75641407D01*
G37*
G36*
X66678223Y-75641407D02*
G01*
X66817746Y-75384464D01*
X66778805Y-75384464D01*
X66638594Y-75641407D01*
X66678223Y-75641407D01*
G37*
G36*
X66624337Y-75675388D02*
G01*
X66624337Y-75658993D01*
X66412914Y-75658993D01*
X66412914Y-75675388D01*
X66624337Y-75675388D01*
G37*
G36*
X66414532Y-75675388D02*
G01*
X66414532Y-75658993D01*
X66203109Y-75658993D01*
X66203109Y-75675388D01*
X66414532Y-75675388D01*
G37*
G36*
X80471441Y-76095388D02*
G01*
X80471441Y-76078993D01*
X80260018Y-76078993D01*
X80260018Y-76095388D01*
X80471441Y-76095388D01*
G37*
G36*
X80105717Y-76061407D02*
G01*
X80245241Y-75804464D01*
X80206300Y-75804464D01*
X80066089Y-76061407D01*
X80105717Y-76061407D01*
G37*
G36*
X80035772Y-76061407D02*
G01*
X79895562Y-75804464D01*
X79856635Y-75804464D01*
X79996159Y-76061407D01*
X80035772Y-76061407D01*
G37*
G36*
X79686108Y-76061407D02*
G01*
X79825632Y-75804464D01*
X79786690Y-75804464D01*
X79646480Y-76061407D01*
X79686108Y-76061407D01*
G37*
G36*
X79476304Y-76061407D02*
G01*
X79615827Y-75804464D01*
X79576886Y-75804464D01*
X79436675Y-76061407D01*
X79476304Y-76061407D01*
G37*
G36*
X79266499Y-76061407D02*
G01*
X79406023Y-75804464D01*
X79367081Y-75804464D01*
X79226871Y-76061407D01*
X79266499Y-76061407D01*
G37*
G36*
X79056694Y-76061407D02*
G01*
X79196218Y-75804464D01*
X79157277Y-75804464D01*
X79017066Y-76061407D01*
X79056694Y-76061407D01*
G37*
G36*
X78846890Y-76061407D02*
G01*
X78986413Y-75804464D01*
X78947472Y-75804464D01*
X78807261Y-76061407D01*
X78846890Y-76061407D01*
G37*
G36*
X78637085Y-76061407D02*
G01*
X78776609Y-75804464D01*
X78737667Y-75804464D01*
X78597457Y-76061407D01*
X78637085Y-76061407D01*
G37*
G36*
X78427281Y-76061407D02*
G01*
X78566804Y-75804464D01*
X78527863Y-75804464D01*
X78387652Y-76061407D01*
X78427281Y-76061407D01*
G37*
G36*
X78217476Y-76061407D02*
G01*
X78357000Y-75804464D01*
X78318058Y-75804464D01*
X78177848Y-76061407D01*
X78217476Y-76061407D01*
G37*
G36*
X78007671Y-76061407D02*
G01*
X78147195Y-75804464D01*
X78108254Y-75804464D01*
X77968043Y-76061407D01*
X78007671Y-76061407D01*
G37*
G36*
X77797867Y-76061407D02*
G01*
X77937390Y-75804464D01*
X77898449Y-75804464D01*
X77758238Y-76061407D01*
X77797867Y-76061407D01*
G37*
G36*
X77588062Y-76061407D02*
G01*
X77727586Y-75804464D01*
X77688644Y-75804464D01*
X77548434Y-76061407D01*
X77588062Y-76061407D01*
G37*
G36*
X77518117Y-76061407D02*
G01*
X77377906Y-75804464D01*
X77338980Y-75804464D01*
X77478504Y-76061407D01*
X77518117Y-76061407D01*
G37*
G36*
X77324371Y-76095388D02*
G01*
X77324371Y-76078993D01*
X77112949Y-76078993D01*
X77112949Y-76095388D01*
X77324371Y-76095388D01*
G37*
G36*
X77114567Y-76095388D02*
G01*
X77114567Y-76078993D01*
X76903144Y-76078993D01*
X76903144Y-76095388D01*
X77114567Y-76095388D01*
G37*
G36*
X76904762Y-76095388D02*
G01*
X76904762Y-76078993D01*
X76693340Y-76078993D01*
X76693340Y-76095388D01*
X76904762Y-76095388D01*
G37*
G36*
X76694958Y-76095388D02*
G01*
X76694958Y-76078993D01*
X76483535Y-76078993D01*
X76483535Y-76095388D01*
X76694958Y-76095388D01*
G37*
G36*
X76329234Y-76061407D02*
G01*
X76468758Y-75804464D01*
X76429817Y-75804464D01*
X76289606Y-76061407D01*
X76329234Y-76061407D01*
G37*
G36*
X76259289Y-76061407D02*
G01*
X76119079Y-75804464D01*
X76080153Y-75804464D01*
X76219676Y-76061407D01*
X76259289Y-76061407D01*
G37*
G36*
X75909625Y-76061407D02*
G01*
X76049149Y-75804464D01*
X76010208Y-75804464D01*
X75869997Y-76061407D01*
X75909625Y-76061407D01*
G37*
G36*
X75699821Y-76061407D02*
G01*
X75839344Y-75804464D01*
X75800403Y-75804464D01*
X75660192Y-76061407D01*
X75699821Y-76061407D01*
G37*
G36*
X75490016Y-76061407D02*
G01*
X75629540Y-75804464D01*
X75590598Y-75804464D01*
X75450388Y-76061407D01*
X75490016Y-76061407D01*
G37*
G36*
X75280211Y-76061407D02*
G01*
X75419735Y-75804464D01*
X75380794Y-75804464D01*
X75240583Y-76061407D01*
X75280211Y-76061407D01*
G37*
G36*
X75070407Y-76061407D02*
G01*
X75209931Y-75804464D01*
X75170989Y-75804464D01*
X75030778Y-76061407D01*
X75070407Y-76061407D01*
G37*
G36*
X74860602Y-76061407D02*
G01*
X75000126Y-75804464D01*
X74961185Y-75804464D01*
X74820974Y-76061407D01*
X74860602Y-76061407D01*
G37*
G36*
X74650798Y-76061407D02*
G01*
X74790321Y-75804464D01*
X74751380Y-75804464D01*
X74611169Y-76061407D01*
X74650798Y-76061407D01*
G37*
G36*
X74440993Y-76061407D02*
G01*
X74580517Y-75804464D01*
X74541575Y-75804464D01*
X74401365Y-76061407D01*
X74440993Y-76061407D01*
G37*
G36*
X74231188Y-76061407D02*
G01*
X74370712Y-75804464D01*
X74331771Y-75804464D01*
X74191560Y-76061407D01*
X74231188Y-76061407D01*
G37*
G36*
X74021384Y-76061407D02*
G01*
X74160908Y-75804464D01*
X74121966Y-75804464D01*
X73981755Y-76061407D01*
X74021384Y-76061407D01*
G37*
G36*
X73811579Y-76061407D02*
G01*
X73951103Y-75804464D01*
X73912161Y-75804464D01*
X73771951Y-76061407D01*
X73811579Y-76061407D01*
G37*
G36*
X73741634Y-76061407D02*
G01*
X73601424Y-75804464D01*
X73562497Y-75804464D01*
X73702021Y-76061407D01*
X73741634Y-76061407D01*
G37*
G36*
X73547889Y-76095388D02*
G01*
X73547889Y-76078993D01*
X73336466Y-76078993D01*
X73336466Y-76095388D01*
X73547889Y-76095388D01*
G37*
G36*
X73338084Y-76095388D02*
G01*
X73338084Y-76078993D01*
X73126661Y-76078993D01*
X73126661Y-76095388D01*
X73338084Y-76095388D01*
G37*
G36*
X73128279Y-76095388D02*
G01*
X73128279Y-76078993D01*
X72916857Y-76078993D01*
X72916857Y-76095388D01*
X73128279Y-76095388D01*
G37*
G36*
X72918475Y-76095388D02*
G01*
X72918475Y-76078993D01*
X72707052Y-76078993D01*
X72707052Y-76095388D01*
X72918475Y-76095388D01*
G37*
G36*
X72708670Y-76095388D02*
G01*
X72708670Y-76078993D01*
X72497247Y-76078993D01*
X72497247Y-76095388D01*
X72708670Y-76095388D01*
G37*
G36*
X72498866Y-76095388D02*
G01*
X72498866Y-76078993D01*
X72287443Y-76078993D01*
X72287443Y-76095388D01*
X72498866Y-76095388D01*
G37*
G36*
X72289061Y-76095388D02*
G01*
X72289061Y-76078993D01*
X72077638Y-76078993D01*
X72077638Y-76095388D01*
X72289061Y-76095388D01*
G37*
G36*
X72079256Y-76095388D02*
G01*
X72079256Y-76078993D01*
X71867834Y-76078993D01*
X71867834Y-76095388D01*
X72079256Y-76095388D01*
G37*
G36*
X71713533Y-76061407D02*
G01*
X71853057Y-75804464D01*
X71814115Y-75804464D01*
X71673905Y-76061407D01*
X71713533Y-76061407D01*
G37*
G36*
X71643588Y-76061407D02*
G01*
X71503377Y-75804464D01*
X71464451Y-75804464D01*
X71603975Y-76061407D01*
X71643588Y-76061407D01*
G37*
G36*
X71293924Y-76061407D02*
G01*
X71433448Y-75804464D01*
X71394506Y-75804464D01*
X71254296Y-76061407D01*
X71293924Y-76061407D01*
G37*
G36*
X71084119Y-76061407D02*
G01*
X71223643Y-75804464D01*
X71184702Y-75804464D01*
X71044491Y-76061407D01*
X71084119Y-76061407D01*
G37*
G36*
X70874315Y-76061407D02*
G01*
X71013838Y-75804464D01*
X70974897Y-75804464D01*
X70834686Y-76061407D01*
X70874315Y-76061407D01*
G37*
G36*
X70820429Y-76095388D02*
G01*
X70820429Y-76078993D01*
X70609006Y-76078993D01*
X70609006Y-76095388D01*
X70820429Y-76095388D01*
G37*
G36*
X70610624Y-76095388D02*
G01*
X70610624Y-76078993D01*
X70399201Y-76078993D01*
X70399201Y-76095388D01*
X70610624Y-76095388D01*
G37*
G36*
X70400819Y-76095388D02*
G01*
X70400819Y-76078993D01*
X70189397Y-76078993D01*
X70189397Y-76095388D01*
X70400819Y-76095388D01*
G37*
G36*
X70191015Y-76095388D02*
G01*
X70191015Y-76078993D01*
X69979592Y-76078993D01*
X69979592Y-76095388D01*
X70191015Y-76095388D01*
G37*
G36*
X69981210Y-76095388D02*
G01*
X69981210Y-76078993D01*
X69769788Y-76078993D01*
X69769788Y-76095388D01*
X69981210Y-76095388D01*
G37*
G36*
X69771406Y-76095388D02*
G01*
X69771406Y-76078993D01*
X69559983Y-76078993D01*
X69559983Y-76095388D01*
X69771406Y-76095388D01*
G37*
G36*
X69405683Y-76061407D02*
G01*
X69545206Y-75804464D01*
X69506265Y-75804464D01*
X69366054Y-76061407D01*
X69405683Y-76061407D01*
G37*
G36*
X69335737Y-76061407D02*
G01*
X69195527Y-75804464D01*
X69156601Y-75804464D01*
X69296124Y-76061407D01*
X69335737Y-76061407D01*
G37*
G36*
X69125933Y-76061407D02*
G01*
X68985722Y-75804464D01*
X68946796Y-75804464D01*
X69086320Y-76061407D01*
X69125933Y-76061407D01*
G37*
G36*
X68776269Y-76061407D02*
G01*
X68915792Y-75804464D01*
X68876851Y-75804464D01*
X68736640Y-76061407D01*
X68776269Y-76061407D01*
G37*
G36*
X68566464Y-76061407D02*
G01*
X68705988Y-75804464D01*
X68667046Y-75804464D01*
X68526836Y-76061407D01*
X68566464Y-76061407D01*
G37*
G36*
X68356659Y-76061407D02*
G01*
X68496183Y-75804464D01*
X68457242Y-75804464D01*
X68317031Y-76061407D01*
X68356659Y-76061407D01*
G37*
G36*
X68302773Y-76095388D02*
G01*
X68302773Y-76078993D01*
X68091351Y-76078993D01*
X68091351Y-76095388D01*
X68302773Y-76095388D01*
G37*
G36*
X68092969Y-76095388D02*
G01*
X68092969Y-76078993D01*
X67881546Y-76078993D01*
X67881546Y-76095388D01*
X68092969Y-76095388D01*
G37*
G36*
X67883164Y-76095388D02*
G01*
X67883164Y-76078993D01*
X67671741Y-76078993D01*
X67671741Y-76095388D01*
X67883164Y-76095388D01*
G37*
G36*
X67673360Y-76095388D02*
G01*
X67673360Y-76078993D01*
X67461937Y-76078993D01*
X67461937Y-76095388D01*
X67673360Y-76095388D01*
G37*
G36*
X67447496Y-76061407D02*
G01*
X67307285Y-75804464D01*
X67268359Y-75804464D01*
X67407883Y-76061407D01*
X67447496Y-76061407D01*
G37*
G36*
X67097832Y-76061407D02*
G01*
X67237356Y-75804464D01*
X67198414Y-75804464D01*
X67058203Y-76061407D01*
X67097832Y-76061407D01*
G37*
G36*
X66888027Y-76061407D02*
G01*
X67027551Y-75804464D01*
X66988609Y-75804464D01*
X66848399Y-76061407D01*
X66888027Y-76061407D01*
G37*
G36*
X66678223Y-76061407D02*
G01*
X66817746Y-75804464D01*
X66778805Y-75804464D01*
X66638594Y-76061407D01*
X66678223Y-76061407D01*
G37*
G36*
X66624337Y-76095388D02*
G01*
X66624337Y-76078993D01*
X66412914Y-76078993D01*
X66412914Y-76095388D01*
X66624337Y-76095388D01*
G37*
G36*
X66414532Y-76095388D02*
G01*
X66414532Y-76078993D01*
X66203109Y-76078993D01*
X66203109Y-76095388D01*
X66414532Y-76095388D01*
G37*
G36*
X66204727Y-76095388D02*
G01*
X66204727Y-76078993D01*
X65993305Y-76078993D01*
X65993305Y-76095388D01*
X66204727Y-76095388D01*
G37*
G36*
X80261636Y-76515388D02*
G01*
X80261636Y-76498993D01*
X80050213Y-76498993D01*
X80050213Y-76515388D01*
X80261636Y-76515388D01*
G37*
G36*
X79895913Y-76481407D02*
G01*
X80035437Y-76224464D01*
X79996495Y-76224464D01*
X79856284Y-76481407D01*
X79895913Y-76481407D01*
G37*
G36*
X79825968Y-76481407D02*
G01*
X79685757Y-76224464D01*
X79646831Y-76224464D01*
X79786355Y-76481407D01*
X79825968Y-76481407D01*
G37*
G36*
X79476304Y-76481407D02*
G01*
X79615827Y-76224464D01*
X79576886Y-76224464D01*
X79436675Y-76481407D01*
X79476304Y-76481407D01*
G37*
G36*
X79266499Y-76481407D02*
G01*
X79406023Y-76224464D01*
X79367081Y-76224464D01*
X79226871Y-76481407D01*
X79266499Y-76481407D01*
G37*
G36*
X79056694Y-76481407D02*
G01*
X79196218Y-76224464D01*
X79157277Y-76224464D01*
X79017066Y-76481407D01*
X79056694Y-76481407D01*
G37*
G36*
X78986749Y-76481407D02*
G01*
X78846539Y-76224464D01*
X78807612Y-76224464D01*
X78947136Y-76481407D01*
X78986749Y-76481407D01*
G37*
G36*
X78776945Y-76481407D02*
G01*
X78636734Y-76224464D01*
X78597808Y-76224464D01*
X78737332Y-76481407D01*
X78776945Y-76481407D01*
G37*
G36*
X78567140Y-76481407D02*
G01*
X78426929Y-76224464D01*
X78388003Y-76224464D01*
X78527527Y-76481407D01*
X78567140Y-76481407D01*
G37*
G36*
X78357336Y-76481407D02*
G01*
X78217125Y-76224464D01*
X78178199Y-76224464D01*
X78317722Y-76481407D01*
X78357336Y-76481407D01*
G37*
G36*
X78147531Y-76481407D02*
G01*
X78007320Y-76224464D01*
X77968394Y-76224464D01*
X78107918Y-76481407D01*
X78147531Y-76481407D01*
G37*
G36*
X77937726Y-76481407D02*
G01*
X77797516Y-76224464D01*
X77758589Y-76224464D01*
X77898113Y-76481407D01*
X77937726Y-76481407D01*
G37*
G36*
X77588062Y-76481407D02*
G01*
X77727586Y-76224464D01*
X77688644Y-76224464D01*
X77548434Y-76481407D01*
X77588062Y-76481407D01*
G37*
G36*
X77378258Y-76481407D02*
G01*
X77517781Y-76224464D01*
X77478840Y-76224464D01*
X77338629Y-76481407D01*
X77378258Y-76481407D01*
G37*
G36*
X77168453Y-76481407D02*
G01*
X77307977Y-76224464D01*
X77269035Y-76224464D01*
X77128825Y-76481407D01*
X77168453Y-76481407D01*
G37*
G36*
X77114567Y-76515388D02*
G01*
X77114567Y-76498993D01*
X76903144Y-76498993D01*
X76903144Y-76515388D01*
X77114567Y-76515388D01*
G37*
G36*
X76904762Y-76515388D02*
G01*
X76904762Y-76498993D01*
X76693340Y-76498993D01*
X76693340Y-76515388D01*
X76904762Y-76515388D01*
G37*
G36*
X76694958Y-76515388D02*
G01*
X76694958Y-76498993D01*
X76483535Y-76498993D01*
X76483535Y-76515388D01*
X76694958Y-76515388D01*
G37*
G36*
X76485153Y-76515388D02*
G01*
X76485153Y-76498993D01*
X76273730Y-76498993D01*
X76273730Y-76515388D01*
X76485153Y-76515388D01*
G37*
G36*
X76119430Y-76481407D02*
G01*
X76258954Y-76224464D01*
X76220012Y-76224464D01*
X76079801Y-76481407D01*
X76119430Y-76481407D01*
G37*
G36*
X76049485Y-76481407D02*
G01*
X75909274Y-76224464D01*
X75870348Y-76224464D01*
X76009872Y-76481407D01*
X76049485Y-76481407D01*
G37*
G36*
X75699821Y-76481407D02*
G01*
X75839344Y-76224464D01*
X75800403Y-76224464D01*
X75660192Y-76481407D01*
X75699821Y-76481407D01*
G37*
G36*
X75490016Y-76481407D02*
G01*
X75629540Y-76224464D01*
X75590598Y-76224464D01*
X75450388Y-76481407D01*
X75490016Y-76481407D01*
G37*
G36*
X75280211Y-76481407D02*
G01*
X75419735Y-76224464D01*
X75380794Y-76224464D01*
X75240583Y-76481407D01*
X75280211Y-76481407D01*
G37*
G36*
X75210266Y-76481407D02*
G01*
X75070056Y-76224464D01*
X75031130Y-76224464D01*
X75170653Y-76481407D01*
X75210266Y-76481407D01*
G37*
G36*
X75000462Y-76481407D02*
G01*
X74860251Y-76224464D01*
X74821325Y-76224464D01*
X74960849Y-76481407D01*
X75000462Y-76481407D01*
G37*
G36*
X74790657Y-76481407D02*
G01*
X74650447Y-76224464D01*
X74611520Y-76224464D01*
X74751044Y-76481407D01*
X74790657Y-76481407D01*
G37*
G36*
X74580853Y-76481407D02*
G01*
X74440642Y-76224464D01*
X74401716Y-76224464D01*
X74541239Y-76481407D01*
X74580853Y-76481407D01*
G37*
G36*
X74371048Y-76481407D02*
G01*
X74230837Y-76224464D01*
X74191911Y-76224464D01*
X74331435Y-76481407D01*
X74371048Y-76481407D01*
G37*
G36*
X74161243Y-76481407D02*
G01*
X74021033Y-76224464D01*
X73982107Y-76224464D01*
X74121630Y-76481407D01*
X74161243Y-76481407D01*
G37*
G36*
X73811579Y-76481407D02*
G01*
X73951103Y-76224464D01*
X73912161Y-76224464D01*
X73771951Y-76481407D01*
X73811579Y-76481407D01*
G37*
G36*
X73601775Y-76481407D02*
G01*
X73741298Y-76224464D01*
X73702357Y-76224464D01*
X73562146Y-76481407D01*
X73601775Y-76481407D01*
G37*
G36*
X73391970Y-76481407D02*
G01*
X73531494Y-76224464D01*
X73492552Y-76224464D01*
X73352342Y-76481407D01*
X73391970Y-76481407D01*
G37*
G36*
X73338084Y-76515388D02*
G01*
X73338084Y-76498993D01*
X73126661Y-76498993D01*
X73126661Y-76515388D01*
X73338084Y-76515388D01*
G37*
G36*
X73128279Y-76515388D02*
G01*
X73128279Y-76498993D01*
X72916857Y-76498993D01*
X72916857Y-76515388D01*
X73128279Y-76515388D01*
G37*
G36*
X72918475Y-76515388D02*
G01*
X72918475Y-76498993D01*
X72707052Y-76498993D01*
X72707052Y-76515388D01*
X72918475Y-76515388D01*
G37*
G36*
X72708670Y-76515388D02*
G01*
X72708670Y-76498993D01*
X72497247Y-76498993D01*
X72497247Y-76515388D01*
X72708670Y-76515388D01*
G37*
G36*
X72498866Y-76515388D02*
G01*
X72498866Y-76498993D01*
X72287443Y-76498993D01*
X72287443Y-76515388D01*
X72498866Y-76515388D01*
G37*
G36*
X72289061Y-76515388D02*
G01*
X72289061Y-76498993D01*
X72077638Y-76498993D01*
X72077638Y-76515388D01*
X72289061Y-76515388D01*
G37*
G36*
X72079256Y-76515388D02*
G01*
X72079256Y-76498993D01*
X71867834Y-76498993D01*
X71867834Y-76515388D01*
X72079256Y-76515388D01*
G37*
G36*
X71869452Y-76515388D02*
G01*
X71869452Y-76498993D01*
X71658029Y-76498993D01*
X71658029Y-76515388D01*
X71869452Y-76515388D01*
G37*
G36*
X71503729Y-76481407D02*
G01*
X71643252Y-76224464D01*
X71604311Y-76224464D01*
X71464100Y-76481407D01*
X71503729Y-76481407D01*
G37*
G36*
X71433784Y-76481407D02*
G01*
X71293573Y-76224464D01*
X71254647Y-76224464D01*
X71394170Y-76481407D01*
X71433784Y-76481407D01*
G37*
G36*
X71084119Y-76481407D02*
G01*
X71223643Y-76224464D01*
X71184702Y-76224464D01*
X71044491Y-76481407D01*
X71084119Y-76481407D01*
G37*
G36*
X70874315Y-76481407D02*
G01*
X71013838Y-76224464D01*
X70974897Y-76224464D01*
X70834686Y-76481407D01*
X70874315Y-76481407D01*
G37*
G36*
X70664510Y-76481407D02*
G01*
X70804034Y-76224464D01*
X70765092Y-76224464D01*
X70624882Y-76481407D01*
X70664510Y-76481407D01*
G37*
G36*
X70610624Y-76515388D02*
G01*
X70610624Y-76498993D01*
X70399201Y-76498993D01*
X70399201Y-76515388D01*
X70610624Y-76515388D01*
G37*
G36*
X70400819Y-76515388D02*
G01*
X70400819Y-76498993D01*
X70189397Y-76498993D01*
X70189397Y-76515388D01*
X70400819Y-76515388D01*
G37*
G36*
X70191015Y-76515388D02*
G01*
X70191015Y-76498993D01*
X69979592Y-76498993D01*
X69979592Y-76515388D01*
X70191015Y-76515388D01*
G37*
G36*
X69981210Y-76515388D02*
G01*
X69981210Y-76498993D01*
X69769788Y-76498993D01*
X69769788Y-76515388D01*
X69981210Y-76515388D01*
G37*
G36*
X69771406Y-76515388D02*
G01*
X69771406Y-76498993D01*
X69559983Y-76498993D01*
X69559983Y-76515388D01*
X69771406Y-76515388D01*
G37*
G36*
X69561601Y-76515388D02*
G01*
X69561601Y-76498993D01*
X69350178Y-76498993D01*
X69350178Y-76515388D01*
X69561601Y-76515388D01*
G37*
G36*
X69351796Y-76515388D02*
G01*
X69351796Y-76498993D01*
X69140374Y-76498993D01*
X69140374Y-76515388D01*
X69351796Y-76515388D01*
G37*
G36*
X68986073Y-76481407D02*
G01*
X69125597Y-76224464D01*
X69086656Y-76224464D01*
X68946445Y-76481407D01*
X68986073Y-76481407D01*
G37*
G36*
X68916128Y-76481407D02*
G01*
X68775918Y-76224464D01*
X68736991Y-76224464D01*
X68876515Y-76481407D01*
X68916128Y-76481407D01*
G37*
G36*
X68706324Y-76481407D02*
G01*
X68566113Y-76224464D01*
X68527187Y-76224464D01*
X68666711Y-76481407D01*
X68706324Y-76481407D01*
G37*
G36*
X68356659Y-76481407D02*
G01*
X68496183Y-76224464D01*
X68457242Y-76224464D01*
X68317031Y-76481407D01*
X68356659Y-76481407D01*
G37*
G36*
X68146855Y-76481407D02*
G01*
X68286379Y-76224464D01*
X68247437Y-76224464D01*
X68107226Y-76481407D01*
X68146855Y-76481407D01*
G37*
G36*
X67937050Y-76481407D02*
G01*
X68076574Y-76224464D01*
X68037633Y-76224464D01*
X67897422Y-76481407D01*
X67937050Y-76481407D01*
G37*
G36*
X67883164Y-76515388D02*
G01*
X67883164Y-76498993D01*
X67671741Y-76498993D01*
X67671741Y-76515388D01*
X67883164Y-76515388D01*
G37*
G36*
X67673360Y-76515388D02*
G01*
X67673360Y-76498993D01*
X67461937Y-76498993D01*
X67461937Y-76515388D01*
X67673360Y-76515388D01*
G37*
G36*
X67447496Y-76481407D02*
G01*
X67307285Y-76224464D01*
X67268359Y-76224464D01*
X67407883Y-76481407D01*
X67447496Y-76481407D01*
G37*
G36*
X67097832Y-76481407D02*
G01*
X67237356Y-76224464D01*
X67198414Y-76224464D01*
X67058203Y-76481407D01*
X67097832Y-76481407D01*
G37*
G36*
X66888027Y-76481407D02*
G01*
X67027551Y-76224464D01*
X66988609Y-76224464D01*
X66848399Y-76481407D01*
X66888027Y-76481407D01*
G37*
G36*
X66678223Y-76481407D02*
G01*
X66817746Y-76224464D01*
X66778805Y-76224464D01*
X66638594Y-76481407D01*
X66678223Y-76481407D01*
G37*
G36*
X66624337Y-76515388D02*
G01*
X66624337Y-76498993D01*
X66412914Y-76498993D01*
X66412914Y-76515388D01*
X66624337Y-76515388D01*
G37*
G36*
X66414532Y-76515388D02*
G01*
X66414532Y-76498993D01*
X66203109Y-76498993D01*
X66203109Y-76515388D01*
X66414532Y-76515388D01*
G37*
G36*
X66204727Y-76515388D02*
G01*
X66204727Y-76498993D01*
X65993305Y-76498993D01*
X65993305Y-76515388D01*
X66204727Y-76515388D01*
G37*
G36*
X65994923Y-76515388D02*
G01*
X65994923Y-76498993D01*
X65783500Y-76498993D01*
X65783500Y-76515388D01*
X65994923Y-76515388D01*
G37*
G36*
X80051831Y-76935388D02*
G01*
X80051831Y-76918993D01*
X79840409Y-76918993D01*
X79840409Y-76935388D01*
X80051831Y-76935388D01*
G37*
G36*
X79686108Y-76901407D02*
G01*
X79825632Y-76644464D01*
X79786690Y-76644464D01*
X79646480Y-76901407D01*
X79686108Y-76901407D01*
G37*
G36*
X79616163Y-76901407D02*
G01*
X79475952Y-76644464D01*
X79437026Y-76644464D01*
X79576550Y-76901407D01*
X79616163Y-76901407D01*
G37*
G36*
X79266499Y-76901407D02*
G01*
X79406023Y-76644464D01*
X79367081Y-76644464D01*
X79226871Y-76901407D01*
X79266499Y-76901407D01*
G37*
G36*
X79056694Y-76901407D02*
G01*
X79196218Y-76644464D01*
X79157277Y-76644464D01*
X79017066Y-76901407D01*
X79056694Y-76901407D01*
G37*
G36*
X78846890Y-76901407D02*
G01*
X78986413Y-76644464D01*
X78947472Y-76644464D01*
X78807261Y-76901407D01*
X78846890Y-76901407D01*
G37*
G36*
X78793004Y-76935388D02*
G01*
X78793004Y-76918993D01*
X78581581Y-76918993D01*
X78581581Y-76935388D01*
X78793004Y-76935388D01*
G37*
G36*
X78583199Y-76935388D02*
G01*
X78583199Y-76918993D01*
X78371776Y-76918993D01*
X78371776Y-76935388D01*
X78583199Y-76935388D01*
G37*
G36*
X78373394Y-76935388D02*
G01*
X78373394Y-76918993D01*
X78161972Y-76918993D01*
X78161972Y-76935388D01*
X78373394Y-76935388D01*
G37*
G36*
X78163590Y-76935388D02*
G01*
X78163590Y-76918993D01*
X77952167Y-76918993D01*
X77952167Y-76935388D01*
X78163590Y-76935388D01*
G37*
G36*
X77797867Y-76901407D02*
G01*
X77937390Y-76644464D01*
X77898449Y-76644464D01*
X77758238Y-76901407D01*
X77797867Y-76901407D01*
G37*
G36*
X77727922Y-76901407D02*
G01*
X77587711Y-76644464D01*
X77548785Y-76644464D01*
X77688309Y-76901407D01*
X77727922Y-76901407D01*
G37*
G36*
X77518117Y-76901407D02*
G01*
X77377906Y-76644464D01*
X77338980Y-76644464D01*
X77478504Y-76901407D01*
X77518117Y-76901407D01*
G37*
G36*
X77168453Y-76901407D02*
G01*
X77307977Y-76644464D01*
X77269035Y-76644464D01*
X77128825Y-76901407D01*
X77168453Y-76901407D01*
G37*
G36*
X76958648Y-76901407D02*
G01*
X77098172Y-76644464D01*
X77059231Y-76644464D01*
X76919020Y-76901407D01*
X76958648Y-76901407D01*
G37*
G36*
X76748844Y-76901407D02*
G01*
X76888367Y-76644464D01*
X76849426Y-76644464D01*
X76709215Y-76901407D01*
X76748844Y-76901407D01*
G37*
G36*
X76694958Y-76935388D02*
G01*
X76694958Y-76918993D01*
X76483535Y-76918993D01*
X76483535Y-76935388D01*
X76694958Y-76935388D01*
G37*
G36*
X76485153Y-76935388D02*
G01*
X76485153Y-76918993D01*
X76273730Y-76918993D01*
X76273730Y-76935388D01*
X76485153Y-76935388D01*
G37*
G36*
X76275348Y-76935388D02*
G01*
X76275348Y-76918993D01*
X76063926Y-76918993D01*
X76063926Y-76935388D01*
X76275348Y-76935388D01*
G37*
G36*
X75909625Y-76901407D02*
G01*
X76049149Y-76644464D01*
X76010208Y-76644464D01*
X75869997Y-76901407D01*
X75909625Y-76901407D01*
G37*
G36*
X75839680Y-76901407D02*
G01*
X75699470Y-76644464D01*
X75660543Y-76644464D01*
X75800067Y-76901407D01*
X75839680Y-76901407D01*
G37*
G36*
X75490016Y-76901407D02*
G01*
X75629540Y-76644464D01*
X75590598Y-76644464D01*
X75450388Y-76901407D01*
X75490016Y-76901407D01*
G37*
G36*
X75280211Y-76901407D02*
G01*
X75419735Y-76644464D01*
X75380794Y-76644464D01*
X75240583Y-76901407D01*
X75280211Y-76901407D01*
G37*
G36*
X75070407Y-76901407D02*
G01*
X75209931Y-76644464D01*
X75170989Y-76644464D01*
X75030778Y-76901407D01*
X75070407Y-76901407D01*
G37*
G36*
X75016521Y-76935388D02*
G01*
X75016521Y-76918993D01*
X74805098Y-76918993D01*
X74805098Y-76935388D01*
X75016521Y-76935388D01*
G37*
G36*
X74806716Y-76935388D02*
G01*
X74806716Y-76918993D01*
X74595293Y-76918993D01*
X74595293Y-76935388D01*
X74806716Y-76935388D01*
G37*
G36*
X74596912Y-76935388D02*
G01*
X74596912Y-76918993D01*
X74385489Y-76918993D01*
X74385489Y-76935388D01*
X74596912Y-76935388D01*
G37*
G36*
X74387107Y-76935388D02*
G01*
X74387107Y-76918993D01*
X74175684Y-76918993D01*
X74175684Y-76935388D01*
X74387107Y-76935388D01*
G37*
G36*
X74021384Y-76901407D02*
G01*
X74160908Y-76644464D01*
X74121966Y-76644464D01*
X73981755Y-76901407D01*
X74021384Y-76901407D01*
G37*
G36*
X73951439Y-76901407D02*
G01*
X73811228Y-76644464D01*
X73772302Y-76644464D01*
X73911826Y-76901407D01*
X73951439Y-76901407D01*
G37*
G36*
X73741634Y-76901407D02*
G01*
X73601424Y-76644464D01*
X73562497Y-76644464D01*
X73702021Y-76901407D01*
X73741634Y-76901407D01*
G37*
G36*
X73391970Y-76901407D02*
G01*
X73531494Y-76644464D01*
X73492552Y-76644464D01*
X73352342Y-76901407D01*
X73391970Y-76901407D01*
G37*
G36*
X73182165Y-76901407D02*
G01*
X73321689Y-76644464D01*
X73282748Y-76644464D01*
X73142537Y-76901407D01*
X73182165Y-76901407D01*
G37*
G36*
X72972361Y-76901407D02*
G01*
X73111885Y-76644464D01*
X73072943Y-76644464D01*
X72932732Y-76901407D01*
X72972361Y-76901407D01*
G37*
G36*
X72918475Y-76935388D02*
G01*
X72918475Y-76918993D01*
X72707052Y-76918993D01*
X72707052Y-76935388D01*
X72918475Y-76935388D01*
G37*
G36*
X72708670Y-76935388D02*
G01*
X72708670Y-76918993D01*
X72497247Y-76918993D01*
X72497247Y-76935388D01*
X72708670Y-76935388D01*
G37*
G36*
X72498866Y-76935388D02*
G01*
X72498866Y-76918993D01*
X72287443Y-76918993D01*
X72287443Y-76935388D01*
X72498866Y-76935388D01*
G37*
G36*
X72289061Y-76935388D02*
G01*
X72289061Y-76918993D01*
X72077638Y-76918993D01*
X72077638Y-76935388D01*
X72289061Y-76935388D01*
G37*
G36*
X72079256Y-76935388D02*
G01*
X72079256Y-76918993D01*
X71867834Y-76918993D01*
X71867834Y-76935388D01*
X72079256Y-76935388D01*
G37*
G36*
X71869452Y-76935388D02*
G01*
X71869452Y-76918993D01*
X71658029Y-76918993D01*
X71658029Y-76935388D01*
X71869452Y-76935388D01*
G37*
G36*
X71659647Y-76935388D02*
G01*
X71659647Y-76918993D01*
X71448224Y-76918993D01*
X71448224Y-76935388D01*
X71659647Y-76935388D01*
G37*
G36*
X71293924Y-76901407D02*
G01*
X71433448Y-76644464D01*
X71394506Y-76644464D01*
X71254296Y-76901407D01*
X71293924Y-76901407D01*
G37*
G36*
X71223979Y-76901407D02*
G01*
X71083768Y-76644464D01*
X71044842Y-76644464D01*
X71184366Y-76901407D01*
X71223979Y-76901407D01*
G37*
G36*
X70874315Y-76901407D02*
G01*
X71013838Y-76644464D01*
X70974897Y-76644464D01*
X70834686Y-76901407D01*
X70874315Y-76901407D01*
G37*
G36*
X70664510Y-76901407D02*
G01*
X70804034Y-76644464D01*
X70765092Y-76644464D01*
X70624882Y-76901407D01*
X70664510Y-76901407D01*
G37*
G36*
X70454706Y-76901407D02*
G01*
X70594229Y-76644464D01*
X70555288Y-76644464D01*
X70415077Y-76901407D01*
X70454706Y-76901407D01*
G37*
G36*
X70400819Y-76935388D02*
G01*
X70400819Y-76918993D01*
X70189397Y-76918993D01*
X70189397Y-76935388D01*
X70400819Y-76935388D01*
G37*
G36*
X70191015Y-76935388D02*
G01*
X70191015Y-76918993D01*
X69979592Y-76918993D01*
X69979592Y-76935388D01*
X70191015Y-76935388D01*
G37*
G36*
X69981210Y-76935388D02*
G01*
X69981210Y-76918993D01*
X69769788Y-76918993D01*
X69769788Y-76935388D01*
X69981210Y-76935388D01*
G37*
G36*
X69771406Y-76935388D02*
G01*
X69771406Y-76918993D01*
X69559983Y-76918993D01*
X69559983Y-76935388D01*
X69771406Y-76935388D01*
G37*
G36*
X69561601Y-76935388D02*
G01*
X69561601Y-76918993D01*
X69350178Y-76918993D01*
X69350178Y-76935388D01*
X69561601Y-76935388D01*
G37*
G36*
X69351796Y-76935388D02*
G01*
X69351796Y-76918993D01*
X69140374Y-76918993D01*
X69140374Y-76935388D01*
X69351796Y-76935388D01*
G37*
G36*
X69141992Y-76935388D02*
G01*
X69141992Y-76918993D01*
X68930569Y-76918993D01*
X68930569Y-76935388D01*
X69141992Y-76935388D01*
G37*
G36*
X68932187Y-76935388D02*
G01*
X68932187Y-76918993D01*
X68720765Y-76918993D01*
X68720765Y-76935388D01*
X68932187Y-76935388D01*
G37*
G36*
X68566464Y-76901407D02*
G01*
X68705988Y-76644464D01*
X68667046Y-76644464D01*
X68526836Y-76901407D01*
X68566464Y-76901407D01*
G37*
G36*
X68496519Y-76901407D02*
G01*
X68356308Y-76644464D01*
X68317382Y-76644464D01*
X68456906Y-76901407D01*
X68496519Y-76901407D01*
G37*
G36*
X68286714Y-76901407D02*
G01*
X68146504Y-76644464D01*
X68107578Y-76644464D01*
X68247101Y-76901407D01*
X68286714Y-76901407D01*
G37*
G36*
X67937050Y-76901407D02*
G01*
X68076574Y-76644464D01*
X68037633Y-76644464D01*
X67897422Y-76901407D01*
X67937050Y-76901407D01*
G37*
G36*
X67727246Y-76901407D02*
G01*
X67866769Y-76644464D01*
X67827828Y-76644464D01*
X67687617Y-76901407D01*
X67727246Y-76901407D01*
G37*
G36*
X67517441Y-76901407D02*
G01*
X67656965Y-76644464D01*
X67618023Y-76644464D01*
X67477813Y-76901407D01*
X67517441Y-76901407D01*
G37*
G36*
X67447496Y-76901407D02*
G01*
X67307285Y-76644464D01*
X67268359Y-76644464D01*
X67407883Y-76901407D01*
X67447496Y-76901407D01*
G37*
G36*
X67097832Y-76901407D02*
G01*
X67237356Y-76644464D01*
X67198414Y-76644464D01*
X67058203Y-76901407D01*
X67097832Y-76901407D01*
G37*
G36*
X66888027Y-76901407D02*
G01*
X67027551Y-76644464D01*
X66988609Y-76644464D01*
X66848399Y-76901407D01*
X66888027Y-76901407D01*
G37*
G36*
X66678223Y-76901407D02*
G01*
X66817746Y-76644464D01*
X66778805Y-76644464D01*
X66638594Y-76901407D01*
X66678223Y-76901407D01*
G37*
G36*
X66624337Y-76935388D02*
G01*
X66624337Y-76918993D01*
X66412914Y-76918993D01*
X66412914Y-76935388D01*
X66624337Y-76935388D01*
G37*
G36*
X66414532Y-76935388D02*
G01*
X66414532Y-76918993D01*
X66203109Y-76918993D01*
X66203109Y-76935388D01*
X66414532Y-76935388D01*
G37*
G36*
X66204727Y-76935388D02*
G01*
X66204727Y-76918993D01*
X65993305Y-76918993D01*
X65993305Y-76935388D01*
X66204727Y-76935388D01*
G37*
G36*
X65994923Y-76935388D02*
G01*
X65994923Y-76918993D01*
X65783500Y-76918993D01*
X65783500Y-76935388D01*
X65994923Y-76935388D01*
G37*
G36*
X65785118Y-76935388D02*
G01*
X65785118Y-76918993D01*
X65573695Y-76918993D01*
X65573695Y-76935388D01*
X65785118Y-76935388D01*
G37*
G36*
X79842027Y-77355388D02*
G01*
X79842027Y-77338993D01*
X79630604Y-77338993D01*
X79630604Y-77355388D01*
X79842027Y-77355388D01*
G37*
G36*
X79476304Y-77321407D02*
G01*
X79615827Y-77064464D01*
X79576886Y-77064464D01*
X79436675Y-77321407D01*
X79476304Y-77321407D01*
G37*
G36*
X79406359Y-77321407D02*
G01*
X79266148Y-77064464D01*
X79227222Y-77064464D01*
X79366745Y-77321407D01*
X79406359Y-77321407D01*
G37*
G36*
X79056694Y-77321407D02*
G01*
X79196218Y-77064464D01*
X79157277Y-77064464D01*
X79017066Y-77321407D01*
X79056694Y-77321407D01*
G37*
G36*
X78846890Y-77321407D02*
G01*
X78986413Y-77064464D01*
X78947472Y-77064464D01*
X78807261Y-77321407D01*
X78846890Y-77321407D01*
G37*
G36*
X78637085Y-77321407D02*
G01*
X78776609Y-77064464D01*
X78737667Y-77064464D01*
X78597457Y-77321407D01*
X78637085Y-77321407D01*
G37*
G36*
X78583199Y-77355388D02*
G01*
X78583199Y-77338993D01*
X78371776Y-77338993D01*
X78371776Y-77355388D01*
X78583199Y-77355388D01*
G37*
G36*
X78373394Y-77355388D02*
G01*
X78373394Y-77338993D01*
X78161972Y-77338993D01*
X78161972Y-77355388D01*
X78373394Y-77355388D01*
G37*
G36*
X78163590Y-77355388D02*
G01*
X78163590Y-77338993D01*
X77952167Y-77338993D01*
X77952167Y-77355388D01*
X78163590Y-77355388D01*
G37*
G36*
X77953785Y-77355388D02*
G01*
X77953785Y-77338993D01*
X77742363Y-77338993D01*
X77742363Y-77355388D01*
X77953785Y-77355388D01*
G37*
G36*
X77743981Y-77355388D02*
G01*
X77743981Y-77338993D01*
X77532558Y-77338993D01*
X77532558Y-77355388D01*
X77743981Y-77355388D01*
G37*
G36*
X77378258Y-77321407D02*
G01*
X77517781Y-77064464D01*
X77478840Y-77064464D01*
X77338629Y-77321407D01*
X77378258Y-77321407D01*
G37*
G36*
X77308312Y-77321407D02*
G01*
X77168102Y-77064464D01*
X77129176Y-77064464D01*
X77268699Y-77321407D01*
X77308312Y-77321407D01*
G37*
G36*
X77098508Y-77321407D02*
G01*
X76958297Y-77064464D01*
X76919371Y-77064464D01*
X77058895Y-77321407D01*
X77098508Y-77321407D01*
G37*
G36*
X76748844Y-77321407D02*
G01*
X76888367Y-77064464D01*
X76849426Y-77064464D01*
X76709215Y-77321407D01*
X76748844Y-77321407D01*
G37*
G36*
X76539039Y-77321407D02*
G01*
X76678563Y-77064464D01*
X76639621Y-77064464D01*
X76499411Y-77321407D01*
X76539039Y-77321407D01*
G37*
G36*
X76329234Y-77321407D02*
G01*
X76468758Y-77064464D01*
X76429817Y-77064464D01*
X76289606Y-77321407D01*
X76329234Y-77321407D01*
G37*
G36*
X76275348Y-77355388D02*
G01*
X76275348Y-77338993D01*
X76063926Y-77338993D01*
X76063926Y-77355388D01*
X76275348Y-77355388D01*
G37*
G36*
X76065544Y-77355388D02*
G01*
X76065544Y-77338993D01*
X75854121Y-77338993D01*
X75854121Y-77355388D01*
X76065544Y-77355388D01*
G37*
G36*
X75699821Y-77321407D02*
G01*
X75839344Y-77064464D01*
X75800403Y-77064464D01*
X75660192Y-77321407D01*
X75699821Y-77321407D01*
G37*
G36*
X75629876Y-77321407D02*
G01*
X75489665Y-77064464D01*
X75450739Y-77064464D01*
X75590262Y-77321407D01*
X75629876Y-77321407D01*
G37*
G36*
X75280211Y-77321407D02*
G01*
X75419735Y-77064464D01*
X75380794Y-77064464D01*
X75240583Y-77321407D01*
X75280211Y-77321407D01*
G37*
G36*
X75070407Y-77321407D02*
G01*
X75209931Y-77064464D01*
X75170989Y-77064464D01*
X75030778Y-77321407D01*
X75070407Y-77321407D01*
G37*
G36*
X74860602Y-77321407D02*
G01*
X75000126Y-77064464D01*
X74961185Y-77064464D01*
X74820974Y-77321407D01*
X74860602Y-77321407D01*
G37*
G36*
X74806716Y-77355388D02*
G01*
X74806716Y-77338993D01*
X74595293Y-77338993D01*
X74595293Y-77355388D01*
X74806716Y-77355388D01*
G37*
G36*
X74596912Y-77355388D02*
G01*
X74596912Y-77338993D01*
X74385489Y-77338993D01*
X74385489Y-77355388D01*
X74596912Y-77355388D01*
G37*
G36*
X74387107Y-77355388D02*
G01*
X74387107Y-77338993D01*
X74175684Y-77338993D01*
X74175684Y-77355388D01*
X74387107Y-77355388D01*
G37*
G36*
X74177302Y-77355388D02*
G01*
X74177302Y-77338993D01*
X73965880Y-77338993D01*
X73965880Y-77355388D01*
X74177302Y-77355388D01*
G37*
G36*
X73967498Y-77355388D02*
G01*
X73967498Y-77338993D01*
X73756075Y-77338993D01*
X73756075Y-77355388D01*
X73967498Y-77355388D01*
G37*
G36*
X73601775Y-77321407D02*
G01*
X73741298Y-77064464D01*
X73702357Y-77064464D01*
X73562146Y-77321407D01*
X73601775Y-77321407D01*
G37*
G36*
X73531830Y-77321407D02*
G01*
X73391619Y-77064464D01*
X73352693Y-77064464D01*
X73492216Y-77321407D01*
X73531830Y-77321407D01*
G37*
G36*
X73322025Y-77321407D02*
G01*
X73181814Y-77064464D01*
X73142888Y-77064464D01*
X73282412Y-77321407D01*
X73322025Y-77321407D01*
G37*
G36*
X72972361Y-77321407D02*
G01*
X73111885Y-77064464D01*
X73072943Y-77064464D01*
X72932732Y-77321407D01*
X72972361Y-77321407D01*
G37*
G36*
X72762556Y-77321407D02*
G01*
X72902080Y-77064464D01*
X72863138Y-77064464D01*
X72722928Y-77321407D01*
X72762556Y-77321407D01*
G37*
G36*
X72552752Y-77321407D02*
G01*
X72692275Y-77064464D01*
X72653334Y-77064464D01*
X72513123Y-77321407D01*
X72552752Y-77321407D01*
G37*
G36*
X72498866Y-77355388D02*
G01*
X72498866Y-77338993D01*
X72287443Y-77338993D01*
X72287443Y-77355388D01*
X72498866Y-77355388D01*
G37*
G36*
X72289061Y-77355388D02*
G01*
X72289061Y-77338993D01*
X72077638Y-77338993D01*
X72077638Y-77355388D01*
X72289061Y-77355388D01*
G37*
G36*
X72079256Y-77355388D02*
G01*
X72079256Y-77338993D01*
X71867834Y-77338993D01*
X71867834Y-77355388D01*
X72079256Y-77355388D01*
G37*
G36*
X71869452Y-77355388D02*
G01*
X71869452Y-77338993D01*
X71658029Y-77338993D01*
X71658029Y-77355388D01*
X71869452Y-77355388D01*
G37*
G36*
X71659647Y-77355388D02*
G01*
X71659647Y-77338993D01*
X71448224Y-77338993D01*
X71448224Y-77355388D01*
X71659647Y-77355388D01*
G37*
G36*
X71449842Y-77355388D02*
G01*
X71449842Y-77338993D01*
X71238420Y-77338993D01*
X71238420Y-77355388D01*
X71449842Y-77355388D01*
G37*
G36*
X71084119Y-77321407D02*
G01*
X71223643Y-77064464D01*
X71184702Y-77064464D01*
X71044491Y-77321407D01*
X71084119Y-77321407D01*
G37*
G36*
X71014174Y-77321407D02*
G01*
X70873964Y-77064464D01*
X70835037Y-77064464D01*
X70974561Y-77321407D01*
X71014174Y-77321407D01*
G37*
G36*
X70664510Y-77321407D02*
G01*
X70804034Y-77064464D01*
X70765092Y-77064464D01*
X70624882Y-77321407D01*
X70664510Y-77321407D01*
G37*
G36*
X70454706Y-77321407D02*
G01*
X70594229Y-77064464D01*
X70555288Y-77064464D01*
X70415077Y-77321407D01*
X70454706Y-77321407D01*
G37*
G36*
X70244901Y-77321407D02*
G01*
X70384425Y-77064464D01*
X70345483Y-77064464D01*
X70205273Y-77321407D01*
X70244901Y-77321407D01*
G37*
G36*
X70191015Y-77355388D02*
G01*
X70191015Y-77338993D01*
X69979592Y-77338993D01*
X69979592Y-77355388D01*
X70191015Y-77355388D01*
G37*
G36*
X69981210Y-77355388D02*
G01*
X69981210Y-77338993D01*
X69769788Y-77338993D01*
X69769788Y-77355388D01*
X69981210Y-77355388D01*
G37*
G36*
X69771406Y-77355388D02*
G01*
X69771406Y-77338993D01*
X69559983Y-77338993D01*
X69559983Y-77355388D01*
X69771406Y-77355388D01*
G37*
G36*
X69561601Y-77355388D02*
G01*
X69561601Y-77338993D01*
X69350178Y-77338993D01*
X69350178Y-77355388D01*
X69561601Y-77355388D01*
G37*
G36*
X69351796Y-77355388D02*
G01*
X69351796Y-77338993D01*
X69140374Y-77338993D01*
X69140374Y-77355388D01*
X69351796Y-77355388D01*
G37*
G36*
X69141992Y-77355388D02*
G01*
X69141992Y-77338993D01*
X68930569Y-77338993D01*
X68930569Y-77355388D01*
X69141992Y-77355388D01*
G37*
G36*
X68932187Y-77355388D02*
G01*
X68932187Y-77338993D01*
X68720765Y-77338993D01*
X68720765Y-77355388D01*
X68932187Y-77355388D01*
G37*
G36*
X68722383Y-77355388D02*
G01*
X68722383Y-77338993D01*
X68510960Y-77338993D01*
X68510960Y-77355388D01*
X68722383Y-77355388D01*
G37*
G36*
X68512578Y-77355388D02*
G01*
X68512578Y-77338993D01*
X68301155Y-77338993D01*
X68301155Y-77355388D01*
X68512578Y-77355388D01*
G37*
G36*
X68146855Y-77321407D02*
G01*
X68286379Y-77064464D01*
X68247437Y-77064464D01*
X68107226Y-77321407D01*
X68146855Y-77321407D01*
G37*
G36*
X68076910Y-77321407D02*
G01*
X67936699Y-77064464D01*
X67897773Y-77064464D01*
X68037297Y-77321407D01*
X68076910Y-77321407D01*
G37*
G36*
X67867105Y-77321407D02*
G01*
X67726895Y-77064464D01*
X67687968Y-77064464D01*
X67827492Y-77321407D01*
X67867105Y-77321407D01*
G37*
G36*
X67517441Y-77321407D02*
G01*
X67656965Y-77064464D01*
X67618023Y-77064464D01*
X67477813Y-77321407D01*
X67517441Y-77321407D01*
G37*
G36*
X67307636Y-77321407D02*
G01*
X67447160Y-77064464D01*
X67408219Y-77064464D01*
X67268008Y-77321407D01*
X67307636Y-77321407D01*
G37*
G36*
X67097832Y-77321407D02*
G01*
X67237356Y-77064464D01*
X67198414Y-77064464D01*
X67058203Y-77321407D01*
X67097832Y-77321407D01*
G37*
G36*
X66888027Y-77321407D02*
G01*
X67027551Y-77064464D01*
X66988609Y-77064464D01*
X66848399Y-77321407D01*
X66888027Y-77321407D01*
G37*
G36*
X66678223Y-77321407D02*
G01*
X66817746Y-77064464D01*
X66778805Y-77064464D01*
X66638594Y-77321407D01*
X66678223Y-77321407D01*
G37*
G36*
X66624337Y-77355388D02*
G01*
X66624337Y-77338993D01*
X66412914Y-77338993D01*
X66412914Y-77355388D01*
X66624337Y-77355388D01*
G37*
G36*
X66414532Y-77355388D02*
G01*
X66414532Y-77338993D01*
X66203109Y-77338993D01*
X66203109Y-77355388D01*
X66414532Y-77355388D01*
G37*
G36*
X66204727Y-77355388D02*
G01*
X66204727Y-77338993D01*
X65993305Y-77338993D01*
X65993305Y-77355388D01*
X66204727Y-77355388D01*
G37*
G36*
X65994923Y-77355388D02*
G01*
X65994923Y-77338993D01*
X65783500Y-77338993D01*
X65783500Y-77355388D01*
X65994923Y-77355388D01*
G37*
G36*
X65785118Y-77355388D02*
G01*
X65785118Y-77338993D01*
X65573695Y-77338993D01*
X65573695Y-77355388D01*
X65785118Y-77355388D01*
G37*
G36*
X65575314Y-77355388D02*
G01*
X65575314Y-77338993D01*
X65363891Y-77338993D01*
X65363891Y-77355388D01*
X65575314Y-77355388D01*
G37*
G36*
X79632222Y-77775388D02*
G01*
X79632222Y-77758993D01*
X79420799Y-77758993D01*
X79420799Y-77775388D01*
X79632222Y-77775388D01*
G37*
G36*
X79266499Y-77741407D02*
G01*
X79406023Y-77484464D01*
X79367081Y-77484464D01*
X79226871Y-77741407D01*
X79266499Y-77741407D01*
G37*
G36*
X79196554Y-77741407D02*
G01*
X79056343Y-77484464D01*
X79017417Y-77484464D01*
X79156941Y-77741407D01*
X79196554Y-77741407D01*
G37*
G36*
X78846890Y-77741407D02*
G01*
X78986413Y-77484464D01*
X78947472Y-77484464D01*
X78807261Y-77741407D01*
X78846890Y-77741407D01*
G37*
G36*
X78637085Y-77741407D02*
G01*
X78776609Y-77484464D01*
X78737667Y-77484464D01*
X78597457Y-77741407D01*
X78637085Y-77741407D01*
G37*
G36*
X78427281Y-77741407D02*
G01*
X78566804Y-77484464D01*
X78527863Y-77484464D01*
X78387652Y-77741407D01*
X78427281Y-77741407D01*
G37*
G36*
X78373394Y-77775388D02*
G01*
X78373394Y-77758993D01*
X78161972Y-77758993D01*
X78161972Y-77775388D01*
X78373394Y-77775388D01*
G37*
G36*
X78163590Y-77775388D02*
G01*
X78163590Y-77758993D01*
X77952167Y-77758993D01*
X77952167Y-77775388D01*
X78163590Y-77775388D01*
G37*
G36*
X77953785Y-77775388D02*
G01*
X77953785Y-77758993D01*
X77742363Y-77758993D01*
X77742363Y-77775388D01*
X77953785Y-77775388D01*
G37*
G36*
X77743981Y-77775388D02*
G01*
X77743981Y-77758993D01*
X77532558Y-77758993D01*
X77532558Y-77775388D01*
X77743981Y-77775388D01*
G37*
G36*
X77534176Y-77775388D02*
G01*
X77534176Y-77758993D01*
X77322753Y-77758993D01*
X77322753Y-77775388D01*
X77534176Y-77775388D01*
G37*
G36*
X77324371Y-77775388D02*
G01*
X77324371Y-77758993D01*
X77112949Y-77758993D01*
X77112949Y-77775388D01*
X77324371Y-77775388D01*
G37*
G36*
X76958648Y-77741407D02*
G01*
X77098172Y-77484464D01*
X77059231Y-77484464D01*
X76919020Y-77741407D01*
X76958648Y-77741407D01*
G37*
G36*
X76888703Y-77741407D02*
G01*
X76748493Y-77484464D01*
X76709566Y-77484464D01*
X76849090Y-77741407D01*
X76888703Y-77741407D01*
G37*
G36*
X76678899Y-77741407D02*
G01*
X76538688Y-77484464D01*
X76499762Y-77484464D01*
X76639286Y-77741407D01*
X76678899Y-77741407D01*
G37*
G36*
X76329234Y-77741407D02*
G01*
X76468758Y-77484464D01*
X76429817Y-77484464D01*
X76289606Y-77741407D01*
X76329234Y-77741407D01*
G37*
G36*
X76119430Y-77741407D02*
G01*
X76258954Y-77484464D01*
X76220012Y-77484464D01*
X76079801Y-77741407D01*
X76119430Y-77741407D01*
G37*
G36*
X75909625Y-77741407D02*
G01*
X76049149Y-77484464D01*
X76010208Y-77484464D01*
X75869997Y-77741407D01*
X75909625Y-77741407D01*
G37*
G36*
X75855739Y-77775388D02*
G01*
X75855739Y-77758993D01*
X75644316Y-77758993D01*
X75644316Y-77775388D01*
X75855739Y-77775388D01*
G37*
G36*
X75490016Y-77741407D02*
G01*
X75629540Y-77484464D01*
X75590598Y-77484464D01*
X75450388Y-77741407D01*
X75490016Y-77741407D01*
G37*
G36*
X75420071Y-77741407D02*
G01*
X75279860Y-77484464D01*
X75240934Y-77484464D01*
X75380458Y-77741407D01*
X75420071Y-77741407D01*
G37*
G36*
X75070407Y-77741407D02*
G01*
X75209931Y-77484464D01*
X75170989Y-77484464D01*
X75030778Y-77741407D01*
X75070407Y-77741407D01*
G37*
G36*
X74860602Y-77741407D02*
G01*
X75000126Y-77484464D01*
X74961185Y-77484464D01*
X74820974Y-77741407D01*
X74860602Y-77741407D01*
G37*
G36*
X74650798Y-77741407D02*
G01*
X74790321Y-77484464D01*
X74751380Y-77484464D01*
X74611169Y-77741407D01*
X74650798Y-77741407D01*
G37*
G36*
X74596912Y-77775388D02*
G01*
X74596912Y-77758993D01*
X74385489Y-77758993D01*
X74385489Y-77775388D01*
X74596912Y-77775388D01*
G37*
G36*
X74387107Y-77775388D02*
G01*
X74387107Y-77758993D01*
X74175684Y-77758993D01*
X74175684Y-77775388D01*
X74387107Y-77775388D01*
G37*
G36*
X74177302Y-77775388D02*
G01*
X74177302Y-77758993D01*
X73965880Y-77758993D01*
X73965880Y-77775388D01*
X74177302Y-77775388D01*
G37*
G36*
X73967498Y-77775388D02*
G01*
X73967498Y-77758993D01*
X73756075Y-77758993D01*
X73756075Y-77775388D01*
X73967498Y-77775388D01*
G37*
G36*
X73757693Y-77775388D02*
G01*
X73757693Y-77758993D01*
X73546270Y-77758993D01*
X73546270Y-77775388D01*
X73757693Y-77775388D01*
G37*
G36*
X73547889Y-77775388D02*
G01*
X73547889Y-77758993D01*
X73336466Y-77758993D01*
X73336466Y-77775388D01*
X73547889Y-77775388D01*
G37*
G36*
X73182165Y-77741407D02*
G01*
X73321689Y-77484464D01*
X73282748Y-77484464D01*
X73142537Y-77741407D01*
X73182165Y-77741407D01*
G37*
G36*
X73112220Y-77741407D02*
G01*
X72972010Y-77484464D01*
X72933084Y-77484464D01*
X73072607Y-77741407D01*
X73112220Y-77741407D01*
G37*
G36*
X72902416Y-77741407D02*
G01*
X72762205Y-77484464D01*
X72723279Y-77484464D01*
X72862803Y-77741407D01*
X72902416Y-77741407D01*
G37*
G36*
X72552752Y-77741407D02*
G01*
X72692275Y-77484464D01*
X72653334Y-77484464D01*
X72513123Y-77741407D01*
X72552752Y-77741407D01*
G37*
G36*
X72342947Y-77741407D02*
G01*
X72482471Y-77484464D01*
X72443529Y-77484464D01*
X72303319Y-77741407D01*
X72342947Y-77741407D01*
G37*
G36*
X72133142Y-77741407D02*
G01*
X72272666Y-77484464D01*
X72233725Y-77484464D01*
X72093514Y-77741407D01*
X72133142Y-77741407D01*
G37*
G36*
X72079256Y-77775388D02*
G01*
X72079256Y-77758993D01*
X71867834Y-77758993D01*
X71867834Y-77775388D01*
X72079256Y-77775388D01*
G37*
G36*
X71869452Y-77775388D02*
G01*
X71869452Y-77758993D01*
X71658029Y-77758993D01*
X71658029Y-77775388D01*
X71869452Y-77775388D01*
G37*
G36*
X71643588Y-77741407D02*
G01*
X71503377Y-77484464D01*
X71464451Y-77484464D01*
X71603975Y-77741407D01*
X71643588Y-77741407D01*
G37*
G36*
X71293924Y-77741407D02*
G01*
X71433448Y-77484464D01*
X71394506Y-77484464D01*
X71254296Y-77741407D01*
X71293924Y-77741407D01*
G37*
G36*
X71084119Y-77741407D02*
G01*
X71223643Y-77484464D01*
X71184702Y-77484464D01*
X71044491Y-77741407D01*
X71084119Y-77741407D01*
G37*
G36*
X70874315Y-77741407D02*
G01*
X71013838Y-77484464D01*
X70974897Y-77484464D01*
X70834686Y-77741407D01*
X70874315Y-77741407D01*
G37*
G36*
X70664510Y-77741407D02*
G01*
X70804034Y-77484464D01*
X70765092Y-77484464D01*
X70624882Y-77741407D01*
X70664510Y-77741407D01*
G37*
G36*
X70454706Y-77741407D02*
G01*
X70594229Y-77484464D01*
X70555288Y-77484464D01*
X70415077Y-77741407D01*
X70454706Y-77741407D01*
G37*
G36*
X70244901Y-77741407D02*
G01*
X70384425Y-77484464D01*
X70345483Y-77484464D01*
X70205273Y-77741407D01*
X70244901Y-77741407D01*
G37*
G36*
X70035096Y-77741407D02*
G01*
X70174620Y-77484464D01*
X70135679Y-77484464D01*
X69995468Y-77741407D01*
X70035096Y-77741407D01*
G37*
G36*
X69825292Y-77741407D02*
G01*
X69964815Y-77484464D01*
X69925874Y-77484464D01*
X69785663Y-77741407D01*
X69825292Y-77741407D01*
G37*
G36*
X69615487Y-77741407D02*
G01*
X69755011Y-77484464D01*
X69716069Y-77484464D01*
X69575859Y-77741407D01*
X69615487Y-77741407D01*
G37*
G36*
X69405683Y-77741407D02*
G01*
X69545206Y-77484464D01*
X69506265Y-77484464D01*
X69366054Y-77741407D01*
X69405683Y-77741407D01*
G37*
G36*
X69195878Y-77741407D02*
G01*
X69335402Y-77484464D01*
X69296460Y-77484464D01*
X69156250Y-77741407D01*
X69195878Y-77741407D01*
G37*
G36*
X69141992Y-77775388D02*
G01*
X69141992Y-77758993D01*
X68930569Y-77758993D01*
X68930569Y-77775388D01*
X69141992Y-77775388D01*
G37*
G36*
X68932187Y-77775388D02*
G01*
X68932187Y-77758993D01*
X68720765Y-77758993D01*
X68720765Y-77775388D01*
X68932187Y-77775388D01*
G37*
G36*
X68722383Y-77775388D02*
G01*
X68722383Y-77758993D01*
X68510960Y-77758993D01*
X68510960Y-77775388D01*
X68722383Y-77775388D01*
G37*
G36*
X68512578Y-77775388D02*
G01*
X68512578Y-77758993D01*
X68301155Y-77758993D01*
X68301155Y-77775388D01*
X68512578Y-77775388D01*
G37*
G36*
X68302773Y-77775388D02*
G01*
X68302773Y-77758993D01*
X68091351Y-77758993D01*
X68091351Y-77775388D01*
X68302773Y-77775388D01*
G37*
G36*
X68092969Y-77775388D02*
G01*
X68092969Y-77758993D01*
X67881546Y-77758993D01*
X67881546Y-77775388D01*
X68092969Y-77775388D01*
G37*
G36*
X67727246Y-77741407D02*
G01*
X67866769Y-77484464D01*
X67827828Y-77484464D01*
X67687617Y-77741407D01*
X67727246Y-77741407D01*
G37*
G36*
X67657301Y-77741407D02*
G01*
X67517090Y-77484464D01*
X67478164Y-77484464D01*
X67617687Y-77741407D01*
X67657301Y-77741407D01*
G37*
G36*
X67447496Y-77741407D02*
G01*
X67307285Y-77484464D01*
X67268359Y-77484464D01*
X67407883Y-77741407D01*
X67447496Y-77741407D01*
G37*
G36*
X67097832Y-77741407D02*
G01*
X67237356Y-77484464D01*
X67198414Y-77484464D01*
X67058203Y-77741407D01*
X67097832Y-77741407D01*
G37*
G36*
X66888027Y-77741407D02*
G01*
X67027551Y-77484464D01*
X66988609Y-77484464D01*
X66848399Y-77741407D01*
X66888027Y-77741407D01*
G37*
G36*
X66678223Y-77741407D02*
G01*
X66817746Y-77484464D01*
X66778805Y-77484464D01*
X66638594Y-77741407D01*
X66678223Y-77741407D01*
G37*
G36*
X66624337Y-77775388D02*
G01*
X66624337Y-77758993D01*
X66412914Y-77758993D01*
X66412914Y-77775388D01*
X66624337Y-77775388D01*
G37*
G36*
X66414532Y-77775388D02*
G01*
X66414532Y-77758993D01*
X66203109Y-77758993D01*
X66203109Y-77775388D01*
X66414532Y-77775388D01*
G37*
G36*
X66204727Y-77775388D02*
G01*
X66204727Y-77758993D01*
X65993305Y-77758993D01*
X65993305Y-77775388D01*
X66204727Y-77775388D01*
G37*
G36*
X65994923Y-77775388D02*
G01*
X65994923Y-77758993D01*
X65783500Y-77758993D01*
X65783500Y-77775388D01*
X65994923Y-77775388D01*
G37*
G36*
X65785118Y-77775388D02*
G01*
X65785118Y-77758993D01*
X65573695Y-77758993D01*
X65573695Y-77775388D01*
X65785118Y-77775388D01*
G37*
G36*
X65575314Y-77775388D02*
G01*
X65575314Y-77758993D01*
X65363891Y-77758993D01*
X65363891Y-77775388D01*
X65575314Y-77775388D01*
G37*
G36*
X65365509Y-77775388D02*
G01*
X65365509Y-77758993D01*
X65154086Y-77758993D01*
X65154086Y-77775388D01*
X65365509Y-77775388D01*
G37*
G36*
X79422418Y-78195388D02*
G01*
X79422418Y-78178993D01*
X79210995Y-78178993D01*
X79210995Y-78195388D01*
X79422418Y-78195388D01*
G37*
G36*
X79056694Y-78161407D02*
G01*
X79196218Y-77904464D01*
X79157277Y-77904464D01*
X79017066Y-78161407D01*
X79056694Y-78161407D01*
G37*
G36*
X78986749Y-78161407D02*
G01*
X78846539Y-77904464D01*
X78807612Y-77904464D01*
X78947136Y-78161407D01*
X78986749Y-78161407D01*
G37*
G36*
X78776945Y-78161407D02*
G01*
X78636734Y-77904464D01*
X78597808Y-77904464D01*
X78737332Y-78161407D01*
X78776945Y-78161407D01*
G37*
G36*
X78567140Y-78161407D02*
G01*
X78426929Y-77904464D01*
X78388003Y-77904464D01*
X78527527Y-78161407D01*
X78567140Y-78161407D01*
G37*
G36*
X78373394Y-78195388D02*
G01*
X78373394Y-78178993D01*
X78161972Y-78178993D01*
X78161972Y-78195388D01*
X78373394Y-78195388D01*
G37*
G36*
X78163590Y-78195388D02*
G01*
X78163590Y-78178993D01*
X77952167Y-78178993D01*
X77952167Y-78195388D01*
X78163590Y-78195388D01*
G37*
G36*
X77953785Y-78195388D02*
G01*
X77953785Y-78178993D01*
X77742363Y-78178993D01*
X77742363Y-78195388D01*
X77953785Y-78195388D01*
G37*
G36*
X77743981Y-78195388D02*
G01*
X77743981Y-78178993D01*
X77532558Y-78178993D01*
X77532558Y-78195388D01*
X77743981Y-78195388D01*
G37*
G36*
X77534176Y-78195388D02*
G01*
X77534176Y-78178993D01*
X77322753Y-78178993D01*
X77322753Y-78195388D01*
X77534176Y-78195388D01*
G37*
G36*
X77324371Y-78195388D02*
G01*
X77324371Y-78178993D01*
X77112949Y-78178993D01*
X77112949Y-78195388D01*
X77324371Y-78195388D01*
G37*
G36*
X77114567Y-78195388D02*
G01*
X77114567Y-78178993D01*
X76903144Y-78178993D01*
X76903144Y-78195388D01*
X77114567Y-78195388D01*
G37*
G36*
X76904762Y-78195388D02*
G01*
X76904762Y-78178993D01*
X76693340Y-78178993D01*
X76693340Y-78195388D01*
X76904762Y-78195388D01*
G37*
G36*
X76539039Y-78161407D02*
G01*
X76678563Y-77904464D01*
X76639621Y-77904464D01*
X76499411Y-78161407D01*
X76539039Y-78161407D01*
G37*
G36*
X76469094Y-78161407D02*
G01*
X76328883Y-77904464D01*
X76289957Y-77904464D01*
X76429481Y-78161407D01*
X76469094Y-78161407D01*
G37*
G36*
X76259289Y-78161407D02*
G01*
X76119079Y-77904464D01*
X76080153Y-77904464D01*
X76219676Y-78161407D01*
X76259289Y-78161407D01*
G37*
G36*
X76049485Y-78161407D02*
G01*
X75909274Y-77904464D01*
X75870348Y-77904464D01*
X76009872Y-78161407D01*
X76049485Y-78161407D01*
G37*
G36*
X75855739Y-78195388D02*
G01*
X75855739Y-78178993D01*
X75644316Y-78178993D01*
X75644316Y-78195388D01*
X75855739Y-78195388D01*
G37*
G36*
X75645935Y-78195388D02*
G01*
X75645935Y-78178993D01*
X75434512Y-78178993D01*
X75434512Y-78195388D01*
X75645935Y-78195388D01*
G37*
G36*
X75280211Y-78161407D02*
G01*
X75419735Y-77904464D01*
X75380794Y-77904464D01*
X75240583Y-78161407D01*
X75280211Y-78161407D01*
G37*
G36*
X75210266Y-78161407D02*
G01*
X75070056Y-77904464D01*
X75031130Y-77904464D01*
X75170653Y-78161407D01*
X75210266Y-78161407D01*
G37*
G36*
X75000462Y-78161407D02*
G01*
X74860251Y-77904464D01*
X74821325Y-77904464D01*
X74960849Y-78161407D01*
X75000462Y-78161407D01*
G37*
G36*
X74790657Y-78161407D02*
G01*
X74650447Y-77904464D01*
X74611520Y-77904464D01*
X74751044Y-78161407D01*
X74790657Y-78161407D01*
G37*
G36*
X74596912Y-78195388D02*
G01*
X74596912Y-78178993D01*
X74385489Y-78178993D01*
X74385489Y-78195388D01*
X74596912Y-78195388D01*
G37*
G36*
X74387107Y-78195388D02*
G01*
X74387107Y-78178993D01*
X74175684Y-78178993D01*
X74175684Y-78195388D01*
X74387107Y-78195388D01*
G37*
G36*
X74177302Y-78195388D02*
G01*
X74177302Y-78178993D01*
X73965880Y-78178993D01*
X73965880Y-78195388D01*
X74177302Y-78195388D01*
G37*
G36*
X73967498Y-78195388D02*
G01*
X73967498Y-78178993D01*
X73756075Y-78178993D01*
X73756075Y-78195388D01*
X73967498Y-78195388D01*
G37*
G36*
X73757693Y-78195388D02*
G01*
X73757693Y-78178993D01*
X73546270Y-78178993D01*
X73546270Y-78195388D01*
X73757693Y-78195388D01*
G37*
G36*
X73547889Y-78195388D02*
G01*
X73547889Y-78178993D01*
X73336466Y-78178993D01*
X73336466Y-78195388D01*
X73547889Y-78195388D01*
G37*
G36*
X73338084Y-78195388D02*
G01*
X73338084Y-78178993D01*
X73126661Y-78178993D01*
X73126661Y-78195388D01*
X73338084Y-78195388D01*
G37*
G36*
X73128279Y-78195388D02*
G01*
X73128279Y-78178993D01*
X72916857Y-78178993D01*
X72916857Y-78195388D01*
X73128279Y-78195388D01*
G37*
G36*
X72762556Y-78161407D02*
G01*
X72902080Y-77904464D01*
X72863138Y-77904464D01*
X72722928Y-78161407D01*
X72762556Y-78161407D01*
G37*
G36*
X72692611Y-78161407D02*
G01*
X72552400Y-77904464D01*
X72513474Y-77904464D01*
X72652998Y-78161407D01*
X72692611Y-78161407D01*
G37*
G36*
X72482807Y-78161407D02*
G01*
X72342596Y-77904464D01*
X72303670Y-77904464D01*
X72443193Y-78161407D01*
X72482807Y-78161407D01*
G37*
G36*
X72273002Y-78161407D02*
G01*
X72132791Y-77904464D01*
X72093865Y-77904464D01*
X72233389Y-78161407D01*
X72273002Y-78161407D01*
G37*
G36*
X72079256Y-78195388D02*
G01*
X72079256Y-78178993D01*
X71867834Y-78178993D01*
X71867834Y-78195388D01*
X72079256Y-78195388D01*
G37*
G36*
X71869452Y-78195388D02*
G01*
X71869452Y-78178993D01*
X71658029Y-78178993D01*
X71658029Y-78195388D01*
X71869452Y-78195388D01*
G37*
G36*
X71503729Y-78161407D02*
G01*
X71643252Y-77904464D01*
X71604311Y-77904464D01*
X71464100Y-78161407D01*
X71503729Y-78161407D01*
G37*
G36*
X71433784Y-78161407D02*
G01*
X71293573Y-77904464D01*
X71254647Y-77904464D01*
X71394170Y-78161407D01*
X71433784Y-78161407D01*
G37*
G36*
X71223979Y-78161407D02*
G01*
X71083768Y-77904464D01*
X71044842Y-77904464D01*
X71184366Y-78161407D01*
X71223979Y-78161407D01*
G37*
G36*
X71014174Y-78161407D02*
G01*
X70873964Y-77904464D01*
X70835037Y-77904464D01*
X70974561Y-78161407D01*
X71014174Y-78161407D01*
G37*
G36*
X70804370Y-78161407D02*
G01*
X70664159Y-77904464D01*
X70625233Y-77904464D01*
X70764757Y-78161407D01*
X70804370Y-78161407D01*
G37*
G36*
X70594565Y-78161407D02*
G01*
X70454354Y-77904464D01*
X70415428Y-77904464D01*
X70554952Y-78161407D01*
X70594565Y-78161407D01*
G37*
G36*
X70384760Y-78161407D02*
G01*
X70244550Y-77904464D01*
X70205624Y-77904464D01*
X70345147Y-78161407D01*
X70384760Y-78161407D01*
G37*
G36*
X70174956Y-78161407D02*
G01*
X70034745Y-77904464D01*
X69995819Y-77904464D01*
X70135343Y-78161407D01*
X70174956Y-78161407D01*
G37*
G36*
X69965151Y-78161407D02*
G01*
X69824941Y-77904464D01*
X69786014Y-77904464D01*
X69925538Y-78161407D01*
X69965151Y-78161407D01*
G37*
G36*
X69755347Y-78161407D02*
G01*
X69615136Y-77904464D01*
X69576210Y-77904464D01*
X69715734Y-78161407D01*
X69755347Y-78161407D01*
G37*
G36*
X69545542Y-78161407D02*
G01*
X69405331Y-77904464D01*
X69366405Y-77904464D01*
X69505929Y-78161407D01*
X69545542Y-78161407D01*
G37*
G36*
X69335737Y-78161407D02*
G01*
X69195527Y-77904464D01*
X69156601Y-77904464D01*
X69296124Y-78161407D01*
X69335737Y-78161407D01*
G37*
G36*
X69141992Y-78195388D02*
G01*
X69141992Y-78178993D01*
X68930569Y-78178993D01*
X68930569Y-78195388D01*
X69141992Y-78195388D01*
G37*
G36*
X68932187Y-78195388D02*
G01*
X68932187Y-78178993D01*
X68720765Y-78178993D01*
X68720765Y-78195388D01*
X68932187Y-78195388D01*
G37*
G36*
X68722383Y-78195388D02*
G01*
X68722383Y-78178993D01*
X68510960Y-78178993D01*
X68510960Y-78195388D01*
X68722383Y-78195388D01*
G37*
G36*
X68512578Y-78195388D02*
G01*
X68512578Y-78178993D01*
X68301155Y-78178993D01*
X68301155Y-78195388D01*
X68512578Y-78195388D01*
G37*
G36*
X68302773Y-78195388D02*
G01*
X68302773Y-78178993D01*
X68091351Y-78178993D01*
X68091351Y-78195388D01*
X68302773Y-78195388D01*
G37*
G36*
X68092969Y-78195388D02*
G01*
X68092969Y-78178993D01*
X67881546Y-78178993D01*
X67881546Y-78195388D01*
X68092969Y-78195388D01*
G37*
G36*
X67883164Y-78195388D02*
G01*
X67883164Y-78178993D01*
X67671741Y-78178993D01*
X67671741Y-78195388D01*
X67883164Y-78195388D01*
G37*
G36*
X67673360Y-78195388D02*
G01*
X67673360Y-78178993D01*
X67461937Y-78178993D01*
X67461937Y-78195388D01*
X67673360Y-78195388D01*
G37*
G36*
X67307636Y-78161407D02*
G01*
X67447160Y-77904464D01*
X67408219Y-77904464D01*
X67268008Y-78161407D01*
X67307636Y-78161407D01*
G37*
G36*
X67237691Y-78161407D02*
G01*
X67097481Y-77904464D01*
X67058555Y-77904464D01*
X67198078Y-78161407D01*
X67237691Y-78161407D01*
G37*
G36*
X67027887Y-78161407D02*
G01*
X66887676Y-77904464D01*
X66848750Y-77904464D01*
X66988274Y-78161407D01*
X67027887Y-78161407D01*
G37*
G36*
X66818082Y-78161407D02*
G01*
X66677872Y-77904464D01*
X66638945Y-77904464D01*
X66778469Y-78161407D01*
X66818082Y-78161407D01*
G37*
G36*
X66624337Y-78195388D02*
G01*
X66624337Y-78178993D01*
X66412914Y-78178993D01*
X66412914Y-78195388D01*
X66624337Y-78195388D01*
G37*
G36*
X66414532Y-78195388D02*
G01*
X66414532Y-78178993D01*
X66203109Y-78178993D01*
X66203109Y-78195388D01*
X66414532Y-78195388D01*
G37*
G36*
X66204727Y-78195388D02*
G01*
X66204727Y-78178993D01*
X65993305Y-78178993D01*
X65993305Y-78195388D01*
X66204727Y-78195388D01*
G37*
G36*
X65994923Y-78195388D02*
G01*
X65994923Y-78178993D01*
X65783500Y-78178993D01*
X65783500Y-78195388D01*
X65994923Y-78195388D01*
G37*
G36*
X65785118Y-78195388D02*
G01*
X65785118Y-78178993D01*
X65573695Y-78178993D01*
X65573695Y-78195388D01*
X65785118Y-78195388D01*
G37*
G36*
X65575314Y-78195388D02*
G01*
X65575314Y-78178993D01*
X65363891Y-78178993D01*
X65363891Y-78195388D01*
X65575314Y-78195388D01*
G37*
G36*
X65365509Y-78195388D02*
G01*
X65365509Y-78178993D01*
X65154086Y-78178993D01*
X65154086Y-78195388D01*
X65365509Y-78195388D01*
G37*
G36*
X65155704Y-78195388D02*
G01*
X65155704Y-78178993D01*
X64944282Y-78178993D01*
X64944282Y-78195388D01*
X65155704Y-78195388D01*
G37*
M02*
