%TF.GenerationSoftware,KiCad,Pcbnew,9.0.4-9.0.4-0~ubuntu22.04.1*%
%TF.CreationDate,2025-10-24T15:48:00-04:00*%
%TF.ProjectId,Thermistor Ring,54686572-6d69-4737-946f-722052696e67,rev?*%
%TF.SameCoordinates,Original*%
%TF.FileFunction,Copper,L2,Bot*%
%TF.FilePolarity,Positive*%
%FSLAX46Y46*%
G04 Gerber Fmt 4.6, Leading zero omitted, Abs format (unit mm)*
G04 Created by KiCad (PCBNEW 9.0.4-9.0.4-0~ubuntu22.04.1) date 2025-10-24 15:48:00*
%MOMM*%
%LPD*%
G01*
G04 APERTURE LIST*
G04 Aperture macros list*
%AMRoundRect*
0 Rectangle with rounded corners*
0 $1 Rounding radius*
0 $2 $3 $4 $5 $6 $7 $8 $9 X,Y pos of 4 corners*
0 Add a 4 corners polygon primitive as box body*
4,1,4,$2,$3,$4,$5,$6,$7,$8,$9,$2,$3,0*
0 Add four circle primitives for the rounded corners*
1,1,$1+$1,$2,$3*
1,1,$1+$1,$4,$5*
1,1,$1+$1,$6,$7*
1,1,$1+$1,$8,$9*
0 Add four rect primitives between the rounded corners*
20,1,$1+$1,$2,$3,$4,$5,0*
20,1,$1+$1,$4,$5,$6,$7,0*
20,1,$1+$1,$6,$7,$8,$9,0*
20,1,$1+$1,$8,$9,$2,$3,0*%
%AMHorizOval*
0 Thick line with rounded ends*
0 $1 width*
0 $2 $3 position (X,Y) of the first rounded end (center of the circle)*
0 $4 $5 position (X,Y) of the second rounded end (center of the circle)*
0 Add line between two ends*
20,1,$1,$2,$3,$4,$5,0*
0 Add two circle primitives to create the rounded ends*
1,1,$1,$2,$3*
1,1,$1,$4,$5*%
G04 Aperture macros list end*
%TA.AperFunction,ComponentPad*%
%ADD10RoundRect,0.250000X-0.276882X-0.899423X0.831773X-0.440203X0.276882X0.899423X-0.831773X0.440203X0*%
%TD*%
%TA.AperFunction,ComponentPad*%
%ADD11HorizOval,1.700000X-0.047835X0.115485X0.047835X-0.115485X0*%
%TD*%
%TA.AperFunction,ViaPad*%
%ADD12C,0.600000*%
%TD*%
%TA.AperFunction,ViaPad*%
%ADD13C,0.800000*%
%TD*%
%TA.AperFunction,Conductor*%
%ADD14C,0.380000*%
%TD*%
%TA.AperFunction,Conductor*%
%ADD15C,0.160000*%
%TD*%
G04 APERTURE END LIST*
D10*
%TO.P,J1,1,Pin_1*%
%TO.N,GND*%
X62380602Y-38456709D03*
D11*
%TO.P,J1,2,Pin_2*%
%TO.N,VCC*%
X64690301Y-37500000D03*
%TO.P,J1,3,Pin_3*%
%TO.N,/SDA*%
X67000000Y-36543292D03*
%TO.P,J1,4,Pin_4*%
%TO.N,/SCL*%
X69309698Y-35586583D03*
%TD*%
D12*
%TO.N,GND*%
X70400000Y-38000000D03*
X74680862Y-38019138D03*
X74500000Y-37200000D03*
D13*
%TO.N,VCC*%
X56600000Y-42600000D03*
%TO.N,GND*%
X73800000Y-33700000D03*
X55800000Y-70200000D03*
D12*
X85400000Y-68000000D03*
X85100000Y-45900000D03*
X97000000Y-55800000D03*
X93100000Y-50500000D03*
X82400000Y-41700000D03*
X58300000Y-48600000D03*
X52000000Y-62000000D03*
X51100000Y-57400000D03*
X64200000Y-75100000D03*
X78400000Y-73900000D03*
D13*
X56500000Y-50800000D03*
D12*
X83300000Y-38400000D03*
D13*
X81200000Y-38000000D03*
X54000000Y-47100000D03*
D12*
X90000000Y-68200000D03*
D13*
X56200000Y-65200000D03*
X56189400Y-59089400D03*
X92273166Y-63300000D03*
X66500000Y-76100000D03*
X85600000Y-42500000D03*
X92900000Y-48400000D03*
X82400000Y-75700000D03*
X63600000Y-71300000D03*
X76044700Y-74955300D03*
D12*
%TO.N,/SDA*%
X61000000Y-44500000D03*
X57500000Y-41000000D03*
D13*
%TO.N,VCC*%
X56100000Y-49100000D03*
X91200000Y-64700000D03*
X54300000Y-67200000D03*
X53600000Y-50600000D03*
X94250000Y-47050000D03*
X59600000Y-45600000D03*
X83850000Y-77150000D03*
X91200000Y-59000000D03*
D12*
X85600000Y-71500000D03*
D13*
X81200000Y-36100000D03*
X66800000Y-78000000D03*
D12*
%TO.N,GND*%
X80000000Y-78800000D03*
X60400000Y-75500000D03*
X57500000Y-62600000D03*
X68200000Y-40800000D03*
%TD*%
D14*
%TO.N,VCC*%
X55600000Y-43600000D02*
X56600000Y-42600000D01*
X55600000Y-44400000D02*
X55600000Y-43600000D01*
X59600000Y-45600000D02*
X56800000Y-45600000D01*
X56800000Y-45600000D02*
X55600000Y-44400000D01*
X56100000Y-49100000D02*
X55100000Y-49100000D01*
X55100000Y-49100000D02*
X53600000Y-50600000D01*
X53600000Y-50600000D02*
X55100000Y-52100000D01*
X55100000Y-52100000D02*
X55100000Y-66400000D01*
X55100000Y-66400000D02*
X54300000Y-67200000D01*
X66800000Y-78000000D02*
X83000000Y-78000000D01*
X83000000Y-78000000D02*
X83850000Y-77150000D01*
X83850000Y-77150000D02*
X85600000Y-75400000D01*
X85600000Y-75400000D02*
X85600000Y-71500000D01*
X91200000Y-64700000D02*
X91200000Y-65900000D01*
X91200000Y-59000000D02*
X91200000Y-64700000D01*
X91200000Y-65900000D02*
X85600000Y-71500000D01*
X94300000Y-47100000D02*
X94300000Y-57100000D01*
X94250000Y-47050000D02*
X94300000Y-47100000D01*
X94300000Y-57100000D02*
X92400000Y-59000000D01*
X92400000Y-59000000D02*
X91200000Y-59000000D01*
X94250000Y-47050000D02*
X83300000Y-36100000D01*
X83300000Y-36100000D02*
X81200000Y-36100000D01*
X81200000Y-36100000D02*
X80100000Y-36100000D01*
X66590301Y-39400000D02*
X64690301Y-37500000D01*
X76800000Y-39400000D02*
X66590301Y-39400000D01*
X80100000Y-36100000D02*
X76800000Y-39400000D01*
D15*
%TO.N,/SDA*%
X57500000Y-41000000D02*
X61000000Y-44500000D01*
X61000000Y-44500000D02*
X60750000Y-44250000D01*
D14*
%TO.N,VCC*%
X59600000Y-45600000D02*
X61400000Y-45600000D01*
X61400000Y-45600000D02*
X64690301Y-42309699D01*
X64690301Y-42309699D02*
X64690301Y-37500000D01*
%TD*%
%TA.AperFunction,Conductor*%
%TO.N,GND*%
G36*
X74445608Y-32836403D02*
G01*
X74545549Y-32838443D01*
X74547752Y-32838508D01*
X75395805Y-32871828D01*
X75398335Y-32871955D01*
X75493645Y-32877795D01*
X75495740Y-32877942D01*
X76347977Y-32945014D01*
X76350697Y-32945260D01*
X76436413Y-32954034D01*
X76438025Y-32954212D01*
X77297793Y-33055973D01*
X77300740Y-33056359D01*
X77370808Y-33066433D01*
X77372512Y-33066691D01*
X78243545Y-33204649D01*
X78246742Y-33205199D01*
X78294534Y-33214073D01*
X78295909Y-33214338D01*
X79183658Y-33390922D01*
X79186901Y-33391614D01*
X79203715Y-33395452D01*
X79204737Y-33395691D01*
X80109700Y-33612954D01*
X80114351Y-33614168D01*
X80955177Y-33851305D01*
X81021568Y-33870029D01*
X81026227Y-33871442D01*
X81922715Y-34162729D01*
X81927253Y-34164302D01*
X82811646Y-34490571D01*
X82816163Y-34492340D01*
X83687022Y-34853062D01*
X83691438Y-34854993D01*
X84244504Y-35109960D01*
X84547476Y-35249632D01*
X84551857Y-35251757D01*
X84861508Y-35409532D01*
X85391748Y-35679703D01*
X85396004Y-35681979D01*
X86218411Y-36142549D01*
X86222607Y-36145008D01*
X86275009Y-36177120D01*
X87026306Y-36637515D01*
X87030407Y-36640140D01*
X87814155Y-37163823D01*
X87818149Y-37166607D01*
X88580711Y-37720641D01*
X88584594Y-37723580D01*
X88694828Y-37810481D01*
X89324862Y-38307160D01*
X89328570Y-38310203D01*
X90045371Y-38922410D01*
X90048981Y-38925618D01*
X90169923Y-39037415D01*
X90741162Y-39565463D01*
X90744672Y-39568838D01*
X91411180Y-40235346D01*
X91414555Y-40238856D01*
X92040754Y-40916275D01*
X92041734Y-40917348D01*
X92060923Y-40938601D01*
X92063177Y-40941167D01*
X92645376Y-41622835D01*
X92646435Y-41624091D01*
X92682744Y-41667762D01*
X92684747Y-41670237D01*
X93224446Y-42354842D01*
X93226922Y-42357982D01*
X93228048Y-42359432D01*
X93274496Y-42420179D01*
X93276309Y-42422612D01*
X93782606Y-43119470D01*
X93783782Y-43121117D01*
X93835292Y-43194504D01*
X93836900Y-43196851D01*
X94310352Y-43905422D01*
X94311565Y-43907273D01*
X94311566Y-43907274D01*
X94364230Y-43989221D01*
X94365641Y-43991470D01*
X94808433Y-44714042D01*
X94809669Y-44716103D01*
X94860456Y-44802703D01*
X94861682Y-44804843D01*
X95275437Y-45543655D01*
X95276681Y-45545930D01*
X95323177Y-45633185D01*
X95324229Y-45635204D01*
X95710213Y-46392739D01*
X95711448Y-46395232D01*
X95751688Y-46478791D01*
X95752578Y-46480679D01*
X96111720Y-47259721D01*
X96112932Y-47262435D01*
X96145262Y-47337229D01*
X96146001Y-47338976D01*
X96479072Y-48143079D01*
X96480245Y-48146015D01*
X96503264Y-48205859D01*
X96503866Y-48207458D01*
X96811471Y-49041259D01*
X96812589Y-49044419D01*
X96825157Y-49081548D01*
X96825634Y-49082988D01*
X97108245Y-49952771D01*
X97109293Y-49956162D01*
X97110400Y-49959933D01*
X97110765Y-49961201D01*
X97365842Y-50865637D01*
X97367072Y-50870349D01*
X97587121Y-51786920D01*
X97588164Y-51791676D01*
X97772052Y-52716143D01*
X97772908Y-52720936D01*
X97920363Y-53651929D01*
X97921030Y-53656752D01*
X98031818Y-54592792D01*
X98032296Y-54597638D01*
X98106254Y-55537360D01*
X98106540Y-55542221D01*
X98143545Y-56484060D01*
X98143641Y-56488928D01*
X98143641Y-57431543D01*
X98143545Y-57436411D01*
X98106540Y-58378250D01*
X98106254Y-58383111D01*
X98032296Y-59322833D01*
X98031818Y-59327679D01*
X97921030Y-60263719D01*
X97920363Y-60268542D01*
X97772908Y-61199535D01*
X97772052Y-61204328D01*
X97588164Y-62128795D01*
X97587121Y-62133551D01*
X97367072Y-63050122D01*
X97365842Y-63054834D01*
X97110765Y-63959269D01*
X97110400Y-63960537D01*
X97109293Y-63964308D01*
X97108245Y-63967699D01*
X96825634Y-64837482D01*
X96825157Y-64838922D01*
X96812589Y-64876051D01*
X96811471Y-64879211D01*
X96503866Y-65713012D01*
X96503264Y-65714611D01*
X96480245Y-65774455D01*
X96479072Y-65777391D01*
X96146001Y-66581494D01*
X96145262Y-66583241D01*
X96112932Y-66658035D01*
X96111720Y-66660749D01*
X95752578Y-67439791D01*
X95751688Y-67441679D01*
X95711448Y-67525238D01*
X95710213Y-67527731D01*
X95324229Y-68285266D01*
X95323177Y-68287285D01*
X95276681Y-68374540D01*
X95275437Y-68376815D01*
X94861682Y-69115627D01*
X94860456Y-69117767D01*
X94809669Y-69204367D01*
X94808433Y-69206428D01*
X94365641Y-69929000D01*
X94364230Y-69931249D01*
X94311566Y-70013196D01*
X94310352Y-70015048D01*
X93836900Y-70723619D01*
X93835292Y-70725966D01*
X93783782Y-70799353D01*
X93782606Y-70801000D01*
X93276309Y-71497858D01*
X93274496Y-71500291D01*
X93228048Y-71561038D01*
X93226922Y-71562488D01*
X92684747Y-72250233D01*
X92682717Y-72252741D01*
X92646435Y-72296379D01*
X92645376Y-72297635D01*
X92063177Y-72979303D01*
X92060925Y-72981867D01*
X92041736Y-73003121D01*
X92040754Y-73004196D01*
X91414555Y-73681615D01*
X91411180Y-73685125D01*
X90744672Y-74351633D01*
X90741162Y-74355008D01*
X90048996Y-74994840D01*
X90045357Y-74998074D01*
X89328598Y-75610245D01*
X89324834Y-75613334D01*
X88584594Y-76196891D01*
X88580711Y-76199830D01*
X87818149Y-76753864D01*
X87814155Y-76756648D01*
X87030407Y-77280331D01*
X87026306Y-77282956D01*
X86222612Y-77775460D01*
X86218411Y-77777922D01*
X85396023Y-78238482D01*
X85391729Y-78240778D01*
X84551857Y-78668714D01*
X84547476Y-78670839D01*
X83691460Y-79065468D01*
X83686999Y-79067419D01*
X82816163Y-79428131D01*
X82811629Y-79429906D01*
X81927293Y-79756155D01*
X81922692Y-79757750D01*
X81026227Y-80049029D01*
X81021568Y-80050442D01*
X80114382Y-80306295D01*
X80109670Y-80307525D01*
X79204909Y-80524738D01*
X79203556Y-80525055D01*
X79186978Y-80528839D01*
X79183575Y-80529565D01*
X78295990Y-80706116D01*
X78294437Y-80706415D01*
X78246770Y-80715266D01*
X78243530Y-80715823D01*
X77372536Y-80853775D01*
X77370786Y-80854040D01*
X77300801Y-80864103D01*
X77297728Y-80864505D01*
X76438198Y-80966238D01*
X76436249Y-80966454D01*
X76350788Y-80975201D01*
X76347891Y-80975463D01*
X75495764Y-81042526D01*
X75493620Y-81042676D01*
X75398425Y-81048510D01*
X75395708Y-81048646D01*
X74547821Y-81081959D01*
X74545484Y-81082029D01*
X74446850Y-81084042D01*
X74445608Y-81084068D01*
X74443079Y-81084094D01*
X73596487Y-81084094D01*
X73593957Y-81084068D01*
X73592675Y-81084041D01*
X73494080Y-81082029D01*
X73491743Y-81081959D01*
X72643856Y-81048646D01*
X72641139Y-81048510D01*
X72545944Y-81042676D01*
X72543800Y-81042526D01*
X71691673Y-80975463D01*
X71688776Y-80975201D01*
X71603315Y-80966454D01*
X71601366Y-80966238D01*
X70741836Y-80864505D01*
X70738763Y-80864103D01*
X70668778Y-80854040D01*
X70667028Y-80853775D01*
X69796034Y-80715823D01*
X69792794Y-80715266D01*
X69745127Y-80706415D01*
X69743574Y-80706116D01*
X68855989Y-80529565D01*
X68852586Y-80528839D01*
X68836008Y-80525055D01*
X68834655Y-80524738D01*
X68103981Y-80349319D01*
X67929888Y-80307523D01*
X67925191Y-80306297D01*
X67755379Y-80258405D01*
X67017997Y-80050442D01*
X67013338Y-80049029D01*
X66116873Y-79757750D01*
X66112282Y-79756158D01*
X65670104Y-79593030D01*
X65227936Y-79429906D01*
X65223402Y-79428131D01*
X64352566Y-79067419D01*
X64348105Y-79065468D01*
X63492089Y-78670839D01*
X63487708Y-78668714D01*
X62647836Y-78240778D01*
X62643542Y-78238482D01*
X61821154Y-77777922D01*
X61816953Y-77775460D01*
X61013259Y-77282956D01*
X61009158Y-77280331D01*
X60225410Y-76756648D01*
X60221416Y-76753864D01*
X59458854Y-76199830D01*
X59454971Y-76196891D01*
X59100931Y-75917789D01*
X58714709Y-75613316D01*
X58710989Y-75610263D01*
X57994197Y-74998064D01*
X57990569Y-74994840D01*
X57298403Y-74355008D01*
X57294893Y-74351633D01*
X56628385Y-73685125D01*
X56625010Y-73681615D01*
X55998810Y-73004195D01*
X55997830Y-73003122D01*
X55978641Y-72981869D01*
X55976387Y-72979303D01*
X55394188Y-72297635D01*
X55393129Y-72296379D01*
X55375336Y-72274978D01*
X55356807Y-72252691D01*
X55354817Y-72250233D01*
X54812595Y-71562427D01*
X54811576Y-71561116D01*
X54765068Y-71500291D01*
X54763255Y-71497858D01*
X54256958Y-70801000D01*
X54255782Y-70799353D01*
X54204272Y-70725966D01*
X54202664Y-70723619D01*
X53737191Y-70026989D01*
X53729203Y-70015034D01*
X53727998Y-70013196D01*
X53721463Y-70003028D01*
X53675332Y-69931246D01*
X53673923Y-69929000D01*
X53231131Y-69206428D01*
X53229895Y-69204367D01*
X53179108Y-69117767D01*
X53177882Y-69115627D01*
X53102108Y-68980323D01*
X52764110Y-68376784D01*
X52762920Y-68374608D01*
X52716339Y-68287194D01*
X52715360Y-68285314D01*
X52329329Y-67527688D01*
X52328139Y-67525285D01*
X52287838Y-67441599D01*
X52287024Y-67439871D01*
X51927841Y-66660743D01*
X51926632Y-66658035D01*
X51894302Y-66583241D01*
X51893563Y-66581494D01*
X51837085Y-66445144D01*
X51560484Y-65777371D01*
X51559354Y-65774544D01*
X51536221Y-65714403D01*
X51535736Y-65713113D01*
X51228080Y-64879175D01*
X51226994Y-64876107D01*
X51214388Y-64838865D01*
X51213930Y-64837482D01*
X51149792Y-64640087D01*
X50931298Y-63967633D01*
X50930297Y-63964396D01*
X50929107Y-63960344D01*
X50928842Y-63959419D01*
X50673721Y-63054825D01*
X50672495Y-63050129D01*
X50452439Y-62133532D01*
X50451401Y-62128795D01*
X50365437Y-61696627D01*
X50267509Y-61204308D01*
X50266657Y-61199535D01*
X50119198Y-60268520D01*
X50118535Y-60263719D01*
X50103305Y-60135045D01*
X50007745Y-59327662D01*
X50007269Y-59322833D01*
X49933309Y-58383077D01*
X49933027Y-58378285D01*
X49896021Y-57436411D01*
X49895925Y-57431543D01*
X49895925Y-56488928D01*
X49896021Y-56484060D01*
X49907986Y-56179517D01*
X49933027Y-55542183D01*
X49933308Y-55537397D01*
X50007271Y-54597617D01*
X50007747Y-54592792D01*
X50118538Y-53656723D01*
X50119197Y-53651958D01*
X50266661Y-52720908D01*
X50267507Y-52716172D01*
X50451407Y-51791646D01*
X50452437Y-51786950D01*
X50672499Y-50870327D01*
X50673719Y-50865654D01*
X50673724Y-50865637D01*
X50769170Y-50527209D01*
X53047100Y-50527209D01*
X53047100Y-50672791D01*
X53084779Y-50813411D01*
X53084780Y-50813412D01*
X53084780Y-50813413D01*
X53157567Y-50939485D01*
X53157569Y-50939488D01*
X53157570Y-50939489D01*
X53260511Y-51042430D01*
X53386589Y-51115221D01*
X53527209Y-51152900D01*
X53616604Y-51152900D01*
X53683643Y-51172585D01*
X53704285Y-51189219D01*
X54720781Y-52205715D01*
X54754266Y-52267038D01*
X54757100Y-52293396D01*
X54757100Y-66206604D01*
X54737415Y-66273643D01*
X54720781Y-66294285D01*
X54404285Y-66610781D01*
X54342962Y-66644266D01*
X54316604Y-66647100D01*
X54227209Y-66647100D01*
X54086589Y-66684779D01*
X54086587Y-66684780D01*
X54086586Y-66684780D01*
X53960514Y-66757567D01*
X53960509Y-66757571D01*
X53857571Y-66860509D01*
X53857567Y-66860514D01*
X53784780Y-66986586D01*
X53784780Y-66986587D01*
X53784779Y-66986589D01*
X53747100Y-67127209D01*
X53747100Y-67272791D01*
X53784779Y-67413411D01*
X53784780Y-67413412D01*
X53784780Y-67413413D01*
X53857567Y-67539485D01*
X53857569Y-67539488D01*
X53857570Y-67539489D01*
X53960511Y-67642430D01*
X54086589Y-67715221D01*
X54227209Y-67752900D01*
X54227211Y-67752900D01*
X54372788Y-67752900D01*
X54372791Y-67752900D01*
X54513411Y-67715221D01*
X54639489Y-67642430D01*
X54742430Y-67539489D01*
X54815221Y-67413411D01*
X54852900Y-67272791D01*
X54852900Y-67183396D01*
X54872585Y-67116357D01*
X54889219Y-67095715D01*
X55374386Y-66610548D01*
X55374389Y-66610545D01*
X55393468Y-66577498D01*
X55419532Y-66532355D01*
X55442900Y-66445144D01*
X55442900Y-56977837D01*
X57455350Y-56977837D01*
X57456322Y-56982669D01*
X57474834Y-57736548D01*
X57474138Y-57741430D01*
X57475137Y-57754954D01*
X57475435Y-57761031D01*
X57475793Y-57775597D01*
X57477015Y-57780425D01*
X57532478Y-58532394D01*
X57532809Y-58536870D01*
X57534013Y-58553195D01*
X57533987Y-58553230D01*
X57534059Y-58553819D01*
X57534102Y-58554393D01*
X57534273Y-58556700D01*
X57534274Y-58556705D01*
X57535349Y-58571043D01*
X57536758Y-58575703D01*
X57609829Y-59168076D01*
X57631675Y-59345176D01*
X57631651Y-59345211D01*
X57631749Y-59345779D01*
X57631822Y-59346366D01*
X57631823Y-59346367D01*
X57632108Y-59348671D01*
X57632110Y-59348684D01*
X57633936Y-59363364D01*
X57635601Y-59367978D01*
X57764425Y-60110438D01*
X57768066Y-60131421D01*
X57768044Y-60131458D01*
X57768170Y-60132020D01*
X57768692Y-60135026D01*
X57768691Y-60135028D01*
X57768695Y-60135045D01*
X57771120Y-60149033D01*
X57773022Y-60153629D01*
X57942878Y-60910015D01*
X57942857Y-60910053D01*
X57943013Y-60910619D01*
X57943141Y-60911186D01*
X57943143Y-60911187D01*
X57943654Y-60913459D01*
X57943655Y-60913463D01*
X57946873Y-60927718D01*
X57948965Y-60932128D01*
X58150039Y-61658719D01*
X58155601Y-61678816D01*
X58155681Y-61679105D01*
X58155662Y-61679144D01*
X58155843Y-61679694D01*
X58156654Y-61682622D01*
X58160530Y-61696627D01*
X58162884Y-61701008D01*
X58399335Y-62416774D01*
X58399334Y-62416774D01*
X58403073Y-62428088D01*
X58405956Y-62436814D01*
X58405939Y-62436854D01*
X58406149Y-62437400D01*
X58406333Y-62437955D01*
X58406334Y-62437955D01*
X58407059Y-62440147D01*
X58407068Y-62440172D01*
X58411656Y-62454011D01*
X58414174Y-62458204D01*
X58614676Y-62977962D01*
X58693129Y-63181334D01*
X58693114Y-63181374D01*
X58693351Y-63181909D01*
X58694445Y-63184744D01*
X58694445Y-63184745D01*
X58699554Y-63197981D01*
X58702295Y-63202090D01*
X59007873Y-63891486D01*
X59009674Y-63895548D01*
X59016465Y-63910868D01*
X59016452Y-63910909D01*
X59016714Y-63911430D01*
X59016951Y-63911964D01*
X59017919Y-63914146D01*
X59017924Y-63914156D01*
X59023766Y-63927320D01*
X59026704Y-63931276D01*
X59375235Y-64623657D01*
X59375224Y-64623698D01*
X59375506Y-64624197D01*
X59375774Y-64624728D01*
X59375777Y-64624729D01*
X59376818Y-64626796D01*
X59383526Y-64640087D01*
X59386650Y-64643868D01*
X59758111Y-65299611D01*
X59758110Y-65299611D01*
X59764354Y-65310630D01*
X59768525Y-65317994D01*
X59768516Y-65318037D01*
X59768832Y-65318537D01*
X59769117Y-65319039D01*
X59769118Y-65319039D01*
X59770257Y-65321049D01*
X59770277Y-65321083D01*
X59777447Y-65333711D01*
X59780736Y-65337335D01*
X60184053Y-65974243D01*
X60195416Y-65992187D01*
X60195410Y-65992230D01*
X60195744Y-65992705D01*
X60197360Y-65995256D01*
X60197374Y-65995276D01*
X60205094Y-66007464D01*
X60208606Y-66010967D01*
X60607422Y-66577247D01*
X60607421Y-66577247D01*
X60646529Y-66632774D01*
X60654938Y-66644714D01*
X60654938Y-66644859D01*
X60655283Y-66645204D01*
X60655569Y-66645610D01*
X60658621Y-66649943D01*
X60665618Y-66655544D01*
X60687348Y-66677278D01*
X60687349Y-66677278D01*
X60687350Y-66677279D01*
X60688593Y-66677280D01*
X60689471Y-66676401D01*
X60689471Y-66676399D01*
X60693121Y-66672745D01*
X61714343Y-65651529D01*
X61775663Y-65618046D01*
X61845355Y-65623030D01*
X61889703Y-65651531D01*
X63444766Y-67206609D01*
X63444771Y-67206616D01*
X63462208Y-67224052D01*
X63462208Y-67224053D01*
X65035610Y-68797446D01*
X65069095Y-68858769D01*
X65064111Y-68928460D01*
X65035611Y-68972808D01*
X64028167Y-69980265D01*
X64028166Y-69980265D01*
X64020681Y-69987749D01*
X64019742Y-69988690D01*
X64019697Y-69988734D01*
X64009886Y-69998545D01*
X64009878Y-69998564D01*
X64009878Y-69998565D01*
X64009878Y-69999808D01*
X64028400Y-70018325D01*
X64028425Y-70018468D01*
X64028823Y-70018748D01*
X64033011Y-70022935D01*
X64040942Y-70027283D01*
X64663545Y-70465750D01*
X64680827Y-70477922D01*
X64680837Y-70477963D01*
X64681308Y-70478261D01*
X64683824Y-70480033D01*
X64683858Y-70480056D01*
X64695859Y-70488514D01*
X64700503Y-70490416D01*
X65188352Y-70799353D01*
X65354977Y-70904870D01*
X65354989Y-70904911D01*
X65355487Y-70905192D01*
X65358074Y-70906831D01*
X65358077Y-70906834D01*
X65358131Y-70906867D01*
X65370399Y-70914645D01*
X65375136Y-70916323D01*
X66049273Y-71298215D01*
X66049287Y-71298257D01*
X66049817Y-71298524D01*
X66050317Y-71298807D01*
X66050318Y-71298806D01*
X66052418Y-71299996D01*
X66052424Y-71299999D01*
X66065479Y-71307388D01*
X66070241Y-71308804D01*
X66742678Y-71647298D01*
X66742679Y-71647299D01*
X66762038Y-71657045D01*
X66762054Y-71657086D01*
X66762585Y-71657321D01*
X66765334Y-71658705D01*
X66765335Y-71658706D01*
X66765377Y-71658726D01*
X66778698Y-71665439D01*
X66783593Y-71666632D01*
X67480539Y-71975546D01*
X67491556Y-71980429D01*
X67491574Y-71980468D01*
X67492092Y-71980667D01*
X67494911Y-71981917D01*
X67494916Y-71981921D01*
X67494980Y-71981948D01*
X67508469Y-71987937D01*
X67513423Y-71988896D01*
X68215894Y-72259880D01*
X68215907Y-72259885D01*
X68236059Y-72267661D01*
X68236077Y-72267696D01*
X68236561Y-72267855D01*
X68239486Y-72268984D01*
X68239492Y-72268988D01*
X68239596Y-72269026D01*
X68253098Y-72274251D01*
X68258118Y-72274977D01*
X68977346Y-72512590D01*
X68993746Y-72518010D01*
X68993767Y-72518046D01*
X68994301Y-72518193D01*
X68997235Y-72519163D01*
X68997236Y-72519164D01*
X68997282Y-72519178D01*
X69011553Y-72523900D01*
X69016587Y-72524359D01*
X69762810Y-72730845D01*
X69762833Y-72730881D01*
X69763398Y-72731008D01*
X69763966Y-72731165D01*
X69763967Y-72731164D01*
X69766295Y-72731808D01*
X69766301Y-72731810D01*
X69780733Y-72735799D01*
X69785706Y-72736016D01*
X70541401Y-72905721D01*
X70541426Y-72905756D01*
X70541996Y-72905855D01*
X70542571Y-72905984D01*
X70542572Y-72905982D01*
X70544957Y-72906518D01*
X70544961Y-72906519D01*
X70559608Y-72909805D01*
X70564599Y-72909776D01*
X71314412Y-73039880D01*
X71327636Y-73042176D01*
X71327662Y-73042210D01*
X71328229Y-73042279D01*
X71331249Y-73042804D01*
X71331251Y-73042805D01*
X71331291Y-73042811D01*
X71345861Y-73045346D01*
X71350886Y-73045074D01*
X72102316Y-73137763D01*
X72119615Y-73139898D01*
X72119642Y-73139929D01*
X72120187Y-73139968D01*
X72123242Y-73140346D01*
X72123243Y-73140346D01*
X72123276Y-73140350D01*
X72137613Y-73142123D01*
X72142600Y-73141622D01*
X72915426Y-73198623D01*
X72915455Y-73198654D01*
X72916025Y-73198668D01*
X72916622Y-73198712D01*
X72916623Y-73198710D01*
X72919050Y-73198890D01*
X72919055Y-73198891D01*
X72933584Y-73199961D01*
X72938505Y-73199219D01*
X73691395Y-73217705D01*
X73691403Y-73217706D01*
X73713175Y-73218242D01*
X73713204Y-73218270D01*
X73713733Y-73218256D01*
X73716842Y-73218333D01*
X73716851Y-73218336D01*
X73716977Y-73218336D01*
X73731717Y-73218715D01*
X73736703Y-73217692D01*
X74489607Y-73199212D01*
X74489609Y-73199212D01*
X74510918Y-73198692D01*
X74510948Y-73198718D01*
X74511454Y-73198679D01*
X74514605Y-73198603D01*
X74514619Y-73198606D01*
X74514802Y-73198598D01*
X74529449Y-73198264D01*
X74534422Y-73196985D01*
X75302785Y-73140305D01*
X75306735Y-73140014D01*
X75306770Y-73140041D01*
X75307352Y-73139968D01*
X75310403Y-73139744D01*
X75310408Y-73139745D01*
X75310470Y-73139739D01*
X75324885Y-73138684D01*
X75329687Y-73137214D01*
X76085043Y-73044048D01*
X76098714Y-73042364D01*
X76098748Y-73042388D01*
X76099295Y-73042292D01*
X76102343Y-73041917D01*
X76102350Y-73041918D01*
X76102419Y-73041908D01*
X76117148Y-73040101D01*
X76121902Y-73038369D01*
X76872665Y-72908098D01*
X76884960Y-72905967D01*
X76884995Y-72905989D01*
X76885517Y-72905870D01*
X76888586Y-72905339D01*
X76888600Y-72905340D01*
X76888730Y-72905315D01*
X76902861Y-72902882D01*
X76907551Y-72900923D01*
X77652465Y-72733648D01*
X77663560Y-72731157D01*
X77663596Y-72731178D01*
X77664126Y-72731030D01*
X77667128Y-72730357D01*
X77667134Y-72730357D01*
X77667212Y-72730338D01*
X77681216Y-72727204D01*
X77685762Y-72725043D01*
X78417723Y-72522476D01*
X78432646Y-72518348D01*
X78432682Y-72518367D01*
X78433193Y-72518197D01*
X78436185Y-72517370D01*
X78436193Y-72517370D01*
X78436293Y-72517340D01*
X78450128Y-72513526D01*
X78454580Y-72511132D01*
X79170376Y-72274679D01*
X79190357Y-72268083D01*
X79190392Y-72268098D01*
X79190849Y-72267920D01*
X79193844Y-72266932D01*
X79193857Y-72266931D01*
X79194010Y-72266877D01*
X79207597Y-72262412D01*
X79211970Y-72259773D01*
X79918364Y-71987285D01*
X79934883Y-71980916D01*
X79934919Y-71980931D01*
X79935380Y-71980725D01*
X79938321Y-71979592D01*
X79938331Y-71979591D01*
X79938472Y-71979533D01*
X79951901Y-71974375D01*
X79956134Y-71971525D01*
X80649041Y-71664368D01*
X80664411Y-71657556D01*
X80664449Y-71657570D01*
X80664944Y-71657320D01*
X80667750Y-71656077D01*
X80667754Y-71656076D01*
X80667783Y-71656063D01*
X80681237Y-71650104D01*
X80685263Y-71647091D01*
X81359278Y-71307812D01*
X81377199Y-71298797D01*
X81377234Y-71298807D01*
X81377652Y-71298569D01*
X81380489Y-71297142D01*
X81380507Y-71297138D01*
X81380675Y-71297049D01*
X81393167Y-71290790D01*
X81397118Y-71287542D01*
X82060495Y-70911756D01*
X82071527Y-70905508D01*
X82071570Y-70905518D01*
X82072070Y-70905201D01*
X82072572Y-70904917D01*
X82072572Y-70904916D01*
X82074715Y-70903703D01*
X82074722Y-70903701D01*
X82074776Y-70903669D01*
X82087282Y-70896594D01*
X82090995Y-70893216D01*
X82733834Y-70486136D01*
X82745733Y-70478603D01*
X82745773Y-70478611D01*
X82746227Y-70478290D01*
X82748830Y-70476643D01*
X82748830Y-70476642D01*
X82748856Y-70476626D01*
X82761217Y-70468804D01*
X82764754Y-70465241D01*
X83388565Y-70025900D01*
X83398293Y-70019054D01*
X83398357Y-70019054D01*
X83398506Y-70018903D01*
X83403399Y-70015460D01*
X83409156Y-70008256D01*
X83411498Y-70005910D01*
X83412259Y-70005150D01*
X83412260Y-70005150D01*
X83413138Y-70004271D01*
X83413138Y-70003028D01*
X83339109Y-69929000D01*
X82390420Y-68980323D01*
X82356935Y-68919000D01*
X82361919Y-68849308D01*
X82390417Y-68804962D01*
X83963157Y-67232201D01*
X83963187Y-67232182D01*
X83980613Y-67214756D01*
X83980614Y-67214756D01*
X85553998Y-65641351D01*
X85615319Y-65607868D01*
X85685011Y-65612852D01*
X85729357Y-65641351D01*
X86061686Y-65973679D01*
X86711520Y-66623512D01*
X86711520Y-66623511D01*
X86751239Y-66663230D01*
X86751239Y-66663232D01*
X86752117Y-66664111D01*
X86753360Y-66664111D01*
X86771860Y-66645624D01*
X86772005Y-66645599D01*
X86772289Y-66645195D01*
X86772635Y-66644850D01*
X86772635Y-66644704D01*
X87221430Y-66007464D01*
X87231469Y-65993213D01*
X87231508Y-65993205D01*
X87231787Y-65992762D01*
X87233587Y-65990208D01*
X87233595Y-65990200D01*
X87233674Y-65990084D01*
X87241935Y-65978387D01*
X87243867Y-65973684D01*
X87646822Y-65337335D01*
X87658407Y-65319044D01*
X87658445Y-65319035D01*
X87658704Y-65318575D01*
X87660377Y-65315935D01*
X87660386Y-65315926D01*
X87660456Y-65315811D01*
X87668235Y-65303560D01*
X87669930Y-65298759D01*
X88048300Y-64630848D01*
X88051759Y-64624743D01*
X88051801Y-64624731D01*
X88052068Y-64624200D01*
X88052351Y-64623701D01*
X88052350Y-64623700D01*
X88053576Y-64621538D01*
X88053579Y-64621534D01*
X88053603Y-64621491D01*
X88060797Y-64608805D01*
X88062237Y-64603995D01*
X88402862Y-63927320D01*
X88410580Y-63911988D01*
X88410620Y-63911974D01*
X88410855Y-63911441D01*
X88412236Y-63908700D01*
X88412239Y-63908696D01*
X88412257Y-63908659D01*
X88418863Y-63895548D01*
X88420064Y-63890665D01*
X88727096Y-63197981D01*
X88733971Y-63182476D01*
X88734007Y-63182461D01*
X88734194Y-63181973D01*
X88735460Y-63179119D01*
X88735468Y-63179108D01*
X88735524Y-63178975D01*
X88741346Y-63165888D01*
X88742326Y-63160892D01*
X88783236Y-63054840D01*
X89015003Y-62454011D01*
X89021193Y-62437973D01*
X89021226Y-62437958D01*
X89021378Y-62437493D01*
X89022517Y-62434544D01*
X89022525Y-62434533D01*
X89022583Y-62434372D01*
X89027662Y-62421270D01*
X89028405Y-62416223D01*
X89267031Y-61693911D01*
X89271536Y-61680281D01*
X89271572Y-61680262D01*
X89271715Y-61679740D01*
X89272692Y-61676787D01*
X89272697Y-61676779D01*
X89272727Y-61676681D01*
X89277311Y-61662853D01*
X89277786Y-61657801D01*
X89478665Y-60931889D01*
X89484391Y-60911206D01*
X89484426Y-60911186D01*
X89484546Y-60910646D01*
X89485371Y-60907669D01*
X89485374Y-60907663D01*
X89485395Y-60907582D01*
X89489236Y-60893744D01*
X89489472Y-60888706D01*
X89654798Y-60152509D01*
X89659269Y-60132618D01*
X89659300Y-60132597D01*
X89659384Y-60132107D01*
X89660075Y-60129033D01*
X89660083Y-60129017D01*
X89660121Y-60128829D01*
X89663251Y-60115007D01*
X89663240Y-60109882D01*
X89770731Y-59490381D01*
X89791970Y-59367978D01*
X89795718Y-59346396D01*
X89795749Y-59346374D01*
X89795812Y-59345857D01*
X89796347Y-59342777D01*
X89796352Y-59342766D01*
X89796373Y-59342626D01*
X89798811Y-59328686D01*
X89798555Y-59323614D01*
X89893426Y-58554424D01*
X89893458Y-58554397D01*
X89893500Y-58553823D01*
X89893501Y-58553819D01*
X89893874Y-58550795D01*
X89893876Y-58550788D01*
X89893883Y-58550725D01*
X89895600Y-58536870D01*
X89895117Y-58531894D01*
X89952161Y-57758596D01*
X89952192Y-57758568D01*
X89952206Y-57757997D01*
X89952250Y-57757401D01*
X89952249Y-57757400D01*
X89952430Y-57754950D01*
X89952430Y-57754948D01*
X89952431Y-57754941D01*
X89953467Y-57740901D01*
X89952746Y-57735987D01*
X89971236Y-56983147D01*
X89971786Y-56960852D01*
X89971813Y-56960826D01*
X89971799Y-56960309D01*
X89971877Y-56957181D01*
X89971880Y-56957171D01*
X89971880Y-56957052D01*
X89972246Y-56942820D01*
X89971248Y-56937847D01*
X89970481Y-56906604D01*
X89952747Y-56184416D01*
X89952228Y-56163113D01*
X89952253Y-56163086D01*
X89952215Y-56162592D01*
X89952139Y-56159439D01*
X89952142Y-56159425D01*
X89952134Y-56159251D01*
X89951811Y-56145114D01*
X89950560Y-56140161D01*
X89893720Y-55369673D01*
X89893544Y-55367292D01*
X89893571Y-55367259D01*
X89893499Y-55366675D01*
X89893274Y-55363622D01*
X89893275Y-55363614D01*
X89893271Y-55363569D01*
X89892253Y-55349681D01*
X89890813Y-55344902D01*
X89798647Y-54597638D01*
X89796169Y-54577545D01*
X89795893Y-54575305D01*
X89795918Y-54575272D01*
X89795819Y-54574703D01*
X89795747Y-54574117D01*
X89795746Y-54574116D01*
X89795444Y-54571659D01*
X89795444Y-54571653D01*
X89795438Y-54571607D01*
X89793693Y-54557400D01*
X89791996Y-54552679D01*
X89662349Y-53805495D01*
X89659501Y-53789068D01*
X89659522Y-53789036D01*
X89659406Y-53788524D01*
X89658875Y-53785458D01*
X89658875Y-53785449D01*
X89658856Y-53785349D01*
X89656504Y-53771715D01*
X89654587Y-53767060D01*
X89629817Y-53656752D01*
X89484723Y-53010609D01*
X89484693Y-53010474D01*
X89484715Y-53010438D01*
X89484558Y-53009871D01*
X89484431Y-53009305D01*
X89484430Y-53009304D01*
X89483892Y-53006906D01*
X89483892Y-53006902D01*
X89483889Y-53006889D01*
X89480801Y-52993127D01*
X89478679Y-52988628D01*
X89275505Y-52254474D01*
X89271884Y-52241387D01*
X89271904Y-52241352D01*
X89271726Y-52240816D01*
X89270908Y-52237857D01*
X89270908Y-52237849D01*
X89270892Y-52237796D01*
X89267206Y-52224448D01*
X89264862Y-52220036D01*
X89026402Y-51498162D01*
X89021616Y-51483667D01*
X89021632Y-51483632D01*
X89021442Y-51483143D01*
X89020471Y-51480200D01*
X89020470Y-51480190D01*
X89020437Y-51480096D01*
X89016115Y-51466971D01*
X89013537Y-51462648D01*
X89013519Y-51462601D01*
X88742420Y-50759821D01*
X88734443Y-50739135D01*
X88734458Y-50739101D01*
X88734250Y-50738634D01*
X88733124Y-50735713D01*
X88733123Y-50735701D01*
X88733069Y-50735571D01*
X88728229Y-50722974D01*
X88725446Y-50718771D01*
X88719025Y-50704285D01*
X88411093Y-50009610D01*
X88411107Y-50009571D01*
X88410848Y-50009056D01*
X88410608Y-50008515D01*
X88410606Y-50008514D01*
X88409612Y-50006270D01*
X88409611Y-50006269D01*
X88403865Y-49993314D01*
X88400923Y-49989341D01*
X88059707Y-49311468D01*
X88052331Y-49296811D01*
X88052343Y-49296775D01*
X88052083Y-49296317D01*
X88050688Y-49293545D01*
X88050686Y-49293534D01*
X88050628Y-49293426D01*
X88044382Y-49280981D01*
X88041182Y-49277075D01*
X87665446Y-48613797D01*
X87659048Y-48602501D01*
X87659058Y-48602460D01*
X87658741Y-48601959D01*
X87658457Y-48601458D01*
X87658456Y-48601457D01*
X87657244Y-48599317D01*
X87650416Y-48587274D01*
X87647125Y-48583615D01*
X87243969Y-47946958D01*
X87243966Y-47946953D01*
X87232157Y-47928302D01*
X87232165Y-47928263D01*
X87231840Y-47927803D01*
X87230199Y-47925210D01*
X87230198Y-47925208D01*
X87230173Y-47925170D01*
X87222809Y-47913530D01*
X87219302Y-47910001D01*
X86780810Y-47287407D01*
X86780798Y-47287389D01*
X86772626Y-47275781D01*
X86772627Y-47275641D01*
X86772289Y-47275303D01*
X86768976Y-47270597D01*
X86761982Y-47264993D01*
X86753334Y-47256343D01*
X86752091Y-47256343D01*
X86733824Y-47274588D01*
X86733783Y-47274650D01*
X85729372Y-48279063D01*
X85668049Y-48312548D01*
X85598358Y-48307564D01*
X85554011Y-48279064D01*
X83980616Y-46705656D01*
X83980615Y-46705655D01*
X82408093Y-45133141D01*
X82374608Y-45071818D01*
X82379592Y-45002127D01*
X82408091Y-44957780D01*
X83429939Y-43935930D01*
X83429940Y-43935930D01*
X83430818Y-43935051D01*
X83430818Y-43933808D01*
X83399170Y-43902170D01*
X83399146Y-43902027D01*
X83398743Y-43901743D01*
X83398396Y-43901396D01*
X83398250Y-43901396D01*
X83373774Y-43884158D01*
X82764499Y-43455067D01*
X82746740Y-43442560D01*
X82746731Y-43442519D01*
X82746240Y-43442208D01*
X82745760Y-43441870D01*
X82743759Y-43440461D01*
X82743758Y-43440460D01*
X82732341Y-43432421D01*
X82727778Y-43430517D01*
X82072579Y-43015610D01*
X82072568Y-43015571D01*
X82072075Y-43015291D01*
X82071567Y-43014970D01*
X82071563Y-43014970D01*
X82069522Y-43013678D01*
X82069521Y-43013677D01*
X82057721Y-43006221D01*
X82053139Y-43004564D01*
X81397367Y-42633072D01*
X81397367Y-42633071D01*
X81378281Y-42622258D01*
X81378269Y-42622220D01*
X81377768Y-42621968D01*
X81375083Y-42620447D01*
X81375081Y-42620445D01*
X81375030Y-42620418D01*
X81362942Y-42613562D01*
X81358174Y-42612105D01*
X80684832Y-42273176D01*
X80677377Y-42269424D01*
X80665530Y-42263461D01*
X80665515Y-42263422D01*
X80664981Y-42263185D01*
X80664460Y-42262923D01*
X80664459Y-42262923D01*
X80662265Y-42261819D01*
X80662264Y-42261818D01*
X80649812Y-42255556D01*
X80645044Y-42254347D01*
X80177512Y-42047100D01*
X79955640Y-41948748D01*
X79941701Y-41942570D01*
X79936021Y-41940052D01*
X79936004Y-41940014D01*
X79935460Y-41939804D01*
X79934925Y-41939567D01*
X79932680Y-41938572D01*
X79932679Y-41938571D01*
X79919875Y-41932899D01*
X79915038Y-41931926D01*
X79236630Y-41670237D01*
X79198252Y-41655433D01*
X79191513Y-41652833D01*
X79191495Y-41652796D01*
X79190947Y-41652615D01*
X79188119Y-41651524D01*
X79188098Y-41651517D01*
X79175584Y-41646690D01*
X79170728Y-41645935D01*
X78454543Y-41409348D01*
X78454543Y-41409347D01*
X78433814Y-41402500D01*
X78433795Y-41402465D01*
X78433248Y-41402313D01*
X78430367Y-41401362D01*
X78430343Y-41401355D01*
X78417170Y-41397003D01*
X78412254Y-41396503D01*
X77685672Y-41195427D01*
X77685672Y-41195426D01*
X77676713Y-41192948D01*
X77664753Y-41189638D01*
X77664731Y-41189603D01*
X77664164Y-41189475D01*
X77663598Y-41189319D01*
X77663596Y-41189319D01*
X77661396Y-41188711D01*
X77661372Y-41188705D01*
X77647681Y-41184932D01*
X77642816Y-41184681D01*
X76907161Y-41019491D01*
X76886156Y-41014774D01*
X76886133Y-41014741D01*
X76885579Y-41014645D01*
X76882591Y-41013974D01*
X76882589Y-41013973D01*
X76882568Y-41013969D01*
X76868938Y-41010905D01*
X76863969Y-41010895D01*
X76121533Y-40882062D01*
X76121533Y-40882063D01*
X76099940Y-40878316D01*
X76099914Y-40878282D01*
X76099327Y-40878209D01*
X76098759Y-40878111D01*
X76098757Y-40878111D01*
X76096470Y-40877715D01*
X76096463Y-40877714D01*
X76082555Y-40875315D01*
X76077687Y-40875540D01*
X75329253Y-40783222D01*
X75307958Y-40780596D01*
X75307931Y-40780565D01*
X75307357Y-40780522D01*
X75306768Y-40780450D01*
X75306766Y-40780451D01*
X75304346Y-40780153D01*
X75304344Y-40780152D01*
X75290778Y-40778494D01*
X75285946Y-40778942D01*
X74533964Y-40723477D01*
X74533961Y-40723477D01*
X74512140Y-40721867D01*
X74512113Y-40721838D01*
X74511562Y-40721824D01*
X74508520Y-40721600D01*
X74508518Y-40721599D01*
X74494960Y-40720601D01*
X74490082Y-40721296D01*
X73736210Y-40702794D01*
X73736210Y-40702793D01*
X73723603Y-40702485D01*
X73714392Y-40702259D01*
X73714362Y-40702230D01*
X73713778Y-40702244D01*
X73713194Y-40702230D01*
X73713193Y-40702230D01*
X73710745Y-40702171D01*
X73710743Y-40702170D01*
X73696684Y-40701833D01*
X73691868Y-40702781D01*
X72937964Y-40721284D01*
X72937965Y-40721285D01*
X72931871Y-40721434D01*
X72916663Y-40721808D01*
X72916630Y-40721780D01*
X72916034Y-40721823D01*
X72912977Y-40721899D01*
X72912974Y-40721898D01*
X72898973Y-40722243D01*
X72894170Y-40723436D01*
X72142077Y-40778920D01*
X72142076Y-40778919D01*
X72131320Y-40779714D01*
X72120836Y-40780488D01*
X72120802Y-40780462D01*
X72120211Y-40780534D01*
X72119640Y-40780577D01*
X72119638Y-40780578D01*
X72117375Y-40780746D01*
X72117364Y-40780748D01*
X72103493Y-40781792D01*
X72098883Y-40783164D01*
X71350334Y-40875478D01*
X71350333Y-40875477D01*
X71337854Y-40877017D01*
X71328852Y-40878128D01*
X71328818Y-40878104D01*
X71328248Y-40878202D01*
X71327663Y-40878275D01*
X71327661Y-40878276D01*
X71325429Y-40878552D01*
X71325419Y-40878554D01*
X71311176Y-40880331D01*
X71306607Y-40881957D01*
X70563986Y-41010811D01*
X70563987Y-41010812D01*
X70551168Y-41013036D01*
X70542602Y-41014523D01*
X70542566Y-41014500D01*
X70541991Y-41014629D01*
X70541421Y-41014728D01*
X70541420Y-41014728D01*
X70539008Y-41015147D01*
X70539007Y-41015146D01*
X70525540Y-41017485D01*
X70520986Y-41019345D01*
X69785141Y-41184589D01*
X69785142Y-41184590D01*
X69779323Y-41185897D01*
X69764020Y-41189334D01*
X69763983Y-41189313D01*
X69763420Y-41189468D01*
X69762849Y-41189597D01*
X69762847Y-41189599D01*
X69760468Y-41190134D01*
X69760466Y-41190133D01*
X69746526Y-41193284D01*
X69742127Y-41195361D01*
X69016005Y-41396311D01*
X69016006Y-41396312D01*
X69013510Y-41397003D01*
X68994930Y-41402145D01*
X68994893Y-41402126D01*
X68994340Y-41402308D01*
X68993775Y-41402465D01*
X68993773Y-41402466D01*
X68991418Y-41403119D01*
X68991417Y-41403118D01*
X68978171Y-41406800D01*
X68973877Y-41409067D01*
X68257838Y-41645598D01*
X68257839Y-41645599D01*
X68249689Y-41648291D01*
X68237211Y-41652414D01*
X68237173Y-41652397D01*
X68236632Y-41652605D01*
X68236074Y-41652790D01*
X68236073Y-41652791D01*
X68233877Y-41653517D01*
X68233877Y-41653518D01*
X68220619Y-41657913D01*
X68216443Y-41660392D01*
X67512783Y-41931828D01*
X67512782Y-41931827D01*
X67492685Y-41939580D01*
X67492648Y-41939566D01*
X67492148Y-41939787D01*
X67489342Y-41940870D01*
X67489306Y-41940886D01*
X67476654Y-41945770D01*
X67472563Y-41948467D01*
X66782986Y-42254143D01*
X66782985Y-42254142D01*
X66776298Y-42257108D01*
X66763140Y-42262941D01*
X66763101Y-42262928D01*
X66762586Y-42263186D01*
X66762045Y-42263427D01*
X66762043Y-42263431D01*
X66759822Y-42264417D01*
X66759821Y-42264417D01*
X66746937Y-42270156D01*
X66743063Y-42273013D01*
X66069585Y-42612009D01*
X66069586Y-42612010D01*
X66050357Y-42621689D01*
X66050317Y-42621678D01*
X66049817Y-42621961D01*
X66049287Y-42622228D01*
X66049286Y-42622228D01*
X66047101Y-42623329D01*
X66047099Y-42623329D01*
X66034594Y-42629629D01*
X66030776Y-42632747D01*
X65374555Y-43004495D01*
X65356033Y-43014989D01*
X65355991Y-43014980D01*
X65355491Y-43015296D01*
X65354989Y-43015581D01*
X65354988Y-43015582D01*
X65352945Y-43016740D01*
X65340929Y-43023562D01*
X65337314Y-43026805D01*
X64699908Y-43430437D01*
X64681829Y-43441887D01*
X64681787Y-43441880D01*
X64681306Y-43442218D01*
X64680816Y-43442529D01*
X64680815Y-43442532D01*
X64678746Y-43443843D01*
X64678744Y-43443843D01*
X64667076Y-43451249D01*
X64663627Y-43454668D01*
X64040808Y-43893315D01*
X64039043Y-43894559D01*
X64029322Y-43901406D01*
X64029176Y-43901406D01*
X64028828Y-43901753D01*
X64028426Y-43902037D01*
X64028424Y-43902047D01*
X64028382Y-43902077D01*
X64027187Y-43904981D01*
X64026471Y-43913300D01*
X64025134Y-43921004D01*
X64023089Y-43928055D01*
X64023089Y-43933812D01*
X64023089Y-43935056D01*
X64028297Y-43940265D01*
X64028298Y-43940269D01*
X64029177Y-43941148D01*
X64029181Y-43941148D01*
X64099326Y-44011294D01*
X65045796Y-44957774D01*
X65079280Y-45019098D01*
X65074296Y-45088789D01*
X65045795Y-45133137D01*
X63454946Y-46723975D01*
X61882195Y-48296737D01*
X61820872Y-48330222D01*
X61751180Y-48325238D01*
X61706832Y-48296738D01*
X61617551Y-48207458D01*
X60685717Y-47275630D01*
X60684852Y-47274763D01*
X60684850Y-47274762D01*
X60684107Y-47274020D01*
X60682863Y-47274020D01*
X60669802Y-47274020D01*
X60655854Y-47274483D01*
X60655575Y-47274878D01*
X60655567Y-47274880D01*
X60655281Y-47275285D01*
X60654936Y-47275630D01*
X60654936Y-47275775D01*
X60649521Y-47283463D01*
X60646875Y-47287216D01*
X60646873Y-47287222D01*
X60208193Y-47910103D01*
X60204775Y-47913551D01*
X60197306Y-47925319D01*
X60194071Y-47930161D01*
X60185843Y-47941870D01*
X60183971Y-47946372D01*
X59780240Y-48583934D01*
X59779705Y-48584780D01*
X59769159Y-48601434D01*
X59769120Y-48601446D01*
X59768840Y-48601938D01*
X59768519Y-48602447D01*
X59768519Y-48602450D01*
X59767346Y-48604305D01*
X59759652Y-48616504D01*
X59758022Y-48621033D01*
X59386315Y-49277173D01*
X59375805Y-49295728D01*
X59375764Y-49295742D01*
X59375496Y-49296272D01*
X59375214Y-49296772D01*
X59375215Y-49296776D01*
X59374116Y-49298717D01*
X59366924Y-49311468D01*
X59365526Y-49316079D01*
X59026540Y-49989534D01*
X59025143Y-49992309D01*
X59016994Y-50008500D01*
X59016954Y-50008516D01*
X59016713Y-50009057D01*
X59016455Y-50009572D01*
X59016456Y-50009575D01*
X59015461Y-50011554D01*
X59008837Y-50024776D01*
X59007670Y-50029458D01*
X58702020Y-50719004D01*
X58702021Y-50719005D01*
X58693589Y-50738028D01*
X58693551Y-50738046D01*
X58693341Y-50738589D01*
X58693104Y-50739125D01*
X58693104Y-50739126D01*
X58692157Y-50741264D01*
X58692156Y-50741269D01*
X58686311Y-50754486D01*
X58685358Y-50759281D01*
X58414046Y-51462600D01*
X58414047Y-51462601D01*
X58412362Y-51466971D01*
X58406369Y-51482507D01*
X58406332Y-51482526D01*
X58406151Y-51483073D01*
X58405938Y-51483626D01*
X58405938Y-51483627D01*
X58405055Y-51485919D01*
X58399976Y-51499103D01*
X58399248Y-51503966D01*
X58217264Y-52054856D01*
X58156033Y-52240210D01*
X58155997Y-52240231D01*
X58155842Y-52240790D01*
X58155658Y-52241348D01*
X58154908Y-52243620D01*
X58150428Y-52257205D01*
X58149943Y-52262103D01*
X57948797Y-52988954D01*
X57948798Y-52988955D01*
X57943171Y-53009290D01*
X57943136Y-53009313D01*
X57943008Y-53009879D01*
X57942852Y-53010446D01*
X57942854Y-53010449D01*
X57942204Y-53012801D01*
X57938366Y-53026745D01*
X57938131Y-53031595D01*
X57798289Y-53654332D01*
X57768302Y-53787870D01*
X57768268Y-53787895D01*
X57768169Y-53788465D01*
X57768041Y-53789036D01*
X57767505Y-53791425D01*
X57764347Y-53805495D01*
X57764353Y-53810455D01*
X57635501Y-54553074D01*
X57634751Y-54557400D01*
X57631855Y-54574092D01*
X57631821Y-54574119D01*
X57631748Y-54574705D01*
X57631650Y-54575274D01*
X57631651Y-54575276D01*
X57631258Y-54577545D01*
X57628783Y-54591918D01*
X57629025Y-54596783D01*
X57536693Y-55345333D01*
X57536694Y-55345334D01*
X57534136Y-55366074D01*
X57534105Y-55366102D01*
X57534062Y-55366675D01*
X57533990Y-55367265D01*
X57533992Y-55367267D01*
X57533696Y-55369671D01*
X57533695Y-55369673D01*
X57531983Y-55383699D01*
X57532449Y-55388532D01*
X57476973Y-56140624D01*
X57476973Y-56140627D01*
X57475403Y-56161890D01*
X57475375Y-56161918D01*
X57475361Y-56162460D01*
X57475138Y-56165491D01*
X57474105Y-56179517D01*
X57474821Y-56184416D01*
X57456309Y-56938330D01*
X57455850Y-56957052D01*
X57455787Y-56959623D01*
X57455758Y-56959654D01*
X57455772Y-56960237D01*
X57455700Y-56963177D01*
X57455701Y-56963190D01*
X57455350Y-56977837D01*
X55442900Y-56977837D01*
X55442900Y-52054856D01*
X55419532Y-51967645D01*
X55374388Y-51889454D01*
X55310546Y-51825612D01*
X54189219Y-50704285D01*
X54174515Y-50677357D01*
X54157923Y-50651539D01*
X54157031Y-50645338D01*
X54155734Y-50642962D01*
X54152900Y-50616604D01*
X54152900Y-50583396D01*
X54172585Y-50516357D01*
X54189219Y-50495715D01*
X55205715Y-49479219D01*
X55267038Y-49445734D01*
X55293396Y-49442900D01*
X55609619Y-49442900D01*
X55676658Y-49462585D01*
X55697300Y-49479219D01*
X55760511Y-49542430D01*
X55886589Y-49615221D01*
X56027209Y-49652900D01*
X56027211Y-49652900D01*
X56172788Y-49652900D01*
X56172791Y-49652900D01*
X56313411Y-49615221D01*
X56439489Y-49542430D01*
X56542430Y-49439489D01*
X56615221Y-49313411D01*
X56652900Y-49172791D01*
X56652900Y-49027209D01*
X56615221Y-48886589D01*
X56542430Y-48760511D01*
X56439489Y-48657570D01*
X56439488Y-48657569D01*
X56439485Y-48657567D01*
X56313413Y-48584780D01*
X56313412Y-48584779D01*
X56313411Y-48584779D01*
X56172791Y-48547100D01*
X56027209Y-48547100D01*
X55886589Y-48584779D01*
X55886587Y-48584780D01*
X55886586Y-48584780D01*
X55760514Y-48657567D01*
X55760509Y-48657571D01*
X55697300Y-48720781D01*
X55635977Y-48754266D01*
X55609619Y-48757100D01*
X55054856Y-48757100D01*
X54967643Y-48780468D01*
X54893308Y-48823387D01*
X54893304Y-48823389D01*
X54889453Y-48825611D01*
X54889451Y-48825613D01*
X53704285Y-50010781D01*
X53642962Y-50044266D01*
X53616604Y-50047100D01*
X53527209Y-50047100D01*
X53386589Y-50084779D01*
X53386587Y-50084780D01*
X53386586Y-50084780D01*
X53260514Y-50157567D01*
X53260509Y-50157571D01*
X53157571Y-50260509D01*
X53157567Y-50260514D01*
X53084780Y-50386586D01*
X53084780Y-50386587D01*
X53084779Y-50386589D01*
X53047100Y-50527209D01*
X50769170Y-50527209D01*
X50928911Y-49960808D01*
X50929083Y-49960209D01*
X50930312Y-49956025D01*
X50931285Y-49952878D01*
X51213969Y-49082867D01*
X51214357Y-49081698D01*
X51227010Y-49044318D01*
X51228062Y-49041344D01*
X51535772Y-48207259D01*
X51536186Y-48206161D01*
X51559375Y-48145873D01*
X51560461Y-48143155D01*
X51893610Y-47338863D01*
X51894259Y-47337328D01*
X51926662Y-47262367D01*
X51927812Y-47259790D01*
X52287067Y-46480506D01*
X52287794Y-46478964D01*
X52328173Y-46395115D01*
X52329292Y-46392856D01*
X52715410Y-45635059D01*
X52716292Y-45633365D01*
X52762962Y-45545785D01*
X52764063Y-45543771D01*
X53177944Y-44804734D01*
X53179049Y-44802805D01*
X53229947Y-44716015D01*
X53231075Y-44714134D01*
X53673979Y-43991379D01*
X53675279Y-43989307D01*
X53728073Y-43907158D01*
X53729129Y-43905546D01*
X53963453Y-43554856D01*
X55257100Y-43554856D01*
X55257100Y-44445143D01*
X55280468Y-44532354D01*
X55280469Y-44532357D01*
X55296211Y-44559624D01*
X55306531Y-44577498D01*
X55325611Y-44610545D01*
X55325612Y-44610546D01*
X55325613Y-44610547D01*
X56521271Y-45806204D01*
X56521281Y-45806215D01*
X56525612Y-45810546D01*
X56589454Y-45874388D01*
X56667645Y-45919532D01*
X56754856Y-45942900D01*
X56754857Y-45942900D01*
X56845143Y-45942900D01*
X59109619Y-45942900D01*
X59176658Y-45962585D01*
X59197300Y-45979219D01*
X59260511Y-46042430D01*
X59386589Y-46115221D01*
X59527209Y-46152900D01*
X59527211Y-46152900D01*
X59672788Y-46152900D01*
X59672791Y-46152900D01*
X59813411Y-46115221D01*
X59939489Y-46042430D01*
X60002700Y-45979219D01*
X60064023Y-45945734D01*
X60090381Y-45942900D01*
X61445142Y-45942900D01*
X61445143Y-45942900D01*
X61445144Y-45942900D01*
X61532355Y-45919532D01*
X61577498Y-45893468D01*
X61610545Y-45874389D01*
X64890637Y-42594294D01*
X64890642Y-42594291D01*
X64900845Y-42584087D01*
X64900847Y-42584087D01*
X64964689Y-42520245D01*
X65009833Y-42442054D01*
X65033201Y-42354843D01*
X65033201Y-38661649D01*
X65038833Y-38642467D01*
X65039547Y-38622490D01*
X65048475Y-38609630D01*
X65052886Y-38594610D01*
X65067992Y-38581520D01*
X65079395Y-38565097D01*
X65103343Y-38550888D01*
X65105690Y-38548855D01*
X65109737Y-38547093D01*
X65134112Y-38536996D01*
X65203580Y-38529528D01*
X65266059Y-38560803D01*
X65269244Y-38563877D01*
X66379756Y-39674389D01*
X66457947Y-39719533D01*
X66471438Y-39723147D01*
X66521790Y-39736639D01*
X66521795Y-39736640D01*
X66545155Y-39742900D01*
X66545157Y-39742900D01*
X76845142Y-39742900D01*
X76845143Y-39742900D01*
X76845144Y-39742900D01*
X76932355Y-39719532D01*
X76977498Y-39693468D01*
X77010545Y-39674389D01*
X80205715Y-36479219D01*
X80267038Y-36445734D01*
X80293396Y-36442900D01*
X80709619Y-36442900D01*
X80776658Y-36462585D01*
X80797300Y-36479219D01*
X80860511Y-36542430D01*
X80860512Y-36542431D01*
X80860514Y-36542432D01*
X80890948Y-36560003D01*
X80986589Y-36615221D01*
X81127209Y-36652900D01*
X81127211Y-36652900D01*
X81272788Y-36652900D01*
X81272791Y-36652900D01*
X81413411Y-36615221D01*
X81539489Y-36542430D01*
X81602700Y-36479219D01*
X81664023Y-36445734D01*
X81690381Y-36442900D01*
X83106604Y-36442900D01*
X83173643Y-36462585D01*
X83194285Y-36479219D01*
X93660781Y-46945715D01*
X93694266Y-47007038D01*
X93697100Y-47033396D01*
X93697100Y-47122791D01*
X93734779Y-47263411D01*
X93734780Y-47263412D01*
X93734780Y-47263413D01*
X93807567Y-47389485D01*
X93807571Y-47389490D01*
X93916258Y-47498177D01*
X93914871Y-47499563D01*
X93949786Y-47547370D01*
X93957100Y-47589328D01*
X93957100Y-56906604D01*
X93937415Y-56973643D01*
X93920781Y-56994285D01*
X92294285Y-58620781D01*
X92232962Y-58654266D01*
X92206604Y-58657100D01*
X91690381Y-58657100D01*
X91623342Y-58637415D01*
X91602700Y-58620781D01*
X91539490Y-58557571D01*
X91539485Y-58557567D01*
X91413413Y-58484780D01*
X91413412Y-58484779D01*
X91413411Y-58484779D01*
X91272791Y-58447100D01*
X91127209Y-58447100D01*
X90986589Y-58484779D01*
X90986587Y-58484780D01*
X90986586Y-58484780D01*
X90860514Y-58557567D01*
X90860509Y-58557571D01*
X90757571Y-58660509D01*
X90757567Y-58660514D01*
X90684780Y-58786586D01*
X90684780Y-58786587D01*
X90684779Y-58786589D01*
X90647100Y-58927209D01*
X90647100Y-59072791D01*
X90684779Y-59213411D01*
X90684780Y-59213412D01*
X90684780Y-59213413D01*
X90757567Y-59339485D01*
X90757571Y-59339490D01*
X90820781Y-59402700D01*
X90854266Y-59464023D01*
X90857100Y-59490381D01*
X90857100Y-64209619D01*
X90837415Y-64276658D01*
X90820781Y-64297300D01*
X90757571Y-64360509D01*
X90757567Y-64360514D01*
X90684780Y-64486586D01*
X90684780Y-64486587D01*
X90684779Y-64486589D01*
X90647100Y-64627209D01*
X90647100Y-64772791D01*
X90684779Y-64913411D01*
X90684780Y-64913412D01*
X90684780Y-64913413D01*
X90757567Y-65039485D01*
X90757571Y-65039490D01*
X90820781Y-65102700D01*
X90854266Y-65164023D01*
X90857100Y-65190381D01*
X90857100Y-65706604D01*
X90837415Y-65773643D01*
X90820781Y-65794285D01*
X85601559Y-71013506D01*
X85545972Y-71045600D01*
X85497210Y-71058665D01*
X85425187Y-71077964D01*
X85425185Y-71077964D01*
X85425185Y-71077965D01*
X85321913Y-71137590D01*
X85321910Y-71137592D01*
X85237592Y-71221910D01*
X85237590Y-71221913D01*
X85177964Y-71325185D01*
X85147100Y-71440375D01*
X85147100Y-71559625D01*
X85175772Y-71666633D01*
X85177965Y-71674815D01*
X85177966Y-71674818D01*
X85240486Y-71783103D01*
X85257100Y-71845104D01*
X85257100Y-75206604D01*
X85237415Y-75273643D01*
X85220781Y-75294285D01*
X83954285Y-76560781D01*
X83892962Y-76594266D01*
X83866604Y-76597100D01*
X83777209Y-76597100D01*
X83636589Y-76634779D01*
X83636587Y-76634780D01*
X83636586Y-76634780D01*
X83510514Y-76707567D01*
X83510509Y-76707571D01*
X83407571Y-76810509D01*
X83407567Y-76810514D01*
X83334780Y-76936586D01*
X83334780Y-76936587D01*
X83334779Y-76936589D01*
X83297100Y-77077209D01*
X83297100Y-77077211D01*
X83297100Y-77166604D01*
X83277415Y-77233643D01*
X83260781Y-77254285D01*
X82894285Y-77620781D01*
X82832962Y-77654266D01*
X82806604Y-77657100D01*
X67290381Y-77657100D01*
X67223342Y-77637415D01*
X67202700Y-77620781D01*
X67139490Y-77557571D01*
X67139485Y-77557567D01*
X67013413Y-77484780D01*
X67013412Y-77484779D01*
X67013411Y-77484779D01*
X66872791Y-77447100D01*
X66727209Y-77447100D01*
X66586589Y-77484779D01*
X66586587Y-77484780D01*
X66586586Y-77484780D01*
X66460514Y-77557567D01*
X66460509Y-77557571D01*
X66357571Y-77660509D01*
X66357567Y-77660514D01*
X66284780Y-77786586D01*
X66284780Y-77786587D01*
X66284779Y-77786589D01*
X66247100Y-77927209D01*
X66247100Y-78072791D01*
X66284779Y-78213411D01*
X66284780Y-78213412D01*
X66284780Y-78213413D01*
X66357567Y-78339485D01*
X66357569Y-78339488D01*
X66357570Y-78339489D01*
X66460511Y-78442430D01*
X66586589Y-78515221D01*
X66727209Y-78552900D01*
X66727211Y-78552900D01*
X66872788Y-78552900D01*
X66872791Y-78552900D01*
X67013411Y-78515221D01*
X67139489Y-78442430D01*
X67202700Y-78379219D01*
X67264023Y-78345734D01*
X67290381Y-78342900D01*
X83045142Y-78342900D01*
X83045143Y-78342900D01*
X83045144Y-78342900D01*
X83132355Y-78319532D01*
X83177498Y-78293468D01*
X83210545Y-78274389D01*
X83745715Y-77739219D01*
X83807038Y-77705734D01*
X83833396Y-77702900D01*
X83922788Y-77702900D01*
X83922791Y-77702900D01*
X84063411Y-77665221D01*
X84189489Y-77592430D01*
X84292430Y-77489489D01*
X84365221Y-77363411D01*
X84402900Y-77222791D01*
X84402900Y-77133396D01*
X84422585Y-77066357D01*
X84439219Y-77045715D01*
X84924153Y-76560781D01*
X85874389Y-75610545D01*
X85919533Y-75532354D01*
X85942900Y-75445143D01*
X85942900Y-75354857D01*
X85942900Y-71845104D01*
X85959514Y-71783103D01*
X86022033Y-71674818D01*
X86022034Y-71674816D01*
X86022033Y-71674816D01*
X86022036Y-71674813D01*
X86052900Y-71559625D01*
X86052900Y-71559622D01*
X86054399Y-71554028D01*
X86086491Y-71498442D01*
X91474389Y-66110545D01*
X91505245Y-66057100D01*
X91519532Y-66032355D01*
X91542900Y-65945144D01*
X91542900Y-65190381D01*
X91562585Y-65123342D01*
X91579219Y-65102700D01*
X91642430Y-65039489D01*
X91715221Y-64913411D01*
X91752900Y-64772791D01*
X91752900Y-64627209D01*
X91715221Y-64486589D01*
X91642430Y-64360511D01*
X91579219Y-64297300D01*
X91545734Y-64235977D01*
X91542900Y-64209619D01*
X91542900Y-59490381D01*
X91551544Y-59460940D01*
X91558068Y-59430954D01*
X91561822Y-59425938D01*
X91562585Y-59423342D01*
X91579219Y-59402700D01*
X91602700Y-59379219D01*
X91664023Y-59345734D01*
X91690381Y-59342900D01*
X92445142Y-59342900D01*
X92445143Y-59342900D01*
X92445144Y-59342900D01*
X92532355Y-59319532D01*
X92577498Y-59293468D01*
X92610545Y-59274389D01*
X94574389Y-57310545D01*
X94619533Y-57232354D01*
X94642900Y-57145143D01*
X94642900Y-57054857D01*
X94642900Y-47490381D01*
X94662585Y-47423342D01*
X94679219Y-47402700D01*
X94692430Y-47389489D01*
X94765221Y-47263411D01*
X94802900Y-47122791D01*
X94802900Y-46977209D01*
X94765221Y-46836589D01*
X94728825Y-46773550D01*
X94692432Y-46710514D01*
X94692428Y-46710509D01*
X94589490Y-46607571D01*
X94589485Y-46607567D01*
X94463413Y-46534780D01*
X94463412Y-46534779D01*
X94463411Y-46534779D01*
X94322791Y-46497100D01*
X94322789Y-46497100D01*
X94233396Y-46497100D01*
X94166357Y-46477415D01*
X94145715Y-46460781D01*
X83510546Y-35825612D01*
X83510545Y-35825611D01*
X83467654Y-35800848D01*
X83467653Y-35800847D01*
X83432360Y-35780470D01*
X83432357Y-35780469D01*
X83432356Y-35780468D01*
X83432355Y-35780468D01*
X83345144Y-35757100D01*
X83345143Y-35757100D01*
X81690381Y-35757100D01*
X81623342Y-35737415D01*
X81602700Y-35720781D01*
X81539490Y-35657571D01*
X81539485Y-35657567D01*
X81413413Y-35584780D01*
X81413412Y-35584779D01*
X81413411Y-35584779D01*
X81272791Y-35547100D01*
X81127209Y-35547100D01*
X80986589Y-35584779D01*
X80986587Y-35584780D01*
X80986586Y-35584780D01*
X80860514Y-35657567D01*
X80860509Y-35657571D01*
X80797300Y-35720781D01*
X80735977Y-35754266D01*
X80709619Y-35757100D01*
X80054856Y-35757100D01*
X80042122Y-35760512D01*
X80042121Y-35760511D01*
X79967648Y-35780465D01*
X79889455Y-35825611D01*
X79889452Y-35825613D01*
X76694285Y-39020781D01*
X76632962Y-39054266D01*
X76606604Y-39057100D01*
X66783697Y-39057100D01*
X66716658Y-39037415D01*
X66696016Y-39020781D01*
X65726158Y-38050923D01*
X65692673Y-37989600D01*
X65697657Y-37919908D01*
X65699263Y-37915824D01*
X65702495Y-37908024D01*
X65741036Y-37714265D01*
X65741036Y-37516711D01*
X65702496Y-37322953D01*
X65531226Y-36909467D01*
X65421471Y-36745206D01*
X65281781Y-36605514D01*
X65281775Y-36605510D01*
X65117518Y-36495755D01*
X64976867Y-36437496D01*
X64935005Y-36420156D01*
X64934997Y-36420154D01*
X64741250Y-36381615D01*
X64741246Y-36381615D01*
X64543692Y-36381615D01*
X64543687Y-36381615D01*
X64349942Y-36420153D01*
X64349930Y-36420156D01*
X64167425Y-36495751D01*
X64167412Y-36495758D01*
X64003158Y-36605509D01*
X63863462Y-36745203D01*
X63753706Y-36909462D01*
X63678107Y-37091975D01*
X63678105Y-37091983D01*
X63639566Y-37285730D01*
X63639566Y-37345009D01*
X63619881Y-37412048D01*
X63567077Y-37457803D01*
X63497919Y-37467747D01*
X63434363Y-37438722D01*
X63401005Y-37392462D01*
X63331271Y-37224110D01*
X63331266Y-37224100D01*
X63282261Y-37133213D01*
X63167626Y-37000564D01*
X63025488Y-36897924D01*
X62863505Y-36830828D01*
X62690425Y-36802899D01*
X62690420Y-36802898D01*
X62515560Y-36815638D01*
X62416649Y-36845248D01*
X62047113Y-36998314D01*
X62047112Y-36998315D01*
X62455860Y-37985118D01*
X62443137Y-37981709D01*
X62318067Y-37981709D01*
X62197259Y-38014079D01*
X62088945Y-38076614D01*
X62000507Y-38165052D01*
X61993921Y-38176459D01*
X61585173Y-37189656D01*
X61215637Y-37342725D01*
X61124757Y-37391726D01*
X60992106Y-37506364D01*
X60889465Y-37648503D01*
X60822372Y-37810481D01*
X60822371Y-37810485D01*
X60794442Y-37983564D01*
X60794441Y-37983571D01*
X60807179Y-38158422D01*
X60807181Y-38158431D01*
X60836794Y-38257347D01*
X61037693Y-38742360D01*
X61909011Y-38381447D01*
X61905602Y-38394174D01*
X61905602Y-38519244D01*
X61937972Y-38640052D01*
X62000507Y-38748366D01*
X62088945Y-38836804D01*
X62100350Y-38843388D01*
X61229036Y-39204299D01*
X61229035Y-39204300D01*
X61429932Y-39689307D01*
X61429937Y-39689317D01*
X61478942Y-39780204D01*
X61593577Y-39912853D01*
X61735715Y-40015493D01*
X61897698Y-40082589D01*
X62070778Y-40110518D01*
X62070783Y-40110519D01*
X62245643Y-40097779D01*
X62344550Y-40068170D01*
X62714090Y-39915101D01*
X62305342Y-38928299D01*
X62318067Y-38931709D01*
X62443137Y-38931709D01*
X62563945Y-38899339D01*
X62672259Y-38836804D01*
X62760697Y-38748366D01*
X62767283Y-38736958D01*
X63176028Y-39723759D01*
X63176029Y-39723760D01*
X63545566Y-39570692D01*
X63636446Y-39521691D01*
X63769097Y-39407053D01*
X63871738Y-39264914D01*
X63938831Y-39102936D01*
X63938832Y-39102932D01*
X63966761Y-38929853D01*
X63966762Y-38929846D01*
X63954024Y-38754995D01*
X63954022Y-38754986D01*
X63924409Y-38656070D01*
X63854673Y-38487714D01*
X63847204Y-38418245D01*
X63878479Y-38355766D01*
X63938568Y-38320113D01*
X64008393Y-38322606D01*
X64056915Y-38352580D01*
X64065373Y-38361038D01*
X64098821Y-38394486D01*
X64263081Y-38504243D01*
X64270848Y-38507460D01*
X64325253Y-38551297D01*
X64347322Y-38617590D01*
X64347401Y-38622023D01*
X64347401Y-42116303D01*
X64327716Y-42183342D01*
X64311082Y-42203984D01*
X61294285Y-45220781D01*
X61232962Y-45254266D01*
X61206604Y-45257100D01*
X60090381Y-45257100D01*
X60023342Y-45237415D01*
X60002700Y-45220781D01*
X59939490Y-45157571D01*
X59939485Y-45157567D01*
X59813413Y-45084780D01*
X59813412Y-45084779D01*
X59813411Y-45084779D01*
X59672791Y-45047100D01*
X59527209Y-45047100D01*
X59386589Y-45084779D01*
X59386587Y-45084780D01*
X59386586Y-45084780D01*
X59260514Y-45157567D01*
X59260509Y-45157571D01*
X59197300Y-45220781D01*
X59135977Y-45254266D01*
X59109619Y-45257100D01*
X56993395Y-45257100D01*
X56926356Y-45237415D01*
X56905714Y-45220781D01*
X55979219Y-44294285D01*
X55945734Y-44232962D01*
X55942900Y-44206604D01*
X55942900Y-43793396D01*
X55962585Y-43726357D01*
X55979219Y-43705715D01*
X56495715Y-43189219D01*
X56557038Y-43155734D01*
X56583396Y-43152900D01*
X56672788Y-43152900D01*
X56672791Y-43152900D01*
X56813411Y-43115221D01*
X56939489Y-43042430D01*
X57042430Y-42939489D01*
X57115221Y-42813411D01*
X57152900Y-42672791D01*
X57152900Y-42527209D01*
X57115221Y-42386589D01*
X57047999Y-42270156D01*
X57042432Y-42260514D01*
X57042428Y-42260509D01*
X56939490Y-42157571D01*
X56939485Y-42157567D01*
X56813413Y-42084780D01*
X56813412Y-42084779D01*
X56813411Y-42084779D01*
X56672791Y-42047100D01*
X56527209Y-42047100D01*
X56386589Y-42084779D01*
X56386587Y-42084780D01*
X56386586Y-42084780D01*
X56260514Y-42157567D01*
X56260509Y-42157571D01*
X56157571Y-42260509D01*
X56157567Y-42260514D01*
X56084780Y-42386586D01*
X56084780Y-42386587D01*
X56084779Y-42386589D01*
X56047100Y-42527209D01*
X56047100Y-42527211D01*
X56047100Y-42616604D01*
X56027415Y-42683643D01*
X56010781Y-42704285D01*
X55325614Y-43389451D01*
X55325612Y-43389454D01*
X55280468Y-43467644D01*
X55257100Y-43554856D01*
X53963453Y-43554856D01*
X54202709Y-43196785D01*
X54204272Y-43194504D01*
X54207982Y-43189219D01*
X54255817Y-43121067D01*
X54256879Y-43119579D01*
X54763306Y-42422542D01*
X54765010Y-42420256D01*
X54811676Y-42359225D01*
X54812484Y-42358184D01*
X55354889Y-41670147D01*
X55356746Y-41667853D01*
X55393237Y-41623962D01*
X55394132Y-41622901D01*
X55976449Y-40941095D01*
X55977082Y-40940375D01*
X57047100Y-40940375D01*
X57047100Y-41059624D01*
X57077964Y-41174814D01*
X57107777Y-41226450D01*
X57137590Y-41278087D01*
X57221913Y-41362410D01*
X57325187Y-41422036D01*
X57440375Y-41452900D01*
X57440377Y-41452900D01*
X57567753Y-41452900D01*
X57567753Y-41455365D01*
X57624492Y-41464207D01*
X57659335Y-41488705D01*
X60511294Y-44340664D01*
X60544779Y-44401987D01*
X60546044Y-44432248D01*
X60547100Y-44432248D01*
X60547100Y-44440375D01*
X60547100Y-44559625D01*
X60560744Y-44610545D01*
X60577964Y-44674814D01*
X60600613Y-44714042D01*
X60637590Y-44778087D01*
X60721913Y-44862410D01*
X60825187Y-44922036D01*
X60940375Y-44952900D01*
X60940377Y-44952900D01*
X61059623Y-44952900D01*
X61059625Y-44952900D01*
X61174813Y-44922036D01*
X61278087Y-44862410D01*
X61362410Y-44778087D01*
X61422036Y-44674813D01*
X61452900Y-44559625D01*
X61452900Y-44440375D01*
X61422036Y-44325187D01*
X61362410Y-44221913D01*
X61278087Y-44137590D01*
X61226450Y-44107777D01*
X61174814Y-44077964D01*
X61079991Y-44052557D01*
X61059625Y-44047100D01*
X60940375Y-44047100D01*
X60932248Y-44047100D01*
X60932248Y-44044641D01*
X60875471Y-44035775D01*
X60840664Y-44011294D01*
X57988705Y-41159335D01*
X57955220Y-41098012D01*
X57953961Y-41067753D01*
X57952900Y-41067753D01*
X57952900Y-40940377D01*
X57952900Y-40940375D01*
X57922036Y-40825187D01*
X57862410Y-40721913D01*
X57778087Y-40637590D01*
X57726450Y-40607777D01*
X57674814Y-40577964D01*
X57617219Y-40562532D01*
X57559625Y-40547100D01*
X57440375Y-40547100D01*
X57325185Y-40577964D01*
X57221913Y-40637590D01*
X57221910Y-40637592D01*
X57137592Y-40721910D01*
X57137590Y-40721913D01*
X57077964Y-40825185D01*
X57047100Y-40940375D01*
X55977082Y-40940375D01*
X55978575Y-40938675D01*
X55997974Y-40917189D01*
X55998610Y-40916492D01*
X56625034Y-40238830D01*
X56628360Y-40235372D01*
X57294919Y-39568813D01*
X57298377Y-39565487D01*
X57990609Y-38925595D01*
X57994168Y-38922432D01*
X58711019Y-38310182D01*
X58714678Y-38307180D01*
X59454982Y-37723571D01*
X59458854Y-37720641D01*
X59465275Y-37715976D01*
X60221437Y-37166591D01*
X60225388Y-37163837D01*
X61009171Y-36640131D01*
X61013245Y-36637523D01*
X61516674Y-36329022D01*
X65949265Y-36329022D01*
X65949265Y-36526585D01*
X65987803Y-36720330D01*
X65987806Y-36720342D01*
X66159071Y-37133817D01*
X66159078Y-37133830D01*
X66175826Y-37158895D01*
X66268830Y-37298086D01*
X66408520Y-37437778D01*
X66572780Y-37547535D01*
X66572781Y-37547535D01*
X66572782Y-37547536D01*
X66572792Y-37547540D01*
X66755297Y-37623136D01*
X66949050Y-37661676D01*
X66949053Y-37661677D01*
X66949055Y-37661677D01*
X67146610Y-37661677D01*
X67146611Y-37661676D01*
X67340367Y-37623137D01*
X67522883Y-37547537D01*
X67687144Y-37437783D01*
X67826836Y-37298092D01*
X67936593Y-37133832D01*
X68012194Y-36951316D01*
X68050735Y-36757557D01*
X68050735Y-36560003D01*
X68012195Y-36366245D01*
X67840925Y-35952759D01*
X67731170Y-35788498D01*
X67591480Y-35648806D01*
X67591474Y-35648802D01*
X67427217Y-35539047D01*
X67286564Y-35480787D01*
X67286562Y-35480786D01*
X67244708Y-35463449D01*
X67244696Y-35463446D01*
X67050949Y-35424907D01*
X67050945Y-35424907D01*
X66853391Y-35424907D01*
X66853386Y-35424907D01*
X66659641Y-35463445D01*
X66659629Y-35463448D01*
X66477124Y-35539043D01*
X66477111Y-35539050D01*
X66312857Y-35648801D01*
X66173161Y-35788495D01*
X66063405Y-35952754D01*
X65987806Y-36135267D01*
X65987804Y-36135275D01*
X65949265Y-36329022D01*
X61516674Y-36329022D01*
X61816979Y-36144995D01*
X61821127Y-36142564D01*
X62643582Y-35681967D01*
X62647796Y-35679714D01*
X63251103Y-35372313D01*
X68258963Y-35372313D01*
X68258963Y-35569876D01*
X68297501Y-35763621D01*
X68297504Y-35763633D01*
X68468769Y-36177108D01*
X68468776Y-36177121D01*
X68524018Y-36259796D01*
X68578528Y-36341377D01*
X68718218Y-36481069D01*
X68882478Y-36590826D01*
X68882479Y-36590826D01*
X68882480Y-36590827D01*
X68882490Y-36590831D01*
X69064995Y-36666427D01*
X69258748Y-36704967D01*
X69258751Y-36704968D01*
X69258753Y-36704968D01*
X69456308Y-36704968D01*
X69456309Y-36704967D01*
X69650065Y-36666428D01*
X69832581Y-36590828D01*
X69996842Y-36481074D01*
X70136534Y-36341383D01*
X70246291Y-36177123D01*
X70321892Y-35994607D01*
X70360433Y-35800848D01*
X70360433Y-35603294D01*
X70321893Y-35409536D01*
X70150623Y-34996050D01*
X70040868Y-34831789D01*
X69901178Y-34692097D01*
X69901172Y-34692093D01*
X69736915Y-34582338D01*
X69554402Y-34506739D01*
X69554394Y-34506737D01*
X69360647Y-34468198D01*
X69360643Y-34468198D01*
X69163089Y-34468198D01*
X69163084Y-34468198D01*
X68969339Y-34506736D01*
X68969327Y-34506739D01*
X68786822Y-34582334D01*
X68786809Y-34582341D01*
X68622555Y-34692092D01*
X68482859Y-34831786D01*
X68373103Y-34996045D01*
X68297504Y-35178558D01*
X68297502Y-35178566D01*
X68258963Y-35372313D01*
X63251103Y-35372313D01*
X63487715Y-35251753D01*
X63492089Y-35249632D01*
X64348146Y-34854984D01*
X64352525Y-34853069D01*
X65223419Y-34492333D01*
X65227902Y-34490578D01*
X66112327Y-34164296D01*
X66116834Y-34162734D01*
X67013349Y-33871438D01*
X67017986Y-33870032D01*
X67925226Y-33614164D01*
X67929853Y-33612957D01*
X68834915Y-33395670D01*
X68835772Y-33395470D01*
X68852693Y-33391608D01*
X68855878Y-33390928D01*
X69743718Y-33214326D01*
X69744974Y-33214084D01*
X69792848Y-33205194D01*
X69795994Y-33204653D01*
X70667098Y-33066684D01*
X70668717Y-33066439D01*
X70738845Y-33056356D01*
X70741750Y-33055976D01*
X71601583Y-32954207D01*
X71603126Y-32954036D01*
X71688883Y-32945259D01*
X71691574Y-32945015D01*
X72543842Y-32877940D01*
X72545904Y-32877796D01*
X72641239Y-32871954D01*
X72643749Y-32871829D01*
X73491820Y-32838508D01*
X73494010Y-32838443D01*
X73593957Y-32836403D01*
X73596485Y-32836378D01*
X74443081Y-32836378D01*
X74445608Y-32836403D01*
G37*
%TD.AperFunction*%
%TD*%
M02*
