%TF.GenerationSoftware,KiCad,Pcbnew,9.0.4-9.0.4-0~ubuntu22.04.1*%
%TF.CreationDate,2025-10-24T15:47:59-04:00*%
%TF.ProjectId,Thermistor Ring,54686572-6d69-4737-946f-722052696e67,rev?*%
%TF.SameCoordinates,Original*%
%TF.FileFunction,Copper,L1,Top*%
%TF.FilePolarity,Positive*%
%FSLAX46Y46*%
G04 Gerber Fmt 4.6, Leading zero omitted, Abs format (unit mm)*
G04 Created by KiCad (PCBNEW 9.0.4-9.0.4-0~ubuntu22.04.1) date 2025-10-24 15:47:59*
%MOMM*%
%LPD*%
G01*
G04 APERTURE LIST*
G04 Aperture macros list*
%AMRoundRect*
0 Rectangle with rounded corners*
0 $1 Rounding radius*
0 $2 $3 $4 $5 $6 $7 $8 $9 X,Y pos of 4 corners*
0 Add a 4 corners polygon primitive as box body*
4,1,4,$2,$3,$4,$5,$6,$7,$8,$9,$2,$3,0*
0 Add four circle primitives for the rounded corners*
1,1,$1+$1,$2,$3*
1,1,$1+$1,$4,$5*
1,1,$1+$1,$6,$7*
1,1,$1+$1,$8,$9*
0 Add four rect primitives between the rounded corners*
20,1,$1+$1,$2,$3,$4,$5,0*
20,1,$1+$1,$4,$5,$6,$7,0*
20,1,$1+$1,$6,$7,$8,$9,0*
20,1,$1+$1,$8,$9,$2,$3,0*%
%AMHorizOval*
0 Thick line with rounded ends*
0 $1 width*
0 $2 $3 position (X,Y) of the first rounded end (center of the circle)*
0 $4 $5 position (X,Y) of the second rounded end (center of the circle)*
0 Add line between two ends*
20,1,$1,$2,$3,$4,$5,0*
0 Add two circle primitives to create the rounded ends*
1,1,$1,$2,$3*
1,1,$1,$4,$5*%
%AMRotRect*
0 Rectangle, with rotation*
0 The origin of the aperture is its center*
0 $1 length*
0 $2 width*
0 $3 Rotation angle, in degrees counterclockwise*
0 Add horizontal line*
21,1,$1,$2,0,0,$3*%
G04 Aperture macros list end*
%TA.AperFunction,SMDPad,CuDef*%
%ADD10RoundRect,0.250000X-0.159099X0.512652X-0.512652X0.159099X0.159099X-0.512652X0.512652X-0.159099X0*%
%TD*%
%TA.AperFunction,SMDPad,CuDef*%
%ADD11R,1.524000X0.457200*%
%TD*%
%TA.AperFunction,SMDPad,CuDef*%
%ADD12RoundRect,0.250000X0.512652X0.159099X0.159099X0.512652X-0.512652X-0.159099X-0.159099X-0.512652X0*%
%TD*%
%TA.AperFunction,SMDPad,CuDef*%
%ADD13RotRect,1.524000X0.457200X225.000000*%
%TD*%
%TA.AperFunction,SMDPad,CuDef*%
%ADD14RotRect,1.524000X0.457200X135.000000*%
%TD*%
%TA.AperFunction,SMDPad,CuDef*%
%ADD15RoundRect,0.250000X0.159099X-0.512652X0.512652X-0.159099X-0.159099X0.512652X-0.512652X0.159099X0*%
%TD*%
%TA.AperFunction,SMDPad,CuDef*%
%ADD16RoundRect,0.250000X-0.250000X-0.475000X0.250000X-0.475000X0.250000X0.475000X-0.250000X0.475000X0*%
%TD*%
%TA.AperFunction,SMDPad,CuDef*%
%ADD17RoundRect,0.250000X-0.475000X0.250000X-0.475000X-0.250000X0.475000X-0.250000X0.475000X0.250000X0*%
%TD*%
%TA.AperFunction,SMDPad,CuDef*%
%ADD18RotRect,1.524000X0.457200X315.000000*%
%TD*%
%TA.AperFunction,SMDPad,CuDef*%
%ADD19R,0.457200X1.524000*%
%TD*%
%TA.AperFunction,SMDPad,CuDef*%
%ADD20RoundRect,0.250000X0.475000X-0.250000X0.475000X0.250000X-0.475000X0.250000X-0.475000X-0.250000X0*%
%TD*%
%TA.AperFunction,SMDPad,CuDef*%
%ADD21RoundRect,0.250000X0.250000X0.475000X-0.250000X0.475000X-0.250000X-0.475000X0.250000X-0.475000X0*%
%TD*%
%TA.AperFunction,ComponentPad*%
%ADD22RoundRect,0.250000X-0.276882X-0.899423X0.831773X-0.440203X0.276882X0.899423X-0.831773X0.440203X0*%
%TD*%
%TA.AperFunction,ComponentPad*%
%ADD23HorizOval,1.700000X-0.047835X0.115485X0.047835X-0.115485X0*%
%TD*%
%TA.AperFunction,ViaPad*%
%ADD24C,0.600000*%
%TD*%
%TA.AperFunction,ViaPad*%
%ADD25C,0.800000*%
%TD*%
%TA.AperFunction,Conductor*%
%ADD26C,0.380000*%
%TD*%
%TA.AperFunction,Conductor*%
%ADD27C,0.160000*%
%TD*%
G04 APERTURE END LIST*
D10*
%TO.P,C1,1*%
%TO.N,VCC*%
X93071751Y-45928249D03*
%TO.P,C1,2*%
%TO.N,GND*%
X91728249Y-47271751D03*
%TD*%
D11*
%TO.P,U2,1,SDA*%
%TO.N,/SDA*%
X71955300Y-36025001D03*
%TO.P,U2,2,SCL*%
%TO.N,/SCL*%
X71955300Y-36674999D03*
%TO.P,U2,3,ALERT*%
%TO.N,unconnected-(U2-ALERT-Pad3)*%
X71955300Y-37325001D03*
%TO.P,U2,4,GND*%
%TO.N,GND*%
X71955300Y-37974999D03*
%TO.P,U2,5,A2*%
X76044700Y-37974999D03*
%TO.P,U2,6,A1*%
X76044700Y-37325001D03*
%TO.P,U2,7,A0*%
%TO.N,VCC*%
X76044700Y-36674999D03*
%TO.P,U2,8,VDD*%
X76044700Y-36025001D03*
%TD*%
D12*
%TO.P,C6,1*%
%TO.N,VCC*%
X85043502Y-75843502D03*
%TO.P,C6,2*%
%TO.N,GND*%
X83700000Y-74500000D03*
%TD*%
D13*
%TO.P,U7,1,SDA*%
%TO.N,/SDA*%
X61770500Y-41987214D03*
%TO.P,U7,2,SCL*%
%TO.N,/SCL*%
X61310882Y-41527596D03*
%TO.P,U7,3,ALERT*%
%TO.N,unconnected-(U7-ALERT-Pad3)*%
X60851261Y-41067975D03*
%TO.P,U7,4,GND*%
%TO.N,GND*%
X60391643Y-40608357D03*
%TO.P,U7,5,A2*%
%TO.N,VCC*%
X57500000Y-43500000D03*
%TO.P,U7,6,A1*%
X57959618Y-43959618D03*
%TO.P,U7,7,A0*%
%TO.N,GND*%
X58419239Y-44419239D03*
%TO.P,U7,8,VDD*%
%TO.N,VCC*%
X58878857Y-44878857D03*
%TD*%
D14*
%TO.P,U8,1,SDA*%
%TO.N,/SDA*%
X60500000Y-73500000D03*
%TO.P,U8,2,SCL*%
%TO.N,/SCL*%
X60959618Y-73040382D03*
%TO.P,U8,3,ALERT*%
%TO.N,unconnected-(U8-ALERT-Pad3)*%
X61419239Y-72580761D03*
%TO.P,U8,4,GND*%
%TO.N,GND*%
X61878857Y-72121143D03*
%TO.P,U8,5,A2*%
%TO.N,VCC*%
X58987214Y-69229500D03*
%TO.P,U8,6,A1*%
X58527596Y-69689118D03*
%TO.P,U8,7,A0*%
X58067975Y-70148739D03*
%TO.P,U8,8,VDD*%
X57608357Y-70608357D03*
%TD*%
D15*
%TO.P,C8,1*%
%TO.N,VCC*%
X55328249Y-68171751D03*
%TO.P,C8,2*%
%TO.N,GND*%
X56671751Y-66828249D03*
%TD*%
D16*
%TO.P,C4,1*%
%TO.N,VCC*%
X53600000Y-52100000D03*
%TO.P,C4,2*%
%TO.N,GND*%
X55500000Y-52100000D03*
%TD*%
D17*
%TO.P,C2,1*%
%TO.N,VCC*%
X79600000Y-35950000D03*
%TO.P,C2,2*%
%TO.N,GND*%
X79600000Y-37850000D03*
%TD*%
D12*
%TO.P,C7,1*%
%TO.N,VCC*%
X56471751Y-47371751D03*
%TO.P,C7,2*%
%TO.N,GND*%
X55128249Y-46028249D03*
%TD*%
D18*
%TO.P,U1,1,SDA*%
%TO.N,/SDA*%
X87743606Y-40364751D03*
%TO.P,U1,2,SCL*%
%TO.N,/SCL*%
X87283989Y-40824368D03*
%TO.P,U1,3,ALERT*%
%TO.N,unconnected-(U1-ALERT-Pad3)*%
X86824368Y-41283989D03*
%TO.P,U1,4,GND*%
%TO.N,GND*%
X86364751Y-41743606D03*
%TO.P,U1,5,A2*%
X89256394Y-44635249D03*
%TO.P,U1,6,A1*%
X89716011Y-44175632D03*
%TO.P,U1,7,A0*%
X90175632Y-43716011D03*
%TO.P,U1,8,VDD*%
%TO.N,VCC*%
X90635249Y-43256394D03*
%TD*%
D13*
%TO.P,U6,1,SDA*%
%TO.N,/SDA*%
X90635250Y-70743607D03*
%TO.P,U6,2,SCL*%
%TO.N,/SCL*%
X90175632Y-70283989D03*
%TO.P,U6,3,ALERT*%
%TO.N,unconnected-(U6-ALERT-Pad3)*%
X89716011Y-69824368D03*
%TO.P,U6,4,GND*%
%TO.N,GND*%
X89256393Y-69364750D03*
%TO.P,U6,5,A2*%
%TO.N,VCC*%
X86364750Y-72256393D03*
%TO.P,U6,6,A1*%
%TO.N,GND*%
X86824368Y-72716011D03*
%TO.P,U6,7,A0*%
%TO.N,VCC*%
X87283989Y-73175632D03*
%TO.P,U6,8,VDD*%
X87743607Y-73635250D03*
%TD*%
D19*
%TO.P,U4,1,SDA*%
%TO.N,/SDA*%
X53500000Y-59089400D03*
%TO.P,U4,2,SCL*%
%TO.N,/SCL*%
X54149998Y-59089400D03*
%TO.P,U4,3,ALERT*%
%TO.N,unconnected-(U4-ALERT-Pad3)*%
X54800000Y-59089400D03*
%TO.P,U4,4,GND*%
%TO.N,GND*%
X55449998Y-59089400D03*
%TO.P,U4,5,A2*%
X55449998Y-55000000D03*
%TO.P,U4,6,A1*%
%TO.N,VCC*%
X54800000Y-55000000D03*
%TO.P,U4,7,A0*%
X54149998Y-55000000D03*
%TO.P,U4,8,VDD*%
X53500000Y-55000000D03*
%TD*%
D20*
%TO.P,C3,1*%
%TO.N,VCC*%
X68200000Y-77950000D03*
%TO.P,C3,2*%
%TO.N,GND*%
X68200000Y-76050000D03*
%TD*%
D21*
%TO.P,C5,1*%
%TO.N,VCC*%
X93950000Y-61800000D03*
%TO.P,C5,2*%
%TO.N,GND*%
X92050000Y-61800000D03*
%TD*%
D11*
%TO.P,U3,1,SDA*%
%TO.N,/SDA*%
X76044700Y-77974999D03*
%TO.P,U3,2,SCL*%
%TO.N,/SCL*%
X76044700Y-77325001D03*
%TO.P,U3,3,ALERT*%
%TO.N,unconnected-(U3-ALERT-Pad3)*%
X76044700Y-76674999D03*
%TO.P,U3,4,GND*%
%TO.N,GND*%
X76044700Y-76025001D03*
%TO.P,U3,5,A2*%
X71955300Y-76025001D03*
%TO.P,U3,6,A1*%
%TO.N,VCC*%
X71955300Y-76674999D03*
%TO.P,U3,7,A0*%
%TO.N,GND*%
X71955300Y-77325001D03*
%TO.P,U3,8,VDD*%
%TO.N,VCC*%
X71955300Y-77974999D03*
%TD*%
D19*
%TO.P,U5,1,SDA*%
%TO.N,/SDA*%
X93949998Y-54910600D03*
%TO.P,U5,2,SCL*%
%TO.N,/SCL*%
X93300000Y-54910600D03*
%TO.P,U5,3,ALERT*%
%TO.N,unconnected-(U5-ALERT-Pad3)*%
X92649998Y-54910600D03*
%TO.P,U5,4,GND*%
%TO.N,GND*%
X92000000Y-54910600D03*
%TO.P,U5,5,A2*%
%TO.N,VCC*%
X92000000Y-59000000D03*
%TO.P,U5,6,A1*%
%TO.N,GND*%
X92649998Y-59000000D03*
%TO.P,U5,7,A0*%
X93300000Y-59000000D03*
%TO.P,U5,8,VDD*%
%TO.N,VCC*%
X93949998Y-59000000D03*
%TD*%
D22*
%TO.P,J1,1,Pin_1*%
%TO.N,GND*%
X62380602Y-38456709D03*
D23*
%TO.P,J1,2,Pin_2*%
%TO.N,VCC*%
X64690301Y-37500000D03*
%TO.P,J1,3,Pin_3*%
%TO.N,/SDA*%
X67000000Y-36543292D03*
%TO.P,J1,4,Pin_4*%
%TO.N,/SCL*%
X69309698Y-35586583D03*
%TD*%
D24*
%TO.N,GND*%
X70400000Y-38000000D03*
X74680862Y-38019138D03*
X74500000Y-37200000D03*
D25*
%TO.N,VCC*%
X56600000Y-42600000D03*
%TO.N,GND*%
X73800000Y-33700000D03*
X55800000Y-70200000D03*
D24*
X85400000Y-68000000D03*
X85100000Y-45900000D03*
X97000000Y-55800000D03*
X93100000Y-50500000D03*
X82400000Y-41700000D03*
X58300000Y-48600000D03*
X52000000Y-62000000D03*
X51100000Y-57400000D03*
X64200000Y-75100000D03*
X78400000Y-73900000D03*
D25*
X56500000Y-50800000D03*
D24*
X83300000Y-38400000D03*
D25*
X81200000Y-38000000D03*
X54000000Y-47100000D03*
D24*
X90000000Y-68200000D03*
D25*
X56200000Y-65200000D03*
X56189400Y-59089400D03*
X92273166Y-63300000D03*
X66500000Y-76100000D03*
X85600000Y-42500000D03*
X92900000Y-48400000D03*
X82400000Y-75700000D03*
X63600000Y-71300000D03*
X76044700Y-74955300D03*
D24*
%TO.N,/SDA*%
X61000000Y-44500000D03*
X57500000Y-41000000D03*
D25*
%TO.N,VCC*%
X56100000Y-49100000D03*
X91200000Y-64700000D03*
X54300000Y-67200000D03*
X53600000Y-50600000D03*
X94250000Y-47050000D03*
X59600000Y-45600000D03*
X83850000Y-77150000D03*
X91200000Y-59000000D03*
D24*
X85600000Y-71500000D03*
D25*
X81200000Y-36100000D03*
X66800000Y-78000000D03*
D24*
%TO.N,GND*%
X80000000Y-78800000D03*
X60400000Y-75500000D03*
X57500000Y-62600000D03*
X68200000Y-40800000D03*
%TD*%
D26*
%TO.N,VCC*%
X56600000Y-42600000D02*
X57500000Y-43500000D01*
%TO.N,GND*%
X55128249Y-46028249D02*
X56810229Y-46028249D01*
X56810229Y-46028249D02*
X58419239Y-44419239D01*
%TO.N,VCC*%
X56471751Y-47371751D02*
X56471751Y-47285963D01*
X56471751Y-47285963D02*
X58878857Y-44878857D01*
X56100000Y-49100000D02*
X56100000Y-47743502D01*
X56100000Y-47743502D02*
X56471751Y-47371751D01*
%TO.N,GND*%
X55128249Y-46028249D02*
X55071751Y-46028249D01*
X55071751Y-46028249D02*
X54000000Y-47100000D01*
X54000000Y-47000000D02*
X54000000Y-47100000D01*
X56500000Y-51100000D02*
X56500000Y-50800000D01*
X55500000Y-52100000D02*
X56500000Y-51100000D01*
%TO.N,VCC*%
X53600000Y-52100000D02*
X53600000Y-50600000D01*
%TO.N,GND*%
X55500000Y-52100000D02*
X55500000Y-54949998D01*
X55500000Y-54949998D02*
X55449998Y-55000000D01*
%TO.N,VCC*%
X53600000Y-52100000D02*
X53600000Y-54900000D01*
X53600000Y-54900000D02*
X53500000Y-55000000D01*
X57608357Y-70608357D02*
X57608357Y-70451859D01*
X57608357Y-70451859D02*
X55328249Y-68171751D01*
%TO.N,GND*%
X56671751Y-66828249D02*
X56671751Y-65671751D01*
X56671751Y-65671751D02*
X56200000Y-65200000D01*
%TO.N,VCC*%
X55328249Y-68171751D02*
X55271751Y-68171751D01*
X55271751Y-68171751D02*
X54300000Y-67200000D01*
D27*
%TO.N,GND*%
X56400000Y-65400000D02*
X56200000Y-65200000D01*
D26*
%TO.N,VCC*%
X54300000Y-67300000D02*
X54300000Y-67200000D01*
X71955300Y-76674999D02*
X69475001Y-76674999D01*
X69475001Y-76674999D02*
X68200000Y-77950000D01*
%TO.N,GND*%
X71955300Y-76025001D02*
X68224999Y-76025001D01*
X68224999Y-76025001D02*
X68200000Y-76050000D01*
X66500000Y-76100000D02*
X68150000Y-76100000D01*
X68150000Y-76100000D02*
X68200000Y-76050000D01*
%TO.N,VCC*%
X68200000Y-77950000D02*
X71930301Y-77950000D01*
X71930301Y-77950000D02*
X71955300Y-77974999D01*
X68200000Y-77950000D02*
X66850000Y-77950000D01*
X66850000Y-77950000D02*
X66800000Y-78000000D01*
%TO.N,GND*%
X86824368Y-72716011D02*
X86240379Y-73300000D01*
X86240379Y-73300000D02*
X84900000Y-73300000D01*
X84900000Y-73300000D02*
X83700000Y-74500000D01*
X83700000Y-74500000D02*
X83600000Y-74500000D01*
X83600000Y-74500000D02*
X82400000Y-75700000D01*
%TO.N,VCC*%
X87743607Y-73635250D02*
X87743607Y-74456393D01*
X86356498Y-75843502D02*
X85043502Y-75843502D01*
X87743607Y-74456393D02*
X86356498Y-75843502D01*
X83850000Y-77150000D02*
X83850000Y-77037004D01*
X83850000Y-77037004D02*
X85043502Y-75843502D01*
D27*
X84900000Y-76200000D02*
X84800000Y-76200000D01*
D26*
%TO.N,GND*%
X92050000Y-61800000D02*
X92050000Y-63076834D01*
X92050000Y-63076834D02*
X92273166Y-63300000D01*
X92050000Y-61800000D02*
X92649998Y-61200002D01*
X92649998Y-61200002D02*
X92649998Y-59000000D01*
%TO.N,VCC*%
X93949998Y-59000000D02*
X93949998Y-61799998D01*
X93949998Y-61799998D02*
X93950000Y-61800000D01*
X93950000Y-61800000D02*
X93950000Y-63750000D01*
X93950000Y-63750000D02*
X93000000Y-64700000D01*
X93000000Y-64700000D02*
X91200000Y-64700000D01*
D27*
%TO.N,/SCL*%
X90175632Y-70283989D02*
X92100000Y-68359621D01*
X92100000Y-68359621D02*
X92100000Y-67100000D01*
X92100000Y-67100000D02*
X90300000Y-65300000D01*
X90300000Y-65300000D02*
X90300000Y-58600000D01*
X90300000Y-58600000D02*
X93300000Y-55600000D01*
X93300000Y-55600000D02*
X93300000Y-54910600D01*
D26*
%TO.N,GND*%
X91728249Y-47271751D02*
X91771751Y-47271751D01*
%TO.N,VCC*%
X90635249Y-43256394D02*
X93071751Y-45692896D01*
X93071751Y-45692896D02*
X93071751Y-45928249D01*
%TO.N,GND*%
X89256394Y-44635249D02*
X89256394Y-44799896D01*
X89256394Y-44799896D02*
X91728249Y-47271751D01*
X92900000Y-48300000D02*
X92900000Y-48400000D01*
%TO.N,VCC*%
X79600000Y-35950000D02*
X81050000Y-35950000D01*
X81050000Y-35950000D02*
X81200000Y-36100000D01*
%TO.N,GND*%
X81200000Y-38000000D02*
X79750000Y-38000000D01*
X79750000Y-38000000D02*
X79600000Y-37850000D01*
X76044700Y-37974999D02*
X79475001Y-37974999D01*
X79475001Y-37974999D02*
X79600000Y-37850000D01*
%TO.N,VCC*%
X76044700Y-36025001D02*
X79524999Y-36025001D01*
X79524999Y-36025001D02*
X79600000Y-35950000D01*
%TO.N,GND*%
X85608357Y-42500000D02*
X85600000Y-42500000D01*
X76100000Y-74900000D02*
X76044700Y-74955300D01*
X76044700Y-76025001D02*
X76044700Y-74955300D01*
X55449998Y-59089400D02*
X56189400Y-59089400D01*
X89256393Y-68943607D02*
X90000000Y-68200000D01*
X56200000Y-59100000D02*
X56189400Y-59089400D01*
X86364751Y-41743606D02*
X85608357Y-42500000D01*
X60391643Y-40445668D02*
X62380602Y-38456709D01*
D27*
X89040382Y-44459617D02*
X89040382Y-44627386D01*
X60391643Y-40608357D02*
X60391643Y-40445668D01*
D26*
X92649998Y-59000000D02*
X93300000Y-59000000D01*
X89256393Y-69364750D02*
X89256393Y-68943607D01*
D27*
X89256393Y-44635249D02*
X89256393Y-44756393D01*
%TO.N,/SDA*%
X71000000Y-34000000D02*
X68500000Y-34000000D01*
X90500000Y-73000000D02*
X85525001Y-77974999D01*
X66500000Y-79500000D02*
X60500000Y-73500000D01*
X95000000Y-46000000D02*
X95000000Y-53860598D01*
X95000000Y-53860598D02*
X93949998Y-54910600D01*
X76044700Y-77974999D02*
X74519699Y-79500000D01*
X90635250Y-70743607D02*
X90500000Y-70878857D01*
X68500000Y-34000000D02*
X67000000Y-35500000D01*
X87743607Y-40364751D02*
X89364751Y-40364751D01*
X67000000Y-35500000D02*
X67000000Y-36543292D01*
X67000000Y-36543292D02*
X66725277Y-36268569D01*
X58000000Y-40500000D02*
X57500000Y-41000000D01*
X89364751Y-40364751D02*
X95000000Y-46000000D01*
X53500000Y-69000000D02*
X53500000Y-59089400D01*
X90500000Y-70878857D02*
X90500000Y-73000000D01*
X95500000Y-56500000D02*
X95500000Y-65878857D01*
X71955300Y-36025001D02*
X71955300Y-34955300D01*
X74519699Y-79500000D02*
X66500000Y-79500000D01*
X85525001Y-77974999D02*
X76044700Y-77974999D01*
X61000000Y-44500000D02*
X61770500Y-43729500D01*
X71955300Y-34955300D02*
X82334156Y-34955300D01*
X93949998Y-54910600D02*
X93949998Y-54949998D01*
X93949998Y-54949998D02*
X95500000Y-56500000D01*
X62231431Y-36268569D02*
X58000000Y-40500000D01*
X66725277Y-36268569D02*
X62231431Y-36268569D01*
X71955300Y-34955300D02*
X71000000Y-34000000D01*
X95500000Y-65878857D02*
X90635250Y-70743607D01*
X60500000Y-73500000D02*
X58000000Y-73500000D01*
X58000000Y-73500000D02*
X53500000Y-69000000D01*
X82334156Y-34955300D02*
X87743607Y-40364751D01*
X61770500Y-43729500D02*
X61770500Y-41987214D01*
%TO.N,/SCL*%
X87800000Y-47241938D02*
X90629031Y-50070969D01*
X93300000Y-54910600D02*
X93300000Y-52741938D01*
X87283989Y-40824368D02*
X87283989Y-40883989D01*
X65200000Y-41000000D02*
X69309698Y-36890302D01*
X93300000Y-52741938D02*
X90629031Y-50070969D01*
X67600000Y-73600000D02*
X68000000Y-73600000D01*
X69309698Y-36890302D02*
X69309698Y-35586583D01*
X90175632Y-70283989D02*
X89659621Y-70800000D01*
X71397700Y-73600000D02*
X67600000Y-73600000D01*
X90629031Y-50070969D02*
X90500000Y-49941938D01*
X80558062Y-40000000D02*
X75982900Y-40000000D01*
X86459621Y-40000000D02*
X87283989Y-40824368D01*
X70398114Y-36674999D02*
X69309698Y-35586583D01*
X80558062Y-40000000D02*
X86459621Y-40000000D01*
X60959618Y-73040382D02*
X61519236Y-73600000D01*
X76044700Y-77325001D02*
X75122701Y-77325001D01*
X60959618Y-73040382D02*
X60200000Y-72280764D01*
X89659621Y-70800000D02*
X84900000Y-70800000D01*
X78374999Y-77325001D02*
X76044700Y-77325001D01*
X75982900Y-40000000D02*
X72657899Y-36674999D01*
X72657899Y-36674999D02*
X71955300Y-36674999D01*
X60200000Y-72280764D02*
X60200000Y-67800000D01*
X68000000Y-73600000D02*
X67000000Y-73600000D01*
X60200000Y-67800000D02*
X54149998Y-61749998D01*
X71955300Y-36674999D02*
X70398114Y-36674999D01*
X61838478Y-41000000D02*
X65200000Y-41000000D01*
X84900000Y-70800000D02*
X78374999Y-77325001D01*
X87283989Y-40883989D02*
X87800000Y-41400000D01*
X54149998Y-61749998D02*
X54149998Y-59089400D01*
X61310882Y-41527596D02*
X61838478Y-41000000D01*
X87800000Y-41400000D02*
X87800000Y-47241938D01*
X75122701Y-77325001D02*
X71397700Y-73600000D01*
X61519236Y-73600000D02*
X67600000Y-73600000D01*
D26*
%TO.N,VCC*%
X58527596Y-69689118D02*
X58067975Y-70148739D01*
D27*
X86364750Y-72256393D02*
X86356393Y-72256393D01*
D26*
X57608357Y-70608357D02*
X58067975Y-70148739D01*
X54800000Y-55000000D02*
X54149998Y-55000000D01*
X53500000Y-55000000D02*
X54149998Y-55000000D01*
X58878857Y-44878857D02*
X59600000Y-45600000D01*
D27*
X57484747Y-43500000D02*
X57500000Y-43500000D01*
X90635249Y-43256393D02*
X90635249Y-43448245D01*
X78425001Y-36025001D02*
X78500000Y-36100000D01*
D26*
X76044700Y-36025001D02*
X76044700Y-36674999D01*
X92000000Y-59000000D02*
X91200000Y-59000000D01*
X87283989Y-73175632D02*
X87743607Y-73635250D01*
X58987214Y-69229500D02*
X58527596Y-69689118D01*
D27*
X71930299Y-78000000D02*
X71955300Y-77974999D01*
D26*
X57500000Y-43500000D02*
X57959618Y-43959618D01*
D27*
X58878857Y-44878857D02*
X59021143Y-44878857D01*
D26*
X86356393Y-72256393D02*
X85600000Y-71500000D01*
X93128249Y-45928249D02*
X94250000Y-47050000D01*
X93071751Y-45928249D02*
X93128249Y-45928249D01*
%TD*%
%TA.AperFunction,Conductor*%
%TO.N,GND*%
G36*
X85006801Y-78227584D02*
G01*
X85052556Y-78280388D01*
X85062500Y-78349546D01*
X85033475Y-78413102D01*
X84996057Y-78442383D01*
X84932807Y-78474610D01*
X84551857Y-78668714D01*
X84547476Y-78670839D01*
X83691460Y-79065468D01*
X83686999Y-79067419D01*
X82816163Y-79428131D01*
X82811629Y-79429906D01*
X81927293Y-79756155D01*
X81922692Y-79757750D01*
X81026227Y-80049029D01*
X81021568Y-80050442D01*
X80114382Y-80306295D01*
X80109670Y-80307525D01*
X79204909Y-80524738D01*
X79203556Y-80525055D01*
X79186978Y-80528839D01*
X79183575Y-80529565D01*
X78295990Y-80706116D01*
X78294437Y-80706415D01*
X78246770Y-80715266D01*
X78243530Y-80715823D01*
X77372536Y-80853775D01*
X77370786Y-80854040D01*
X77300801Y-80864103D01*
X77297728Y-80864505D01*
X76438198Y-80966238D01*
X76436249Y-80966454D01*
X76350788Y-80975201D01*
X76347891Y-80975463D01*
X75495764Y-81042526D01*
X75493620Y-81042676D01*
X75398425Y-81048510D01*
X75395708Y-81048646D01*
X74547821Y-81081959D01*
X74545484Y-81082029D01*
X74446850Y-81084042D01*
X74445608Y-81084068D01*
X74443079Y-81084094D01*
X73596487Y-81084094D01*
X73593957Y-81084068D01*
X73592675Y-81084041D01*
X73494080Y-81082029D01*
X73491743Y-81081959D01*
X72643856Y-81048646D01*
X72641139Y-81048510D01*
X72545944Y-81042676D01*
X72543800Y-81042526D01*
X71691673Y-80975463D01*
X71688776Y-80975201D01*
X71603315Y-80966454D01*
X71601366Y-80966238D01*
X70741836Y-80864505D01*
X70738763Y-80864103D01*
X70668778Y-80854040D01*
X70667028Y-80853775D01*
X69796034Y-80715823D01*
X69792794Y-80715266D01*
X69745127Y-80706415D01*
X69743574Y-80706116D01*
X68855989Y-80529565D01*
X68852586Y-80528839D01*
X68836008Y-80525055D01*
X68834655Y-80524738D01*
X68103981Y-80349319D01*
X67929888Y-80307523D01*
X67925191Y-80306297D01*
X67755379Y-80258405D01*
X67017997Y-80050442D01*
X67013338Y-80049029D01*
X66784978Y-79974831D01*
X66727303Y-79935394D01*
X66700104Y-79871035D01*
X66712018Y-79802189D01*
X66759262Y-79750713D01*
X66823296Y-79732900D01*
X74566025Y-79732900D01*
X74566026Y-79732900D01*
X74651626Y-79697443D01*
X75956251Y-78392816D01*
X76017574Y-78359332D01*
X76043932Y-78356498D01*
X76821755Y-78356498D01*
X76821756Y-78356498D01*
X76866358Y-78347627D01*
X76916934Y-78313833D01*
X76950728Y-78263257D01*
X76950728Y-78263255D01*
X76950893Y-78263009D01*
X77004505Y-78218203D01*
X77053996Y-78207899D01*
X84939762Y-78207899D01*
X85006801Y-78227584D01*
G37*
%TD.AperFunction*%
%TA.AperFunction,Conductor*%
G36*
X53736502Y-69566091D02*
G01*
X53740992Y-69570362D01*
X57868073Y-73697443D01*
X57953673Y-73732900D01*
X58046327Y-73732900D01*
X60142016Y-73732900D01*
X60209055Y-73752585D01*
X60229697Y-73769219D01*
X60507232Y-74046753D01*
X60779701Y-74319222D01*
X60817512Y-74344488D01*
X60877171Y-74356354D01*
X60877171Y-74356353D01*
X60877172Y-74356354D01*
X60900906Y-74351633D01*
X60936829Y-74344488D01*
X60936830Y-74344487D01*
X60937123Y-74344429D01*
X61006714Y-74350656D01*
X61048995Y-74378365D01*
X66211015Y-79540385D01*
X66244500Y-79601708D01*
X66239516Y-79671400D01*
X66197644Y-79727333D01*
X66132180Y-79751750D01*
X66080415Y-79744402D01*
X65227936Y-79429906D01*
X65223402Y-79428131D01*
X64352566Y-79067419D01*
X64348105Y-79065468D01*
X63492089Y-78670839D01*
X63487708Y-78668714D01*
X62647836Y-78240778D01*
X62643542Y-78238482D01*
X61821154Y-77777922D01*
X61816953Y-77775460D01*
X61013259Y-77282956D01*
X61009158Y-77280331D01*
X60225410Y-76756648D01*
X60221416Y-76753864D01*
X59458854Y-76199830D01*
X59454971Y-76196891D01*
X59100931Y-75917789D01*
X58714709Y-75613316D01*
X58710989Y-75610263D01*
X57994197Y-74998064D01*
X57990569Y-74994840D01*
X57978233Y-74983437D01*
X57298403Y-74355008D01*
X57294893Y-74351633D01*
X56628385Y-73685125D01*
X56625010Y-73681615D01*
X55998810Y-73004195D01*
X55997830Y-73003122D01*
X55978641Y-72981869D01*
X55976387Y-72979303D01*
X55394188Y-72297635D01*
X55393129Y-72296379D01*
X55381829Y-72282788D01*
X55356807Y-72252691D01*
X55354817Y-72250233D01*
X54812595Y-71562427D01*
X54811576Y-71561116D01*
X54765068Y-71500291D01*
X54763255Y-71497858D01*
X54256958Y-70801000D01*
X54255782Y-70799353D01*
X54204272Y-70725966D01*
X54202664Y-70723619D01*
X53853821Y-70201539D01*
X53729192Y-70015018D01*
X53727998Y-70013196D01*
X53721463Y-70003028D01*
X53675332Y-69931246D01*
X53673923Y-69929000D01*
X53646493Y-69884239D01*
X53547584Y-69722833D01*
X53529339Y-69655387D01*
X53550455Y-69588785D01*
X53604227Y-69544171D01*
X53673583Y-69535711D01*
X53736502Y-69566091D01*
G37*
%TD.AperFunction*%
%TA.AperFunction,Conductor*%
G36*
X71316907Y-73852585D02*
G01*
X71337549Y-73869219D01*
X72553050Y-75084720D01*
X72586535Y-75146043D01*
X72581551Y-75215735D01*
X72539679Y-75271668D01*
X72474215Y-75296085D01*
X72465369Y-75296401D01*
X72183900Y-75296401D01*
X72183900Y-75796401D01*
X73213369Y-75796401D01*
X73280408Y-75816086D01*
X73301050Y-75832720D01*
X74990774Y-77522444D01*
X75063589Y-77552605D01*
X75117992Y-77596447D01*
X75140056Y-77662741D01*
X75137753Y-77691355D01*
X75129800Y-77731340D01*
X75129800Y-78218653D01*
X75138672Y-78263257D01*
X75138673Y-78263260D01*
X75172466Y-78313834D01*
X75181101Y-78322469D01*
X75179528Y-78324041D01*
X75213945Y-78365220D01*
X75222655Y-78434545D01*
X75192502Y-78497573D01*
X75187932Y-78502395D01*
X74459548Y-79230781D01*
X74398225Y-79264266D01*
X74371867Y-79267100D01*
X66647832Y-79267100D01*
X66580793Y-79247415D01*
X66560151Y-79230781D01*
X65256579Y-77927209D01*
X66247100Y-77927209D01*
X66247100Y-78072791D01*
X66284779Y-78213411D01*
X66284780Y-78213412D01*
X66284780Y-78213413D01*
X66357567Y-78339485D01*
X66357569Y-78339488D01*
X66357570Y-78339489D01*
X66460511Y-78442430D01*
X66586589Y-78515221D01*
X66727209Y-78552900D01*
X66727211Y-78552900D01*
X66872788Y-78552900D01*
X66872791Y-78552900D01*
X67013411Y-78515221D01*
X67139489Y-78442430D01*
X67188960Y-78392958D01*
X67250281Y-78359474D01*
X67319973Y-78364458D01*
X67375906Y-78406329D01*
X67387125Y-78424346D01*
X67394983Y-78439770D01*
X67394988Y-78439776D01*
X67485223Y-78530011D01*
X67485227Y-78530014D01*
X67485229Y-78530016D01*
X67598945Y-78587957D01*
X67598947Y-78587957D01*
X67598949Y-78587958D01*
X67693287Y-78602900D01*
X67693292Y-78602900D01*
X68706713Y-78602900D01*
X68801050Y-78587958D01*
X68801050Y-78587957D01*
X68801055Y-78587957D01*
X68914771Y-78530016D01*
X69005016Y-78439771D01*
X69045352Y-78360604D01*
X69093326Y-78309809D01*
X69155837Y-78292900D01*
X71014122Y-78292900D01*
X71081161Y-78312585D01*
X71083012Y-78313797D01*
X71083066Y-78313833D01*
X71133642Y-78347627D01*
X71133643Y-78347627D01*
X71133645Y-78347628D01*
X71155942Y-78352063D01*
X71178243Y-78356499D01*
X72732356Y-78356498D01*
X72776958Y-78347627D01*
X72827534Y-78313833D01*
X72861328Y-78263257D01*
X72861378Y-78263009D01*
X72864675Y-78246430D01*
X72870200Y-78218656D01*
X72870199Y-78116312D01*
X72889883Y-78049276D01*
X72942686Y-78003520D01*
X72950872Y-78000130D01*
X72959391Y-77996952D01*
X73074487Y-77910791D01*
X73074490Y-77910788D01*
X73160650Y-77795694D01*
X73160654Y-77795687D01*
X73210896Y-77660980D01*
X73210898Y-77660973D01*
X73217299Y-77601445D01*
X73217300Y-77601428D01*
X73217300Y-77553601D01*
X70693300Y-77553601D01*
X70676120Y-77570781D01*
X70614797Y-77604266D01*
X70588439Y-77607100D01*
X69327195Y-77607100D01*
X69260156Y-77587415D01*
X69214401Y-77534611D01*
X69204457Y-77465453D01*
X69233482Y-77401897D01*
X69239514Y-77395419D01*
X69341964Y-77292970D01*
X69580716Y-77054218D01*
X69642039Y-77020733D01*
X69668397Y-77017899D01*
X70569300Y-77017899D01*
X70636339Y-77037584D01*
X70656366Y-77060696D01*
X70656981Y-77060082D01*
X70693300Y-77096401D01*
X71726700Y-77096401D01*
X71730284Y-77092817D01*
X71791607Y-77059332D01*
X71817959Y-77056498D01*
X72092636Y-77056498D01*
X72159674Y-77076183D01*
X72180316Y-77092817D01*
X72183900Y-77096401D01*
X73217300Y-77096401D01*
X73217300Y-77048573D01*
X73217299Y-77048556D01*
X73210898Y-76989028D01*
X73210896Y-76989021D01*
X73160654Y-76854314D01*
X73160652Y-76854311D01*
X73082050Y-76749313D01*
X73057632Y-76683848D01*
X73072483Y-76615575D01*
X73082050Y-76600689D01*
X73160652Y-76495690D01*
X73160654Y-76495687D01*
X73210896Y-76360980D01*
X73210898Y-76360973D01*
X73217299Y-76301445D01*
X73217300Y-76301428D01*
X73217300Y-76253601D01*
X72183900Y-76253601D01*
X72180321Y-76257180D01*
X72118998Y-76290665D01*
X72092640Y-76293499D01*
X71817960Y-76293499D01*
X71750921Y-76273814D01*
X71730279Y-76257180D01*
X71726700Y-76253601D01*
X70693300Y-76253601D01*
X70674384Y-76272516D01*
X70673615Y-76275138D01*
X70659741Y-76287159D01*
X70656981Y-76289920D01*
X70656783Y-76289722D01*
X70620811Y-76320893D01*
X70569300Y-76332099D01*
X69508462Y-76332099D01*
X69441423Y-76312414D01*
X69426017Y-76300000D01*
X66975001Y-76300000D01*
X66975001Y-76349986D01*
X66985494Y-76452697D01*
X67040641Y-76619119D01*
X67040643Y-76619124D01*
X67132684Y-76768345D01*
X67256654Y-76892315D01*
X67405875Y-76984356D01*
X67405880Y-76984358D01*
X67572302Y-77039505D01*
X67572309Y-77039506D01*
X67675014Y-77049999D01*
X67677826Y-77049999D01*
X67744869Y-77069672D01*
X67790633Y-77122469D01*
X67800588Y-77191626D01*
X67771574Y-77255186D01*
X67712802Y-77292970D01*
X67697246Y-77296472D01*
X67598949Y-77312041D01*
X67485227Y-77369985D01*
X67485223Y-77369988D01*
X67394988Y-77460223D01*
X67394983Y-77460230D01*
X67380077Y-77489485D01*
X67355921Y-77536896D01*
X67354648Y-77539394D01*
X67344198Y-77550458D01*
X67337876Y-77564303D01*
X67320696Y-77575343D01*
X67306674Y-77590191D01*
X67290992Y-77594432D01*
X67279098Y-77602077D01*
X67244163Y-77607100D01*
X67240381Y-77607100D01*
X67173342Y-77587415D01*
X67152700Y-77570781D01*
X67139490Y-77557571D01*
X67139485Y-77557567D01*
X67013413Y-77484780D01*
X67013412Y-77484779D01*
X67013411Y-77484779D01*
X66872791Y-77447100D01*
X66727209Y-77447100D01*
X66586589Y-77484779D01*
X66586587Y-77484780D01*
X66586586Y-77484780D01*
X66460514Y-77557567D01*
X66460509Y-77557571D01*
X66357571Y-77660509D01*
X66357567Y-77660514D01*
X66284780Y-77786586D01*
X66284780Y-77786587D01*
X66284779Y-77786589D01*
X66247100Y-77927209D01*
X65256579Y-77927209D01*
X63079383Y-75750013D01*
X66975000Y-75750013D01*
X66975000Y-75800000D01*
X67950000Y-75800000D01*
X68450000Y-75800000D01*
X69424999Y-75800000D01*
X69424999Y-75750020D01*
X69424849Y-75748556D01*
X70693300Y-75748556D01*
X70693300Y-75796401D01*
X71726700Y-75796401D01*
X71726700Y-75296401D01*
X71145455Y-75296401D01*
X71085927Y-75302802D01*
X71085920Y-75302804D01*
X70951213Y-75353046D01*
X70951206Y-75353050D01*
X70836112Y-75439210D01*
X70836109Y-75439213D01*
X70749949Y-75554307D01*
X70749945Y-75554314D01*
X70699703Y-75689021D01*
X70699701Y-75689028D01*
X70693300Y-75748556D01*
X69424849Y-75748556D01*
X69414505Y-75647302D01*
X69359358Y-75480880D01*
X69359356Y-75480875D01*
X69267315Y-75331654D01*
X69143345Y-75207684D01*
X68994124Y-75115643D01*
X68994119Y-75115641D01*
X68827697Y-75060494D01*
X68827690Y-75060493D01*
X68724986Y-75050000D01*
X68450000Y-75050000D01*
X68450000Y-75800000D01*
X67950000Y-75800000D01*
X67950000Y-75050000D01*
X67675029Y-75050000D01*
X67675012Y-75050001D01*
X67572302Y-75060494D01*
X67405880Y-75115641D01*
X67405875Y-75115643D01*
X67256654Y-75207684D01*
X67132684Y-75331654D01*
X67040643Y-75480875D01*
X67040641Y-75480880D01*
X66985494Y-75647302D01*
X66985493Y-75647309D01*
X66975000Y-75750013D01*
X63079383Y-75750013D01*
X61394061Y-74064691D01*
X61384266Y-74046753D01*
X61370451Y-74031693D01*
X61367862Y-74016711D01*
X61360576Y-74003368D01*
X61362033Y-73982982D01*
X61358554Y-73962844D01*
X61364475Y-73948841D01*
X61365560Y-73933676D01*
X61377807Y-73917315D01*
X61385768Y-73898492D01*
X61404897Y-73881128D01*
X61407432Y-73877743D01*
X61411777Y-73874634D01*
X61412234Y-73874321D01*
X61434258Y-73859606D01*
X61435318Y-73858545D01*
X61441203Y-73854524D01*
X61469463Y-73845349D01*
X61496820Y-73833733D01*
X61507082Y-73833137D01*
X61507659Y-73832950D01*
X61508137Y-73833075D01*
X61511168Y-73832900D01*
X66953673Y-73832900D01*
X67553673Y-73832900D01*
X71249868Y-73832900D01*
X71316907Y-73852585D01*
G37*
%TD.AperFunction*%
%TA.AperFunction,Conductor*%
G36*
X85198982Y-71052585D02*
G01*
X85244737Y-71105389D01*
X85254681Y-71174547D01*
X85239329Y-71218901D01*
X85177966Y-71325181D01*
X85177965Y-71325184D01*
X85177964Y-71325186D01*
X85177964Y-71325187D01*
X85147100Y-71440375D01*
X85147100Y-71559625D01*
X85155399Y-71590596D01*
X85177964Y-71674814D01*
X85206597Y-71724407D01*
X85237590Y-71778087D01*
X85321913Y-71862410D01*
X85425187Y-71922036D01*
X85540375Y-71952900D01*
X85540377Y-71952900D01*
X85545971Y-71954399D01*
X85559858Y-71962416D01*
X85573305Y-71965342D01*
X85601559Y-71986493D01*
X85760662Y-72145596D01*
X85794147Y-72206919D01*
X85789163Y-72276611D01*
X85760663Y-72320958D01*
X85605932Y-72475690D01*
X85545528Y-72536094D01*
X85520262Y-72573905D01*
X85508396Y-72633564D01*
X85520262Y-72693222D01*
X85520262Y-72693223D01*
X85520263Y-72693224D01*
X85545524Y-72731031D01*
X85545525Y-72731032D01*
X85545526Y-72731033D01*
X85617892Y-72803399D01*
X85651377Y-72864721D01*
X85646393Y-72934413D01*
X85643007Y-72942588D01*
X85639228Y-72950863D01*
X85639226Y-72950868D01*
X85618766Y-73093182D01*
X85639226Y-73235495D01*
X85639227Y-73235500D01*
X85698953Y-73366279D01*
X85736533Y-73412914D01*
X85770354Y-73446735D01*
X87555092Y-71661997D01*
X87521271Y-71628176D01*
X87474636Y-71590596D01*
X87343857Y-71530870D01*
X87343852Y-71530869D01*
X87201539Y-71510409D01*
X87059225Y-71530869D01*
X87059216Y-71530872D01*
X87050941Y-71534651D01*
X86981782Y-71544591D01*
X86918228Y-71515563D01*
X86911755Y-71509536D01*
X86900077Y-71497858D01*
X86839390Y-71437171D01*
X86839387Y-71437169D01*
X86825029Y-71427575D01*
X86801579Y-71411905D01*
X86741921Y-71400039D01*
X86682262Y-71411905D01*
X86682261Y-71411905D01*
X86682259Y-71411906D01*
X86644456Y-71437165D01*
X86644453Y-71437167D01*
X86420957Y-71660662D01*
X86413010Y-71665001D01*
X86407586Y-71672247D01*
X86382828Y-71681481D01*
X86359634Y-71694146D01*
X86350604Y-71693500D01*
X86342122Y-71696664D01*
X86316301Y-71691047D01*
X86289942Y-71689162D01*
X86280888Y-71683343D01*
X86273849Y-71681812D01*
X86245595Y-71660661D01*
X86086493Y-71501559D01*
X86054399Y-71445971D01*
X86052900Y-71440375D01*
X86022036Y-71325187D01*
X86012577Y-71308804D01*
X85960671Y-71218901D01*
X85944197Y-71151001D01*
X85967049Y-71084974D01*
X86021969Y-71041783D01*
X86068057Y-71032900D01*
X89579319Y-71032900D01*
X89602639Y-71039747D01*
X89626808Y-71042354D01*
X89638789Y-71050362D01*
X89646358Y-71052585D01*
X89657156Y-71060373D01*
X89662310Y-71064529D01*
X89700992Y-71103211D01*
X89738803Y-71128477D01*
X89742533Y-71129218D01*
X89758474Y-71142073D01*
X89768630Y-71156710D01*
X89782501Y-71167891D01*
X89783852Y-71170363D01*
X89783976Y-71170281D01*
X89816024Y-71218245D01*
X89816025Y-71218246D01*
X89816026Y-71218247D01*
X90160610Y-71562829D01*
X90198421Y-71588095D01*
X90198422Y-71588095D01*
X90208576Y-71594880D01*
X90206629Y-71597792D01*
X90244950Y-71628667D01*
X90267021Y-71694959D01*
X90267100Y-71699396D01*
X90267100Y-72852168D01*
X90247415Y-72919207D01*
X90230781Y-72939849D01*
X85464850Y-77705780D01*
X85403527Y-77739265D01*
X85377169Y-77742099D01*
X84339182Y-77742099D01*
X84272143Y-77722414D01*
X84226388Y-77669610D01*
X84216444Y-77600452D01*
X84245469Y-77536896D01*
X84251501Y-77530418D01*
X84268619Y-77513300D01*
X84292430Y-77489489D01*
X84365221Y-77363411D01*
X84402900Y-77222791D01*
X84402900Y-77077209D01*
X84398570Y-77061049D01*
X84400232Y-76991199D01*
X84430661Y-76941275D01*
X84610090Y-76761846D01*
X84671411Y-76728363D01*
X84736086Y-76731597D01*
X84820590Y-76759055D01*
X84820591Y-76759055D01*
X84948215Y-76759055D01*
X84948216Y-76759055D01*
X85069596Y-76719616D01*
X85146875Y-76663469D01*
X85587623Y-76222721D01*
X85648946Y-76189236D01*
X85675304Y-76186402D01*
X86401640Y-76186402D01*
X86401641Y-76186402D01*
X86401642Y-76186402D01*
X86488853Y-76163034D01*
X86533996Y-76136970D01*
X86567043Y-76117891D01*
X88017995Y-74666939D01*
X88063139Y-74588748D01*
X88086507Y-74501537D01*
X88086507Y-73883233D01*
X88106192Y-73816194D01*
X88122826Y-73795552D01*
X88305917Y-73612461D01*
X88562829Y-73355549D01*
X88588095Y-73317738D01*
X88599961Y-73258079D01*
X88588095Y-73198421D01*
X88577449Y-73182488D01*
X88562832Y-73160611D01*
X88562831Y-73160610D01*
X88514968Y-73112747D01*
X88218247Y-72816028D01*
X88180436Y-72790762D01*
X88170281Y-72783976D01*
X88172028Y-72781361D01*
X88144565Y-72761466D01*
X88129498Y-72743937D01*
X88128477Y-72738803D01*
X88103213Y-72700992D01*
X88027544Y-72625323D01*
X88024488Y-72621768D01*
X88011950Y-72594021D01*
X87997358Y-72567298D01*
X87997701Y-72562489D01*
X87995717Y-72558097D01*
X88000169Y-72527979D01*
X88002342Y-72497606D01*
X88005732Y-72489424D01*
X88009509Y-72481153D01*
X88029969Y-72338840D01*
X88009509Y-72196526D01*
X88009508Y-72196521D01*
X87949782Y-72065742D01*
X87912202Y-72019107D01*
X87878381Y-71985286D01*
X87878380Y-71985286D01*
X86986013Y-72877656D01*
X86093643Y-73770023D01*
X86093643Y-73770024D01*
X86127464Y-73803845D01*
X86174099Y-73841425D01*
X86304878Y-73901151D01*
X86304883Y-73901152D01*
X86447197Y-73921612D01*
X86589508Y-73901152D01*
X86597779Y-73897375D01*
X86615190Y-73894870D01*
X86631163Y-73887499D01*
X86649056Y-73889999D01*
X86666937Y-73887427D01*
X86683056Y-73894749D01*
X86700360Y-73897167D01*
X86723312Y-73913035D01*
X86730127Y-73916131D01*
X86733676Y-73919182D01*
X86809349Y-73994854D01*
X86847160Y-74020120D01*
X86852294Y-74021141D01*
X86869823Y-74036208D01*
X86878474Y-74049552D01*
X86890858Y-74059534D01*
X86892209Y-74062006D01*
X86892333Y-74061924D01*
X86924381Y-74109888D01*
X86924382Y-74109889D01*
X86924383Y-74109890D01*
X87177098Y-74362604D01*
X87210583Y-74423926D01*
X87205599Y-74493618D01*
X87177098Y-74537966D01*
X86250783Y-75464283D01*
X86223855Y-75478986D01*
X86198037Y-75495579D01*
X86191836Y-75496470D01*
X86189460Y-75497768D01*
X86163102Y-75500602D01*
X85983808Y-75500602D01*
X85916769Y-75480917D01*
X85883491Y-75449489D01*
X85863469Y-75421931D01*
X85465073Y-75023535D01*
X85425578Y-74994840D01*
X85387796Y-74967389D01*
X85387797Y-74967389D01*
X85266415Y-74927949D01*
X85266414Y-74927949D01*
X85138788Y-74927949D01*
X85138786Y-74927949D01*
X85017407Y-74967388D01*
X84936890Y-75025888D01*
X84871083Y-75049368D01*
X84803029Y-75033543D01*
X84754334Y-74983437D01*
X84740459Y-74914959D01*
X84765808Y-74849850D01*
X84776333Y-74837878D01*
X84778329Y-74835881D01*
X84843534Y-74755837D01*
X84922219Y-74599162D01*
X84962653Y-74428561D01*
X84962653Y-74253240D01*
X84922219Y-74082639D01*
X84843531Y-73925958D01*
X84778332Y-73845922D01*
X84778316Y-73845904D01*
X84742982Y-73810570D01*
X84742981Y-73810570D01*
X83876777Y-74676777D01*
X83010571Y-75542982D01*
X83045908Y-75578319D01*
X83045915Y-75578325D01*
X83125964Y-75643534D01*
X83282639Y-75722219D01*
X83453241Y-75762653D01*
X83628561Y-75762653D01*
X83799162Y-75722219D01*
X83955843Y-75643531D01*
X84035879Y-75578332D01*
X84035881Y-75578330D01*
X84037876Y-75576336D01*
X84099196Y-75542844D01*
X84168888Y-75547820D01*
X84224826Y-75589685D01*
X84249251Y-75655146D01*
X84234407Y-75723421D01*
X84225886Y-75736893D01*
X84167388Y-75817407D01*
X84127949Y-75938786D01*
X84127949Y-76066415D01*
X84155405Y-76150913D01*
X84157400Y-76220754D01*
X84125155Y-76276913D01*
X83838625Y-76563444D01*
X83783038Y-76595538D01*
X83636587Y-76634779D01*
X83636586Y-76634780D01*
X83510514Y-76707567D01*
X83510509Y-76707571D01*
X83407571Y-76810509D01*
X83407567Y-76810514D01*
X83334780Y-76936586D01*
X83334780Y-76936587D01*
X83334779Y-76936589D01*
X83297100Y-77077209D01*
X83297100Y-77222791D01*
X83334779Y-77363411D01*
X83334780Y-77363412D01*
X83334780Y-77363413D01*
X83407567Y-77489485D01*
X83407571Y-77489490D01*
X83448499Y-77530418D01*
X83481984Y-77591741D01*
X83477000Y-77661433D01*
X83435128Y-77717366D01*
X83369664Y-77741783D01*
X83360818Y-77742099D01*
X78586633Y-77742099D01*
X78519594Y-77722414D01*
X78473839Y-77669610D01*
X78463895Y-77600452D01*
X78492920Y-77536896D01*
X78498952Y-77530418D01*
X81457932Y-74571438D01*
X82437347Y-74571438D01*
X82437347Y-74746759D01*
X82477780Y-74917360D01*
X82556468Y-75074041D01*
X82621667Y-75154077D01*
X82621683Y-75154095D01*
X82657017Y-75189429D01*
X82657018Y-75189429D01*
X83346446Y-74499999D01*
X82816116Y-73969669D01*
X82621677Y-74164109D01*
X82556465Y-74244162D01*
X82477780Y-74400837D01*
X82437347Y-74571438D01*
X81457932Y-74571438D01*
X82413255Y-73616115D01*
X83169669Y-73616115D01*
X83169669Y-73616116D01*
X83699999Y-74146446D01*
X84389428Y-73457017D01*
X84354091Y-73421680D01*
X84354084Y-73421674D01*
X84274035Y-73356465D01*
X84117360Y-73277780D01*
X83946759Y-73237347D01*
X83771439Y-73237347D01*
X83600837Y-73277780D01*
X83444156Y-73356468D01*
X83364115Y-73421671D01*
X83364096Y-73421688D01*
X83169669Y-73616115D01*
X82413255Y-73616115D01*
X84960151Y-71069219D01*
X84987078Y-71054515D01*
X85012897Y-71037923D01*
X85019097Y-71037031D01*
X85021474Y-71035734D01*
X85047832Y-71032900D01*
X85131943Y-71032900D01*
X85198982Y-71052585D01*
G37*
%TD.AperFunction*%
%TA.AperFunction,Conductor*%
G36*
X95438103Y-45878744D02*
G01*
X95467385Y-45916162D01*
X95710213Y-46392739D01*
X95711448Y-46395232D01*
X95751688Y-46478791D01*
X95752578Y-46480679D01*
X96111720Y-47259721D01*
X96112932Y-47262435D01*
X96145262Y-47337229D01*
X96146001Y-47338976D01*
X96479072Y-48143079D01*
X96480242Y-48146007D01*
X96497823Y-48191715D01*
X96503264Y-48205859D01*
X96503866Y-48207458D01*
X96811471Y-49041259D01*
X96812589Y-49044419D01*
X96825157Y-49081548D01*
X96825634Y-49082988D01*
X97108245Y-49952771D01*
X97109293Y-49956162D01*
X97110400Y-49959933D01*
X97110765Y-49961201D01*
X97365842Y-50865637D01*
X97367072Y-50870349D01*
X97587121Y-51786920D01*
X97588164Y-51791676D01*
X97772052Y-52716143D01*
X97772908Y-52720936D01*
X97920363Y-53651929D01*
X97921030Y-53656752D01*
X98031818Y-54592792D01*
X98032296Y-54597638D01*
X98106254Y-55537360D01*
X98106540Y-55542221D01*
X98143545Y-56484060D01*
X98143641Y-56488928D01*
X98143641Y-57431543D01*
X98143545Y-57436411D01*
X98106540Y-58378250D01*
X98106254Y-58383111D01*
X98032296Y-59322833D01*
X98031818Y-59327679D01*
X97921030Y-60263719D01*
X97920363Y-60268542D01*
X97772908Y-61199535D01*
X97772052Y-61204328D01*
X97588164Y-62128795D01*
X97587121Y-62133551D01*
X97367072Y-63050122D01*
X97365842Y-63054834D01*
X97110765Y-63959269D01*
X97110400Y-63960537D01*
X97109293Y-63964308D01*
X97108245Y-63967699D01*
X96825634Y-64837482D01*
X96825157Y-64838922D01*
X96812589Y-64876051D01*
X96811471Y-64879211D01*
X96503866Y-65713012D01*
X96503264Y-65714611D01*
X96480245Y-65774455D01*
X96479072Y-65777391D01*
X96146001Y-66581494D01*
X96145262Y-66583241D01*
X96112932Y-66658035D01*
X96111720Y-66660749D01*
X95752578Y-67439791D01*
X95751688Y-67441679D01*
X95711448Y-67525238D01*
X95710213Y-67527731D01*
X95324229Y-68285266D01*
X95323177Y-68287285D01*
X95276681Y-68374540D01*
X95275437Y-68376815D01*
X94861682Y-69115627D01*
X94860456Y-69117767D01*
X94809669Y-69204367D01*
X94808433Y-69206428D01*
X94365641Y-69929000D01*
X94364230Y-69931249D01*
X94311566Y-70013196D01*
X94310352Y-70015048D01*
X93836900Y-70723619D01*
X93835292Y-70725966D01*
X93783782Y-70799353D01*
X93782606Y-70801000D01*
X93276309Y-71497858D01*
X93274496Y-71500291D01*
X93228048Y-71561038D01*
X93226922Y-71562488D01*
X92684747Y-72250233D01*
X92682717Y-72252741D01*
X92646435Y-72296379D01*
X92645376Y-72297635D01*
X92063177Y-72979303D01*
X92060925Y-72981867D01*
X92041736Y-73003121D01*
X92040754Y-73004196D01*
X91414555Y-73681615D01*
X91411180Y-73685125D01*
X90744672Y-74351633D01*
X90741162Y-74355008D01*
X90048996Y-74994840D01*
X90045357Y-74998074D01*
X89328598Y-75610245D01*
X89324834Y-75613334D01*
X88584594Y-76196891D01*
X88580711Y-76199830D01*
X87818149Y-76753864D01*
X87814155Y-76756648D01*
X87030407Y-77280331D01*
X87026306Y-77282956D01*
X86680192Y-77495055D01*
X86612746Y-77513300D01*
X86546144Y-77492184D01*
X86501530Y-77438412D01*
X86493070Y-77369056D01*
X86523450Y-77306137D01*
X86527698Y-77301670D01*
X90697443Y-73131927D01*
X90732900Y-73046327D01*
X90732900Y-72953673D01*
X90732900Y-71236840D01*
X90752585Y-71169801D01*
X90769215Y-71149163D01*
X91454472Y-70463906D01*
X91479738Y-70426095D01*
X91491604Y-70366436D01*
X91479738Y-70306778D01*
X91479737Y-70306777D01*
X91479679Y-70306482D01*
X91485906Y-70236890D01*
X91513613Y-70194612D01*
X95697443Y-66010784D01*
X95700091Y-66004389D01*
X95704611Y-65993480D01*
X95704611Y-65993478D01*
X95705615Y-65991054D01*
X95732900Y-65925184D01*
X95732900Y-56453673D01*
X95697443Y-56368073D01*
X95631927Y-56302557D01*
X94367816Y-55038446D01*
X94353112Y-55011518D01*
X94336520Y-54985700D01*
X94335628Y-54979499D01*
X94334331Y-54977123D01*
X94331497Y-54950765D01*
X94331497Y-54909832D01*
X94351182Y-54842793D01*
X94367816Y-54822151D01*
X95197441Y-53992527D01*
X95197441Y-53992526D01*
X95197443Y-53992525D01*
X95232900Y-53906925D01*
X95232900Y-53814271D01*
X95232900Y-45972457D01*
X95252585Y-45905418D01*
X95305389Y-45859663D01*
X95374547Y-45849719D01*
X95438103Y-45878744D01*
G37*
%TD.AperFunction*%
%TA.AperFunction,Conductor*%
G36*
X61596626Y-36365043D02*
G01*
X61641240Y-36418815D01*
X61649700Y-36488171D01*
X61619320Y-36551090D01*
X61615049Y-36555580D01*
X59738333Y-38432297D01*
X57868073Y-40302557D01*
X57710985Y-40459644D01*
X57659334Y-40511295D01*
X57598011Y-40544779D01*
X57567752Y-40546042D01*
X57567752Y-40547100D01*
X57440375Y-40547100D01*
X57325185Y-40577964D01*
X57221913Y-40637590D01*
X57221910Y-40637592D01*
X57137592Y-40721910D01*
X57137590Y-40721913D01*
X57077964Y-40825185D01*
X57047100Y-40940375D01*
X57047100Y-41059624D01*
X57077964Y-41174814D01*
X57097840Y-41209239D01*
X57137590Y-41278087D01*
X57221913Y-41362410D01*
X57325187Y-41422036D01*
X57440375Y-41452900D01*
X57440377Y-41452900D01*
X57559623Y-41452900D01*
X57559625Y-41452900D01*
X57674813Y-41422036D01*
X57778087Y-41362410D01*
X57862410Y-41278087D01*
X57922036Y-41174813D01*
X57952900Y-41059625D01*
X57952900Y-40985528D01*
X59186041Y-40985528D01*
X59206501Y-41127841D01*
X59206502Y-41127846D01*
X59266228Y-41258625D01*
X59303808Y-41305260D01*
X59337629Y-41339081D01*
X59337630Y-41339081D01*
X60068353Y-40608356D01*
X59714800Y-40254803D01*
X59714799Y-40254803D01*
X59303812Y-40665790D01*
X59266228Y-40712430D01*
X59206502Y-40843209D01*
X59206501Y-40843214D01*
X59186041Y-40985528D01*
X57952900Y-40985528D01*
X57952900Y-40940375D01*
X57952490Y-40938847D01*
X57952393Y-40929664D01*
X57959931Y-40902940D01*
X57964210Y-40875499D01*
X57969993Y-40867274D01*
X57971363Y-40862419D01*
X57976779Y-40857624D01*
X57988705Y-40840664D01*
X58068859Y-40760511D01*
X58197443Y-40631927D01*
X60628901Y-38200468D01*
X60690220Y-38166986D01*
X60759912Y-38171970D01*
X60815845Y-38213842D01*
X60835365Y-38252577D01*
X60836791Y-38257338D01*
X61037693Y-38742360D01*
X61909011Y-38381448D01*
X61905602Y-38394174D01*
X61905602Y-38519244D01*
X61937972Y-38640052D01*
X62000507Y-38748366D01*
X62088945Y-38836804D01*
X62100350Y-38843388D01*
X61229036Y-39204299D01*
X61229035Y-39204300D01*
X61313419Y-39408019D01*
X61320888Y-39477489D01*
X61289613Y-39539968D01*
X61229524Y-39575620D01*
X61159699Y-39573126D01*
X61111177Y-39543153D01*
X61088546Y-39520522D01*
X61041911Y-39482942D01*
X60911132Y-39423216D01*
X60911127Y-39423215D01*
X60768814Y-39402755D01*
X60626500Y-39423215D01*
X60626495Y-39423216D01*
X60495716Y-39482942D01*
X60449076Y-39520526D01*
X60038089Y-39931513D01*
X60038089Y-39931514D01*
X60465606Y-40359031D01*
X60499091Y-40420354D01*
X60494107Y-40490045D01*
X60465607Y-40534393D01*
X60391643Y-40608357D01*
X60465606Y-40682320D01*
X60499091Y-40743643D01*
X60494107Y-40813335D01*
X60465606Y-40857682D01*
X59660918Y-41662369D01*
X59660918Y-41662370D01*
X59694739Y-41696191D01*
X59741374Y-41733771D01*
X59872153Y-41793497D01*
X59872158Y-41793498D01*
X60014472Y-41813958D01*
X60156783Y-41793498D01*
X60165054Y-41789721D01*
X60182463Y-41787216D01*
X60198437Y-41779845D01*
X60216331Y-41782345D01*
X60234212Y-41779773D01*
X60250332Y-41787095D01*
X60267635Y-41789513D01*
X60290583Y-41805378D01*
X60297402Y-41808476D01*
X60300944Y-41811521D01*
X60376621Y-41887197D01*
X60414432Y-41912463D01*
X60419568Y-41913484D01*
X60437098Y-41928552D01*
X60445738Y-41941880D01*
X60458107Y-41951842D01*
X60459480Y-41954355D01*
X60459608Y-41954270D01*
X60491656Y-42002234D01*
X60491657Y-42002235D01*
X60491658Y-42002236D01*
X60836242Y-42346818D01*
X60874053Y-42372084D01*
X60874054Y-42372084D01*
X60884208Y-42378869D01*
X60881779Y-42382503D01*
X60917751Y-42411498D01*
X60919102Y-42413970D01*
X60919226Y-42413888D01*
X60951274Y-42461852D01*
X60951275Y-42461853D01*
X60951276Y-42461854D01*
X61295860Y-42806436D01*
X61333671Y-42831702D01*
X61393329Y-42843568D01*
X61393330Y-42843567D01*
X61393331Y-42843568D01*
X61405541Y-42843568D01*
X61405541Y-42845791D01*
X61459001Y-42850575D01*
X61514178Y-42893439D01*
X61537422Y-42959329D01*
X61537600Y-42965965D01*
X61537600Y-43581667D01*
X61517915Y-43648706D01*
X61501281Y-43669348D01*
X61159334Y-44011294D01*
X61098011Y-44044779D01*
X61067752Y-44046042D01*
X61067752Y-44047100D01*
X60940375Y-44047100D01*
X60825185Y-44077964D01*
X60721913Y-44137590D01*
X60721910Y-44137592D01*
X60637592Y-44221910D01*
X60637590Y-44221913D01*
X60577964Y-44325185D01*
X60558870Y-44396447D01*
X60547100Y-44440375D01*
X60547100Y-44559625D01*
X60550619Y-44572757D01*
X60577964Y-44674814D01*
X60600613Y-44714042D01*
X60637590Y-44778087D01*
X60721913Y-44862410D01*
X60825187Y-44922036D01*
X60940375Y-44952900D01*
X60940377Y-44952900D01*
X61059623Y-44952900D01*
X61059625Y-44952900D01*
X61174813Y-44922036D01*
X61278087Y-44862410D01*
X61362410Y-44778087D01*
X61422036Y-44674813D01*
X61452900Y-44559625D01*
X61452900Y-44440375D01*
X61452900Y-44432248D01*
X61455363Y-44432248D01*
X61464210Y-44375499D01*
X61488705Y-44340664D01*
X61558843Y-44270526D01*
X61967944Y-43861427D01*
X62003400Y-43775826D01*
X62003400Y-43683173D01*
X62003400Y-42345197D01*
X62023085Y-42278158D01*
X62039715Y-42257520D01*
X62589722Y-41707513D01*
X62614988Y-41669702D01*
X62626854Y-41610043D01*
X62614988Y-41550385D01*
X62589724Y-41512574D01*
X62521730Y-41444580D01*
X62488246Y-41383259D01*
X62493230Y-41313567D01*
X62535101Y-41257633D01*
X62600565Y-41233216D01*
X62609412Y-41232900D01*
X65246326Y-41232900D01*
X65246327Y-41232900D01*
X65331927Y-41197443D01*
X68277928Y-38251443D01*
X70693300Y-38251443D01*
X70699701Y-38310971D01*
X70699703Y-38310978D01*
X70749945Y-38445685D01*
X70749949Y-38445692D01*
X70836109Y-38560786D01*
X70836112Y-38560789D01*
X70951206Y-38646949D01*
X70951213Y-38646953D01*
X71085920Y-38697195D01*
X71085927Y-38697197D01*
X71145455Y-38703598D01*
X71145472Y-38703599D01*
X71726700Y-38703599D01*
X72183900Y-38703599D01*
X72765128Y-38703599D01*
X72765144Y-38703598D01*
X72824672Y-38697197D01*
X72824679Y-38697195D01*
X72959386Y-38646953D01*
X72959393Y-38646949D01*
X73074487Y-38560789D01*
X73074490Y-38560786D01*
X73160650Y-38445692D01*
X73160654Y-38445685D01*
X73210896Y-38310978D01*
X73210898Y-38310971D01*
X73217299Y-38251443D01*
X73217300Y-38251426D01*
X73217300Y-38203599D01*
X72183900Y-38203599D01*
X72183900Y-38703599D01*
X71726700Y-38703599D01*
X71726700Y-38203599D01*
X70693300Y-38203599D01*
X70693300Y-38251443D01*
X68277928Y-38251443D01*
X69507142Y-37022229D01*
X69542598Y-36936629D01*
X69542598Y-36843975D01*
X69542598Y-36789568D01*
X69562283Y-36722529D01*
X69615087Y-36676774D01*
X69642410Y-36667950D01*
X69650065Y-36666428D01*
X69832581Y-36590828D01*
X69839078Y-36586487D01*
X69905755Y-36565608D01*
X69973136Y-36584092D01*
X69995651Y-36601907D01*
X70266187Y-36872443D01*
X70351787Y-36907899D01*
X70923806Y-36907899D01*
X70990845Y-36927584D01*
X71036600Y-36980388D01*
X71047659Y-37037942D01*
X71047212Y-37047097D01*
X71040400Y-37081344D01*
X71040400Y-37186710D01*
X71040253Y-37189728D01*
X71029738Y-37219995D01*
X71020715Y-37250724D01*
X71018351Y-37252772D01*
X71017324Y-37255729D01*
X70992109Y-37275510D01*
X70967911Y-37296479D01*
X70962552Y-37298699D01*
X70962353Y-37298856D01*
X70962122Y-37298877D01*
X70959740Y-37299865D01*
X70951206Y-37303048D01*
X70836112Y-37389208D01*
X70836109Y-37389211D01*
X70749949Y-37504305D01*
X70749945Y-37504312D01*
X70699703Y-37639019D01*
X70699701Y-37639026D01*
X70693300Y-37698554D01*
X70693300Y-37746399D01*
X73217299Y-37746399D01*
X73220932Y-37742766D01*
X73282254Y-37709280D01*
X73351946Y-37714264D01*
X73396294Y-37742764D01*
X75850973Y-40197444D01*
X75911501Y-40222515D01*
X75936573Y-40232900D01*
X75936574Y-40232900D01*
X76029227Y-40232900D01*
X80511735Y-40232900D01*
X86287966Y-40232900D01*
X86355005Y-40252585D01*
X86400760Y-40305389D01*
X86410704Y-40374547D01*
X86381679Y-40438103D01*
X86372973Y-40447176D01*
X86365449Y-40454260D01*
X86349728Y-40464765D01*
X86276066Y-40538427D01*
X86274688Y-40539725D01*
X86245129Y-40554730D01*
X86216039Y-40570615D01*
X86214110Y-40570477D01*
X86212387Y-40571352D01*
X86179424Y-40567996D01*
X86146347Y-40565631D01*
X86143140Y-40564302D01*
X86142876Y-40564276D01*
X86142659Y-40564103D01*
X86138170Y-40562244D01*
X86129895Y-40558465D01*
X86129893Y-40558464D01*
X85987580Y-40538004D01*
X85845266Y-40558464D01*
X85845261Y-40558465D01*
X85714482Y-40618191D01*
X85667848Y-40655771D01*
X85667842Y-40655776D01*
X85634026Y-40689591D01*
X86526396Y-41581961D01*
X87418763Y-42474330D01*
X87443100Y-42474330D01*
X87510139Y-42494015D01*
X87555894Y-42546819D01*
X87567100Y-42598330D01*
X87567100Y-47195611D01*
X87567100Y-47288265D01*
X87602557Y-47373865D01*
X87602558Y-47373866D01*
X93030781Y-52802089D01*
X93064266Y-52863412D01*
X93067100Y-52889770D01*
X93067100Y-53879105D01*
X93047415Y-53946144D01*
X92994611Y-53991899D01*
X92937058Y-54002958D01*
X92927894Y-54002510D01*
X92893655Y-53995700D01*
X92788289Y-53995700D01*
X92785272Y-53995553D01*
X92755001Y-53985037D01*
X92724275Y-53976015D01*
X92722227Y-53973652D01*
X92719271Y-53972625D01*
X92699490Y-53947412D01*
X92678520Y-53923211D01*
X92676300Y-53917853D01*
X92676144Y-53917654D01*
X92676122Y-53917423D01*
X92675132Y-53915033D01*
X92671954Y-53906513D01*
X92671950Y-53906506D01*
X92585790Y-53791412D01*
X92585787Y-53791409D01*
X92470693Y-53705249D01*
X92470686Y-53705245D01*
X92335979Y-53655003D01*
X92335972Y-53655001D01*
X92276444Y-53648600D01*
X92228600Y-53648600D01*
X92228600Y-56175067D01*
X92259117Y-56230955D01*
X92254133Y-56300647D01*
X92225632Y-56344994D01*
X90168073Y-58402557D01*
X90168072Y-58402558D01*
X90119564Y-58451065D01*
X90058241Y-58484549D01*
X89988549Y-58479564D01*
X89932616Y-58437692D01*
X89908200Y-58372228D01*
X89908219Y-58354273D01*
X89950513Y-57780935D01*
X89951761Y-57776085D01*
X89952131Y-57761033D01*
X89952131Y-57761029D01*
X89952191Y-57758568D01*
X89952192Y-57758568D01*
X89952206Y-57757997D01*
X89952250Y-57757401D01*
X89952221Y-57757367D01*
X89971235Y-56983162D01*
X89972258Y-56978172D01*
X89971880Y-56963420D01*
X89971877Y-56963301D01*
X89971799Y-56960172D01*
X89971813Y-56959658D01*
X89971786Y-56959630D01*
X89971249Y-56937863D01*
X89971250Y-56937858D01*
X89971248Y-56937847D01*
X89952759Y-56184918D01*
X89953518Y-56179871D01*
X89952453Y-56165740D01*
X89952440Y-56165569D01*
X89952206Y-56162408D01*
X89952195Y-56161920D01*
X89952168Y-56161894D01*
X89950595Y-56140624D01*
X89950562Y-56140181D01*
X89950564Y-56140174D01*
X89950560Y-56140161D01*
X89919597Y-55720444D01*
X91271400Y-55720444D01*
X91277801Y-55779972D01*
X91277803Y-55779979D01*
X91328045Y-55914686D01*
X91328049Y-55914693D01*
X91414209Y-56029787D01*
X91414212Y-56029790D01*
X91529306Y-56115950D01*
X91529313Y-56115954D01*
X91664020Y-56166196D01*
X91664027Y-56166198D01*
X91723555Y-56172599D01*
X91723572Y-56172600D01*
X91771400Y-56172600D01*
X91771400Y-55139200D01*
X91271400Y-55139200D01*
X91271400Y-55720444D01*
X89919597Y-55720444D01*
X89895149Y-55389052D01*
X89895650Y-55384069D01*
X89893877Y-55369730D01*
X89893873Y-55369697D01*
X89893496Y-55366643D01*
X89893456Y-55366096D01*
X89893425Y-55366069D01*
X89891909Y-55353788D01*
X89796169Y-54577545D01*
X89795893Y-54575305D01*
X89795918Y-54575272D01*
X89795819Y-54574703D01*
X89795747Y-54574117D01*
X89795746Y-54574116D01*
X89795444Y-54571659D01*
X89795444Y-54571653D01*
X89795438Y-54571607D01*
X89793693Y-54557400D01*
X89791996Y-54552679D01*
X89713581Y-54100755D01*
X91271400Y-54100755D01*
X91271400Y-54682000D01*
X91771400Y-54682000D01*
X91771400Y-53648600D01*
X91723555Y-53648600D01*
X91664027Y-53655001D01*
X91664020Y-53655003D01*
X91529313Y-53705245D01*
X91529306Y-53705249D01*
X91414212Y-53791409D01*
X91414209Y-53791412D01*
X91328049Y-53906506D01*
X91328045Y-53906513D01*
X91277803Y-54041220D01*
X91277801Y-54041227D01*
X91271400Y-54100755D01*
X89713581Y-54100755D01*
X89661473Y-53800446D01*
X89659501Y-53789068D01*
X89659522Y-53789036D01*
X89659406Y-53788524D01*
X89658875Y-53785458D01*
X89658875Y-53785449D01*
X89658856Y-53785349D01*
X89656504Y-53771715D01*
X89654587Y-53767060D01*
X89649499Y-53744401D01*
X89484723Y-53010609D01*
X89484693Y-53010474D01*
X89484715Y-53010438D01*
X89484558Y-53009871D01*
X89484431Y-53009305D01*
X89484430Y-53009304D01*
X89483892Y-53006906D01*
X89483892Y-53006902D01*
X89483889Y-53006889D01*
X89480801Y-52993127D01*
X89478679Y-52988628D01*
X89275505Y-52254474D01*
X89271884Y-52241387D01*
X89271904Y-52241352D01*
X89271726Y-52240816D01*
X89270908Y-52237857D01*
X89270908Y-52237849D01*
X89270892Y-52237796D01*
X89267206Y-52224448D01*
X89264862Y-52220036D01*
X89026402Y-51498162D01*
X89021616Y-51483667D01*
X89021632Y-51483632D01*
X89021442Y-51483143D01*
X89020471Y-51480200D01*
X89020470Y-51480190D01*
X89020437Y-51480096D01*
X89016115Y-51466971D01*
X89013537Y-51462648D01*
X89013519Y-51462601D01*
X88742420Y-50759821D01*
X88734443Y-50739135D01*
X88734458Y-50739101D01*
X88734250Y-50738634D01*
X88733124Y-50735713D01*
X88733123Y-50735701D01*
X88733069Y-50735571D01*
X88728229Y-50722974D01*
X88725446Y-50718771D01*
X88411093Y-50009610D01*
X88411107Y-50009571D01*
X88410848Y-50009056D01*
X88410608Y-50008515D01*
X88410606Y-50008514D01*
X88409612Y-50006270D01*
X88409611Y-50006269D01*
X88403865Y-49993314D01*
X88400923Y-49989341D01*
X88059707Y-49311468D01*
X88052331Y-49296811D01*
X88052343Y-49296775D01*
X88052083Y-49296317D01*
X88050688Y-49293545D01*
X88050686Y-49293534D01*
X88050628Y-49293426D01*
X88044382Y-49280981D01*
X88041182Y-49277075D01*
X87663080Y-48609619D01*
X87659048Y-48602501D01*
X87659058Y-48602460D01*
X87658741Y-48601959D01*
X87658457Y-48601458D01*
X87658456Y-48601457D01*
X87657244Y-48599317D01*
X87650416Y-48587274D01*
X87647125Y-48583615D01*
X87243969Y-47946958D01*
X87243966Y-47946953D01*
X87232157Y-47928302D01*
X87232165Y-47928263D01*
X87231840Y-47927803D01*
X87230199Y-47925210D01*
X87230198Y-47925208D01*
X87230173Y-47925170D01*
X87222809Y-47913530D01*
X87219302Y-47910001D01*
X86780810Y-47287407D01*
X86780798Y-47287389D01*
X86772626Y-47275781D01*
X86772627Y-47275641D01*
X86772289Y-47275303D01*
X86768976Y-47270597D01*
X86761982Y-47264993D01*
X86753334Y-47256343D01*
X86752091Y-47256343D01*
X86733824Y-47274588D01*
X86733783Y-47274650D01*
X85729372Y-48279063D01*
X85668049Y-48312548D01*
X85598358Y-48307564D01*
X85554011Y-48279064D01*
X83980616Y-46705656D01*
X83892614Y-46617654D01*
X82408093Y-45133141D01*
X82374608Y-45071818D01*
X82379592Y-45002127D01*
X82408091Y-44957780D01*
X83429939Y-43935930D01*
X83429940Y-43935930D01*
X83430818Y-43935051D01*
X83430818Y-43933808D01*
X83399170Y-43902170D01*
X83399146Y-43902027D01*
X83398743Y-43901743D01*
X83398396Y-43901396D01*
X83398250Y-43901396D01*
X83373774Y-43884158D01*
X82764499Y-43455067D01*
X82746740Y-43442560D01*
X82746731Y-43442519D01*
X82746240Y-43442208D01*
X82745760Y-43441870D01*
X82743759Y-43440461D01*
X82743758Y-43440460D01*
X82732341Y-43432421D01*
X82727778Y-43430517D01*
X82072579Y-43015610D01*
X82072568Y-43015571D01*
X82072075Y-43015291D01*
X82071567Y-43014970D01*
X82071563Y-43014970D01*
X82069522Y-43013678D01*
X82069521Y-43013677D01*
X82057721Y-43006221D01*
X82053139Y-43004564D01*
X81397367Y-42633072D01*
X81397367Y-42633071D01*
X81378281Y-42622258D01*
X81378269Y-42622220D01*
X81377768Y-42621968D01*
X81375083Y-42620447D01*
X81375081Y-42620445D01*
X81375030Y-42620418D01*
X81362942Y-42613562D01*
X81358174Y-42612105D01*
X80977414Y-42420448D01*
X86011197Y-42420448D01*
X86422189Y-42831440D01*
X86468824Y-42869020D01*
X86599603Y-42928746D01*
X86599608Y-42928747D01*
X86741922Y-42949207D01*
X86884235Y-42928747D01*
X86884240Y-42928746D01*
X87015019Y-42869020D01*
X87061660Y-42831435D01*
X87061661Y-42831433D01*
X87095475Y-42797619D01*
X87095475Y-42797618D01*
X86364750Y-42066895D01*
X86011197Y-42420448D01*
X80977414Y-42420448D01*
X80684832Y-42273176D01*
X80677377Y-42269424D01*
X80665530Y-42263461D01*
X80665515Y-42263422D01*
X80664981Y-42263185D01*
X80664460Y-42262923D01*
X80664459Y-42262923D01*
X80662265Y-42261819D01*
X80662264Y-42261818D01*
X80649812Y-42255556D01*
X80645044Y-42254347D01*
X80177512Y-42047100D01*
X79955640Y-41948748D01*
X79941701Y-41942570D01*
X79936021Y-41940052D01*
X79936004Y-41940014D01*
X79935460Y-41939804D01*
X79934925Y-41939567D01*
X79932680Y-41938572D01*
X79932679Y-41938571D01*
X79919875Y-41932899D01*
X79915038Y-41931926D01*
X79333262Y-41707512D01*
X79198252Y-41655433D01*
X79191513Y-41652833D01*
X79191495Y-41652796D01*
X79190947Y-41652615D01*
X79188119Y-41651524D01*
X79188098Y-41651517D01*
X79175584Y-41646690D01*
X79170728Y-41645935D01*
X78654217Y-41475309D01*
X78454543Y-41409348D01*
X78450163Y-41406995D01*
X78436156Y-41403118D01*
X78430343Y-41401355D01*
X78417170Y-41397003D01*
X78412254Y-41396503D01*
X78303604Y-41366435D01*
X85159149Y-41366435D01*
X85179609Y-41508748D01*
X85179610Y-41508753D01*
X85239336Y-41639532D01*
X85276916Y-41686167D01*
X85687908Y-42097159D01*
X86041461Y-41743606D01*
X86041461Y-41743605D01*
X85310737Y-41012881D01*
X85276921Y-41046697D01*
X85276916Y-41046703D01*
X85239336Y-41093337D01*
X85179610Y-41224116D01*
X85179609Y-41224121D01*
X85159149Y-41366435D01*
X78303604Y-41366435D01*
X77685672Y-41195427D01*
X77685672Y-41195426D01*
X77676713Y-41192948D01*
X77664753Y-41189638D01*
X77664731Y-41189603D01*
X77664164Y-41189475D01*
X77663598Y-41189319D01*
X77663596Y-41189319D01*
X77661396Y-41188711D01*
X77661372Y-41188705D01*
X77647681Y-41184932D01*
X77642816Y-41184681D01*
X76907161Y-41019491D01*
X76886156Y-41014774D01*
X76886133Y-41014741D01*
X76885579Y-41014645D01*
X76882591Y-41013974D01*
X76882589Y-41013973D01*
X76882568Y-41013969D01*
X76868938Y-41010905D01*
X76863969Y-41010895D01*
X76121533Y-40882062D01*
X76121533Y-40882063D01*
X76099940Y-40878316D01*
X76099914Y-40878282D01*
X76099327Y-40878209D01*
X76098759Y-40878111D01*
X76098757Y-40878111D01*
X76096470Y-40877715D01*
X76096463Y-40877714D01*
X76082555Y-40875315D01*
X76077687Y-40875540D01*
X75329253Y-40783222D01*
X75307958Y-40780596D01*
X75307931Y-40780565D01*
X75307357Y-40780522D01*
X75306768Y-40780450D01*
X75306766Y-40780451D01*
X75304346Y-40780153D01*
X75304344Y-40780152D01*
X75290778Y-40778494D01*
X75285946Y-40778942D01*
X74533964Y-40723477D01*
X74533961Y-40723477D01*
X74512140Y-40721867D01*
X74512113Y-40721838D01*
X74511562Y-40721824D01*
X74508520Y-40721600D01*
X74508518Y-40721599D01*
X74494960Y-40720601D01*
X74490082Y-40721296D01*
X73736210Y-40702794D01*
X73736210Y-40702793D01*
X73723603Y-40702485D01*
X73714392Y-40702259D01*
X73714362Y-40702230D01*
X73713778Y-40702244D01*
X73713194Y-40702230D01*
X73713193Y-40702230D01*
X73710745Y-40702171D01*
X73710743Y-40702170D01*
X73696684Y-40701833D01*
X73691868Y-40702781D01*
X72937964Y-40721284D01*
X72937965Y-40721285D01*
X72931871Y-40721434D01*
X72916663Y-40721808D01*
X72916630Y-40721780D01*
X72916034Y-40721823D01*
X72912977Y-40721899D01*
X72912974Y-40721898D01*
X72898973Y-40722243D01*
X72894170Y-40723436D01*
X72142077Y-40778920D01*
X72142076Y-40778919D01*
X72131320Y-40779714D01*
X72120836Y-40780488D01*
X72120802Y-40780462D01*
X72120211Y-40780534D01*
X72119640Y-40780577D01*
X72119638Y-40780578D01*
X72117375Y-40780746D01*
X72117364Y-40780748D01*
X72103493Y-40781792D01*
X72098883Y-40783164D01*
X71350334Y-40875478D01*
X71350333Y-40875477D01*
X71337854Y-40877017D01*
X71328852Y-40878128D01*
X71328818Y-40878104D01*
X71328248Y-40878202D01*
X71327663Y-40878275D01*
X71327661Y-40878276D01*
X71325429Y-40878552D01*
X71325419Y-40878554D01*
X71311176Y-40880331D01*
X71306607Y-40881957D01*
X70563986Y-41010811D01*
X70563987Y-41010812D01*
X70552065Y-41012881D01*
X70542602Y-41014523D01*
X70542566Y-41014500D01*
X70541991Y-41014629D01*
X70541421Y-41014728D01*
X70541420Y-41014728D01*
X70539008Y-41015147D01*
X70539007Y-41015146D01*
X70525540Y-41017485D01*
X70520986Y-41019345D01*
X69785141Y-41184589D01*
X69785142Y-41184590D01*
X69779323Y-41185897D01*
X69764020Y-41189334D01*
X69763983Y-41189313D01*
X69763420Y-41189468D01*
X69762849Y-41189597D01*
X69762847Y-41189599D01*
X69760468Y-41190134D01*
X69760466Y-41190133D01*
X69746526Y-41193284D01*
X69742127Y-41195361D01*
X69016005Y-41396311D01*
X69016006Y-41396312D01*
X69013510Y-41397003D01*
X68994930Y-41402145D01*
X68994893Y-41402126D01*
X68994340Y-41402308D01*
X68993775Y-41402465D01*
X68993773Y-41402466D01*
X68991418Y-41403119D01*
X68991417Y-41403118D01*
X68978171Y-41406800D01*
X68973877Y-41409067D01*
X68257838Y-41645598D01*
X68257839Y-41645599D01*
X68249689Y-41648291D01*
X68237211Y-41652414D01*
X68237173Y-41652397D01*
X68236632Y-41652605D01*
X68236074Y-41652790D01*
X68236073Y-41652791D01*
X68233877Y-41653517D01*
X68233877Y-41653518D01*
X68220619Y-41657913D01*
X68216443Y-41660392D01*
X67512783Y-41931828D01*
X67512782Y-41931827D01*
X67492685Y-41939580D01*
X67492648Y-41939566D01*
X67492148Y-41939787D01*
X67489342Y-41940870D01*
X67489306Y-41940886D01*
X67476654Y-41945770D01*
X67472563Y-41948467D01*
X66782986Y-42254143D01*
X66782985Y-42254142D01*
X66776298Y-42257108D01*
X66763140Y-42262941D01*
X66763101Y-42262928D01*
X66762586Y-42263186D01*
X66762045Y-42263427D01*
X66762043Y-42263431D01*
X66759822Y-42264417D01*
X66759821Y-42264417D01*
X66746937Y-42270156D01*
X66743063Y-42273013D01*
X66069585Y-42612009D01*
X66069586Y-42612010D01*
X66050357Y-42621689D01*
X66050317Y-42621678D01*
X66049817Y-42621961D01*
X66049287Y-42622228D01*
X66049286Y-42622228D01*
X66047101Y-42623329D01*
X66047099Y-42623329D01*
X66034594Y-42629629D01*
X66030776Y-42632747D01*
X65374555Y-43004495D01*
X65356033Y-43014989D01*
X65355991Y-43014980D01*
X65355491Y-43015296D01*
X65354989Y-43015581D01*
X65354988Y-43015582D01*
X65352945Y-43016740D01*
X65340929Y-43023562D01*
X65337314Y-43026805D01*
X64699908Y-43430437D01*
X64681829Y-43441887D01*
X64681787Y-43441880D01*
X64681306Y-43442218D01*
X64680816Y-43442529D01*
X64680815Y-43442532D01*
X64678746Y-43443843D01*
X64678744Y-43443843D01*
X64667076Y-43451249D01*
X64663627Y-43454668D01*
X64040808Y-43893315D01*
X64039043Y-43894559D01*
X64029322Y-43901406D01*
X64029176Y-43901406D01*
X64028828Y-43901753D01*
X64028426Y-43902037D01*
X64028424Y-43902047D01*
X64028382Y-43902077D01*
X64027187Y-43904981D01*
X64026471Y-43913300D01*
X64025134Y-43921004D01*
X64023089Y-43928055D01*
X64023089Y-43933812D01*
X64023089Y-43935056D01*
X64028297Y-43940265D01*
X64028298Y-43940269D01*
X64029177Y-43941148D01*
X64029181Y-43941148D01*
X64914150Y-44826127D01*
X65045796Y-44957774D01*
X65079280Y-45019098D01*
X65074296Y-45088789D01*
X65045795Y-45133137D01*
X63454946Y-46723975D01*
X61882195Y-48296737D01*
X61820872Y-48330222D01*
X61751180Y-48325238D01*
X61706832Y-48296738D01*
X61617551Y-48207458D01*
X60685717Y-47275630D01*
X60684852Y-47274763D01*
X60684850Y-47274762D01*
X60684107Y-47274020D01*
X60682863Y-47274020D01*
X60669802Y-47274020D01*
X60655854Y-47274483D01*
X60655575Y-47274878D01*
X60655567Y-47274880D01*
X60655281Y-47275285D01*
X60654936Y-47275630D01*
X60654936Y-47275775D01*
X60649521Y-47283463D01*
X60646875Y-47287216D01*
X60646873Y-47287222D01*
X60208193Y-47910103D01*
X60204775Y-47913551D01*
X60197306Y-47925319D01*
X60194071Y-47930161D01*
X60185843Y-47941870D01*
X60183971Y-47946372D01*
X59780240Y-48583934D01*
X59778625Y-48586484D01*
X59769159Y-48601434D01*
X59769120Y-48601446D01*
X59768840Y-48601938D01*
X59768519Y-48602447D01*
X59768519Y-48602450D01*
X59767346Y-48604305D01*
X59759652Y-48616504D01*
X59758022Y-48621033D01*
X59386315Y-49277173D01*
X59375805Y-49295728D01*
X59375764Y-49295742D01*
X59375496Y-49296272D01*
X59375214Y-49296772D01*
X59375215Y-49296776D01*
X59374116Y-49298717D01*
X59366924Y-49311468D01*
X59365526Y-49316079D01*
X59026540Y-49989534D01*
X59025143Y-49992309D01*
X59016994Y-50008500D01*
X59016954Y-50008516D01*
X59016713Y-50009057D01*
X59016455Y-50009572D01*
X59016456Y-50009575D01*
X59015461Y-50011554D01*
X59008837Y-50024776D01*
X59007670Y-50029458D01*
X58702020Y-50719004D01*
X58702021Y-50719005D01*
X58693589Y-50738028D01*
X58693551Y-50738046D01*
X58693341Y-50738589D01*
X58693104Y-50739125D01*
X58693104Y-50739126D01*
X58692157Y-50741264D01*
X58692156Y-50741269D01*
X58686311Y-50754486D01*
X58685358Y-50759281D01*
X58414046Y-51462600D01*
X58414047Y-51462601D01*
X58412362Y-51466971D01*
X58406369Y-51482507D01*
X58406332Y-51482526D01*
X58406151Y-51483073D01*
X58405938Y-51483626D01*
X58405938Y-51483627D01*
X58405055Y-51485919D01*
X58399976Y-51499103D01*
X58399248Y-51503966D01*
X58162698Y-52220034D01*
X58156033Y-52240210D01*
X58155997Y-52240231D01*
X58155842Y-52240790D01*
X58155658Y-52241348D01*
X58154908Y-52243620D01*
X58150428Y-52257205D01*
X58149943Y-52262103D01*
X57948797Y-52988954D01*
X57948798Y-52988955D01*
X57943171Y-53009290D01*
X57943136Y-53009313D01*
X57943008Y-53009879D01*
X57942852Y-53010446D01*
X57942854Y-53010449D01*
X57942204Y-53012801D01*
X57938366Y-53026745D01*
X57938131Y-53031595D01*
X57772975Y-53767060D01*
X57768302Y-53787870D01*
X57768268Y-53787895D01*
X57768169Y-53788465D01*
X57768041Y-53789036D01*
X57767505Y-53791425D01*
X57764347Y-53805495D01*
X57764353Y-53810455D01*
X57635501Y-54553074D01*
X57634751Y-54557400D01*
X57631855Y-54574092D01*
X57631821Y-54574119D01*
X57631748Y-54574705D01*
X57631650Y-54575274D01*
X57631651Y-54575276D01*
X57631258Y-54577545D01*
X57628783Y-54591918D01*
X57629025Y-54596783D01*
X57536693Y-55345333D01*
X57536694Y-55345334D01*
X57534136Y-55366074D01*
X57534105Y-55366102D01*
X57534062Y-55366675D01*
X57533990Y-55367265D01*
X57533992Y-55367267D01*
X57533696Y-55369671D01*
X57533695Y-55369673D01*
X57531983Y-55383699D01*
X57532449Y-55388532D01*
X57476973Y-56140624D01*
X57476973Y-56140627D01*
X57475403Y-56161890D01*
X57475375Y-56161918D01*
X57475361Y-56162460D01*
X57475138Y-56165491D01*
X57474105Y-56179517D01*
X57474821Y-56184416D01*
X57456309Y-56938330D01*
X57455846Y-56957196D01*
X57455787Y-56959623D01*
X57455758Y-56959654D01*
X57455772Y-56960237D01*
X57455700Y-56963177D01*
X57455701Y-56963190D01*
X57455350Y-56977837D01*
X57456322Y-56982669D01*
X57474834Y-57736545D01*
X57475346Y-57757376D01*
X57475318Y-57757410D01*
X57475361Y-57757997D01*
X57475436Y-57761034D01*
X57475435Y-57761037D01*
X57475793Y-57775597D01*
X57477015Y-57780425D01*
X57532478Y-58532394D01*
X57533092Y-58540721D01*
X57534013Y-58553195D01*
X57533987Y-58553230D01*
X57534059Y-58553819D01*
X57534102Y-58554393D01*
X57534273Y-58556700D01*
X57534274Y-58556705D01*
X57535349Y-58571043D01*
X57536758Y-58575703D01*
X57599161Y-59081588D01*
X57631675Y-59345176D01*
X57631651Y-59345211D01*
X57631749Y-59345779D01*
X57631822Y-59346366D01*
X57631823Y-59346367D01*
X57632108Y-59348671D01*
X57632110Y-59348684D01*
X57633936Y-59363364D01*
X57635601Y-59367978D01*
X57764425Y-60110438D01*
X57768066Y-60131421D01*
X57768044Y-60131458D01*
X57768170Y-60132020D01*
X57768692Y-60135026D01*
X57768691Y-60135028D01*
X57768695Y-60135045D01*
X57771120Y-60149033D01*
X57773022Y-60153629D01*
X57928089Y-60844161D01*
X57942878Y-60910015D01*
X57942857Y-60910053D01*
X57943013Y-60910619D01*
X57943141Y-60911186D01*
X57943143Y-60911187D01*
X57943654Y-60913459D01*
X57943655Y-60913463D01*
X57946873Y-60927718D01*
X57948965Y-60932128D01*
X58150039Y-61658719D01*
X58155601Y-61678816D01*
X58155681Y-61679105D01*
X58155662Y-61679144D01*
X58155843Y-61679694D01*
X58156654Y-61682622D01*
X58160530Y-61696627D01*
X58162884Y-61701008D01*
X58399335Y-62416774D01*
X58399334Y-62416774D01*
X58402942Y-62427690D01*
X58405956Y-62436814D01*
X58405939Y-62436854D01*
X58406149Y-62437400D01*
X58406333Y-62437955D01*
X58406334Y-62437955D01*
X58407059Y-62440147D01*
X58407068Y-62440172D01*
X58411656Y-62454011D01*
X58414174Y-62458204D01*
X58571993Y-62867315D01*
X58693129Y-63181334D01*
X58693114Y-63181374D01*
X58693351Y-63181909D01*
X58694445Y-63184744D01*
X58694445Y-63184745D01*
X58699554Y-63197981D01*
X58702295Y-63202090D01*
X59007873Y-63891486D01*
X59009674Y-63895548D01*
X59016465Y-63910868D01*
X59016452Y-63910909D01*
X59016714Y-63911430D01*
X59016951Y-63911964D01*
X59017919Y-63914146D01*
X59017924Y-63914156D01*
X59023766Y-63927320D01*
X59026704Y-63931276D01*
X59375235Y-64623657D01*
X59375224Y-64623698D01*
X59375506Y-64624197D01*
X59375774Y-64624728D01*
X59375777Y-64624729D01*
X59376818Y-64626796D01*
X59383526Y-64640087D01*
X59386650Y-64643868D01*
X59758111Y-65299611D01*
X59758110Y-65299611D01*
X59764354Y-65310630D01*
X59768525Y-65317994D01*
X59768516Y-65318037D01*
X59768832Y-65318537D01*
X59769117Y-65319039D01*
X59769118Y-65319039D01*
X59770257Y-65321049D01*
X59770277Y-65321083D01*
X59777447Y-65333711D01*
X59780736Y-65337335D01*
X60184053Y-65974243D01*
X60195416Y-65992187D01*
X60195410Y-65992230D01*
X60195744Y-65992705D01*
X60197360Y-65995256D01*
X60197374Y-65995276D01*
X60205094Y-66007464D01*
X60208606Y-66010967D01*
X60607422Y-66577247D01*
X60607421Y-66577247D01*
X60646529Y-66632774D01*
X60654938Y-66644714D01*
X60654938Y-66644859D01*
X60655283Y-66645204D01*
X60655569Y-66645610D01*
X60658621Y-66649943D01*
X60665618Y-66655544D01*
X60687348Y-66677278D01*
X60687349Y-66677278D01*
X60687350Y-66677279D01*
X60688593Y-66677280D01*
X60689471Y-66676401D01*
X60689471Y-66676399D01*
X60693121Y-66672745D01*
X61714343Y-65651529D01*
X61775663Y-65618046D01*
X61845355Y-65623030D01*
X61889703Y-65651531D01*
X63444766Y-67206609D01*
X63444771Y-67206616D01*
X63462208Y-67224052D01*
X63462208Y-67224053D01*
X65035610Y-68797446D01*
X65069095Y-68858769D01*
X65064111Y-68928460D01*
X65035611Y-68972808D01*
X64028167Y-69980265D01*
X64028166Y-69980265D01*
X64020681Y-69987749D01*
X64019742Y-69988690D01*
X64019697Y-69988734D01*
X64009886Y-69998545D01*
X64009878Y-69998564D01*
X64009878Y-69998565D01*
X64009878Y-69999808D01*
X64028400Y-70018325D01*
X64028425Y-70018468D01*
X64028823Y-70018748D01*
X64033011Y-70022935D01*
X64040942Y-70027283D01*
X64663545Y-70465750D01*
X64680827Y-70477922D01*
X64680837Y-70477963D01*
X64681308Y-70478261D01*
X64683824Y-70480033D01*
X64683858Y-70480056D01*
X64695859Y-70488514D01*
X64700501Y-70490415D01*
X64910465Y-70623377D01*
X65188352Y-70799353D01*
X65354977Y-70904870D01*
X65354989Y-70904911D01*
X65355487Y-70905192D01*
X65358074Y-70906831D01*
X65358077Y-70906834D01*
X65358131Y-70906867D01*
X65370399Y-70914645D01*
X65375136Y-70916323D01*
X65705041Y-71103211D01*
X65841362Y-71180436D01*
X66049273Y-71298215D01*
X66049287Y-71298257D01*
X66049817Y-71298524D01*
X66050317Y-71298807D01*
X66050318Y-71298806D01*
X66052418Y-71299996D01*
X66052424Y-71299999D01*
X66065479Y-71307388D01*
X66070241Y-71308804D01*
X66742678Y-71647298D01*
X66742679Y-71647299D01*
X66762038Y-71657045D01*
X66762054Y-71657086D01*
X66762585Y-71657321D01*
X66765334Y-71658705D01*
X66765335Y-71658706D01*
X66765377Y-71658726D01*
X66778698Y-71665439D01*
X66783593Y-71666632D01*
X67225289Y-71862409D01*
X67450916Y-71962416D01*
X67480539Y-71975546D01*
X67491556Y-71980429D01*
X67491574Y-71980468D01*
X67492092Y-71980667D01*
X67494911Y-71981917D01*
X67494916Y-71981921D01*
X67494980Y-71981948D01*
X67508469Y-71987937D01*
X67513423Y-71988896D01*
X68215894Y-72259880D01*
X68215907Y-72259885D01*
X68236059Y-72267661D01*
X68236077Y-72267696D01*
X68236561Y-72267855D01*
X68239486Y-72268984D01*
X68239492Y-72268988D01*
X68239596Y-72269026D01*
X68253098Y-72274251D01*
X68258118Y-72274977D01*
X68977346Y-72512590D01*
X68993746Y-72518010D01*
X68993767Y-72518046D01*
X68994301Y-72518193D01*
X68997235Y-72519163D01*
X68997236Y-72519164D01*
X68997282Y-72519178D01*
X69011553Y-72523900D01*
X69016587Y-72524359D01*
X69762810Y-72730845D01*
X69762833Y-72730881D01*
X69763398Y-72731008D01*
X69763966Y-72731165D01*
X69763967Y-72731164D01*
X69766295Y-72731808D01*
X69766301Y-72731810D01*
X69780733Y-72735799D01*
X69785706Y-72736016D01*
X70541401Y-72905721D01*
X70541426Y-72905756D01*
X70541996Y-72905855D01*
X70542571Y-72905984D01*
X70542572Y-72905982D01*
X70544957Y-72906518D01*
X70544961Y-72906519D01*
X70559608Y-72909805D01*
X70564599Y-72909776D01*
X71314412Y-73039880D01*
X71327636Y-73042176D01*
X71327662Y-73042210D01*
X71328229Y-73042279D01*
X71331249Y-73042804D01*
X71331251Y-73042805D01*
X71331291Y-73042811D01*
X71345861Y-73045346D01*
X71350886Y-73045074D01*
X72102316Y-73137763D01*
X72119615Y-73139898D01*
X72119642Y-73139929D01*
X72120187Y-73139968D01*
X72123242Y-73140346D01*
X72123243Y-73140346D01*
X72123276Y-73140350D01*
X72137613Y-73142123D01*
X72142600Y-73141622D01*
X72915426Y-73198623D01*
X72915455Y-73198654D01*
X72916025Y-73198668D01*
X72916622Y-73198712D01*
X72916623Y-73198710D01*
X72919050Y-73198890D01*
X72919055Y-73198891D01*
X72933584Y-73199961D01*
X72938505Y-73199219D01*
X73691395Y-73217705D01*
X73691403Y-73217706D01*
X73713175Y-73218242D01*
X73713204Y-73218270D01*
X73713733Y-73218256D01*
X73716842Y-73218333D01*
X73716851Y-73218336D01*
X73716977Y-73218336D01*
X73731717Y-73218715D01*
X73736703Y-73217692D01*
X74489607Y-73199212D01*
X74489609Y-73199212D01*
X74510918Y-73198692D01*
X74510948Y-73198718D01*
X74511454Y-73198679D01*
X74514605Y-73198603D01*
X74514619Y-73198606D01*
X74514802Y-73198598D01*
X74529449Y-73198264D01*
X74534422Y-73196985D01*
X75302785Y-73140305D01*
X75306735Y-73140014D01*
X75306770Y-73140041D01*
X75307352Y-73139968D01*
X75310403Y-73139744D01*
X75310408Y-73139745D01*
X75310470Y-73139739D01*
X75324885Y-73138684D01*
X75329687Y-73137214D01*
X76085043Y-73044048D01*
X76098714Y-73042364D01*
X76098748Y-73042388D01*
X76099295Y-73042292D01*
X76102343Y-73041917D01*
X76102350Y-73041918D01*
X76102419Y-73041908D01*
X76117148Y-73040101D01*
X76121902Y-73038369D01*
X76872665Y-72908098D01*
X76884960Y-72905967D01*
X76884995Y-72905989D01*
X76885517Y-72905870D01*
X76888586Y-72905339D01*
X76888600Y-72905340D01*
X76888730Y-72905315D01*
X76902861Y-72902882D01*
X76907551Y-72900923D01*
X77652465Y-72733648D01*
X77663560Y-72731157D01*
X77663596Y-72731178D01*
X77664126Y-72731030D01*
X77667128Y-72730357D01*
X77667134Y-72730357D01*
X77667212Y-72730338D01*
X77681216Y-72727204D01*
X77685762Y-72725043D01*
X78417723Y-72522476D01*
X78432646Y-72518348D01*
X78432682Y-72518367D01*
X78433193Y-72518197D01*
X78436185Y-72517370D01*
X78436193Y-72517370D01*
X78436293Y-72517340D01*
X78450128Y-72513526D01*
X78454580Y-72511132D01*
X79170376Y-72274679D01*
X79190357Y-72268083D01*
X79190392Y-72268098D01*
X79190849Y-72267920D01*
X79193844Y-72266932D01*
X79193857Y-72266931D01*
X79194010Y-72266877D01*
X79207597Y-72262412D01*
X79211970Y-72259773D01*
X79918364Y-71987285D01*
X79934883Y-71980916D01*
X79934919Y-71980931D01*
X79935380Y-71980725D01*
X79938321Y-71979592D01*
X79938331Y-71979591D01*
X79938472Y-71979533D01*
X79951901Y-71974375D01*
X79956134Y-71971525D01*
X80649041Y-71664368D01*
X80664411Y-71657556D01*
X80664449Y-71657570D01*
X80664944Y-71657320D01*
X80667750Y-71656077D01*
X80667754Y-71656076D01*
X80667783Y-71656063D01*
X80681237Y-71650104D01*
X80685263Y-71647091D01*
X81359278Y-71307812D01*
X81377199Y-71298797D01*
X81377234Y-71298807D01*
X81377652Y-71298569D01*
X81380489Y-71297142D01*
X81380507Y-71297138D01*
X81380675Y-71297049D01*
X81393167Y-71290790D01*
X81397118Y-71287542D01*
X82060495Y-70911756D01*
X82071527Y-70905508D01*
X82071570Y-70905518D01*
X82072070Y-70905201D01*
X82072572Y-70904917D01*
X82072572Y-70904916D01*
X82074715Y-70903703D01*
X82074722Y-70903701D01*
X82074776Y-70903669D01*
X82087282Y-70896594D01*
X82090995Y-70893216D01*
X82733834Y-70486136D01*
X82745733Y-70478603D01*
X82745773Y-70478611D01*
X82746227Y-70478290D01*
X82748830Y-70476643D01*
X82748830Y-70476642D01*
X82748856Y-70476626D01*
X82761217Y-70468804D01*
X82764754Y-70465241D01*
X83388565Y-70025900D01*
X83398293Y-70019054D01*
X83398357Y-70019054D01*
X83398506Y-70018903D01*
X83403399Y-70015460D01*
X83409156Y-70008256D01*
X83411498Y-70005910D01*
X83412259Y-70005150D01*
X83412260Y-70005150D01*
X83413138Y-70004271D01*
X83413138Y-70003028D01*
X83309228Y-69899119D01*
X83230843Y-69820735D01*
X83152028Y-69741921D01*
X88050791Y-69741921D01*
X88071251Y-69884234D01*
X88071252Y-69884239D01*
X88130978Y-70015018D01*
X88168558Y-70061653D01*
X88202379Y-70095474D01*
X88202380Y-70095474D01*
X88933103Y-69364749D01*
X88933103Y-69364748D01*
X88579550Y-69011196D01*
X88579549Y-69011196D01*
X88168562Y-69422183D01*
X88130978Y-69468823D01*
X88071252Y-69599602D01*
X88071251Y-69599607D01*
X88050791Y-69741921D01*
X83152028Y-69741921D01*
X82390420Y-68980323D01*
X82356935Y-68919000D01*
X82361919Y-68849308D01*
X82390417Y-68804962D01*
X82507471Y-68687906D01*
X88902839Y-68687906D01*
X88902839Y-68687907D01*
X89256392Y-69041460D01*
X89987117Y-68310736D01*
X89953296Y-68276915D01*
X89906661Y-68239335D01*
X89775882Y-68179609D01*
X89775877Y-68179608D01*
X89633564Y-68159148D01*
X89491250Y-68179608D01*
X89491245Y-68179609D01*
X89360466Y-68239335D01*
X89313826Y-68276919D01*
X88902839Y-68687906D01*
X82507471Y-68687906D01*
X83963157Y-67232201D01*
X83963187Y-67232182D01*
X83980613Y-67214756D01*
X83980614Y-67214756D01*
X85553998Y-65641351D01*
X85615319Y-65607868D01*
X85685011Y-65612852D01*
X85729357Y-65641351D01*
X86061686Y-65973679D01*
X86711520Y-66623512D01*
X86711520Y-66623511D01*
X86751239Y-66663230D01*
X86751239Y-66663232D01*
X86752117Y-66664111D01*
X86753360Y-66664111D01*
X86771860Y-66645624D01*
X86772005Y-66645599D01*
X86772289Y-66645195D01*
X86772635Y-66644850D01*
X86772635Y-66644704D01*
X87221430Y-66007464D01*
X87231469Y-65993213D01*
X87231508Y-65993205D01*
X87231787Y-65992762D01*
X87233587Y-65990208D01*
X87233595Y-65990200D01*
X87233674Y-65990084D01*
X87241935Y-65978387D01*
X87243867Y-65973684D01*
X87646822Y-65337335D01*
X87658407Y-65319044D01*
X87658445Y-65319035D01*
X87658704Y-65318575D01*
X87660377Y-65315935D01*
X87660386Y-65315926D01*
X87660456Y-65315811D01*
X87668235Y-65303560D01*
X87669930Y-65298759D01*
X88050597Y-64626796D01*
X88051759Y-64624743D01*
X88051801Y-64624731D01*
X88052068Y-64624200D01*
X88052351Y-64623701D01*
X88052350Y-64623700D01*
X88053576Y-64621538D01*
X88053579Y-64621534D01*
X88053603Y-64621491D01*
X88060797Y-64608805D01*
X88062237Y-64603995D01*
X88402862Y-63927320D01*
X88410580Y-63911988D01*
X88410620Y-63911974D01*
X88410855Y-63911441D01*
X88412236Y-63908700D01*
X88412239Y-63908696D01*
X88412257Y-63908659D01*
X88418863Y-63895548D01*
X88420064Y-63890665D01*
X88727096Y-63197981D01*
X88733971Y-63182476D01*
X88734007Y-63182461D01*
X88734194Y-63181973D01*
X88735460Y-63179119D01*
X88735468Y-63179108D01*
X88735524Y-63178975D01*
X88741346Y-63165888D01*
X88742326Y-63160892D01*
X88783236Y-63054840D01*
X89015003Y-62454011D01*
X89021193Y-62437973D01*
X89021226Y-62437958D01*
X89021378Y-62437493D01*
X89022517Y-62434544D01*
X89022525Y-62434533D01*
X89022583Y-62434372D01*
X89027662Y-62421270D01*
X89028405Y-62416223D01*
X89267031Y-61693911D01*
X89271536Y-61680281D01*
X89271572Y-61680262D01*
X89271715Y-61679740D01*
X89272692Y-61676787D01*
X89272697Y-61676779D01*
X89272727Y-61676681D01*
X89277311Y-61662853D01*
X89277786Y-61657801D01*
X89478693Y-60931791D01*
X89484391Y-60911206D01*
X89484426Y-60911186D01*
X89484546Y-60910646D01*
X89485371Y-60907669D01*
X89485374Y-60907663D01*
X89485395Y-60907582D01*
X89489236Y-60893744D01*
X89489472Y-60888706D01*
X89654798Y-60152509D01*
X89659269Y-60132618D01*
X89659300Y-60132597D01*
X89659384Y-60132107D01*
X89660075Y-60129033D01*
X89660083Y-60129017D01*
X89660121Y-60128829D01*
X89663251Y-60115007D01*
X89663240Y-60109882D01*
X89677556Y-60027375D01*
X89791970Y-59367978D01*
X89795718Y-59346396D01*
X89795749Y-59346374D01*
X89795812Y-59345857D01*
X89796347Y-59342777D01*
X89796352Y-59342766D01*
X89796373Y-59342626D01*
X89798811Y-59328686D01*
X89798555Y-59323614D01*
X89820033Y-59149476D01*
X89847776Y-59085351D01*
X89905784Y-59046404D01*
X89975639Y-59045002D01*
X90035164Y-59081588D01*
X90065459Y-59144548D01*
X90067100Y-59164656D01*
X90067100Y-65253673D01*
X90067100Y-65346327D01*
X90102557Y-65431927D01*
X90102558Y-65431928D01*
X91830781Y-67160151D01*
X91864266Y-67221474D01*
X91867100Y-67247832D01*
X91867100Y-68211788D01*
X91847415Y-68278827D01*
X91830781Y-68299469D01*
X90740322Y-69389927D01*
X90678999Y-69423412D01*
X90609307Y-69418428D01*
X90560790Y-69385549D01*
X90554634Y-69378761D01*
X90535235Y-69349728D01*
X90460739Y-69275232D01*
X90458698Y-69272982D01*
X90444731Y-69244145D01*
X90429383Y-69216037D01*
X90429606Y-69212916D01*
X90428242Y-69210100D01*
X90432082Y-69178293D01*
X90434367Y-69146345D01*
X90436586Y-69140988D01*
X90436617Y-69140734D01*
X90436766Y-69140553D01*
X90437757Y-69138163D01*
X90441534Y-69129892D01*
X90461994Y-68987579D01*
X90441534Y-68845265D01*
X90441533Y-68845260D01*
X90381807Y-68714481D01*
X90344227Y-68667846D01*
X90310406Y-68634025D01*
X90310405Y-68634025D01*
X89418038Y-69526395D01*
X88525668Y-70418762D01*
X88525668Y-70443100D01*
X88505983Y-70510139D01*
X88453179Y-70555894D01*
X88401668Y-70567100D01*
X84853672Y-70567100D01*
X84768071Y-70602558D01*
X78314848Y-77055782D01*
X78253525Y-77089267D01*
X78227167Y-77092101D01*
X77076194Y-77092101D01*
X77009155Y-77072416D01*
X76963400Y-77019612D01*
X76952341Y-76962059D01*
X76952787Y-76952902D01*
X76959600Y-76918656D01*
X76959599Y-76813269D01*
X76959746Y-76810272D01*
X76970259Y-76780006D01*
X76979283Y-76749276D01*
X76981646Y-76747227D01*
X76982674Y-76744271D01*
X77007875Y-76724499D01*
X77032086Y-76703520D01*
X77037445Y-76701300D01*
X77037645Y-76701144D01*
X77037876Y-76701122D01*
X77040272Y-76700130D01*
X77048791Y-76696952D01*
X77163887Y-76610791D01*
X77163890Y-76610788D01*
X77250050Y-76495694D01*
X77250054Y-76495687D01*
X77300296Y-76360980D01*
X77300298Y-76360973D01*
X77306699Y-76301445D01*
X77306700Y-76301428D01*
X77306700Y-76253601D01*
X74782700Y-76253601D01*
X74782700Y-76301428D01*
X74782701Y-76301447D01*
X74787794Y-76348818D01*
X74775389Y-76417577D01*
X74727779Y-76468715D01*
X74660080Y-76485994D01*
X74593785Y-76463929D01*
X74576824Y-76449754D01*
X73875626Y-75748556D01*
X74782700Y-75748556D01*
X74782700Y-75796401D01*
X75816100Y-75796401D01*
X76273300Y-75796401D01*
X77306700Y-75796401D01*
X77306700Y-75748573D01*
X77306699Y-75748556D01*
X77300298Y-75689028D01*
X77300296Y-75689021D01*
X77250054Y-75554314D01*
X77250050Y-75554307D01*
X77163890Y-75439213D01*
X77163887Y-75439210D01*
X77048793Y-75353050D01*
X77048786Y-75353046D01*
X76914079Y-75302804D01*
X76914072Y-75302802D01*
X76854544Y-75296401D01*
X76273300Y-75296401D01*
X76273300Y-75796401D01*
X75816100Y-75796401D01*
X75816100Y-75296401D01*
X75234855Y-75296401D01*
X75175327Y-75302802D01*
X75175320Y-75302804D01*
X75040613Y-75353046D01*
X75040606Y-75353050D01*
X74925512Y-75439210D01*
X74925509Y-75439213D01*
X74839349Y-75554307D01*
X74839345Y-75554314D01*
X74789103Y-75689021D01*
X74789101Y-75689028D01*
X74782700Y-75748556D01*
X73875626Y-75748556D01*
X71529628Y-73402558D01*
X71529627Y-73402557D01*
X71444027Y-73367100D01*
X62716999Y-73367100D01*
X62649960Y-73347415D01*
X62604205Y-73294611D01*
X62594261Y-73225453D01*
X62609581Y-73191906D01*
X62609581Y-73175155D01*
X61717212Y-72282788D01*
X61591885Y-72157461D01*
X61555566Y-72121142D01*
X62202146Y-72121142D01*
X62932869Y-72851867D01*
X62932871Y-72851867D01*
X62966684Y-72818053D01*
X62966686Y-72818052D01*
X63004271Y-72771411D01*
X63063997Y-72640632D01*
X63063998Y-72640627D01*
X63084458Y-72498314D01*
X63063998Y-72356000D01*
X63063997Y-72355995D01*
X63004271Y-72225216D01*
X62966691Y-72178581D01*
X62555699Y-71767589D01*
X62202146Y-72121142D01*
X61555566Y-72121142D01*
X60824843Y-71390418D01*
X60791027Y-71424234D01*
X60791022Y-71424240D01*
X60753442Y-71470874D01*
X60693716Y-71601653D01*
X60693715Y-71601658D01*
X60679638Y-71699575D01*
X60650613Y-71763131D01*
X60591836Y-71800906D01*
X60521966Y-71800906D01*
X60463188Y-71763132D01*
X60434162Y-71699577D01*
X60432900Y-71681929D01*
X60432900Y-71067128D01*
X61148132Y-71067128D01*
X61878856Y-71797853D01*
X62232410Y-71444300D01*
X61821418Y-71033308D01*
X61774783Y-70995728D01*
X61644004Y-70936002D01*
X61643999Y-70936001D01*
X61501686Y-70915541D01*
X61359372Y-70936001D01*
X61359367Y-70936002D01*
X61228588Y-70995728D01*
X61181954Y-71033308D01*
X61181948Y-71033313D01*
X61148132Y-71067128D01*
X60432900Y-71067128D01*
X60432900Y-67753674D01*
X60432900Y-67753673D01*
X60397443Y-67668073D01*
X60331927Y-67602557D01*
X54419217Y-61689847D01*
X54385732Y-61628524D01*
X54382898Y-61602166D01*
X54382898Y-60120893D01*
X54402583Y-60053854D01*
X54455387Y-60008099D01*
X54512941Y-59997040D01*
X54522089Y-59997486D01*
X54556343Y-60004300D01*
X54661730Y-60004299D01*
X54664727Y-60004446D01*
X54694989Y-60014959D01*
X54725722Y-60023983D01*
X54727771Y-60026347D01*
X54730728Y-60027375D01*
X54750501Y-60052578D01*
X54771478Y-60076786D01*
X54773697Y-60082145D01*
X54773855Y-60082346D01*
X54773876Y-60082578D01*
X54774864Y-60084962D01*
X54778044Y-60093488D01*
X54778046Y-60093492D01*
X54864207Y-60208587D01*
X54864210Y-60208590D01*
X54979304Y-60294750D01*
X54979311Y-60294754D01*
X55114018Y-60344996D01*
X55114025Y-60344998D01*
X55173553Y-60351399D01*
X55173570Y-60351400D01*
X55221398Y-60351400D01*
X55678598Y-60351400D01*
X55726426Y-60351400D01*
X55726442Y-60351399D01*
X55785970Y-60344998D01*
X55785977Y-60344996D01*
X55920684Y-60294754D01*
X55920691Y-60294750D01*
X56035785Y-60208590D01*
X56035788Y-60208587D01*
X56121948Y-60093493D01*
X56121952Y-60093486D01*
X56172194Y-59958779D01*
X56172196Y-59958772D01*
X56178597Y-59899244D01*
X56178598Y-59899227D01*
X56178598Y-59318000D01*
X55678598Y-59318000D01*
X55678598Y-60351400D01*
X55221398Y-60351400D01*
X55221398Y-58860800D01*
X55678598Y-58860800D01*
X56178598Y-58860800D01*
X56178598Y-58279572D01*
X56178597Y-58279555D01*
X56172196Y-58220027D01*
X56172194Y-58220020D01*
X56121952Y-58085313D01*
X56121948Y-58085306D01*
X56035788Y-57970212D01*
X56035785Y-57970209D01*
X55920691Y-57884049D01*
X55920684Y-57884045D01*
X55785977Y-57833803D01*
X55785970Y-57833801D01*
X55726442Y-57827400D01*
X55678598Y-57827400D01*
X55678598Y-58860800D01*
X55221398Y-58860800D01*
X55221398Y-57827400D01*
X55173553Y-57827400D01*
X55114025Y-57833801D01*
X55114018Y-57833803D01*
X54979311Y-57884045D01*
X54979304Y-57884049D01*
X54864210Y-57970209D01*
X54864207Y-57970212D01*
X54778047Y-58085306D01*
X54774864Y-58093840D01*
X54764325Y-58107915D01*
X54758247Y-58124414D01*
X54743820Y-58135303D01*
X54732989Y-58149771D01*
X54716415Y-58155989D01*
X54702481Y-58166508D01*
X54675037Y-58171515D01*
X54668023Y-58174148D01*
X54663352Y-58174500D01*
X54556344Y-58174501D01*
X54511742Y-58183372D01*
X54507388Y-58186280D01*
X54484338Y-58188022D01*
X54468685Y-58184682D01*
X54452770Y-58186365D01*
X54450259Y-58185626D01*
X54450234Y-58185754D01*
X54393657Y-58174500D01*
X53906344Y-58174500D01*
X53883126Y-58179118D01*
X53861740Y-58183372D01*
X53861738Y-58183372D01*
X53849763Y-58185755D01*
X53848911Y-58181471D01*
X53802921Y-58186392D01*
X53800264Y-58185611D01*
X53800236Y-58185754D01*
X53743659Y-58174500D01*
X53256345Y-58174500D01*
X53211741Y-58183372D01*
X53211738Y-58183373D01*
X53161166Y-58217165D01*
X53127371Y-58267743D01*
X53127370Y-58267745D01*
X53118500Y-58312340D01*
X53118500Y-59866454D01*
X53127372Y-59911058D01*
X53127373Y-59911061D01*
X53159258Y-59958779D01*
X53161166Y-59961634D01*
X53211742Y-59995428D01*
X53211743Y-59995428D01*
X53211990Y-59995593D01*
X53256796Y-60049205D01*
X53267100Y-60098696D01*
X53267100Y-68799745D01*
X53247415Y-68866784D01*
X53194611Y-68912539D01*
X53125453Y-68922483D01*
X53061897Y-68893458D01*
X53034911Y-68860334D01*
X53026469Y-68845260D01*
X52764110Y-68376784D01*
X52762920Y-68374608D01*
X52716339Y-68287194D01*
X52715360Y-68285314D01*
X52329329Y-67527688D01*
X52328139Y-67525285D01*
X52287838Y-67441599D01*
X52287024Y-67439871D01*
X51927841Y-66660743D01*
X51926632Y-66658035D01*
X51894302Y-66583241D01*
X51893563Y-66581494D01*
X51649999Y-65993480D01*
X51560484Y-65777371D01*
X51559354Y-65774544D01*
X51536221Y-65714403D01*
X51535736Y-65713113D01*
X51228080Y-64879175D01*
X51226994Y-64876107D01*
X51214388Y-64838865D01*
X51213930Y-64837482D01*
X51144172Y-64622790D01*
X50931298Y-63967633D01*
X50930297Y-63964396D01*
X50929107Y-63960344D01*
X50928842Y-63959419D01*
X50673721Y-63054825D01*
X50672495Y-63050129D01*
X50452439Y-62133532D01*
X50451401Y-62128795D01*
X50418150Y-61961632D01*
X50267509Y-61204308D01*
X50266657Y-61199535D01*
X50119198Y-60268520D01*
X50118535Y-60263719D01*
X50118331Y-60261999D01*
X50007745Y-59327662D01*
X50007269Y-59322833D01*
X50006889Y-59318000D01*
X49933309Y-58383077D01*
X49933027Y-58378285D01*
X49896021Y-57436411D01*
X49895925Y-57431543D01*
X49895925Y-56488928D01*
X49896021Y-56484060D01*
X49907794Y-56184416D01*
X49933027Y-55542183D01*
X49933308Y-55537397D01*
X50007271Y-54597617D01*
X50007747Y-54592792D01*
X50118538Y-53656723D01*
X50119197Y-53651958D01*
X50266661Y-52720908D01*
X50267507Y-52716172D01*
X50451407Y-51791646D01*
X50452437Y-51786950D01*
X50498932Y-51593286D01*
X52947100Y-51593286D01*
X52947100Y-52606713D01*
X52962041Y-52701050D01*
X52962042Y-52701053D01*
X52962043Y-52701055D01*
X53019984Y-52814771D01*
X53019985Y-52814772D01*
X53019988Y-52814776D01*
X53110223Y-52905011D01*
X53110226Y-52905013D01*
X53110229Y-52905016D01*
X53189395Y-52945352D01*
X53240191Y-52993326D01*
X53257100Y-53055837D01*
X53257100Y-53997384D01*
X53237415Y-54064423D01*
X53201992Y-54100485D01*
X53161167Y-54127764D01*
X53127371Y-54178343D01*
X53127370Y-54178345D01*
X53118500Y-54222940D01*
X53118500Y-55777054D01*
X53127372Y-55821658D01*
X53127373Y-55821661D01*
X53159258Y-55869379D01*
X53161166Y-55872234D01*
X53211742Y-55906028D01*
X53211743Y-55906028D01*
X53211745Y-55906029D01*
X53234042Y-55910464D01*
X53256343Y-55914900D01*
X53743656Y-55914899D01*
X53788258Y-55906028D01*
X53788258Y-55906027D01*
X53800237Y-55903645D01*
X53801091Y-55907943D01*
X53846896Y-55902974D01*
X53849731Y-55903806D01*
X53849764Y-55903645D01*
X53861738Y-55906026D01*
X53861740Y-55906028D01*
X53906341Y-55914900D01*
X54393654Y-55914899D01*
X54438256Y-55906028D01*
X54438256Y-55906027D01*
X54450235Y-55903645D01*
X54450855Y-55906765D01*
X54484338Y-55901376D01*
X54507385Y-55903116D01*
X54511742Y-55906028D01*
X54556343Y-55914900D01*
X54663374Y-55914899D01*
X54668024Y-55915251D01*
X54696513Y-55926006D01*
X54725722Y-55934583D01*
X54728878Y-55938225D01*
X54733390Y-55939929D01*
X54751538Y-55964375D01*
X54771478Y-55987386D01*
X54774864Y-55995562D01*
X54778044Y-56004088D01*
X54778046Y-56004092D01*
X54864207Y-56119187D01*
X54864210Y-56119190D01*
X54979304Y-56205350D01*
X54979311Y-56205354D01*
X55114018Y-56255596D01*
X55114025Y-56255598D01*
X55173553Y-56261999D01*
X55173570Y-56262000D01*
X55221398Y-56262000D01*
X55678598Y-56262000D01*
X55726426Y-56262000D01*
X55726442Y-56261999D01*
X55785970Y-56255598D01*
X55785977Y-56255596D01*
X55920684Y-56205354D01*
X55920691Y-56205350D01*
X56035785Y-56119190D01*
X56035788Y-56119187D01*
X56121948Y-56004093D01*
X56121952Y-56004086D01*
X56172194Y-55869379D01*
X56172196Y-55869372D01*
X56178597Y-55809844D01*
X56178598Y-55809827D01*
X56178598Y-55228600D01*
X55678598Y-55228600D01*
X55678598Y-56262000D01*
X55221398Y-56262000D01*
X55221398Y-54771400D01*
X55678598Y-54771400D01*
X56178598Y-54771400D01*
X56178598Y-54190172D01*
X56178597Y-54190155D01*
X56172196Y-54130627D01*
X56172194Y-54130620D01*
X56121952Y-53995913D01*
X56121948Y-53995906D01*
X56035788Y-53880812D01*
X56035785Y-53880809D01*
X55920691Y-53794649D01*
X55920684Y-53794645D01*
X55785977Y-53744403D01*
X55785970Y-53744401D01*
X55726442Y-53738000D01*
X55678598Y-53738000D01*
X55678598Y-54771400D01*
X55221398Y-54771400D01*
X55221398Y-53738000D01*
X55173553Y-53738000D01*
X55114025Y-53744401D01*
X55114018Y-53744403D01*
X54979311Y-53794645D01*
X54979304Y-53794649D01*
X54864210Y-53880809D01*
X54864207Y-53880812D01*
X54778047Y-53995906D01*
X54774864Y-54004440D01*
X54764325Y-54018515D01*
X54758247Y-54035014D01*
X54743820Y-54045903D01*
X54732989Y-54060371D01*
X54716415Y-54066589D01*
X54702481Y-54077108D01*
X54675037Y-54082115D01*
X54668023Y-54084748D01*
X54663352Y-54085100D01*
X54556344Y-54085101D01*
X54511742Y-54093972D01*
X54507388Y-54096880D01*
X54484338Y-54098622D01*
X54468685Y-54095282D01*
X54452770Y-54096965D01*
X54450259Y-54096226D01*
X54450234Y-54096354D01*
X54393657Y-54085100D01*
X54393655Y-54085100D01*
X54066900Y-54085100D01*
X53999861Y-54065415D01*
X53954106Y-54012611D01*
X53942900Y-53961100D01*
X53942900Y-53055837D01*
X53962585Y-52988798D01*
X54010604Y-52945353D01*
X54089771Y-52905016D01*
X54180016Y-52814771D01*
X54237957Y-52701055D01*
X54252900Y-52606708D01*
X54252900Y-52606701D01*
X54253526Y-52602749D01*
X54283455Y-52539614D01*
X54342767Y-52502682D01*
X54412629Y-52503680D01*
X54470862Y-52542289D01*
X54498977Y-52606252D01*
X54500000Y-52622125D01*
X54500000Y-52624960D01*
X54500001Y-52624987D01*
X54510494Y-52727697D01*
X54565641Y-52894119D01*
X54565643Y-52894124D01*
X54657684Y-53043345D01*
X54781654Y-53167315D01*
X54930875Y-53259356D01*
X54930880Y-53259358D01*
X55097302Y-53314505D01*
X55097309Y-53314506D01*
X55200019Y-53324999D01*
X55750000Y-53324999D01*
X55799972Y-53324999D01*
X55799986Y-53324998D01*
X55902697Y-53314505D01*
X56069119Y-53259358D01*
X56069124Y-53259356D01*
X56218345Y-53167315D01*
X56342315Y-53043345D01*
X56434356Y-52894124D01*
X56434358Y-52894119D01*
X56489505Y-52727697D01*
X56489506Y-52727690D01*
X56499999Y-52624986D01*
X56500000Y-52624973D01*
X56500000Y-52350000D01*
X55750000Y-52350000D01*
X55750000Y-53324999D01*
X55200019Y-53324999D01*
X55249999Y-53324998D01*
X55250000Y-53324998D01*
X55250000Y-51850000D01*
X55750000Y-51850000D01*
X56499999Y-51850000D01*
X56499999Y-51575028D01*
X56499998Y-51575013D01*
X56489505Y-51472302D01*
X56434358Y-51305880D01*
X56434356Y-51305875D01*
X56342315Y-51156654D01*
X56218345Y-51032684D01*
X56069124Y-50940643D01*
X56069119Y-50940641D01*
X55902697Y-50885494D01*
X55902690Y-50885493D01*
X55799986Y-50875000D01*
X55750000Y-50875000D01*
X55750000Y-51850000D01*
X55250000Y-51850000D01*
X55250000Y-50875000D01*
X55249999Y-50874999D01*
X55200029Y-50875000D01*
X55200011Y-50875001D01*
X55097302Y-50885494D01*
X54930880Y-50940641D01*
X54930875Y-50940643D01*
X54781654Y-51032684D01*
X54657684Y-51156654D01*
X54565643Y-51305875D01*
X54565641Y-51305880D01*
X54510494Y-51472302D01*
X54510493Y-51472309D01*
X54500000Y-51575013D01*
X54500000Y-51577847D01*
X54480315Y-51644886D01*
X54427511Y-51690641D01*
X54358353Y-51700585D01*
X54294797Y-51671560D01*
X54257023Y-51612782D01*
X54253527Y-51597245D01*
X54237958Y-51498949D01*
X54237957Y-51498947D01*
X54237957Y-51498945D01*
X54180016Y-51385229D01*
X54180014Y-51385227D01*
X54180011Y-51385223D01*
X54089776Y-51294988D01*
X54089771Y-51294984D01*
X54010605Y-51254647D01*
X53999540Y-51244197D01*
X53985697Y-51237875D01*
X53974655Y-51220694D01*
X53959809Y-51206672D01*
X53955567Y-51190992D01*
X53947923Y-51179097D01*
X53942900Y-51144162D01*
X53942900Y-51090381D01*
X53962585Y-51023342D01*
X53979219Y-51002700D01*
X54042430Y-50939489D01*
X54115221Y-50813411D01*
X54152900Y-50672791D01*
X54152900Y-50527209D01*
X54115221Y-50386589D01*
X54042430Y-50260511D01*
X53939489Y-50157570D01*
X53939488Y-50157569D01*
X53939485Y-50157567D01*
X53813413Y-50084780D01*
X53813412Y-50084779D01*
X53813411Y-50084779D01*
X53672791Y-50047100D01*
X53527209Y-50047100D01*
X53386589Y-50084779D01*
X53386587Y-50084780D01*
X53386586Y-50084780D01*
X53260514Y-50157567D01*
X53260509Y-50157571D01*
X53157571Y-50260509D01*
X53157567Y-50260514D01*
X53084780Y-50386586D01*
X53084780Y-50386587D01*
X53084779Y-50386589D01*
X53047100Y-50527209D01*
X53047100Y-50672791D01*
X53084779Y-50813411D01*
X53084780Y-50813412D01*
X53084780Y-50813413D01*
X53157567Y-50939485D01*
X53157571Y-50939490D01*
X53220781Y-51002700D01*
X53235484Y-51029627D01*
X53252077Y-51055446D01*
X53252968Y-51061646D01*
X53254266Y-51064023D01*
X53257100Y-51090381D01*
X53257100Y-51144162D01*
X53237415Y-51211201D01*
X53189395Y-51254647D01*
X53110228Y-51294984D01*
X53110223Y-51294988D01*
X53019988Y-51385223D01*
X53019985Y-51385227D01*
X52962041Y-51498949D01*
X52947100Y-51593286D01*
X50498932Y-51593286D01*
X50672499Y-50870326D01*
X50673707Y-50865693D01*
X50928911Y-49960808D01*
X50929083Y-49960209D01*
X50930312Y-49956025D01*
X50931285Y-49952878D01*
X51213969Y-49082867D01*
X51214357Y-49081698D01*
X51227010Y-49044318D01*
X51228062Y-49041344D01*
X51535772Y-48207259D01*
X51536186Y-48206161D01*
X51559375Y-48145873D01*
X51560461Y-48143155D01*
X51893610Y-47338863D01*
X51894259Y-47337328D01*
X51926662Y-47262367D01*
X51927812Y-47259790D01*
X52014739Y-47071230D01*
X54438820Y-47071230D01*
X54438820Y-47071231D01*
X54474157Y-47106568D01*
X54474164Y-47106574D01*
X54554213Y-47171783D01*
X54710888Y-47250468D01*
X54881490Y-47290902D01*
X55056810Y-47290902D01*
X55227411Y-47250468D01*
X55384092Y-47171780D01*
X55464128Y-47106581D01*
X55464130Y-47106579D01*
X55466125Y-47104585D01*
X55527445Y-47071093D01*
X55597137Y-47076069D01*
X55653075Y-47117934D01*
X55677500Y-47183395D01*
X55662656Y-47251670D01*
X55654135Y-47265142D01*
X55595637Y-47345656D01*
X55556198Y-47467035D01*
X55556198Y-47594664D01*
X55595638Y-47716046D01*
X55651779Y-47793315D01*
X55651786Y-47793324D01*
X55720781Y-47862319D01*
X55754266Y-47923642D01*
X55757100Y-47950000D01*
X55757100Y-48609619D01*
X55737415Y-48676658D01*
X55720781Y-48697300D01*
X55657571Y-48760509D01*
X55657567Y-48760514D01*
X55584780Y-48886586D01*
X55584780Y-48886587D01*
X55584779Y-48886589D01*
X55547100Y-49027209D01*
X55547100Y-49172791D01*
X55584779Y-49313411D01*
X55584780Y-49313412D01*
X55584780Y-49313413D01*
X55657567Y-49439485D01*
X55657569Y-49439488D01*
X55657570Y-49439489D01*
X55760511Y-49542430D01*
X55886589Y-49615221D01*
X56027209Y-49652900D01*
X56027211Y-49652900D01*
X56172788Y-49652900D01*
X56172791Y-49652900D01*
X56313411Y-49615221D01*
X56439489Y-49542430D01*
X56542430Y-49439489D01*
X56615221Y-49313411D01*
X56652900Y-49172791D01*
X56652900Y-49027209D01*
X56615221Y-48886589D01*
X56542430Y-48760511D01*
X56479219Y-48697300D01*
X56445734Y-48635977D01*
X56442900Y-48609619D01*
X56442900Y-48350965D01*
X56462585Y-48283926D01*
X56494015Y-48250647D01*
X56497843Y-48247865D01*
X56497845Y-48247865D01*
X56575124Y-48191718D01*
X57291718Y-47475124D01*
X57347865Y-47397845D01*
X57387304Y-47276465D01*
X57387304Y-47148839D01*
X57347865Y-47027459D01*
X57347863Y-47027456D01*
X57343981Y-47019837D01*
X57331085Y-46951168D01*
X57357361Y-46886428D01*
X57366776Y-46875870D01*
X58482267Y-45760379D01*
X58543588Y-45726896D01*
X58545682Y-45726460D01*
X58561345Y-45723345D01*
X58561349Y-45723342D01*
X58561350Y-45723342D01*
X58588299Y-45705335D01*
X58599156Y-45698081D01*
X58818471Y-45478764D01*
X58826416Y-45474426D01*
X58831841Y-45467180D01*
X58856597Y-45457946D01*
X58879792Y-45445281D01*
X58888822Y-45445926D01*
X58897305Y-45442763D01*
X58923125Y-45448379D01*
X58949484Y-45450265D01*
X58958537Y-45456083D01*
X58965578Y-45457615D01*
X58993832Y-45478766D01*
X59010781Y-45495715D01*
X59044266Y-45557038D01*
X59047100Y-45583396D01*
X59047100Y-45672791D01*
X59084779Y-45813411D01*
X59084780Y-45813412D01*
X59084780Y-45813413D01*
X59157567Y-45939485D01*
X59157569Y-45939488D01*
X59157570Y-45939489D01*
X59260511Y-46042430D01*
X59386589Y-46115221D01*
X59527209Y-46152900D01*
X59527211Y-46152900D01*
X59672788Y-46152900D01*
X59672791Y-46152900D01*
X59813411Y-46115221D01*
X59939489Y-46042430D01*
X60042430Y-45939489D01*
X60115221Y-45813411D01*
X60152900Y-45672791D01*
X60152900Y-45527209D01*
X60115221Y-45386589D01*
X60072210Y-45312091D01*
X60042432Y-45260514D01*
X60042428Y-45260509D01*
X59939490Y-45157571D01*
X59939485Y-45157567D01*
X59813413Y-45084780D01*
X59813412Y-45084779D01*
X59813411Y-45084779D01*
X59672791Y-45047100D01*
X59672789Y-45047100D01*
X59583396Y-45047100D01*
X59553950Y-45038453D01*
X59523966Y-45031930D01*
X59518953Y-45028177D01*
X59516357Y-45027415D01*
X59495712Y-45010779D01*
X59478762Y-44993828D01*
X59445279Y-44932504D01*
X59450266Y-44862812D01*
X59478760Y-44818473D01*
X59698079Y-44599156D01*
X59723345Y-44561345D01*
X59735211Y-44501686D01*
X59723345Y-44442028D01*
X59698081Y-44404217D01*
X59698076Y-44404211D01*
X59625714Y-44331849D01*
X59592229Y-44270526D01*
X59597213Y-44200834D01*
X59600603Y-44192652D01*
X59604380Y-44184381D01*
X59624840Y-44042068D01*
X59604380Y-43899754D01*
X59604379Y-43899749D01*
X59544653Y-43768970D01*
X59507073Y-43722335D01*
X59473252Y-43688514D01*
X59473251Y-43688514D01*
X58580884Y-44580884D01*
X57688514Y-45473251D01*
X57688514Y-45500000D01*
X57689824Y-45502400D01*
X57688514Y-45520717D01*
X57688514Y-45524614D01*
X57688235Y-45524614D01*
X57684840Y-45572092D01*
X57656339Y-45616439D01*
X56840413Y-46432365D01*
X56779090Y-46465850D01*
X56714414Y-46462615D01*
X56694666Y-46456198D01*
X56694663Y-46456198D01*
X56567037Y-46456198D01*
X56567035Y-46456198D01*
X56445656Y-46495637D01*
X56365139Y-46554137D01*
X56299332Y-46577617D01*
X56231278Y-46561792D01*
X56182583Y-46511686D01*
X56168708Y-46443208D01*
X56194057Y-46378099D01*
X56204582Y-46366127D01*
X56206578Y-46364130D01*
X56271783Y-46284086D01*
X56350468Y-46127411D01*
X56390902Y-45956810D01*
X56390902Y-45781489D01*
X56350468Y-45610888D01*
X56271780Y-45454207D01*
X56206581Y-45374171D01*
X56206565Y-45374153D01*
X56171231Y-45338819D01*
X56171230Y-45338819D01*
X55305026Y-46205026D01*
X54438820Y-47071230D01*
X52014739Y-47071230D01*
X52287067Y-46480506D01*
X52287794Y-46478964D01*
X52328173Y-46395115D01*
X52329292Y-46392856D01*
X52478670Y-46099687D01*
X53865596Y-46099687D01*
X53865596Y-46275008D01*
X53906029Y-46445609D01*
X53984717Y-46602290D01*
X54049916Y-46682326D01*
X54049932Y-46682344D01*
X54085266Y-46717678D01*
X54085267Y-46717678D01*
X54774695Y-46028248D01*
X54244365Y-45497918D01*
X54049926Y-45692358D01*
X53984714Y-45772411D01*
X53906029Y-45929086D01*
X53865596Y-46099687D01*
X52478670Y-46099687D01*
X52715410Y-45635059D01*
X52716292Y-45633365D01*
X52762962Y-45545785D01*
X52764063Y-45543771D01*
X52987742Y-45144364D01*
X54597918Y-45144364D01*
X54597918Y-45144365D01*
X55128248Y-45674695D01*
X55817677Y-44985266D01*
X55782340Y-44949929D01*
X55782333Y-44949923D01*
X55702284Y-44884714D01*
X55545609Y-44806029D01*
X55375008Y-44765596D01*
X55199688Y-44765596D01*
X55029086Y-44806029D01*
X54872405Y-44884717D01*
X54792364Y-44949920D01*
X54792345Y-44949937D01*
X54597918Y-45144364D01*
X52987742Y-45144364D01*
X53177983Y-44804664D01*
X53179047Y-44802809D01*
X53229947Y-44716015D01*
X53231075Y-44714134D01*
X53673979Y-43991379D01*
X53675279Y-43989307D01*
X53728073Y-43907158D01*
X53729129Y-43905546D01*
X54202709Y-43196785D01*
X54204272Y-43194504D01*
X54254625Y-43122766D01*
X54255817Y-43121067D01*
X54256879Y-43119579D01*
X54687261Y-42527209D01*
X56047100Y-42527209D01*
X56047100Y-42672791D01*
X56084779Y-42813411D01*
X56084780Y-42813412D01*
X56084780Y-42813413D01*
X56157567Y-42939485D01*
X56157569Y-42939488D01*
X56157570Y-42939489D01*
X56260511Y-43042430D01*
X56260512Y-43042431D01*
X56260514Y-43042432D01*
X56318117Y-43075689D01*
X56386589Y-43115221D01*
X56527209Y-43152900D01*
X56616604Y-43152900D01*
X56683643Y-43172585D01*
X56704285Y-43189219D01*
X56900090Y-43385024D01*
X56933575Y-43446347D01*
X56928591Y-43516039D01*
X56900091Y-43560386D01*
X56691509Y-43768970D01*
X56680778Y-43779701D01*
X56655512Y-43817512D01*
X56643646Y-43877171D01*
X56655512Y-43936829D01*
X56655512Y-43936830D01*
X56655513Y-43936831D01*
X56680774Y-43974638D01*
X56680775Y-43974639D01*
X56680776Y-43974640D01*
X57025360Y-44319222D01*
X57063171Y-44344488D01*
X57063172Y-44344488D01*
X57073326Y-44351273D01*
X57071576Y-44353891D01*
X57099041Y-44373782D01*
X57114108Y-44391311D01*
X57115130Y-44396447D01*
X57140394Y-44434258D01*
X57216073Y-44509937D01*
X57219118Y-44513479D01*
X57231655Y-44541225D01*
X57246248Y-44567949D01*
X57245904Y-44572757D01*
X57247889Y-44577150D01*
X57243436Y-44607267D01*
X57241264Y-44637641D01*
X57237878Y-44645816D01*
X57234099Y-44654091D01*
X57234097Y-44654096D01*
X57213637Y-44796410D01*
X57234097Y-44938723D01*
X57234098Y-44938728D01*
X57293824Y-45069507D01*
X57331404Y-45116142D01*
X57365225Y-45149963D01*
X59149963Y-43365225D01*
X59116142Y-43331404D01*
X59069507Y-43293824D01*
X58938728Y-43234098D01*
X58938723Y-43234097D01*
X58796410Y-43213637D01*
X58654096Y-43234097D01*
X58654087Y-43234100D01*
X58645812Y-43237879D01*
X58628409Y-43240380D01*
X58612443Y-43247749D01*
X58594541Y-43245247D01*
X58576653Y-43247819D01*
X58560536Y-43240496D01*
X58543245Y-43238081D01*
X58520294Y-43222213D01*
X58513478Y-43219117D01*
X58509928Y-43216065D01*
X58434258Y-43140396D01*
X58396447Y-43115130D01*
X58391312Y-43114108D01*
X58373783Y-43099041D01*
X58365123Y-43085683D01*
X58352730Y-43075689D01*
X58351396Y-43073244D01*
X58351274Y-43073326D01*
X58319225Y-43025361D01*
X58319224Y-43025360D01*
X58270557Y-42976693D01*
X57974640Y-42680778D01*
X57974637Y-42680776D01*
X57962094Y-42672394D01*
X57936829Y-42655512D01*
X57877171Y-42643646D01*
X57817512Y-42655512D01*
X57817511Y-42655512D01*
X57817509Y-42655513D01*
X57779702Y-42680774D01*
X57779695Y-42680780D01*
X57560385Y-42900090D01*
X57499062Y-42933575D01*
X57429370Y-42928591D01*
X57385023Y-42900090D01*
X57304498Y-42819565D01*
X57189219Y-42704285D01*
X57155734Y-42642962D01*
X57152900Y-42616604D01*
X57152900Y-42527211D01*
X57152900Y-42527209D01*
X57115221Y-42386589D01*
X57061670Y-42293836D01*
X57042432Y-42260514D01*
X57042428Y-42260509D01*
X56939490Y-42157571D01*
X56939485Y-42157567D01*
X56813413Y-42084780D01*
X56813412Y-42084779D01*
X56813411Y-42084779D01*
X56672791Y-42047100D01*
X56527209Y-42047100D01*
X56386589Y-42084779D01*
X56386587Y-42084780D01*
X56386586Y-42084780D01*
X56260514Y-42157567D01*
X56260509Y-42157571D01*
X56157571Y-42260509D01*
X56157567Y-42260514D01*
X56084780Y-42386586D01*
X56084780Y-42386587D01*
X56084779Y-42386589D01*
X56047100Y-42527209D01*
X54687261Y-42527209D01*
X54763325Y-42422516D01*
X54765009Y-42420257D01*
X54811676Y-42359225D01*
X54812484Y-42358184D01*
X55354889Y-41670147D01*
X55356746Y-41667853D01*
X55393237Y-41623962D01*
X55394132Y-41622901D01*
X55976449Y-40941095D01*
X55978575Y-40938675D01*
X55997963Y-40917202D01*
X55998689Y-40916407D01*
X56625034Y-40238830D01*
X56628360Y-40235372D01*
X57294919Y-39568813D01*
X57298377Y-39565487D01*
X57990609Y-38925595D01*
X57994168Y-38922432D01*
X58711019Y-38310182D01*
X58714678Y-38307180D01*
X59454982Y-37723571D01*
X59458854Y-37720641D01*
X59465275Y-37715976D01*
X60221437Y-37166591D01*
X60225388Y-37163837D01*
X61009171Y-36640131D01*
X61013245Y-36637523D01*
X61462580Y-36362171D01*
X61530024Y-36343927D01*
X61596626Y-36365043D01*
G37*
%TD.AperFunction*%
%TA.AperFunction,Conductor*%
G36*
X53938103Y-67620468D02*
G01*
X53944581Y-67626500D01*
X53960511Y-67642430D01*
X53960512Y-67642431D01*
X53960514Y-67642432D01*
X54004926Y-67668073D01*
X54086589Y-67715221D01*
X54227209Y-67752900D01*
X54305689Y-67752900D01*
X54372728Y-67772585D01*
X54418483Y-67825389D01*
X54428427Y-67894547D01*
X54423620Y-67915219D01*
X54412696Y-67948837D01*
X54412696Y-68076466D01*
X54452136Y-68197848D01*
X54499583Y-68263151D01*
X54508282Y-68275124D01*
X55224876Y-68991718D01*
X55224882Y-68991722D01*
X55302152Y-69047863D01*
X55302153Y-69047863D01*
X55302155Y-69047865D01*
X55423535Y-69087304D01*
X55423536Y-69087304D01*
X55551160Y-69087304D01*
X55551161Y-69087304D01*
X55551162Y-69087303D01*
X55551165Y-69087303D01*
X55585470Y-69076156D01*
X55635661Y-69059847D01*
X55705501Y-69057851D01*
X55761661Y-69090097D01*
X56730146Y-70058582D01*
X56763631Y-70119905D01*
X56764083Y-70170452D01*
X56763869Y-70171528D01*
X56752003Y-70231186D01*
X56763869Y-70290845D01*
X56763869Y-70290846D01*
X56763870Y-70290847D01*
X56789131Y-70328654D01*
X56789137Y-70328661D01*
X57748019Y-71287540D01*
X57888058Y-71427579D01*
X57925869Y-71452845D01*
X57985528Y-71464711D01*
X58045186Y-71452845D01*
X58082997Y-71427581D01*
X58427579Y-71082997D01*
X58452845Y-71045186D01*
X58452845Y-71045184D01*
X58459630Y-71035031D01*
X58463270Y-71037463D01*
X58492196Y-71001531D01*
X58494736Y-71000144D01*
X58494649Y-71000013D01*
X58528173Y-70977612D01*
X58542615Y-70967963D01*
X58887197Y-70623379D01*
X58912463Y-70585568D01*
X58912462Y-70585568D01*
X58919250Y-70575412D01*
X58922892Y-70577845D01*
X58951779Y-70541935D01*
X58954359Y-70540526D01*
X58954270Y-70540392D01*
X58987794Y-70517991D01*
X59002236Y-70508342D01*
X59346818Y-70163758D01*
X59372084Y-70125947D01*
X59372084Y-70125945D01*
X59378869Y-70115792D01*
X59382509Y-70118224D01*
X59411435Y-70082292D01*
X59413975Y-70080905D01*
X59413888Y-70080774D01*
X59447412Y-70058373D01*
X59461854Y-70048724D01*
X59755420Y-69755155D01*
X59816741Y-69721672D01*
X59886433Y-69726656D01*
X59942367Y-69768527D01*
X59966784Y-69833991D01*
X59967100Y-69842838D01*
X59967100Y-72234437D01*
X59967100Y-72327091D01*
X60002557Y-72412691D01*
X60002558Y-72412692D01*
X60065556Y-72475690D01*
X60099041Y-72537013D01*
X60094057Y-72606705D01*
X60052185Y-72662638D01*
X60046777Y-72666465D01*
X60025586Y-72680624D01*
X60025357Y-72680778D01*
X59680777Y-73025361D01*
X59669121Y-73042805D01*
X59655512Y-73063171D01*
X59645652Y-73112747D01*
X59643646Y-73122831D01*
X59643646Y-73135041D01*
X59641423Y-73135041D01*
X59636639Y-73188501D01*
X59593775Y-73243678D01*
X59527885Y-73266922D01*
X59521249Y-73267100D01*
X58147832Y-73267100D01*
X58080793Y-73247415D01*
X58060151Y-73230781D01*
X53769219Y-68939849D01*
X53735734Y-68878526D01*
X53732900Y-68852168D01*
X53732900Y-67714181D01*
X53752585Y-67647142D01*
X53805389Y-67601387D01*
X53874547Y-67591443D01*
X53938103Y-67620468D01*
G37*
%TD.AperFunction*%
%TA.AperFunction,Conductor*%
G36*
X53938103Y-61867919D02*
G01*
X53944581Y-61873951D01*
X59930781Y-67860151D01*
X59964266Y-67921474D01*
X59967100Y-67947832D01*
X59967100Y-69370500D01*
X59947415Y-69437539D01*
X59894611Y-69483294D01*
X59825453Y-69493238D01*
X59761897Y-69464213D01*
X59755419Y-69458181D01*
X58707516Y-68410281D01*
X58707512Y-68410277D01*
X58699991Y-68405252D01*
X58669702Y-68385012D01*
X58610043Y-68373146D01*
X58550385Y-68385012D01*
X58550384Y-68385012D01*
X58550382Y-68385013D01*
X58512575Y-68410274D01*
X58512574Y-68410275D01*
X58167991Y-68754861D01*
X58167989Y-68754863D01*
X58135940Y-68802826D01*
X58132313Y-68800402D01*
X58103223Y-68836430D01*
X58100844Y-68837728D01*
X58100922Y-68837844D01*
X58052955Y-68869894D01*
X57761858Y-69160994D01*
X57708374Y-69214478D01*
X57683108Y-69252289D01*
X57683107Y-69252290D01*
X57676323Y-69262444D01*
X57672704Y-69260025D01*
X57643515Y-69296111D01*
X57641229Y-69297358D01*
X57641301Y-69297465D01*
X57593336Y-69329513D01*
X57593329Y-69329519D01*
X57369821Y-69553027D01*
X57308498Y-69586512D01*
X57238806Y-69581528D01*
X57194459Y-69553027D01*
X56246595Y-68605163D01*
X56213110Y-68543840D01*
X56216346Y-68479162D01*
X56243801Y-68394667D01*
X56243802Y-68394661D01*
X56243802Y-68267038D01*
X56243801Y-68267035D01*
X56225850Y-68211788D01*
X56204363Y-68145657D01*
X56204361Y-68145655D01*
X56204361Y-68145653D01*
X56145863Y-68065139D01*
X56122382Y-67999333D01*
X56138207Y-67931279D01*
X56188312Y-67882584D01*
X56256790Y-67868708D01*
X56321899Y-67894056D01*
X56333861Y-67904572D01*
X56335857Y-67906568D01*
X56335864Y-67906574D01*
X56415913Y-67971783D01*
X56572588Y-68050468D01*
X56743190Y-68090902D01*
X56918510Y-68090902D01*
X57089111Y-68050468D01*
X57245789Y-67971782D01*
X57325841Y-67906571D01*
X57325846Y-67906566D01*
X57361180Y-67871231D01*
X57361180Y-67871230D01*
X56494974Y-67005026D01*
X56318196Y-66828248D01*
X57025304Y-66828248D01*
X57714732Y-67517677D01*
X57714733Y-67517677D01*
X57750066Y-67482344D01*
X57750081Y-67482327D01*
X57815284Y-67402287D01*
X57893970Y-67245609D01*
X57934404Y-67075008D01*
X57934404Y-66899687D01*
X57893970Y-66729086D01*
X57815282Y-66572405D01*
X57750083Y-66492369D01*
X57750067Y-66492351D01*
X57555634Y-66297918D01*
X57025304Y-66828248D01*
X56318196Y-66828248D01*
X55628768Y-66138820D01*
X55628767Y-66138820D01*
X55593436Y-66174152D01*
X55593419Y-66174171D01*
X55528217Y-66254210D01*
X55449531Y-66410888D01*
X55409098Y-66581489D01*
X55409098Y-66756810D01*
X55449531Y-66927411D01*
X55528219Y-67084092D01*
X55593418Y-67164128D01*
X55593434Y-67164146D01*
X55595424Y-67166136D01*
X55628909Y-67227459D01*
X55623925Y-67297151D01*
X55582053Y-67353084D01*
X55516589Y-67377501D01*
X55448316Y-67362649D01*
X55434857Y-67354135D01*
X55431624Y-67351786D01*
X55431622Y-67351784D01*
X55354343Y-67295637D01*
X55284031Y-67272791D01*
X55232964Y-67256198D01*
X55232963Y-67256198D01*
X55105337Y-67256198D01*
X55105333Y-67256198D01*
X55015218Y-67285479D01*
X54945377Y-67287474D01*
X54885544Y-67251394D01*
X54854716Y-67188693D01*
X54852900Y-67167548D01*
X54852900Y-67127211D01*
X54852900Y-67127209D01*
X54815221Y-66986589D01*
X54742430Y-66860511D01*
X54639489Y-66757570D01*
X54639488Y-66757569D01*
X54639485Y-66757567D01*
X54513413Y-66684780D01*
X54513412Y-66684779D01*
X54513411Y-66684779D01*
X54372791Y-66647100D01*
X54227209Y-66647100D01*
X54086589Y-66684779D01*
X54086587Y-66684780D01*
X54086586Y-66684780D01*
X53960514Y-66757567D01*
X53960509Y-66757571D01*
X53944581Y-66773500D01*
X53883258Y-66806985D01*
X53813566Y-66802001D01*
X53757633Y-66760129D01*
X53733216Y-66694665D01*
X53732900Y-66685819D01*
X53732900Y-65785265D01*
X55982321Y-65785265D01*
X56671751Y-66474695D01*
X56671752Y-66474695D01*
X57202081Y-65944365D01*
X57007635Y-65749921D01*
X56927588Y-65684714D01*
X56770913Y-65606029D01*
X56600312Y-65565596D01*
X56424992Y-65565596D01*
X56254390Y-65606029D01*
X56097709Y-65684717D01*
X56017673Y-65749916D01*
X56017654Y-65749933D01*
X55982321Y-65785265D01*
X53732900Y-65785265D01*
X53732900Y-61961632D01*
X53752585Y-61894593D01*
X53805389Y-61848838D01*
X53874547Y-61838894D01*
X53938103Y-61867919D01*
G37*
%TD.AperFunction*%
%TA.AperFunction,Conductor*%
G36*
X94414464Y-55759692D02*
G01*
X94458829Y-55788199D01*
X95230781Y-56560151D01*
X95264266Y-56621474D01*
X95267100Y-56647832D01*
X95267100Y-65731024D01*
X95247415Y-65798063D01*
X95230781Y-65818705D01*
X92544581Y-68504905D01*
X92483258Y-68538390D01*
X92413566Y-68533406D01*
X92357633Y-68491534D01*
X92333216Y-68426070D01*
X92332900Y-68417224D01*
X92332900Y-67053674D01*
X92332900Y-67053673D01*
X92297443Y-66968073D01*
X92231927Y-66902557D01*
X90569219Y-65239849D01*
X90535734Y-65178526D01*
X90532900Y-65152168D01*
X90532900Y-65111985D01*
X90552585Y-65044946D01*
X90605389Y-64999191D01*
X90674547Y-64989247D01*
X90738103Y-65018272D01*
X90755276Y-65036499D01*
X90757569Y-65039487D01*
X90757570Y-65039489D01*
X90860511Y-65142430D01*
X90860512Y-65142431D01*
X90860514Y-65142432D01*
X90923031Y-65178526D01*
X90986589Y-65215221D01*
X91127209Y-65252900D01*
X91127211Y-65252900D01*
X91272788Y-65252900D01*
X91272791Y-65252900D01*
X91413411Y-65215221D01*
X91539489Y-65142430D01*
X91602700Y-65079219D01*
X91664023Y-65045734D01*
X91690381Y-65042900D01*
X93045142Y-65042900D01*
X93045143Y-65042900D01*
X93045144Y-65042900D01*
X93132355Y-65019532D01*
X93177498Y-64993468D01*
X93210545Y-64974389D01*
X94224389Y-63960545D01*
X94252437Y-63911964D01*
X94269532Y-63882355D01*
X94292900Y-63795144D01*
X94292900Y-62755837D01*
X94312585Y-62688798D01*
X94360604Y-62645353D01*
X94439771Y-62605016D01*
X94530016Y-62514771D01*
X94587957Y-62401055D01*
X94587958Y-62401050D01*
X94602900Y-62306713D01*
X94602900Y-61293286D01*
X94587958Y-61198949D01*
X94587957Y-61198947D01*
X94587957Y-61198945D01*
X94530016Y-61085229D01*
X94530014Y-61085227D01*
X94530011Y-61085223D01*
X94439776Y-60994988D01*
X94439773Y-60994986D01*
X94439771Y-60994984D01*
X94360603Y-60954646D01*
X94309807Y-60906671D01*
X94292898Y-60844161D01*
X94292898Y-59903763D01*
X94312583Y-59836724D01*
X94313798Y-59834869D01*
X94322626Y-59821658D01*
X94331498Y-59777057D01*
X94331497Y-58222944D01*
X94322626Y-58178342D01*
X94322624Y-58178340D01*
X94322624Y-58178338D01*
X94288832Y-58127766D01*
X94238257Y-58093973D01*
X94238256Y-58093972D01*
X94238255Y-58093971D01*
X94238254Y-58093971D01*
X94238252Y-58093970D01*
X94193657Y-58085100D01*
X94091314Y-58085100D01*
X94024275Y-58065415D01*
X93978520Y-58012611D01*
X93975132Y-58004433D01*
X93971954Y-57995913D01*
X93971950Y-57995906D01*
X93885790Y-57880812D01*
X93885787Y-57880809D01*
X93770693Y-57794649D01*
X93770686Y-57794645D01*
X93635979Y-57744403D01*
X93635972Y-57744401D01*
X93576444Y-57738000D01*
X93528600Y-57738000D01*
X93528600Y-60262000D01*
X93547515Y-60280915D01*
X93550137Y-60281685D01*
X93562158Y-60295558D01*
X93564919Y-60298319D01*
X93564721Y-60298516D01*
X93595892Y-60334489D01*
X93607098Y-60386000D01*
X93607098Y-60844163D01*
X93587413Y-60911202D01*
X93539393Y-60954648D01*
X93460228Y-60994984D01*
X93460223Y-60994988D01*
X93369988Y-61085223D01*
X93369985Y-61085227D01*
X93312041Y-61198949D01*
X93296472Y-61297251D01*
X93266543Y-61360386D01*
X93207231Y-61397317D01*
X93137369Y-61396319D01*
X93079136Y-61357709D01*
X93051022Y-61293745D01*
X93049999Y-61277853D01*
X93049999Y-61275028D01*
X93049998Y-61275012D01*
X93039505Y-61172302D01*
X92984358Y-61005880D01*
X92984356Y-61005875D01*
X92892315Y-60856654D01*
X92768345Y-60732684D01*
X92619124Y-60640643D01*
X92619119Y-60640641D01*
X92452697Y-60585494D01*
X92452690Y-60585493D01*
X92349986Y-60575000D01*
X92300000Y-60575000D01*
X92300000Y-63024999D01*
X92349972Y-63024999D01*
X92349986Y-63024998D01*
X92452697Y-63014505D01*
X92619119Y-62959358D01*
X92619124Y-62959356D01*
X92768345Y-62867315D01*
X92892315Y-62743345D01*
X92984356Y-62594124D01*
X92984358Y-62594119D01*
X93039505Y-62427697D01*
X93039506Y-62427690D01*
X93049999Y-62324986D01*
X93049999Y-62322173D01*
X93069672Y-62255130D01*
X93122469Y-62209366D01*
X93191626Y-62199411D01*
X93255186Y-62228425D01*
X93292970Y-62287197D01*
X93296472Y-62302753D01*
X93312041Y-62401050D01*
X93312042Y-62401053D01*
X93312043Y-62401055D01*
X93369984Y-62514771D01*
X93369985Y-62514772D01*
X93369988Y-62514776D01*
X93460223Y-62605011D01*
X93460226Y-62605013D01*
X93460229Y-62605016D01*
X93539395Y-62645352D01*
X93590191Y-62693326D01*
X93607100Y-62755837D01*
X93607100Y-63556604D01*
X93587415Y-63623643D01*
X93570781Y-63644285D01*
X92894285Y-64320781D01*
X92832962Y-64354266D01*
X92806604Y-64357100D01*
X91690381Y-64357100D01*
X91623342Y-64337415D01*
X91602700Y-64320781D01*
X91539490Y-64257571D01*
X91539485Y-64257567D01*
X91413413Y-64184780D01*
X91413412Y-64184779D01*
X91413411Y-64184779D01*
X91272791Y-64147100D01*
X91127209Y-64147100D01*
X90986589Y-64184779D01*
X90986587Y-64184780D01*
X90986586Y-64184780D01*
X90860514Y-64257567D01*
X90860509Y-64257571D01*
X90757568Y-64360512D01*
X90755272Y-64363505D01*
X90752693Y-64365387D01*
X90751823Y-64366258D01*
X90751687Y-64366122D01*
X90698842Y-64404705D01*
X90629096Y-64408857D01*
X90568177Y-64374641D01*
X90535427Y-64312922D01*
X90532900Y-64288014D01*
X90532900Y-62324986D01*
X91050001Y-62324986D01*
X91060494Y-62427697D01*
X91115641Y-62594119D01*
X91115643Y-62594124D01*
X91207684Y-62743345D01*
X91331654Y-62867315D01*
X91480875Y-62959356D01*
X91480880Y-62959358D01*
X91647302Y-63014505D01*
X91647309Y-63014506D01*
X91750019Y-63024999D01*
X91799999Y-63024998D01*
X91800000Y-63024998D01*
X91800000Y-62050000D01*
X91050001Y-62050000D01*
X91050001Y-62324986D01*
X90532900Y-62324986D01*
X90532900Y-61275013D01*
X91050000Y-61275013D01*
X91050000Y-61550000D01*
X91800000Y-61550000D01*
X91800000Y-60575000D01*
X91799999Y-60574999D01*
X91750029Y-60575000D01*
X91750011Y-60575001D01*
X91647302Y-60585494D01*
X91480880Y-60640641D01*
X91480875Y-60640643D01*
X91331654Y-60732684D01*
X91207684Y-60856654D01*
X91115643Y-61005875D01*
X91115641Y-61005880D01*
X91060494Y-61172302D01*
X91060493Y-61172309D01*
X91050000Y-61275013D01*
X90532900Y-61275013D01*
X90532900Y-59411985D01*
X90552585Y-59344946D01*
X90605389Y-59299191D01*
X90674547Y-59289247D01*
X90738103Y-59318272D01*
X90755276Y-59336499D01*
X90757569Y-59339487D01*
X90757570Y-59339489D01*
X90860511Y-59442430D01*
X90986589Y-59515221D01*
X91127209Y-59552900D01*
X91127211Y-59552900D01*
X91272788Y-59552900D01*
X91272791Y-59552900D01*
X91413411Y-59515221D01*
X91432499Y-59504200D01*
X91500397Y-59487726D01*
X91566424Y-59510577D01*
X91609616Y-59565497D01*
X91618500Y-59611585D01*
X91618500Y-59777054D01*
X91627372Y-59821658D01*
X91627373Y-59821661D01*
X91657305Y-59866456D01*
X91661166Y-59872234D01*
X91711742Y-59906028D01*
X91711743Y-59906028D01*
X91711745Y-59906029D01*
X91734042Y-59910464D01*
X91756343Y-59914900D01*
X91858685Y-59914899D01*
X91925722Y-59934583D01*
X91971478Y-59987386D01*
X91974864Y-59995562D01*
X91978044Y-60004088D01*
X91978046Y-60004092D01*
X92064207Y-60119187D01*
X92064210Y-60119190D01*
X92179304Y-60205350D01*
X92179311Y-60205354D01*
X92314018Y-60255596D01*
X92314025Y-60255598D01*
X92373553Y-60261999D01*
X92373570Y-60262000D01*
X92421398Y-60262000D01*
X92421398Y-57778096D01*
X92878598Y-57778096D01*
X92878598Y-60262000D01*
X92926419Y-60262000D01*
X92926427Y-60261999D01*
X92961740Y-60258202D01*
X92988258Y-60258202D01*
X93023570Y-60261999D01*
X93023579Y-60262000D01*
X93071400Y-60262000D01*
X93071400Y-57738000D01*
X93023564Y-57738000D01*
X93000169Y-57740514D01*
X92878598Y-57778096D01*
X92421398Y-57778096D01*
X92421398Y-57738000D01*
X92373553Y-57738000D01*
X92314025Y-57744401D01*
X92314018Y-57744403D01*
X92179311Y-57794645D01*
X92179304Y-57794649D01*
X92064210Y-57880809D01*
X92064207Y-57880812D01*
X91978047Y-57995906D01*
X91974864Y-58004440D01*
X91932989Y-58060371D01*
X91867524Y-58084785D01*
X91858685Y-58085100D01*
X91756345Y-58085100D01*
X91711741Y-58093972D01*
X91711738Y-58093973D01*
X91661166Y-58127765D01*
X91627371Y-58178343D01*
X91627370Y-58178345D01*
X91618500Y-58222940D01*
X91618500Y-58388412D01*
X91598815Y-58455451D01*
X91546011Y-58501206D01*
X91476853Y-58511150D01*
X91432503Y-58495801D01*
X91413413Y-58484780D01*
X91413412Y-58484779D01*
X91413411Y-58484779D01*
X91272791Y-58447100D01*
X91127209Y-58447100D01*
X91127204Y-58447100D01*
X91103015Y-58453582D01*
X91033166Y-58451918D01*
X90975304Y-58412755D01*
X90947801Y-58348526D01*
X90959388Y-58279624D01*
X90983240Y-58246129D01*
X93367552Y-55861818D01*
X93390210Y-55849445D01*
X93410723Y-55833763D01*
X93423159Y-55831453D01*
X93428875Y-55828333D01*
X93445133Y-55825911D01*
X93450174Y-55825499D01*
X93543656Y-55825499D01*
X93588258Y-55816628D01*
X93592373Y-55813877D01*
X93614899Y-55812037D01*
X93630776Y-55815322D01*
X93646896Y-55813574D01*
X93649731Y-55814406D01*
X93649764Y-55814245D01*
X93661738Y-55816626D01*
X93661740Y-55816628D01*
X93706341Y-55825500D01*
X94193654Y-55825499D01*
X94238256Y-55816628D01*
X94248434Y-55809827D01*
X94298987Y-55776049D01*
X94300787Y-55778743D01*
X94344771Y-55754718D01*
X94414464Y-55759692D01*
G37*
%TD.AperFunction*%
%TA.AperFunction,Conductor*%
G36*
X89283958Y-40617336D02*
G01*
X89304600Y-40633970D01*
X94730781Y-46060151D01*
X94764266Y-46121474D01*
X94767100Y-46147832D01*
X94767100Y-46495339D01*
X94747415Y-46562378D01*
X94694611Y-46608133D01*
X94625453Y-46618077D01*
X94581100Y-46602726D01*
X94463413Y-46534780D01*
X94463412Y-46534779D01*
X94463411Y-46534779D01*
X94322791Y-46497100D01*
X94322789Y-46497100D01*
X94233396Y-46497100D01*
X94203955Y-46488455D01*
X94173969Y-46481932D01*
X94168953Y-46478177D01*
X94166357Y-46477415D01*
X94145715Y-46460781D01*
X94003953Y-46319019D01*
X93970468Y-46257696D01*
X93973704Y-46193018D01*
X93987303Y-46151166D01*
X93987304Y-46151161D01*
X93987304Y-46023536D01*
X93987303Y-46023533D01*
X93982613Y-46009098D01*
X93947865Y-45902155D01*
X93947863Y-45902153D01*
X93947863Y-45902151D01*
X93897594Y-45832964D01*
X93891718Y-45824876D01*
X93175124Y-45108282D01*
X93162809Y-45099334D01*
X93097847Y-45052136D01*
X93097848Y-45052136D01*
X92976466Y-45012696D01*
X92976465Y-45012696D01*
X92927846Y-45012696D01*
X92860807Y-44993011D01*
X92840165Y-44976377D01*
X92183010Y-44319222D01*
X91516773Y-43652984D01*
X91483288Y-43591661D01*
X91482848Y-43589551D01*
X91479737Y-43573906D01*
X91479736Y-43573904D01*
X91479736Y-43573903D01*
X91454474Y-43536096D01*
X91454468Y-43536089D01*
X90355551Y-42437175D01*
X90355547Y-42437171D01*
X90348026Y-42432146D01*
X90317737Y-42411906D01*
X90258078Y-42400040D01*
X90198420Y-42411906D01*
X90198419Y-42411906D01*
X90198417Y-42411907D01*
X90160610Y-42437168D01*
X90160603Y-42437174D01*
X90088243Y-42509535D01*
X90026920Y-42543020D01*
X89957228Y-42538036D01*
X89949051Y-42534649D01*
X89940776Y-42530870D01*
X89940774Y-42530869D01*
X89798461Y-42510409D01*
X89656147Y-42530869D01*
X89656142Y-42530870D01*
X89525363Y-42590596D01*
X89478729Y-42628176D01*
X89478723Y-42628181D01*
X89444907Y-42661996D01*
X90337277Y-43554366D01*
X91229644Y-44446735D01*
X91256393Y-44446735D01*
X91258792Y-44445425D01*
X91277110Y-44446735D01*
X91281006Y-44446735D01*
X91281006Y-44447013D01*
X91328484Y-44450409D01*
X91372831Y-44478910D01*
X92239519Y-45345598D01*
X92273004Y-45406921D01*
X92268020Y-45476613D01*
X92252156Y-45506164D01*
X92195638Y-45583954D01*
X92156198Y-45705335D01*
X92156198Y-45832964D01*
X92161642Y-45849719D01*
X92195637Y-45954343D01*
X92245908Y-46023535D01*
X92254137Y-46034860D01*
X92277617Y-46100666D01*
X92261792Y-46168720D01*
X92211686Y-46217415D01*
X92143209Y-46231291D01*
X92078099Y-46205942D01*
X92066138Y-46195427D01*
X92064142Y-46193431D01*
X92064135Y-46193425D01*
X91984086Y-46128216D01*
X91827411Y-46049531D01*
X91656810Y-46009098D01*
X91481490Y-46009098D01*
X91310888Y-46049531D01*
X91154207Y-46128219D01*
X91074171Y-46193418D01*
X91074152Y-46193435D01*
X91038819Y-46228767D01*
X91905026Y-47094974D01*
X92771230Y-47961179D01*
X92771231Y-47961179D01*
X92806564Y-47925846D01*
X92806579Y-47925829D01*
X92871782Y-47845789D01*
X92950468Y-47689111D01*
X92990902Y-47518510D01*
X92990902Y-47343189D01*
X92950468Y-47172588D01*
X92871780Y-47015907D01*
X92806581Y-46935871D01*
X92806565Y-46935853D01*
X92804575Y-46933863D01*
X92771090Y-46872540D01*
X92776074Y-46802848D01*
X92817946Y-46746915D01*
X92883410Y-46722498D01*
X92951683Y-46737350D01*
X92965142Y-46745865D01*
X93045654Y-46804361D01*
X93045655Y-46804361D01*
X93045657Y-46804363D01*
X93167037Y-46843802D01*
X93167038Y-46843802D01*
X93294662Y-46843802D01*
X93294663Y-46843802D01*
X93416043Y-46804363D01*
X93416044Y-46804362D01*
X93421806Y-46802490D01*
X93437019Y-46802055D01*
X93451279Y-46796737D01*
X93471234Y-46801078D01*
X93491647Y-46800495D01*
X93505733Y-46808582D01*
X93519552Y-46811589D01*
X93547806Y-46832740D01*
X93660781Y-46945715D01*
X93694266Y-47007038D01*
X93697100Y-47033396D01*
X93697100Y-47122791D01*
X93734779Y-47263411D01*
X93734780Y-47263412D01*
X93734780Y-47263413D01*
X93807567Y-47389485D01*
X93807569Y-47389488D01*
X93807570Y-47389489D01*
X93910511Y-47492430D01*
X94036589Y-47565221D01*
X94177209Y-47602900D01*
X94177211Y-47602900D01*
X94322788Y-47602900D01*
X94322791Y-47602900D01*
X94463411Y-47565221D01*
X94581101Y-47497272D01*
X94649000Y-47480800D01*
X94715027Y-47503652D01*
X94758218Y-47558574D01*
X94767100Y-47604660D01*
X94767100Y-53712765D01*
X94747415Y-53779804D01*
X94730781Y-53800446D01*
X94477394Y-54053832D01*
X94416071Y-54087317D01*
X94346379Y-54082333D01*
X94298201Y-54046267D01*
X94297468Y-54047001D01*
X94292363Y-54041896D01*
X94290446Y-54040461D01*
X94289278Y-54038811D01*
X94288835Y-54038368D01*
X94250287Y-54012611D01*
X94238256Y-54004572D01*
X94238255Y-54004571D01*
X94238254Y-54004571D01*
X94238252Y-54004570D01*
X94193657Y-53995700D01*
X93706344Y-53995700D01*
X93693352Y-53998284D01*
X93681088Y-54000723D01*
X93611498Y-53994495D01*
X93556321Y-53951631D01*
X93533078Y-53885741D01*
X93532900Y-53879106D01*
X93532900Y-52695612D01*
X93532898Y-52695607D01*
X93497446Y-52610016D01*
X93497444Y-52610011D01*
X90760958Y-49873526D01*
X89043065Y-48155633D01*
X91197918Y-48155633D01*
X91392364Y-48350078D01*
X91472411Y-48415285D01*
X91629086Y-48493970D01*
X91799688Y-48534404D01*
X91975008Y-48534404D01*
X92145609Y-48493970D01*
X92302287Y-48415284D01*
X92382339Y-48350073D01*
X92382344Y-48350068D01*
X92417678Y-48314733D01*
X92417678Y-48314732D01*
X91728248Y-47625304D01*
X91728247Y-47625304D01*
X91197918Y-48155633D01*
X89043065Y-48155633D01*
X88069219Y-47181787D01*
X88054515Y-47154859D01*
X88037923Y-47129041D01*
X88037031Y-47122840D01*
X88035734Y-47120464D01*
X88032900Y-47094106D01*
X88032900Y-47024991D01*
X90465596Y-47024991D01*
X90465596Y-47200312D01*
X90506029Y-47370913D01*
X90584717Y-47527594D01*
X90649916Y-47607630D01*
X90649932Y-47607648D01*
X90844365Y-47802081D01*
X91374695Y-47271751D01*
X90685266Y-46582322D01*
X90685265Y-46582322D01*
X90649934Y-46617654D01*
X90649917Y-46617673D01*
X90584715Y-46697712D01*
X90506029Y-46854390D01*
X90465596Y-47024991D01*
X88032900Y-47024991D01*
X88032900Y-45312091D01*
X88902840Y-45312091D01*
X89313832Y-45723083D01*
X89360467Y-45760663D01*
X89491246Y-45820389D01*
X89491251Y-45820390D01*
X89633565Y-45840850D01*
X89775878Y-45820390D01*
X89775883Y-45820389D01*
X89906662Y-45760663D01*
X89953303Y-45723078D01*
X89953304Y-45723076D01*
X89987118Y-45689262D01*
X89987118Y-45689261D01*
X89256393Y-44958538D01*
X88902840Y-45312091D01*
X88032900Y-45312091D01*
X88032900Y-44741513D01*
X88052585Y-44674474D01*
X88105389Y-44628719D01*
X88174547Y-44618775D01*
X88238103Y-44647800D01*
X88244581Y-44653832D01*
X88579551Y-44988802D01*
X88933104Y-44635249D01*
X88933104Y-44635248D01*
X89579683Y-44635248D01*
X90310406Y-45365973D01*
X90310408Y-45365973D01*
X90344220Y-45332161D01*
X90366511Y-45304499D01*
X90385261Y-45285749D01*
X90412923Y-45263458D01*
X90446735Y-45229645D01*
X90446735Y-45229644D01*
X89716010Y-44498921D01*
X89579683Y-44635248D01*
X88933104Y-44635248D01*
X88202380Y-43904524D01*
X88156900Y-43904524D01*
X88089861Y-43884839D01*
X88044106Y-43832035D01*
X88032900Y-43780524D01*
X88032900Y-43581234D01*
X88525669Y-43581234D01*
X89256394Y-44311959D01*
X89392721Y-44175632D01*
X89392721Y-44175631D01*
X90039300Y-44175631D01*
X90770023Y-44906356D01*
X90770024Y-44906356D01*
X90803843Y-44872537D01*
X90803851Y-44872528D01*
X90826127Y-44844883D01*
X90844883Y-44826127D01*
X90872528Y-44803851D01*
X90872537Y-44803843D01*
X90906356Y-44770024D01*
X90906356Y-44770023D01*
X90175631Y-44039300D01*
X90039300Y-44175631D01*
X89392721Y-44175631D01*
X88661997Y-43444907D01*
X88661996Y-43444907D01*
X88628185Y-43478718D01*
X88605884Y-43506389D01*
X88587151Y-43525122D01*
X88559480Y-43547423D01*
X88525669Y-43581234D01*
X88032900Y-43581234D01*
X88032900Y-43122766D01*
X88986434Y-43122766D01*
X89716011Y-43852342D01*
X89852342Y-43716011D01*
X89852342Y-43716010D01*
X89121618Y-42985286D01*
X89087802Y-43019102D01*
X89087792Y-43019113D01*
X89065508Y-43046766D01*
X89057554Y-43054719D01*
X89053924Y-43059273D01*
X88986434Y-43122766D01*
X88032900Y-43122766D01*
X88032900Y-41420681D01*
X88039747Y-41397359D01*
X88042354Y-41373193D01*
X88050362Y-41361211D01*
X88052585Y-41353642D01*
X88060373Y-41342845D01*
X88064533Y-41337685D01*
X88103211Y-41299008D01*
X88128477Y-41261197D01*
X88129218Y-41257466D01*
X88142073Y-41241526D01*
X88156635Y-41231421D01*
X88167739Y-41217604D01*
X88170373Y-41216164D01*
X88170279Y-41216024D01*
X88180432Y-41209239D01*
X88180435Y-41209239D01*
X88218246Y-41183975D01*
X88562828Y-40839391D01*
X88588094Y-40801580D01*
X88599960Y-40741922D01*
X88599959Y-40741920D01*
X88599960Y-40741919D01*
X88599960Y-40729710D01*
X88602183Y-40729710D01*
X88606967Y-40676250D01*
X88649831Y-40621073D01*
X88715721Y-40597829D01*
X88722357Y-40597651D01*
X89216919Y-40597651D01*
X89283958Y-40617336D01*
G37*
%TD.AperFunction*%
%TA.AperFunction,Conductor*%
G36*
X74445608Y-32836403D02*
G01*
X74545549Y-32838443D01*
X74547752Y-32838508D01*
X75395805Y-32871828D01*
X75398335Y-32871955D01*
X75493645Y-32877795D01*
X75495740Y-32877942D01*
X76347977Y-32945014D01*
X76350697Y-32945260D01*
X76436413Y-32954034D01*
X76438025Y-32954212D01*
X77297793Y-33055973D01*
X77300740Y-33056359D01*
X77370808Y-33066433D01*
X77372512Y-33066691D01*
X78243545Y-33204649D01*
X78246742Y-33205199D01*
X78294534Y-33214073D01*
X78295909Y-33214338D01*
X79183658Y-33390922D01*
X79186901Y-33391614D01*
X79203715Y-33395452D01*
X79204737Y-33395691D01*
X80109700Y-33612954D01*
X80114351Y-33614168D01*
X80955177Y-33851305D01*
X81021568Y-33870029D01*
X81026227Y-33871442D01*
X81922715Y-34162729D01*
X81927253Y-34164302D01*
X82811646Y-34490571D01*
X82816163Y-34492340D01*
X83687022Y-34853062D01*
X83691438Y-34854993D01*
X84039498Y-35015451D01*
X84547476Y-35249632D01*
X84551857Y-35251757D01*
X84829853Y-35393403D01*
X85391748Y-35679703D01*
X85396004Y-35681979D01*
X86218411Y-36142549D01*
X86222607Y-36145008D01*
X86389870Y-36247507D01*
X87026306Y-36637515D01*
X87030407Y-36640140D01*
X87814155Y-37163823D01*
X87818149Y-37166607D01*
X88580711Y-37720641D01*
X88584594Y-37723580D01*
X88613540Y-37746399D01*
X89324862Y-38307160D01*
X89328570Y-38310203D01*
X90045371Y-38922410D01*
X90048981Y-38925618D01*
X90719601Y-39545532D01*
X90741162Y-39565463D01*
X90744672Y-39568838D01*
X91411180Y-40235346D01*
X91414555Y-40238856D01*
X92040754Y-40916275D01*
X92041734Y-40917348D01*
X92060923Y-40938601D01*
X92063177Y-40941167D01*
X92645376Y-41622835D01*
X92646435Y-41624091D01*
X92682744Y-41667762D01*
X92684747Y-41670237D01*
X92781918Y-41793498D01*
X93154329Y-42265899D01*
X93226922Y-42357982D01*
X93228048Y-42359432D01*
X93274496Y-42420179D01*
X93276309Y-42422612D01*
X93782606Y-43119470D01*
X93783782Y-43121117D01*
X93835292Y-43194504D01*
X93836900Y-43196851D01*
X94310352Y-43905422D01*
X94311565Y-43907273D01*
X94311566Y-43907274D01*
X94364230Y-43989221D01*
X94365641Y-43991470D01*
X94808433Y-44714042D01*
X94809669Y-44716103D01*
X94860456Y-44802703D01*
X94861682Y-44804843D01*
X95275437Y-45543655D01*
X95276681Y-45545930D01*
X95323177Y-45633185D01*
X95324229Y-45635204D01*
X95342420Y-45670906D01*
X95355316Y-45739576D01*
X95329039Y-45804316D01*
X95271933Y-45844573D01*
X95202127Y-45847565D01*
X95144254Y-45814882D01*
X89496679Y-40167309D01*
X89496678Y-40167308D01*
X89411078Y-40131851D01*
X88101590Y-40131851D01*
X88034551Y-40112166D01*
X88013909Y-40095532D01*
X87463908Y-39545532D01*
X87463904Y-39545528D01*
X87455583Y-39539968D01*
X87426094Y-39520263D01*
X87366435Y-39508397D01*
X87306777Y-39520263D01*
X87306776Y-39520263D01*
X87306482Y-39520322D01*
X87236890Y-39514093D01*
X87194611Y-39486385D01*
X82466084Y-34757858D01*
X82466083Y-34757857D01*
X82380483Y-34722400D01*
X72103132Y-34722400D01*
X72036093Y-34702715D01*
X72015451Y-34686081D01*
X71131928Y-33802558D01*
X71131927Y-33802557D01*
X71046327Y-33767100D01*
X68546327Y-33767100D01*
X68453673Y-33767100D01*
X68453672Y-33767100D01*
X68368071Y-33802558D01*
X66872190Y-35298439D01*
X66872185Y-35298444D01*
X66868073Y-35302557D01*
X66802557Y-35368073D01*
X66790558Y-35397038D01*
X66778653Y-35411419D01*
X66764542Y-35420942D01*
X66753858Y-35434200D01*
X66729688Y-35444464D01*
X66720739Y-35450504D01*
X66715171Y-35450629D01*
X66707331Y-35453959D01*
X66659640Y-35463445D01*
X66659631Y-35463447D01*
X66477124Y-35539043D01*
X66477111Y-35539050D01*
X66312857Y-35648801D01*
X66173161Y-35788495D01*
X66081937Y-35925020D01*
X66063407Y-35952752D01*
X66060767Y-35959124D01*
X66016929Y-36013524D01*
X65950635Y-36035590D01*
X65946208Y-36035669D01*
X62487195Y-36035669D01*
X62483465Y-36034573D01*
X62479675Y-36035441D01*
X62450200Y-36024806D01*
X62420156Y-36015984D01*
X62417611Y-36013047D01*
X62413952Y-36011727D01*
X62394902Y-35986840D01*
X62374401Y-35963180D01*
X62373847Y-35959333D01*
X62371484Y-35956245D01*
X62368914Y-35925020D01*
X62364457Y-35894022D01*
X62366071Y-35890485D01*
X62365753Y-35886611D01*
X62380470Y-35858957D01*
X62393482Y-35830466D01*
X62397280Y-35827371D01*
X62398579Y-35824932D01*
X62426606Y-35803480D01*
X62431306Y-35800848D01*
X62643582Y-35681967D01*
X62647796Y-35679714D01*
X63487715Y-35251753D01*
X63492089Y-35249632D01*
X64348146Y-34854984D01*
X64352525Y-34853069D01*
X65223419Y-34492333D01*
X65227902Y-34490578D01*
X66112327Y-34164296D01*
X66116834Y-34162734D01*
X67013349Y-33871438D01*
X67017986Y-33870032D01*
X67925226Y-33614164D01*
X67929853Y-33612957D01*
X68834915Y-33395670D01*
X68835772Y-33395470D01*
X68852693Y-33391608D01*
X68855878Y-33390928D01*
X69743718Y-33214326D01*
X69744974Y-33214084D01*
X69792848Y-33205194D01*
X69795994Y-33204653D01*
X70667098Y-33066684D01*
X70668717Y-33066439D01*
X70738845Y-33056356D01*
X70741750Y-33055976D01*
X71601583Y-32954207D01*
X71603126Y-32954036D01*
X71688883Y-32945259D01*
X71691574Y-32945015D01*
X72543842Y-32877940D01*
X72545904Y-32877796D01*
X72641239Y-32871954D01*
X72643749Y-32871829D01*
X73491820Y-32838508D01*
X73494010Y-32838443D01*
X73593957Y-32836403D01*
X73596485Y-32836378D01*
X74443081Y-32836378D01*
X74445608Y-32836403D01*
G37*
%TD.AperFunction*%
%TA.AperFunction,Conductor*%
G36*
X69154056Y-34252585D02*
G01*
X69199811Y-34305389D01*
X69209755Y-34374547D01*
X69180730Y-34438103D01*
X69121952Y-34475877D01*
X69111208Y-34478517D01*
X68969339Y-34506736D01*
X68969327Y-34506739D01*
X68786822Y-34582334D01*
X68786809Y-34582341D01*
X68622555Y-34692092D01*
X68482859Y-34831786D01*
X68373103Y-34996045D01*
X68297504Y-35178558D01*
X68297502Y-35178566D01*
X68258963Y-35372313D01*
X68258963Y-35569876D01*
X68297501Y-35763621D01*
X68297504Y-35763633D01*
X68468769Y-36177108D01*
X68468776Y-36177121D01*
X68474831Y-36186183D01*
X68578528Y-36341377D01*
X68718218Y-36481069D01*
X68882478Y-36590826D01*
X68882479Y-36590826D01*
X68882480Y-36590827D01*
X68991976Y-36636182D01*
X69046379Y-36680023D01*
X69068444Y-36746317D01*
X69051165Y-36814017D01*
X69032204Y-36838424D01*
X65139849Y-40730781D01*
X65078526Y-40764266D01*
X65052168Y-40767100D01*
X61895610Y-40767100D01*
X61873171Y-40760511D01*
X61849883Y-40758361D01*
X61836994Y-40749888D01*
X61828571Y-40747415D01*
X61819263Y-40740809D01*
X61813289Y-40736141D01*
X61785522Y-40708374D01*
X61747711Y-40683108D01*
X61744633Y-40682495D01*
X61729527Y-40670692D01*
X61718566Y-40655401D01*
X61703931Y-40643578D01*
X61702648Y-40641225D01*
X61702535Y-40641301D01*
X61670486Y-40593336D01*
X61670480Y-40593329D01*
X61598118Y-40520967D01*
X61564633Y-40459644D01*
X61569617Y-40389952D01*
X61573007Y-40381770D01*
X61576784Y-40373499D01*
X61597244Y-40231186D01*
X61586490Y-40156386D01*
X61596434Y-40087228D01*
X61642188Y-40034424D01*
X61709228Y-40014739D01*
X61756681Y-40024178D01*
X61897698Y-40082589D01*
X62070778Y-40110518D01*
X62070783Y-40110519D01*
X62245643Y-40097779D01*
X62344550Y-40068170D01*
X62714090Y-39915101D01*
X62305342Y-38928299D01*
X62318067Y-38931709D01*
X62443137Y-38931709D01*
X62563945Y-38899339D01*
X62672259Y-38836804D01*
X62760697Y-38748366D01*
X62767282Y-38736959D01*
X63176028Y-39723759D01*
X63176029Y-39723760D01*
X63545566Y-39570692D01*
X63636446Y-39521691D01*
X63769097Y-39407053D01*
X63871738Y-39264914D01*
X63938831Y-39102936D01*
X63938832Y-39102932D01*
X63966761Y-38929853D01*
X63966762Y-38929846D01*
X63954024Y-38754995D01*
X63954022Y-38754986D01*
X63924409Y-38656070D01*
X63854673Y-38487714D01*
X63847204Y-38418245D01*
X63878479Y-38355766D01*
X63938568Y-38320113D01*
X64008393Y-38322606D01*
X64056915Y-38352580D01*
X64098509Y-38394174D01*
X64098821Y-38394486D01*
X64263081Y-38504243D01*
X64263082Y-38504243D01*
X64263083Y-38504244D01*
X64263093Y-38504248D01*
X64445598Y-38579844D01*
X64639351Y-38618384D01*
X64639354Y-38618385D01*
X64639356Y-38618385D01*
X64836911Y-38618385D01*
X64836912Y-38618384D01*
X65030668Y-38579845D01*
X65213184Y-38504245D01*
X65377445Y-38394491D01*
X65517137Y-38254800D01*
X65626894Y-38090540D01*
X65702495Y-37908024D01*
X65741036Y-37714265D01*
X65741036Y-37516711D01*
X65702496Y-37322953D01*
X65531226Y-36909467D01*
X65498503Y-36860494D01*
X65421471Y-36745206D01*
X65389415Y-36713150D01*
X65355930Y-36651827D01*
X65360914Y-36582135D01*
X65402786Y-36526202D01*
X65468250Y-36501785D01*
X65477096Y-36501469D01*
X65842505Y-36501469D01*
X65909544Y-36521154D01*
X65955299Y-36573958D01*
X65964122Y-36601278D01*
X65987803Y-36720330D01*
X65987806Y-36720342D01*
X66159071Y-37133817D01*
X66159078Y-37133830D01*
X66175826Y-37158895D01*
X66268830Y-37298086D01*
X66408520Y-37437778D01*
X66572780Y-37547535D01*
X66572781Y-37547535D01*
X66572782Y-37547536D01*
X66614128Y-37564662D01*
X66755297Y-37623136D01*
X66949050Y-37661676D01*
X66949053Y-37661677D01*
X66949055Y-37661677D01*
X67146610Y-37661677D01*
X67146611Y-37661676D01*
X67340367Y-37623137D01*
X67522883Y-37547537D01*
X67687144Y-37437783D01*
X67826836Y-37298092D01*
X67936593Y-37133832D01*
X68012194Y-36951316D01*
X68050735Y-36757557D01*
X68050735Y-36560003D01*
X68012195Y-36366245D01*
X67867113Y-36015984D01*
X67840928Y-35952766D01*
X67840927Y-35952765D01*
X67840925Y-35952759D01*
X67731170Y-35788498D01*
X67591480Y-35648806D01*
X67591474Y-35648802D01*
X67549322Y-35620636D01*
X67470781Y-35568156D01*
X67425978Y-35514545D01*
X67417271Y-35445220D01*
X67447426Y-35382193D01*
X67451973Y-35377396D01*
X68560151Y-34269219D01*
X68621474Y-34235734D01*
X68647832Y-34232900D01*
X69087017Y-34232900D01*
X69154056Y-34252585D01*
G37*
%TD.AperFunction*%
%TA.AperFunction,Conductor*%
G36*
X78788895Y-35194438D02*
G01*
X78810984Y-35196018D01*
X78821767Y-35204090D01*
X78834689Y-35207885D01*
X78849188Y-35224618D01*
X78866917Y-35237890D01*
X78871624Y-35250510D01*
X78880444Y-35260689D01*
X78883595Y-35282606D01*
X78891334Y-35303354D01*
X78888471Y-35316514D01*
X78890388Y-35329847D01*
X78881188Y-35349990D01*
X78876482Y-35371627D01*
X78863213Y-35389352D01*
X78861363Y-35393403D01*
X78855331Y-35399881D01*
X78794988Y-35460223D01*
X78794985Y-35460227D01*
X78794984Y-35460229D01*
X78737043Y-35573945D01*
X78737042Y-35573946D01*
X78737042Y-35573948D01*
X78736479Y-35577503D01*
X78734595Y-35581476D01*
X78734025Y-35583231D01*
X78733798Y-35583157D01*
X78706547Y-35640637D01*
X78647235Y-35677566D01*
X78614006Y-35682101D01*
X76948464Y-35682101D01*
X76881425Y-35662416D01*
X76879574Y-35661204D01*
X76874137Y-35657571D01*
X76866358Y-35652373D01*
X76866357Y-35652372D01*
X76866356Y-35652372D01*
X76866354Y-35652371D01*
X76821759Y-35643501D01*
X75267645Y-35643501D01*
X75223041Y-35652373D01*
X75223038Y-35652374D01*
X75172466Y-35686166D01*
X75138671Y-35736744D01*
X75138670Y-35736746D01*
X75129800Y-35781341D01*
X75129800Y-36268654D01*
X75129801Y-36268657D01*
X75138672Y-36313259D01*
X75138672Y-36313260D01*
X75141055Y-36325236D01*
X75137962Y-36325851D01*
X75143322Y-36359337D01*
X75141581Y-36382387D01*
X75138672Y-36386741D01*
X75129800Y-36431342D01*
X75129800Y-36538362D01*
X75129448Y-36543026D01*
X75118691Y-36571517D01*
X75110115Y-36600726D01*
X75106473Y-36603881D01*
X75104770Y-36608393D01*
X75080313Y-36626549D01*
X75057311Y-36646481D01*
X75049140Y-36649867D01*
X75040606Y-36653050D01*
X74925512Y-36739210D01*
X74925509Y-36739213D01*
X74839349Y-36854307D01*
X74839345Y-36854314D01*
X74789103Y-36989021D01*
X74789101Y-36989028D01*
X74782700Y-37048556D01*
X74782700Y-37096401D01*
X77306700Y-37096401D01*
X77306700Y-37048573D01*
X77306699Y-37048556D01*
X77300298Y-36989028D01*
X77300296Y-36989021D01*
X77250054Y-36854314D01*
X77250050Y-36854307D01*
X77163890Y-36739213D01*
X77163887Y-36739210D01*
X77048792Y-36653049D01*
X77048788Y-36653047D01*
X77040262Y-36649867D01*
X77022539Y-36636599D01*
X77002396Y-36627400D01*
X76995112Y-36616065D01*
X76984330Y-36607994D01*
X76976593Y-36587250D01*
X76964622Y-36568622D01*
X76961469Y-36546697D01*
X76959915Y-36542529D01*
X76959599Y-36533687D01*
X76959599Y-36491901D01*
X76979284Y-36424862D01*
X77032088Y-36379107D01*
X77083599Y-36367901D01*
X78682377Y-36367901D01*
X78749416Y-36387586D01*
X78792864Y-36435610D01*
X78794982Y-36439769D01*
X78794984Y-36439771D01*
X78885229Y-36530016D01*
X78998945Y-36587957D01*
X78998947Y-36587957D01*
X78998949Y-36587958D01*
X79097250Y-36603527D01*
X79160385Y-36633456D01*
X79197317Y-36692767D01*
X79196319Y-36762629D01*
X79157710Y-36820862D01*
X79093747Y-36848977D01*
X79077874Y-36850000D01*
X79075039Y-36850000D01*
X79075012Y-36850001D01*
X78972302Y-36860494D01*
X78805880Y-36915641D01*
X78805875Y-36915643D01*
X78656654Y-37007684D01*
X78532684Y-37131654D01*
X78440643Y-37280875D01*
X78440641Y-37280880D01*
X78385494Y-37447302D01*
X78385493Y-37447309D01*
X78375000Y-37550013D01*
X78375000Y-37600000D01*
X80824999Y-37600000D01*
X80824999Y-37550028D01*
X80824998Y-37550013D01*
X80814505Y-37447302D01*
X80759358Y-37280880D01*
X80759356Y-37280875D01*
X80667315Y-37131654D01*
X80543345Y-37007684D01*
X80394124Y-36915643D01*
X80394119Y-36915641D01*
X80227697Y-36860494D01*
X80227690Y-36860493D01*
X80124986Y-36850000D01*
X80122152Y-36850000D01*
X80055113Y-36830315D01*
X80009358Y-36777511D01*
X79999414Y-36708353D01*
X80028439Y-36644797D01*
X80087217Y-36607023D01*
X80102754Y-36603527D01*
X80201050Y-36587958D01*
X80201050Y-36587957D01*
X80201055Y-36587957D01*
X80314771Y-36530016D01*
X80405016Y-36439771D01*
X80445352Y-36360604D01*
X80455801Y-36349541D01*
X80462124Y-36335697D01*
X80479303Y-36324656D01*
X80493326Y-36309809D01*
X80509007Y-36305567D01*
X80520902Y-36297923D01*
X80555837Y-36292900D01*
X80601345Y-36292900D01*
X80668384Y-36312585D01*
X80708732Y-36354900D01*
X80757567Y-36439485D01*
X80757569Y-36439488D01*
X80757570Y-36439489D01*
X80860511Y-36542430D01*
X80860512Y-36542431D01*
X80860514Y-36542432D01*
X80905877Y-36568622D01*
X80986589Y-36615221D01*
X81127209Y-36652900D01*
X81127211Y-36652900D01*
X81272788Y-36652900D01*
X81272791Y-36652900D01*
X81413411Y-36615221D01*
X81539489Y-36542430D01*
X81642430Y-36439489D01*
X81715221Y-36313411D01*
X81752900Y-36172791D01*
X81752900Y-36027209D01*
X81715221Y-35886589D01*
X81654459Y-35781346D01*
X81642432Y-35760514D01*
X81642428Y-35760509D01*
X81539490Y-35657571D01*
X81539485Y-35657567D01*
X81413413Y-35584780D01*
X81413412Y-35584779D01*
X81413411Y-35584779D01*
X81272791Y-35547100D01*
X81127209Y-35547100D01*
X80986589Y-35584779D01*
X80986588Y-35584779D01*
X80986586Y-35584780D01*
X80976704Y-35590486D01*
X80914702Y-35607100D01*
X80555837Y-35607100D01*
X80488798Y-35587415D01*
X80455329Y-35555724D01*
X80449712Y-35547950D01*
X80405016Y-35460229D01*
X80337652Y-35392865D01*
X80331842Y-35384824D01*
X80323362Y-35360861D01*
X80311184Y-35338558D01*
X80311904Y-35328481D01*
X80308534Y-35318956D01*
X80314355Y-35294216D01*
X80316168Y-35268866D01*
X80322223Y-35260777D01*
X80324537Y-35250944D01*
X80342808Y-35233278D01*
X80358040Y-35212933D01*
X80367505Y-35209402D01*
X80374769Y-35202380D01*
X80399691Y-35197397D01*
X80423504Y-35188516D01*
X80432350Y-35188200D01*
X82186324Y-35188200D01*
X82253363Y-35207885D01*
X82274005Y-35224519D01*
X86604905Y-39555419D01*
X86638390Y-39616742D01*
X86633406Y-39686434D01*
X86591534Y-39742367D01*
X86526070Y-39766784D01*
X86517224Y-39767100D01*
X76130733Y-39767100D01*
X76063694Y-39747415D01*
X76043052Y-39730781D01*
X75227551Y-38915280D01*
X75194066Y-38853957D01*
X75199050Y-38784265D01*
X75240922Y-38728332D01*
X75306386Y-38703915D01*
X75315232Y-38703599D01*
X75816100Y-38703599D01*
X76273300Y-38703599D01*
X76854528Y-38703599D01*
X76854544Y-38703598D01*
X76914072Y-38697197D01*
X76914079Y-38697195D01*
X77048786Y-38646953D01*
X77048793Y-38646949D01*
X77163887Y-38560789D01*
X77163890Y-38560786D01*
X77250050Y-38445692D01*
X77250054Y-38445685D01*
X77300296Y-38310978D01*
X77300298Y-38310971D01*
X77306699Y-38251443D01*
X77306700Y-38251426D01*
X77306700Y-38203599D01*
X76273300Y-38203599D01*
X76273300Y-38703599D01*
X75816100Y-38703599D01*
X75816100Y-38203599D01*
X74782700Y-38203599D01*
X74769176Y-38217122D01*
X74763015Y-38238106D01*
X74710211Y-38283861D01*
X74641053Y-38293805D01*
X74577497Y-38264780D01*
X74571019Y-38258748D01*
X74462257Y-38149986D01*
X78375001Y-38149986D01*
X78385494Y-38252697D01*
X78440641Y-38419119D01*
X78440643Y-38419124D01*
X78532684Y-38568345D01*
X78656654Y-38692315D01*
X78805875Y-38784356D01*
X78805880Y-38784358D01*
X78972302Y-38839505D01*
X78972309Y-38839506D01*
X79075019Y-38849999D01*
X79349999Y-38849999D01*
X79850000Y-38849999D01*
X80124972Y-38849999D01*
X80124986Y-38849998D01*
X80227697Y-38839505D01*
X80394119Y-38784358D01*
X80394124Y-38784356D01*
X80543345Y-38692315D01*
X80667315Y-38568345D01*
X80759356Y-38419124D01*
X80759358Y-38419119D01*
X80814505Y-38252697D01*
X80814506Y-38252690D01*
X80824999Y-38149986D01*
X80825000Y-38149973D01*
X80825000Y-38100000D01*
X79850000Y-38100000D01*
X79850000Y-38849999D01*
X79349999Y-38849999D01*
X79350000Y-38849998D01*
X79350000Y-38100000D01*
X78375001Y-38100000D01*
X78375001Y-38149986D01*
X74462257Y-38149986D01*
X74010835Y-37698564D01*
X74782700Y-37698564D01*
X74782700Y-37746399D01*
X77306700Y-37746399D01*
X77306700Y-37698581D01*
X77306698Y-37698561D01*
X77302903Y-37663255D01*
X77302903Y-37636745D01*
X77306698Y-37601438D01*
X77306700Y-37601419D01*
X77306700Y-37553601D01*
X74784324Y-37553601D01*
X74787148Y-37646220D01*
X74786496Y-37648720D01*
X74786496Y-37663252D01*
X74782700Y-37698564D01*
X74010835Y-37698564D01*
X72906518Y-36594247D01*
X72894341Y-36571946D01*
X72878770Y-36551866D01*
X72876327Y-36538957D01*
X72873033Y-36532924D01*
X72870683Y-36517511D01*
X72870199Y-36512049D01*
X72870199Y-36431343D01*
X72861328Y-36386741D01*
X72858753Y-36382888D01*
X72856809Y-36360944D01*
X72860074Y-36344599D01*
X72858287Y-36328026D01*
X72859099Y-36325265D01*
X72858945Y-36325235D01*
X72861326Y-36313260D01*
X72861328Y-36313259D01*
X72870200Y-36268658D01*
X72870199Y-35781345D01*
X72861328Y-35736743D01*
X72861326Y-35736741D01*
X72861326Y-35736739D01*
X72827534Y-35686167D01*
X72784737Y-35657571D01*
X72776958Y-35652373D01*
X72776957Y-35652372D01*
X72776956Y-35652372D01*
X72776954Y-35652371D01*
X72732359Y-35643501D01*
X72732357Y-35643501D01*
X72312200Y-35643501D01*
X72245161Y-35623816D01*
X72199406Y-35571012D01*
X72188200Y-35519501D01*
X72188200Y-35312200D01*
X72207885Y-35245161D01*
X72260689Y-35199406D01*
X72312200Y-35188200D01*
X78767650Y-35188200D01*
X78788895Y-35194438D01*
G37*
%TD.AperFunction*%
%TD*%
M02*
